<?xml version="1.0" encoding="UTF-8"?>
<svg width="485px" height="454px" viewBox="0 0 485 454" version="1.1" xmlns="http://www.w3.org/2000/svg" xmlns:xlink="http://www.w3.org/1999/xlink">
    <!-- Generator: Sketch 43.2 (39069) - http://www.bohemiancoding.com/sketch -->
    <title>logo-rounded</title>
    <desc>Created with Sketch.</desc>
    <defs></defs>
    <g id="Page-1" stroke="none" stroke-width="1" fill="none" fill-rule="evenodd">
        <g id="logo-rounded" fill-rule="nonzero" fill="#000000">
            <path d="M448.433594,1.06179301 C459.932608,1.06179301 497.84375,7.94921875 479,28.3320312 C460.15625,48.7148438 439.73018,46.2668064 419.789063,80.6816203 C390.328125,131.525947 365.427682,262.428958 363.05404,280.007653 C358.457122,314.01179 350.973167,344.671257 337.790323,368.837733 C324.162822,393.82345 305.281089,412.386139 281.082825,425.169004 C232.55956,450.800183 144.464134,453.336896 144.464134,453.336896 L32.7382813,453.336896 C-22.4609375,453.336896 10.1289063,424.964844 41.1914062,402.640625 C52.1627337,394.755673 71.140625,372.886719 85.6875,353.273438 C100.234375,333.660156 137.712679,120.837962 144.464134,77.4339961 C125.277371,76.4454906 92.9548537,76.278483 75.7421875,80.6816203 C57.3931801,85.3781498 7.34598628e-14,113.140395 5.68434189e-14,97.3287016 C11.8918409,65.8567638 35.125,26.9862351 55.4335938,14.0240141 C75.7421875,1.06179301 97.2082435,1.83363975 107.860635,1.06179301 C140.552457,-1.30565501 448.433594,1.06179301 448.433594,1.06179301 Z M309.415039,129.439453 C322.270508,102.34668 326.246094,80.5611781 309.415039,80.5611781 C304.460204,80.5611781 272.754821,80.9035267 255.380023,84.4605528 C238.005225,88.0175789 198.050781,331.761719 180.875,354.476563 C163.699219,377.191406 167.360173,383.648437 169.378906,383.648437 C215.089844,383.648437 234.244782,366.484909 244.812403,347.694603 C255.380023,328.904297 302.830251,143.316829 309.415039,129.439453 Z" id="Combined-Shape"></path>
        </g>
    </g>
</svg>