<?xml version="1.0" encoding="utf-8"?>
<!-- Generator: Adobe Illustrator 21.1.0, SVG Export Plug-In . SVG Version: 6.00 Build 0)  -->
<svg version="1.1" id="Layer_1" xmlns="http://www.w3.org/2000/svg" xmlns:xlink="http://www.w3.org/1999/xlink" x="0px" y="0px"
	 viewBox="0 0 73.2 80" style="enable-background:new 0 0 73.2 80;" xml:space="preserve">
<style type="text/css">
	.st0{fill:#FFFFFF;}
</style>
<g>
	<g>
		<circle class="st0" cx="36.6" cy="35.9" r="3.2"/>
		<path class="st0" d="M66.9,48.3C62,59.7,50.7,67.7,37.6,67.7C20,67.7,5.7,53.4,5.7,35.9S20,4.1,37.6,4.1c13.1,0,24.5,8,29.3,19.4
			h4.4C66.2,9.8,53,0,37.6,0C17.8,0,1.7,16.1,1.7,35.9s16.1,35.9,35.9,35.9c15.4,0,28.6-9.8,33.7-23.5H66.9z"/>
		<polyline class="st0" points="39.4,68.6 36.6,74.6 4.5,6.6 0,6.6 34.7,80 38.5,80 73.2,6.6 68.7,6.6 39.4,68.6 		"/>
	</g>
</g>
</svg>
