<?xml version="1.0" encoding="utf-8"?>
<!-- Generator: Adobe Illustrator 21.1.0, SVG Export Plug-In . SVG Version: 6.00 Build 0)  -->
<svg version="1.1" id="Layer_1" xmlns="http://www.w3.org/2000/svg" xmlns:xlink="http://www.w3.org/1999/xlink" x="0px" y="0px"
	 viewBox="0 0 1600 1554.2" style="enable-background:new 0 0 1600 1554.2;" xml:space="preserve">
<style type="text/css">
	.st0{fill:#1A1A1A;}
	.st1{clip-path:url(#SVGID_2_);}
	.st2{fill:none;stroke:#000000;stroke-width:1.25;stroke-miterlimit:10;}
	.st3{fill:none;stroke:#000000;stroke-miterlimit:10;}
	.st4{clip-path:url(#SVGID_4_);}
	.st5{clip-path:url(#SVGID_6_);}
	.st6{fill:none;stroke:#000000;stroke-width:3;stroke-miterlimit:10;}
	.st7{clip-path:url(#SVGID_8_);}
	.st8{clip-path:url(#SVGID_10_);}
	.st9{clip-path:url(#SVGID_12_);}
	.st10{clip-path:url(#SVGID_14_);}
	.st11{clip-path:url(#SVGID_16_);}
	.st12{fill:none;stroke:#000000;stroke-width:1.2511;stroke-miterlimit:10;}
	.st13{fill:none;stroke:#000000;stroke-width:1.2523;stroke-miterlimit:10;}
	.st14{fill:none;stroke:#000000;stroke-width:1.2534;stroke-miterlimit:10;}
	.st15{fill:none;stroke:#000000;stroke-width:1.2546;stroke-miterlimit:10;}
	.st16{fill:none;stroke:#000000;stroke-width:1.2557;stroke-miterlimit:10;}
	.st17{fill:none;stroke:#000000;stroke-width:1.2569;stroke-miterlimit:10;}
	.st18{fill:none;stroke:#000000;stroke-width:1.258;stroke-miterlimit:10;}
	.st19{fill:none;stroke:#000000;stroke-width:1.2591;stroke-miterlimit:10;}
	.st20{fill:none;stroke:#000000;stroke-width:1.2603;stroke-miterlimit:10;}
	.st21{fill:none;stroke:#000000;stroke-width:1.2614;stroke-miterlimit:10;}
	.st22{fill:none;stroke:#000000;stroke-width:1.2626;stroke-miterlimit:10;}
	.st23{fill:none;stroke:#000000;stroke-width:1.2637;stroke-miterlimit:10;}
	.st24{fill:none;stroke:#000000;stroke-width:1.2649;stroke-miterlimit:10;}
	.st25{fill:none;stroke:#000000;stroke-width:1.266;stroke-miterlimit:10;}
	.st26{fill:none;stroke:#000000;stroke-width:1.2671;stroke-miterlimit:10;}
	.st27{fill:none;stroke:#000000;stroke-width:1.2683;stroke-miterlimit:10;}
	.st28{fill:none;stroke:#000000;stroke-width:1.2694;stroke-miterlimit:10;}
	.st29{fill:none;stroke:#000000;stroke-width:1.2706;stroke-miterlimit:10;}
	.st30{fill:none;stroke:#000000;stroke-width:1.2717;stroke-miterlimit:10;}
	.st31{fill:none;stroke:#000000;stroke-width:1.2729;stroke-miterlimit:10;}
	.st32{fill:none;stroke:#000000;stroke-width:1.274;stroke-miterlimit:10;}
	.st33{fill:none;stroke:#000000;stroke-width:1.2751;stroke-miterlimit:10;}
	.st34{fill:none;stroke:#000000;stroke-width:1.2763;stroke-miterlimit:10;}
	.st35{fill:none;stroke:#000000;stroke-width:1.2774;stroke-miterlimit:10;}
	.st36{fill:none;stroke:#000000;stroke-width:1.2786;stroke-miterlimit:10;}
	.st37{fill:none;stroke:#000000;stroke-width:1.2797;stroke-miterlimit:10;}
	.st38{fill:none;stroke:#000000;stroke-width:1.2809;stroke-miterlimit:10;}
	.st39{fill:none;stroke:#000000;stroke-width:1.282;stroke-miterlimit:10;}
	.st40{fill:none;stroke:#000000;stroke-width:1.2831;stroke-miterlimit:10;}
	.st41{fill:none;stroke:#000000;stroke-width:1.2843;stroke-miterlimit:10;}
	.st42{fill:none;stroke:#000000;stroke-width:1.2854;stroke-miterlimit:10;}
	.st43{fill:none;stroke:#000000;stroke-width:1.2866;stroke-miterlimit:10;}
	.st44{fill:none;stroke:#000000;stroke-width:1.2877;stroke-miterlimit:10;}
	.st45{fill:none;stroke:#000000;stroke-width:1.2889;stroke-miterlimit:10;}
	.st46{fill:none;stroke:#000000;stroke-width:1.29;stroke-miterlimit:10;}
	.st47{fill:none;stroke:#000000;stroke-width:1.2911;stroke-miterlimit:10;}
	.st48{fill:none;stroke:#000000;stroke-width:1.2923;stroke-miterlimit:10;}
	.st49{fill:none;stroke:#000000;stroke-width:1.2934;stroke-miterlimit:10;}
	.st50{fill:none;stroke:#000000;stroke-width:1.2946;stroke-miterlimit:10;}
	.st51{fill:none;stroke:#000000;stroke-width:1.2957;stroke-miterlimit:10;}
	.st52{fill:none;stroke:#000000;stroke-width:1.2968;stroke-miterlimit:10;}
	.st53{fill:none;stroke:#000000;stroke-width:1.298;stroke-miterlimit:10;}
	.st54{clip-path:url(#SVGID_16_);fill:none;stroke:#000000;stroke-width:1.298;stroke-miterlimit:10;}
	.st55{clip-path:url(#SVGID_18_);}
	.st56{clip-path:url(#SVGID_18_);fill:none;stroke:#000000;stroke-width:2.6222;stroke-miterlimit:10;}
	.st57{clip-path:url(#SVGID_20_);}
	.st58{clip-path:url(#SVGID_22_);}
	.st59{clip-path:url(#SVGID_24_);}
</style>
<g>
	<defs>
		<rect id="SVGID_23_" x="0" y="0" width="1600" height="1554.2"/>
	</defs>
	<clipPath id="SVGID_2_">
		<use xlink:href="#SVGID_23_"  style="overflow:visible;"/>
	</clipPath>
	<g class="st1">
		<path class="st6" d="M1717.3,1575.4c-170.8-86.1-388.5-260.2-491.3-402c-60.7-83.8-78.1-148.5-72.8-195.4s31.4-78.4,50.9-114.8
			c34.7-64.9,48.3-146.1,40.4-241.8c-1.2-14.5-4.6-32.1-27.1-56.4c-12.7-13.6-29.4-27.1-45.8-39.1c-106.1-77.8-200.1-103-248.6-92.1
			c-83.3,18.8-73,115.7-77.4,198c-4.5,82.4-34.2,155.3-170.1,119c-20-5.3-43.7-13.9-70.5-32c-32.3-21.7-61.6-52.4-78.1-76.7
			c-16.4-24.3-22.3-43.6-28-62.3c-19.4-64.1-38.7-128.2-58.1-192.3c-10.5-34.6-26.7-77.1-80.1-126.3
			C310.3,214.6,249,183,201.9,165.2s-90.5-29-145.4-60.8c-9.2-5.3-19.2-11.6-28.1-19.3C10.3,69.4,4.5,54.9,1.2,43.6
			c-11-37.7-22-75.5-33.1-113.2"/>
		<path class="st6" d="M-45.5-59.4c10.7,37.9,21.6,76,32.9,114.2c1.4,4.9,3.3,10.3,6.4,16.2c4.1,7.9,10.5,16.6,21,25.8
			c5.8,5,12,9.5,18.3,13.5c3.3,2.1,6.7,4.1,9.9,6c26.8,15.7,50.8,26.1,73.3,34.2c24.8,8.9,48.5,15.4,73.1,23.9
			c47.2,16.2,108.8,45.6,160.8,91.5c20.4,18,35.6,35.4,47.5,52.3c19,26.9,28.3,51.6,35.2,73.1c2.1,6.6,4.2,13.1,6.2,19.6
			c4.5,14.2,8.6,28,12.5,41.8c12.3,44.1,22.9,87,34.5,131c5.1,19,10.7,39,27.1,64.1c16.3,25,45.6,56.7,78.2,79.5
			c26.6,18.6,50.5,28.1,71.3,34.3c5.7,1.7,11.3,3.2,16.8,4.5c43,10.5,74.7,8.4,97.4-1.8c43.1-19.3,55.8-66.7,59-118
			c0.1-1.4,0.2-2.9,0.2-4.3c4.4-84.5-4.3-180.5,77.1-204.8c13.2-3.9,29.4-6.1,48.8-4.6c12.4,1,26.1,3.3,41.9,8.1
			c36.4,10.8,79.6,31,124.3,59.9c14.9,9.6,29.9,20.2,45,31.6c14.8,11.3,29.5,23.6,41.7,36c2.1,2.1,4.1,4.2,6,6.3
			c23.1,25.5,27.4,44.3,28.9,59.9c8.9,93.4-5,173.1-38.4,236.9c-18.7,35.7-43.9,66.7-48.9,112.6c-4.9,46.2,12.2,109.6,71.4,191.5
			c73.5,101.9,207,220.6,339.2,310.7c48.1,32.7,96.1,61.6,140.9,84.4"/>
		<path class="st6" d="M-59.1-49.1c10.3,38,21.2,76.4,32.7,115.2c1.5,4.9,3.4,10.4,6.4,16.3c4.1,8,10.5,16.8,21,26.2
			c5.8,5.1,12,9.6,18.3,13.7c3.4,2.2,6.7,4.2,10,6.1c27.3,16.2,51.7,26.5,74,33.9c24.9,8.3,48.7,13.8,73.4,21.4
			c47.3,14.6,109.2,41.7,162.9,87.2c20.5,17.4,36.1,34.5,48.7,51.6c19.5,26.5,29.3,51.3,36.6,72.8c2.3,6.6,4.4,13.2,6.6,19.6
			c4.8,14.5,8.9,28.3,12.4,42.1c11.4,44.4,19.3,86.4,29.4,130.6c4.4,19.4,9.8,40,26.1,65.9c16.3,25.7,45.4,58.3,78.4,82.3
			c26.3,19.1,50.4,29.5,72,36.6c5.8,1.9,11.5,3.5,17,4.9c44.1,11.8,76.5,10.1,99.5,0.1c44.7-19.5,56.8-68.4,59.8-121
			c0.1-1.5,0.2-3,0.2-4.4c4.3-86.7-2.6-182.1,76.7-211.6c13.4-5,29.6-8.9,49.4-8.5c12.6,0.3,26.7,2.2,44.2,7.5
			c38,11.6,84.4,34,130.7,64.8c15.8,10.5,31.5,21.9,47,34.1c15.6,12.3,30.8,25.6,43.3,38.8c2.1,2.3,4.2,4.5,6.2,6.8
			c23.5,26.8,28.8,46.7,30.6,63.5c9.7,91.3-4.3,169.3-36.4,231.9c-18,35-42.3,65.4-46.9,110.3c-4.6,45.4,12.3,107.6,69.9,187.6
			c71.7,99.8,201.7,216.2,331.2,305.1c46.9,32.1,93.7,60.5,137.7,83"/>
		<path class="st6" d="M-72.7-38.9c9.9,38.2,20.8,76.9,32.6,116.2c1.5,5,3.4,10.5,6.5,16.4c4.1,8,10.4,17,21,26.5
			c5.7,5.1,12,9.7,18.4,13.9c3.4,2.2,6.7,4.3,10,6.2c27.8,16.7,52.6,26.9,74.6,33.7c25.1,7.7,48.9,12.2,73.7,18.9
			c47.5,13,109.6,37.9,164.9,82.8c20.6,16.8,36.6,33.6,49.8,50.8c20,26.1,30.3,51,38.1,72.5c2.4,6.6,4.7,13.2,6.9,19.7
			c5.2,14.9,9.1,28.7,12.3,42.4c10.5,44.7,15.7,85.9,24.3,130.3c3.8,19.7,8.9,41,25.2,67.7c16.2,26.5,45.2,59.9,78.6,85.1
			c26,19.5,50.3,30.9,72.7,38.9c5.9,2.1,11.6,3.8,17.3,5.4c45.2,13.2,78.4,11.8,101.6,2c46.2-19.7,57.7-70.1,60.7-123.9
			c0.1-1.5,0.2-3,0.2-4.5c4.2-88.9-0.8-184.1,76.3-218.4c13.7-6.1,29.7-11.8,50.1-12.4c12.8-0.4,27.4,1,46.5,6.9
			c39.7,12.3,89.2,37,137.1,69.7c16.7,11.4,33.1,23.6,49,36.7c16.3,13.3,32,27.6,45,41.6c2.2,2.4,4.4,4.9,6.4,7.3
			c24,28,30.3,49.2,32.3,67c10.4,89.1-3.7,165.6-34.4,227c-17.3,34.3-40.7,64.2-44.9,108.1c-4.3,44.6,12.4,105.5,68.4,183.7
			c69.9,97.8,196.5,211.8,323.2,299.6c45.7,31.4,91.4,59.4,134.5,81.6"/>
		<path class="st6" d="M-86.3-28.6c9.6,38.3,20.4,77.4,32.4,117.2c1.5,5,3.5,10.6,6.5,16.6c4.1,8.1,10.4,17.1,21,26.8
			c5.7,5.1,12,9.8,18.5,14.1c3.4,2.2,6.8,4.3,10.1,6.3c28.4,17.1,53.5,27.3,75.3,33.4c25.2,7.1,49.2,10.6,74.1,16.5
			c47.7,11.4,109.9,34,167,78.4c20.8,16.2,37,32.7,51,50.1c20.5,25.7,31.3,50.7,39.5,72.2c2.5,6.6,4.9,13.2,7.2,19.7
			c5.5,15.2,9.3,29.1,12.2,42.7c9.6,45.1,12,85.4,19.2,130c3.2,20,8,42,24.3,69.6c16.2,27.2,45,61.5,78.8,87.9
			c25.7,20,50.3,32.3,73.5,41.2c5.9,2.2,11.8,4.1,17.5,5.9c46.3,14.5,80.3,13.6,103.7,3.8c47.7-19.9,58.7-71.8,61.6-126.9
			c0.1-1.5,0.2-3.1,0.2-4.6c4.1-91.1,1-186.5,75.9-225.2c14-7.2,29.9-14.6,50.7-16.2c13-1,28-0.1,48.8,6.3
			c41.4,12.9,94,40,143.4,74.6c17.6,12.3,34.6,25.4,51,39.2c17.1,14.4,33.2,29.6,46.6,44.5c2.3,2.6,4.5,5.2,6.6,7.7
			c24.5,29.2,31.7,51.6,34.1,70.6c10.9,87-3,161.8-32.4,222.1c-16.5,33.6-39.1,63-42.9,105.9c-4,43.8,12.4,103.4,66.9,179.8
			c68.1,95.8,191,207.6,315.1,294c44.4,30.9,89.1,58.3,131.3,80.2"/>
		<path class="st6" d="M-99.9-18.4c9.2,38.4,20,77.9,32.3,118.2c1.6,5.1,3.5,10.7,6.5,16.7c4.1,8.2,10.3,17.3,21.1,27.1
			c5.7,5.2,12,9.9,18.6,14.3c3.4,2.3,6.8,4.4,10.1,6.4c28.9,17.6,54.4,27.7,76,33.2c25.4,6.5,49.4,8.9,74.4,14
			c47.9,9.8,110.2,30.2,169.1,74.1c20.9,15.6,37.5,31.7,52.1,49.4c21,25.3,32.3,50.4,40.9,71.9c2.7,6.7,5.1,13.3,7.5,19.7
			c5.8,15.6,9.6,29.4,12.2,43c8.7,45.4,8.4,84.9,14.1,129.7c2.6,20.3,7.1,43,23.3,71.4c16.1,27.9,44.8,63.1,79,90.7
			c25.4,20.5,50.2,33.7,74.2,43.4c6,2.4,11.9,4.4,17.8,6.3c47.4,15.9,82.2,15.3,105.8,5.7c49.3-20.1,59.7-73.5,62.5-129.8
			c0.1-1.6,0.2-3.2,0.2-4.8c4-93.2,2.7-189.2,75.5-232c14.3-8.4,30-17.4,51.4-20.1c13.2-1.7,28.7-1.3,51.1,5.8
			c43.1,13.6,98.7,43,149.8,79.4c18.5,13.2,36.2,27.1,53.1,41.7c17.9,15.4,34.5,31.6,48.2,47.3c2.4,2.7,4.7,5.5,6.9,8.2
			c24.9,30.4,33.1,54,35.8,74.1c11.4,84.8-2.2,158.1-30.5,217.2c-15.7,33-37.4,61.8-40.9,103.6c-3.6,43.1,12.5,101.3,65.5,175.8
			c66.3,93.8,185.7,203.3,307.1,288.4c43.2,30.3,86.7,57.2,128.1,78.9"/>
		<path class="st6" d="M-113.5-8.1c8.9,38.6,19.6,78.4,32.1,119.2c1.6,5.2,3.6,10.8,6.6,16.9c4.1,8.2,10.3,17.5,21.1,27.4
			c5.7,5.2,12,10,18.6,14.5c3.4,2.3,6.8,4.5,10.2,6.5c29.5,18.1,55.3,28.1,76.6,32.9c25.5,5.8,49.6,7.3,74.7,11.6
			c48,8.2,110.5,26.4,171.2,69.7c21,15,38,30.8,53.3,48.7c21.4,25,33.3,50.2,42.4,71.6c2.8,6.7,5.4,13.3,7.9,19.7
			c6.2,16,9.8,29.8,12.1,43.3c7.7,45.8,4.7,84.4,9,129.4c2,20.7,6.2,44.1,22.4,73.2c16,28.6,44.6,64.7,79.2,93.5
			c25.2,20.9,50.1,35.1,75,45.7c6,2.6,12.1,4.7,18,6.8c48.4,17.3,84.1,17.1,107.9,7.6c50.8-20.3,60.6-75.3,63.3-132.7
			c0.1-1.6,0.1-3.2,0.2-4.9c3.9-95.4,4.4-192.1,75.1-238.8c14.6-9.6,30.1-20.2,52-24c13.4-2.3,29.4-2.5,53.4,5.2
			c44.8,14.3,103.5,46,156.2,84.3c19.4,14.1,37.7,28.9,55.1,44.2c18.6,16.5,35.7,33.5,49.9,50.1c2.5,2.9,4.8,5.8,7.1,8.6
			c25.4,31.7,34.5,56.4,37.5,77.7c11.7,82.7-1.5,154.3-28.5,212.3c-15,32.3-35.8,60.5-39,101.4c-3.3,42.3,12.6,99.3,64,171.9
			c64.5,91.8,180.4,198.9,299.1,282.8c42,29.7,84.4,56.1,124.9,77.5"/>
		<path class="st6" d="M-127.1,2.1c8.5,38.7,19.2,78.9,32,120.2c1.6,5.2,3.6,10.9,6.6,17c4.1,8.3,10.3,17.7,21.1,27.7
			c5.7,5.3,12,10.1,18.7,14.7c3.4,2.3,6.9,4.5,10.2,6.6c30,18.6,56.2,28.4,77.3,32.7c25.7,5.2,49.9,5.7,75.1,9.1
			c48.2,6.6,110.8,22.6,173.3,65.3c21,14.4,38.4,29.9,54.5,48c21.8,24.6,34.3,49.9,43.8,71.3c3,6.7,5.6,13.3,8.2,19.7
			c6.6,16.3,10.1,30.2,12,43.6c6.8,46.1,1,84,3.9,129.1c1.3,21,5.3,45.1,21.5,75c16,29.4,44.4,66.3,79.4,96.2
			c24.9,21.3,50,36.5,75.7,48c6.1,2.7,12.2,5,18.3,7.3c49.5,18.7,86,18.8,110,9.4c52.3-20.5,61.6-77,64.2-135.7
			c0.1-1.7,0.1-3.3,0.2-5c3.8-97.6,6-195.3,74.8-245.5c14.9-10.9,30.3-23,52.7-27.9c13.6-3,30-3.7,55.7,4.6
			c46.5,14.9,108.3,49,162.5,89.2c20.3,15,39.3,30.6,57.1,46.7c19.4,17.5,36.9,35.5,51.5,52.9c2.5,3,5,6.1,7.3,9.1
			c25.9,32.9,35.9,58.8,39.3,81.2c12,80.6-0.8,150.5-26.5,207.4c-14.3,31.6-34.1,59.3-37,99.2c-3,41.6,12.7,97.2,62.5,168
			c62.7,89.7,175.1,194.5,291.1,277.2c40.8,29.1,82.1,55,121.7,76.1"/>
		<path class="st6" d="M-140.7,12.4c8.2,38.9,18.8,79.3,31.8,121.2c1.6,5.3,3.7,11,6.6,17.1c4.1,8.4,10.2,17.9,21.1,28.1
			c5.7,5.3,12,10.2,18.8,14.9c3.5,2.4,6.9,4.6,10.3,6.7c30.5,19.1,57.1,28.8,78,32.4c25.9,4.5,50.1,4.1,75.4,6.7
			c48.4,5,111,18.8,175.3,61c21.1,13.8,38.8,29,55.6,47.3c22.2,24.3,35.3,49.6,45.3,71.1c3.1,6.7,5.9,13.4,8.5,19.7
			c6.9,16.7,10.3,30.5,12,44c5.8,46.5-2.7,83.5-1.2,128.8c0.7,21.4,4.4,46.1,20.5,76.8c15.9,30.1,44.2,67.9,79.5,99
			c24.7,21.8,50,37.8,76.5,50.3c6.1,2.9,12.4,5.3,18.5,7.7c50.6,20.1,88,20.6,112.1,11.3c53.9-20.7,62.5-78.7,65.1-138.6
			c0.1-1.7,0.1-3.4,0.2-5.1c3.7-99.8,7.5-198.7,74.4-252.3c15.2-12.2,30.4-25.8,53.3-31.8c13.8-3.6,30.7-4.8,58,4
			c48.2,15.6,113,52.1,168.9,94.1c21.2,16,40.8,32.4,59.1,49.2c20.2,18.6,38.2,37.5,53.1,55.7c2.6,3.2,5.1,6.4,7.6,9.6
			c26.4,34.1,37.3,61.2,41,84.8c12.2,78.4-0.1,146.8-24.5,202.5c-13.5,30.9-32.5,58.1-35,96.9c-2.6,40.8,12.8,95.1,61.1,164.1
			c60.9,87.7,169.8,190.2,283.1,271.6c39.6,28.5,79.7,53.9,118.4,74.7"/>
		<path class="st6" d="M-154.3,22.6c7.8,39,18.4,79.8,31.7,122.2c1.7,5.4,3.7,11.1,6.7,17.3c4.1,8.4,10.2,18,21.1,28.4
			c5.6,5.3,12,10.3,18.8,15.1c3.5,2.4,6.9,4.6,10.3,6.8c31.1,19.5,58.1,29.1,78.7,32.2c26.1,3.9,50.3,2.5,75.7,4.2
			c48.5,3.4,111.2,15.1,177.4,56.6c21.2,13.3,39.3,28.1,56.8,46.6c22.6,23.9,36.3,49.3,46.7,70.8c3.3,6.7,6.1,13.4,8.8,19.8
			c7.3,17,10.5,30.9,11.9,44.3c4.9,46.9-6.4,83-6.3,128.5c0,21.7,3.6,47.1,19.6,78.6c15.8,30.8,44,69.4,79.7,101.8
			c24.4,22.2,49.9,39.2,77.2,52.6c6.2,3,12.5,5.6,18.8,8.2c51.7,21.5,89.9,22.3,114.2,13.2c55.4-20.9,63.5-80.4,65.9-141.5
			c0.1-1.7,0.1-3.5,0.2-5.2c3.6-101.9,8.9-202.2,74-259.1c15.5-13.5,30.6-28.6,54-35.7c14.1-4.3,31.3-6,60.3,3.4
			c49.9,16.2,117.8,55.1,175.3,99c22.1,16.9,42.4,34.1,61.2,51.8c20.9,19.6,39.4,39.5,54.8,58.6c2.7,3.4,5.3,6.7,7.8,10
			c26.9,35.3,38.7,63.7,42.7,88.3c12.4,76.3,0.5,143-22.5,197.5c-12.8,30.2-30.8,56.9-33,94.7c-2.3,40,13,93,59.6,160.1
			c59.3,85.6,164.6,185.8,275.1,266.1c38.4,27.9,77.4,52.8,115.2,73.3"/>
		<path class="st6" d="M-167.9,32.8c7.4,39.2,18,80.3,31.5,123.2c1.7,5.4,3.8,11.3,6.7,17.4c4,8.5,10.1,18.2,21.1,28.7
			c5.6,5.4,12,10.4,18.9,15.3c3.5,2.5,7,4.7,10.4,6.9c31.6,20,59,29.4,79.3,31.9c26.3,3.2,50.6,0.9,76,1.7
			c48.7,1.8,111.4,11.3,179.5,52.2c21.2,12.7,39.7,27.2,57.9,45.9c23,23.6,37.4,49,48.1,70.5c3.4,6.8,6.4,13.4,9.2,19.8
			c7.6,17.4,10.7,31.3,11.8,44.6c3.9,47.3-10.1,82.6-11.4,128.2c-0.6,22.1,2.7,48.1,18.7,80.5c15.8,31.5,43.9,71,79.9,104.6
			c24.2,22.6,49.8,40.5,78,54.9c6.2,3.2,12.7,5.9,19.1,8.6c52.7,22.9,91.8,24.1,116.3,15c57-21,64.5-82.1,66.8-144.5
			c0.1-1.8,0.1-3.5,0.2-5.3c3.5-104.1,10.2-205.9,73.6-265.9c15.7-14.9,30.7-31.3,54.6-39.6c14.3-4.9,32-7.2,62.6,2.8
			c51.6,16.9,122.5,58.2,181.6,103.9c23,17.8,43.9,35.9,63.2,54.3c21.7,20.7,40.6,41.5,56.4,61.4c2.8,3.5,5.4,7,8,10.5
			c27.4,36.5,40.1,66.1,44.5,91.9c12.5,74.2,1.2,139.3-20.5,192.6c-12,29.5-29.2,55.7-31,92.5c-2,39.3,13.1,90.9,58.1,156.2
			c57.6,83.5,159.3,181.4,267.1,260.5c37.1,27.2,75.1,51.7,112,72"/>
		<path class="st6" d="M-181.5,43.1c7.1,39.3,17.6,80.8,31.3,124.2c1.7,5.5,3.8,11.4,6.7,17.6c4,8.6,10.1,18.4,21.1,29
			c5.6,5.4,12,10.5,19,15.5c3.5,2.5,7,4.8,10.4,7c32.1,20.5,60,29.8,80,31.7c26.5,2.5,50.8-0.7,76.4-0.7
			c48.9,0.2,111.5,7.6,181.6,47.8c21.2,12.2,40.1,26.3,59.1,45.2c23.4,23.3,38.4,48.7,49.6,70.2c3.5,6.8,6.6,13.5,9.5,19.8
			c8,17.7,11,31.6,11.8,44.9c2.9,47.7-13.9,82.1-16.5,127.9c-1.3,22.4,1.7,49.1,17.7,82.3c15.6,32.3,43.7,72.5,80.1,107.4
			c23.9,23,49.8,41.8,78.7,57.2c6.3,3.3,12.8,6.2,19.3,9.1c53.8,24.3,93.7,25.9,118.5,16.9c58.6-21.2,65.4-83.8,67.7-147.4
			c0.1-1.8,0.1-3.6,0.2-5.4c3.4-106.3,11.4-209.6,73.2-272.7c15.9-16.3,30.8-34.1,55.3-43.5c14.5-5.5,32.7-8.4,64.9,2.2
			c53.3,17.5,127.3,61.2,188,108.8c23.9,18.7,45.4,37.7,65.2,56.8c22.4,21.7,41.9,43.5,58,64.2c2.8,3.7,5.6,7.3,8.2,10.9
			c28,37.7,41.5,68.5,46.2,95.5c12.5,72.1,1.9,135.5-18.5,187.7c-11.3,28.8-27.5,54.4-29,90.2c-1.6,38.5,13.2,88.8,56.6,152.3
			c55.8,81.5,154,177,259.1,254.9c35.9,26.6,72.7,50.6,108.8,70.6"/>
		<path class="st6" d="M-195.1,53.3c6.7,39.4,17.1,81.3,31.2,125.2c1.8,5.5,3.9,11.5,6.8,17.7c4,8.6,10.1,18.5,21.2,29.3
			c5.6,5.5,12,10.7,19.1,15.7c3.5,2.5,7,4.8,10.5,7c32.6,21,60.9,30.1,80.7,31.4c26.7,1.9,51.1-2.4,76.7-3.2
			c49-1.4,111.6,3.9,183.7,43.5c21.3,11.7,40.5,25.5,60.2,44.5c23.8,22.9,39.4,48.5,51,69.9c3.7,6.8,6.9,13.5,9.8,19.8
			c8.4,18.1,11.2,32,11.7,45.2c1.9,48-17.6,81.7-21.6,127.6c-2,22.8,0.9,50.1,16.8,84.1c15.6,33,43.6,74,80.3,110.2
			c23.7,23.4,49.7,43.1,79.4,59.4c6.4,3.5,13,6.5,19.6,9.6c54.9,25.7,95.6,27.6,120.6,18.8c60.1-21.4,66.4-85.5,68.6-150.4
			c0.1-1.8,0.1-3.7,0.2-5.5c3.3-108.4,12.5-213.4,72.8-279.5c16.1-17.7,31-36.9,55.9-47.3c14.7-6.2,33.3-9.5,67.1,1.6
			c55,18.2,132,64.3,194.4,113.7c24.7,19.6,47,39.4,67.2,59.3c23.2,22.8,43.1,45.5,59.7,67c2.9,3.8,5.7,7.6,8.5,11.4
			c28.5,38.9,42.9,70.9,47.9,99c12.6,70,2.6,131.7-16.5,182.8c-10.6,28.2-25.9,53.2-27,88c-1.3,37.8,13.3,86.7,55.2,148.4
			c54,79.5,148.7,172.6,251,249.3c34.7,26,70.4,49.5,105.6,69.2"/>
		<path class="st6" d="M-208.7,63.6c6.4,39.6,16.7,81.8,31,126.3c1.8,5.6,3.9,11.6,6.8,17.8c4,8.7,10,18.7,21.2,29.7
			c5.6,5.5,12,10.8,19.1,15.9c3.5,2.6,7.1,4.9,10.5,7.1c33.2,21.5,61.9,32.8,81.3,31.2c26.8-2.3,51.3-4,77-5.6
			c49.2-3.1,111.7,0.3,185.8,39.1c21.3,11.2,41,24.6,61.4,43.8c24.1,22.6,40.4,48.2,52.5,69.6c3.8,6.8,7.2,13.5,10.1,19.8
			c8.8,18.4,11.4,32.4,11.6,45.5c0.9,48.4-21.4,81.2-26.7,127.2c-2.7,23.1,0,51.1,15.9,85.9c15.6,33.7,43.4,75.6,80.5,113
			c23.5,23.7,49.7,44.4,80.2,61.7c6.4,3.6,13.1,6.8,19.8,10c55.9,27.2,97.5,29.4,122.7,20.6c61.7-21.5,67.4-87.2,69.4-153.3
			c0.1-1.9,0.1-3.7,0.2-5.6c3.2-110.6,13.5-217.3,72.4-286.3c16.3-19.1,31.1-39.6,56.6-51.2c14.9-6.8,34-10.7,69.4,1.1
			c56.7,18.8,136.7,67.3,200.7,118.6c25.6,20.5,48.5,41.2,69.3,61.8c23.9,23.8,44.3,47.5,61.3,69.8c3,4,5.9,7.9,8.7,11.9
			c29,40.1,44.3,73.3,49.7,102.6c12.5,67.9,3.3,128-14.6,177.9c-9.8,27.5-24.2,52-25.1,85.8c-0.9,37,13.4,84.7,53.7,144.5
			c52.2,77.5,143.4,168.3,243,243.7c33.5,25.4,68,48.3,102.4,67.8"/>
		<path class="st6" d="M-222.3,73.8c6,39.7,16.3,82.2,30.9,127.3c1.8,5.7,4,11.7,6.9,18c4,8.8,10,18.9,21.2,30
			c5.6,5.5,12,10.9,19.2,16.1c3.6,2.6,7.1,5,10.6,7.2c33.7,22,63,33.1,82,30.9c27-3.1,51.5-5.6,77.4-8.1
			c49.4-4.7,111.8-3.3,187.8,34.7c21.3,10.7,41.4,23.7,62.6,43.1c24.5,22.3,41.5,47.9,53.9,69.3c4,6.9,7.4,13.6,10.5,19.8
			c9.1,18.7,11.6,32.8,11.6,45.8c-0.1,48.8-25.2,80.8-31.8,126.9c-3.3,23.5-0.9,52.1,14.9,87.7c15.5,34.4,43.3,77.1,80.7,115.8
			c23.3,24.1,49.6,45.7,80.9,64c6.5,3.8,13.3,7.1,20.1,10.5c57,28.6,99.4,31.2,124.8,22.5c63.2-21.7,68.3-88.9,70.3-156.2
			c0.1-1.9,0.1-3.8,0.2-5.7c3.1-112.8,14.5-221.1,72.1-293.1c16.4-20.5,31.3-42.4,57.2-55.1c15.1-7.4,34.6-11.9,71.7,0.5
			c58.4,19.5,141.5,70.4,207.1,123.5c26.5,21.5,50.1,42.9,71.3,64.3c24.7,24.9,45.5,49.5,62.9,72.7c3.1,4.1,6,8.3,8.9,12.3
			c29.5,41.3,45.6,75.7,51.4,106.1c12.5,65.8,4,124.2-12.6,173c-9.1,26.8-22.6,50.8-23.1,83.5c-0.6,36.2,13.5,82.6,52.2,140.5
			c50.4,75.4,138.1,163.9,235,238.2c32.3,24.8,65.7,47.2,99.2,66.5"/>
		<path class="st6" d="M-235.9,84.1c5.7,39.9,15.9,82.7,30.7,128.3c1.9,5.7,4,11.8,6.9,18.1c4,8.9,10,19.1,21.2,30.3
			c5.6,5.6,12,11,19.3,16.3c3.6,2.6,7.1,5,10.6,7.3c34.2,22.5,64,33.4,82.7,30.7c27.1-3.9,51.8-7.2,77.7-10.6
			c49.5-6.3,111.9-6.9,189.9,30.4c21.3,10.2,41.8,22.9,63.7,42.3c24.8,22,42.5,47.6,55.4,69c4.1,6.9,7.7,13.6,10.8,19.9
			c9.5,19.1,11.8,33.1,11.5,46.1c-1.2,49.2-29.1,80.3-36.9,126.6c-4.1,23.9-1.8,53.1,14,89.5C337,763.6,364.8,807,402.5,847
			c23.1,24.5,49.6,47,81.7,66.3c6.6,3.9,13.4,7.4,20.3,11c58.1,30,101.3,33,126.9,24.4c64.8-21.8,69.3-90.6,71.2-159.2
			c0.1-1.9,0.1-3.9,0.2-5.8c3-115,15.4-225.1,71.7-299.8c16.5-22,31.4-45.1,57.9-59c15.3-8,35.3-13.1,74-0.1
			c60.1,20.1,146.2,73.4,213.5,128.4c27.4,22.4,51.6,44.7,73.3,66.8c25.4,25.9,46.8,51.5,64.6,75.5c3.2,4.3,6.2,8.6,9.2,12.8
			c30,42.5,47,78.2,53.1,109.7c12.5,63.7,4.7,120.4-10.6,168.1c-8.3,26.1-20.9,49.6-21.1,81.3c-0.2,35.5,13.5,80.5,50.7,136.6
			c48.7,73.4,132.9,159.5,227,232.6c31.1,24.1,63.4,46.1,96,65.1"/>
		<path class="st6" d="M-249.5,94.3c5.3,40,15.5,83.2,30.6,129.3c1.9,5.8,4.1,11.9,6.9,18.3c4,8.9,9.9,19.2,21.2,30.6
			c5.6,5.6,12,11.1,19.4,16.5c3.6,2.7,7.2,5.1,10.7,7.4c34.7,23,65,33.6,83.4,30.4c27.2-4.7,52-8.8,78-13
			c49.7-7.9,111.9-10.4,192,26c21.3,9.7,42.1,22,64.9,41.6c25.2,21.7,43.5,47.3,56.8,68.7c4.3,6.9,7.9,13.6,11.1,19.9
			c9.9,19.4,12,33.5,11.4,46.4c-2.2,49.6-32.9,79.9-42,126.3c-4.8,24.2-2.7,54.1,13.1,91.4c15.4,35.9,43.1,80.1,81,121.4
			c22.9,24.9,49.6,48.3,82.4,68.6c6.6,4.1,13.6,7.7,20.6,11.4c59.1,31.4,103.2,34.7,129,26.2c66.4-21.9,70.3-92.4,72.1-162.1
			c0.1-2,0.1-4,0.1-5.9c2.9-117.1,16.2-229,71.3-306.6c16.6-23.4,31.6-47.9,58.5-62.9c15.5-8.7,36-14.3,76.3-0.7
			c61.8,20.8,150.9,76.5,219.8,133.3c28.3,23.3,53.1,46.5,75.3,69.4c26.2,27,48,53.4,66.2,78.3c3.2,4.4,6.3,8.9,9.4,13.2
			c30.5,43.7,48.3,80.6,54.9,113.2c12.4,61.7,5.3,116.6-8.6,163.1c-7.6,25.4-19.2,48.4-19.1,79.1c0.1,34.7,13.6,78.4,49.3,132.7
			c46.9,71.4,127.6,155.1,219,227c29.9,23.5,61,45,92.8,63.7"/>
		<path class="st6" d="M-263.1,104.5c4.9,40.1,15.1,83.7,30.4,130.3c1.9,5.8,4.1,12,7,18.4c4,9,9.9,19.4,21.2,30.9
			c5.5,5.6,12,11.2,19.4,16.7c3.6,2.7,7.2,5.2,10.7,7.5c35.3,23.5,66,33.8,84,30.2C-63,333-38.1,328.1-11.9,323
			c49.9-9.5,112-13.9,194.1,21.6c21.3,9.2,42.5,21.2,66,40.9c25.5,21.5,44.5,47,58.2,68.5c4.4,6.9,8.2,13.7,11.4,19.9
			c10.3,19.8,12.2,33.9,11.4,46.8c-3.3,50-36.7,79.4-47.1,126c-5.5,24.6-3.6,55.1,12.1,93.2c15.3,36.6,43,81.5,81.2,124.2
			c22.7,25.2,49.5,49.6,83.2,70.9c6.7,4.2,13.7,8,20.8,11.9c60.2,32.8,105.2,36.5,131.1,28.1c67.9-22.1,71.2-94.1,72.9-165
			c0-2,0.1-4,0.1-6c2.8-119.3,16.9-232.9,70.9-313.4c16.7-24.9,31.8-50.6,59.2-66.8c15.7-9.3,36.6-15.5,78.6-1.3
			c63.5,21.4,155.7,79.5,226.2,138.2c29.2,24.2,54.7,48.2,77.4,71.9c26.9,28.1,49.2,55.4,67.8,81.1c3.3,4.6,6.5,9.2,9.6,13.7
			c31.1,44.9,49.6,83,56.6,116.8c12.3,59.6,6,112.9-6.6,158.2c-6.9,24.7-17.5,47.1-17.1,76.8c0.5,34,13.7,76.4,47.8,128.8
			c45.1,69.3,122.3,150.6,211,221.4c28.7,22.9,58.7,43.9,89.6,62.3"/>
		<path class="st6" d="M-276.7,114.8c4.6,40.3,14.7,84.2,30.3,131.3c1.9,5.9,4.2,12.1,7,18.5c4,9.1,9.8,19.6,21.2,31.2
			c5.5,5.7,12,11.3,19.5,16.9c3.6,2.7,7.2,5.2,10.8,7.6c35.8,24,66.7,31.6,84.7,29.9c28-2.6,52.5-12.1,78.7-17.9
			c50-11.1,112-17.4,196.2,17.3c21.3,8.8,42.9,20.3,67.2,40.2c25.9,21.2,45.6,46.7,59.7,68.2c4.6,6.9,8.5,13.7,11.8,19.9
			c10.7,20.1,12.4,34.3,11.3,47.1c-4.3,50.4-40.6,78.9-52.2,125.7c-6.2,24.9-4.5,56.1,11.2,95c15.2,37.3,42.9,83,81.4,126.9
			c22.5,25.6,49.5,50.9,83.9,73.2c6.8,4.4,13.9,8.3,21.1,12.4c61.3,34.3,107.1,38.3,133.2,30c69.5-22.2,72.2-95.8,73.8-168
			c0-2.1,0.1-4.1,0.1-6.2c2.7-121.5,17.6-236.8,70.5-320.2c16.7-26.3,31.9-53.4,59.8-70.7c16-9.9,37.3-16.7,80.9-1.9
			c65.2,22.1,160.4,82.6,232.6,143.1c30,25.2,56.2,50,79.4,74.4c27.7,29.1,50.5,57.4,69.5,83.9c3.4,4.8,6.6,9.5,9.8,14.1
			c31.6,46.1,51,85.4,58.3,120.3c12.2,57.5,6.7,109.1-4.6,153.3c-6.1,24-15.9,45.9-15.1,74.6c0.9,33.2,13.8,74.3,46.3,124.8
			c43.3,67.3,117,146.2,203,215.8c27.4,22.2,56.4,42.8,86.3,61"/>
		<path class="st6" d="M-290.3,125c4.2,40.4,14.3,84.7,30.1,132.3c2,6,4.2,12.2,7,18.7c3.9,9.1,9.8,19.7,21.3,31.6
			c5.5,5.7,12,11.4,19.6,17.1c3.7,2.7,7.3,5.3,10.8,7.7c36.3,24.5,67.6,31.8,85.4,29.7c28.2-3.4,52.7-13.7,79-20.4
			c50.2-12.7,112-20.8,198.3,12.9c21.3,8.3,43.3,19.5,68.4,39.5c26.2,20.9,46.6,46.4,61.1,67.9c4.7,7,8.7,13.7,12.1,19.9
			c11.1,20.4,12.6,34.6,11.2,47.4c-5.4,50.8-44.5,78.5-57.3,125.4c-6.9,25.2-5.4,57.2,10.3,96.8c15.2,38.1,42.8,84.5,81.6,129.7
			c22.3,26,49.5,52.2,84.7,75.5c6.8,4.5,14,8.6,21.3,12.8c62.3,35.7,109,40.1,135.3,31.8c71.1-22.3,73.2-97.5,74.7-170.9
			c0-2.1,0.1-4.2,0.1-6.3c2.6-123.7,18.2-240.7,70.1-327c16.7-27.8,32.1-56.1,60.5-74.6c16.2-10.5,38-17.9,83.2-2.5
			c66.9,22.6,165.1,85.7,238.9,148c30.9,26.1,57.7,51.8,81.4,76.9c28.4,30.2,51.7,59.4,71.1,86.8c3.5,4.9,6.8,9.8,10.1,14.6
			c32.1,47.3,52.3,87.9,60.1,123.9c12,55.4,7.4,105.3-2.6,148.4c-5.4,23.3-14.2,44.7-13.1,72.4c1.2,32.5,13.9,72.2,44.8,120.9
			c41.5,65.3,111.8,141.8,195,210.2c26.2,21.6,54,41.7,83.1,59.6"/>
		<path class="st6" d="M-303.9,135.3c3.9,40.6,13.9,85.1,29.9,133.3c2,6,4.3,12.3,7.1,18.8c3.9,9.2,9.8,19.9,21.3,31.9
			c5.5,5.7,12,11.5,19.6,17.3c3.7,2.8,7.3,5.4,10.9,7.8c36.8,25,68.6,32.1,86,29.4c28.4-4.3,52.9-15.3,79.4-22.8
			c50.4-14.3,112-24.2,200.3,8.5c21.3,7.9,43.7,18.7,69.5,38.8c26.5,20.6,47.6,46.2,62.6,67.6c4.9,7,9,13.8,12.4,19.9
			c11.5,20.8,12.8,35,11.1,47.7c-6.5,51.1-48.3,78-62.4,125.1c-7.7,25.6-6.3,58.2,9.4,98.6c15.1,38.8,42.7,86,81.8,132.5
			c22.1,26.3,49.5,53.5,85.4,77.7c6.9,4.7,14.2,9,21.6,13.3c63.4,37.1,110.9,41.9,137.4,33.7c72.6-22.4,74.1-99.2,75.5-173.8
			c0-2.1,0.1-4.2,0.1-6.4c2.5-125.8,18.8-244.6,69.7-333.8c16.7-29.3,32.3-58.8,61.1-78.5c16.4-11.1,38.6-19.1,85.5-3.1
			c68.6,23.2,169.8,88.7,245.3,152.9c31.8,27,59.3,53.5,83.4,79.4c29.2,31.3,52.9,61.4,72.7,89.6c3.5,5.1,7,10.1,10.3,15.1
			c32.6,48.5,53.5,90.3,61.8,127.4c11.9,53.4,8,101.5-0.7,143.5c-4.7,22.6-12.5,43.5-11.1,70.1c1.6,31.7,14,70.2,43.4,117
			c39.7,63.3,106.5,137.4,186.9,204.7c25,21,51.7,40.6,79.9,58.2"/>
		<path class="st6" d="M-317.5,145.5c3.5,40.7,13.5,85.6,29.8,134.3c2,6.1,4.3,12.4,7.1,19c3.9,9.3,9.7,20.1,21.3,32.2
			c5.5,5.8,12,11.6,19.7,17.5c3.7,2.8,7.3,5.4,10.9,7.9c37.3,25.5,69.5,32.2,86.7,29.2c28.7-5.1,53.2-16.9,79.7-25.3
			c50.6-15.9,112-27.5,202.4,4.2c21.3,7.4,44,17.9,70.7,38.1c26.8,20.4,48.7,45.9,64,67.3c5,7,9.3,13.8,12.7,20
			c11.9,21.1,13,35.4,11.1,48c-7.6,51.5-52.2,77.5-67.5,124.8c-8.4,25.9-7.2,59.2,8.4,100.4c15,39.5,42.6,87.4,82,135.3
			c21.9,26.7,49.5,54.7,86.2,80c7,4.8,14.3,9.3,21.8,13.8c64.4,38.6,112.8,43.7,139.5,35.6c74.2-22.5,75.1-100.9,76.4-176.8
			c0-2.2,0.1-4.3,0.1-6.5c2.4-128,19.3-248.5,69.4-340.6c16.7-30.7,32.4-61.6,61.8-82.3c16.6-11.8,39.3-20.3,87.8-3.6
			c70.3,23.9,174.5,91.8,251.7,157.8c32.7,27.9,60.8,55.3,85.5,81.9c29.9,32.3,54.2,63.4,74.4,92.4c3.6,5.2,7.1,10.4,10.5,15.5
			c33.2,49.7,54.8,92.7,63.5,131c11.7,51.3,8.7,97.8,1.3,138.6c-4,21.9-10.8,42.3-9.2,67.9c2,30.9,14.1,68.1,41.9,113.1
			c37.9,61.3,101.3,132.9,178.9,199.1c23.8,20.3,49.4,39.5,76.7,56.8"/>
		<path class="st6" d="M-331.1,155.8c3.2,40.9,13.1,86.1,29.6,135.3c2.1,6.1,4.4,12.5,7.1,19.1c3.9,9.3,9.7,20.2,21.3,32.5
			c5.5,5.8,12,11.7,19.8,17.7c3.7,2.8,7.4,5.5,11,8c37.8,26,70.5,32.4,87.4,28.9c28.8-6,53.4-18.5,80-27.8
			c50.7-17.5,111.9-30.7,204.5-0.2c21.3,7,44.4,17,71.8,37.4c27.2,20.1,49.7,45.6,65.5,67c5.2,7,9.5,13.8,13.1,20
			c12.3,21.4,13.1,35.7,11,48.3c-8.8,51.9-56.1,77-72.6,124.5c-9.1,26.2-8.1,60.2,7.5,102.3c15,40.2,42.6,88.9,82.1,138.1
			c21.7,27,49.5,56,86.9,82.3c7,4.9,14.5,9.6,22.1,14.2c65.5,40,114.7,45.4,141.6,37.4c75.8-22.6,76.1-102.6,77.3-179.7
			c0-2.2,0.1-4.4,0.1-6.6c2.3-130.2,19.9-252.3,69-347.4c16.7-32.2,32.6-64.3,62.4-86.2c16.9-12.4,40-21.5,90.1-4.2
			c72,24.6,179.3,94.9,258,162.6c33.5,28.9,62.3,57.1,87.5,84.5c30.7,33.4,55.4,65.4,76,95.2c3.7,5.4,7.3,10.7,10.8,16
			c33.7,50.9,56,95.2,65.3,134.5c11.6,49.3,9.4,94,3.3,133.6c-3.2,21.2-9.1,41.1-7.2,65.7c2.4,30.2,14.1,66,40.4,109.2
			c36.1,59.3,96,128.5,170.9,193.5c22.6,19.7,47,38.4,73.5,55.5"/>
		<path class="st6" d="M-344.7,166c2.8,41,12.7,86.6,29.5,136.3c2.1,6.2,4.4,12.6,7.2,19.2c3.9,9.4,9.7,20.4,21.3,32.8
			c5.5,5.8,12,11.8,19.9,17.9c3.7,2.9,7.4,5.6,11,8.1c38.4,26.5,71.4,32.6,88.1,28.7c29-6.9,53.6-20.1,80.3-30.2
			c50.9-19.1,111.9-34,206.6-4.6c21.3,6.6,44.8,16.2,73,36.7c27.5,19.9,50.7,45.3,66.9,66.7c5.3,7.1,9.8,13.8,13.4,20
			c12.7,21.7,13.3,36.1,10.9,48.6c-9.9,52.3-60,76.5-77.8,124.2c-9.9,26.6-8.9,61.2,6.6,104.1c14.9,41,42.5,90.3,82.3,140.9
			c21.5,27.4,49.5,57.3,87.6,84.6c7.1,5.1,14.6,9.9,22.3,14.7c66.6,41.4,116.7,47.2,143.8,39.3c77.4-22.7,77-104.3,78.2-182.7
			c0-2.2,0.1-4.5,0.1-6.7c2.2-132.4,20.3-256.2,68.6-354.1c16.6-33.7,32.8-67.1,63.1-90.1c17.1-13,40.6-22.7,92.4-4.8
			c73.7,25.2,184,97.9,264.4,167.5c34.4,29.8,63.9,58.8,89.5,87c31.4,34.4,56.6,67.4,77.6,98c3.8,5.5,7.4,11,11,16.4
			c34.2,52.1,57.3,97.6,67,138.1c11.4,47.2,10,90.2,5.3,128.7c-2.5,20.5-7.4,39.9-5.2,63.5c2.8,29.4,14.2,64,39,105.2
			c34.3,57.2,90.8,124,162.9,187.9c21.5,19,44.7,37.3,70.3,54.1"/>
		<path class="st6" d="M-358.3,176.2c2.4,41.1,12.3,87.1,29.3,137.3c2.1,6.3,4.5,12.7,7.2,19.4c3.9,9.5,9.6,20.6,21.3,33.2
			c5.5,5.9,12.1,11.9,19.9,18.1c3.7,2.9,7.4,5.6,11.1,8.2c38.9,27,72.3,32.8,88.7,28.4c29.2-7.8,53.9-21.8,80.7-32.7
			c51.1-20.7,111.9-37.1,208.7-9c21.3,6.2,45.1,15.4,74.2,36c27.8,19.7,51.8,45,68.3,66.4c5.5,7.1,10.1,13.9,13.7,20
			c13.1,22.1,13.5,36.5,10.9,48.9c-11.1,52.6-63.9,76-82.9,123.8c-10.6,26.9-9.8,62.2,5.6,105.9C213.4,821.9,241,872,281,923.9
			c21.4,27.7,49.5,58.5,88.4,86.9c7.2,5.2,14.7,10.2,22.6,15.2c67.6,42.9,118.6,49,145.9,41.2c78.9-22.8,78-106,79-185.6
			c0-2.3,0.1-4.5,0.1-6.8c2.1-134.5,20.8-260,68.2-360.9c16.5-35.2,32.9-69.8,63.7-94c17.3-13.6,41.3-23.8,94.7-5.4
			c75.4,25.9,188.7,101,270.8,172.4c35.3,30.7,65.4,60.6,91.5,89.5c32.1,35.5,57.9,69.4,79.3,100.8c3.9,5.7,7.6,11.3,11.2,16.9
			c34.7,53.3,58.4,100.1,68.7,141.6c11.2,45.2,10.7,86.4,7.3,123.8c-1.8,19.8-5.7,38.6-3.2,61.2c3.2,28.7,14.3,61.9,37.5,101.3
			c32.5,55.2,85.6,119.5,154.9,182.3c20.3,18.4,42.4,36.2,67.1,52.7"/>
		<path class="st6" d="M-371.9,186.5c2.1,41.3,11.8,87.6,29.2,138.3c2.2,6.3,4.5,12.8,7.2,19.5c3.9,9.5,9.6,20.7,21.3,33.5
			c5.5,5.9,12.1,12,20,18.3c3.8,3,7.5,5.7,11.1,8.2c39.3,27.6,73.3,33,89.4,28.2c29.4-8.7,54.1-23.4,81-35.1
			C-61.3,375-0.7,357,98.2,384c21.2,5.8,45.5,14.7,75.3,35.3c28.1,19.4,52.8,44.7,69.8,66.2c5.6,7.1,10.3,13.9,14,20
			c13.5,22.4,13.7,36.8,10.8,49.2c-12.2,53-67.8,75.5-88,123.5c-11.4,27.2-10.7,63.2,4.7,107.7c14.8,42.4,42.5,93.2,82.7,146.5
			c21.2,28.1,49.5,59.8,89.1,89.2c7.2,5.4,14.9,10.5,22.8,15.6c68.6,44.4,120.5,50.8,148,43c80.5-22.9,78.9-107.7,79.9-188.5
			c0-2.3,0.1-4.6,0.1-6.9c2-136.7,21.2-263.8,67.8-367.7c16.4-36.6,33.1-72.5,64.4-97.9c17.5-14.2,42-25,97-6
			c77.1,26.5,193.3,104.2,277.1,177.3c36.1,31.7,66.9,62.4,93.6,92c32.9,36.6,59.1,71.4,80.9,103.7c3.9,5.8,7.7,11.6,11.4,17.4
			c35.3,54.5,59.6,102.6,70.5,145.2c11,43.1,11.3,82.6,9.3,118.9c-1.1,19.1-4,37.4-1.2,59c3.6,27.9,14.3,59.8,36,97.4
			c30.7,53.2,80.4,115,146.9,176.7c19.1,17.7,40,35.1,63.9,51.3"/>
		<path class="st6" d="M-385.5,196.7c1.7,41.4,11.4,88,29,139.3c2.2,6.4,4.6,12.9,7.3,19.6c3.9,9.6,9.6,20.9,21.4,33.8
			c5.5,5.9,12.1,12.1,20.1,18.5c3.8,3,7.5,5.8,11.2,8.3c39.9,28.1,74.2,33.1,90.1,27.9c29.5-9.6,54.3-25,81.3-37.6
			c51.4-24,111.8-43.3,212.8-17.7c21.2,5.4,45.8,13.9,76.5,34.6c28.5,19.2,53.8,44.4,71.2,65.9c5.8,7.1,10.6,13.9,14.4,20
			c14,22.7,13.8,37.2,10.7,49.6c-13.4,53.3-71.7,74.9-93.1,123.2c-12.2,27.5-11.6,64.2,3.8,109.5c14.7,43.2,42.5,94.6,82.9,149.3
			c21,28.4,49.5,61,89.9,91.5c7.3,5.5,15,10.8,23.1,16.1c69.6,45.8,122.4,52.6,150.1,44.9c82.1-23,79.9-109.4,80.8-191.5
			c0-2.3,0.1-4.7,0.1-7c1.9-138.9,21.6-267.5,67.4-374.5c16.3-38.1,33.3-75.3,65-101.8c17.8-14.8,42.6-26.2,99.3-6.6
			c78.8,27.2,198,107.3,283.5,182.2c37,32.6,68.4,64.2,95.6,94.5c33.6,37.7,60.3,73.4,82.6,106.5c4,6,7.9,11.9,11.7,17.8
			c35.9,55.7,60.7,105,72.2,148.7c10.8,41.1,12,78.8,11.3,114c-0.4,18.4-2.3,36.2,0.8,56.8c4,27.2,14.4,57.8,34.5,93.5
			c28.9,51.2,75.2,110.5,138.9,171.2c17.9,17,37.7,34,60.7,50"/>
		<path class="st6" d="M-399.1,207c1.4,41.6,11,88.5,28.9,140.3c2.2,6.5,4.6,13.1,7.3,19.8c3.9,9.7,9.6,21.1,21.4,34.1
			c5.4,6,12.1,12.2,20.2,18.7c3.8,3,7.5,5.8,11.2,8.4c40.4,28.6,75.1,33.3,90.7,27.7c29.7-10.6,54.6-26.6,81.7-40.1
			c51.6-25.6,111.8-46.4,214.9-22.1c21.2,5,46.2,13.1,77.6,33.9c28.8,19,54.9,44.1,72.7,65.6c5.9,7.1,10.9,13.9,14.7,20.1
			c14.4,23,14,37.6,10.7,49.9c-14.6,53.7-75.7,74.4-98.2,122.9c-12.9,27.8-12.5,65.2,2.8,111.3c14.6,43.9,42.4,96.1,83.1,152.1
			c20.9,28.8,49.5,62.3,90.6,93.8c7.4,5.6,15.2,11.1,23.3,16.6c70.7,47.3,124.3,54.4,152.2,46.8c83.7-23,80.9-111.2,81.7-194.4
			c0-2.4,0-4.8,0.1-7.1c1.8-141.1,22-271.3,67.1-381.3c16.2-39.6,33.5-78,65.7-105.7c18-15.5,43.3-27.4,101.6-7.2
			c80.5,27.8,202.8,110.3,289.9,187.1c37.9,33.6,70,66,97.6,97c34.3,38.8,61.6,75.3,84.2,109.3c4.1,6.1,8.1,12.2,11.9,18.3
			c36.4,56.9,61.8,107.5,73.9,152.3c10.6,39,12.6,75.1,13.2,109.1c0.3,17.7-0.5,35,2.8,54.5c4.4,26.4,14.5,55.7,33.1,89.6
			c27.1,49.2,70,106,130.9,165.6c16.7,16.4,35.4,32.9,57.5,48.6"/>
		<path class="st6" d="M-412.7,217.2c1,41.7,10.6,89,28.7,141.3c2.3,6.5,4.7,13.2,7.4,19.9c3.8,9.7,9.5,21.2,21.4,34.4
			c5.4,6,12.1,12.3,20.2,18.9c3.8,3.1,7.6,5.9,11.3,8.5c40.9,29.1,76,33.4,91.4,27.4c29.8-11.6,54.8-28.2,82-42.5
			c51.7-27.2,111.7-49.4,217-26.4c21.2,4.6,46.5,12.3,78.8,33.1c29.1,18.7,55.9,43.8,74.1,65.3c6.1,7.1,11.1,14,15,20.1
			c14.8,23.3,14.2,37.9,10.6,50.2c-15.8,54-79.6,73.9-103.3,122.6c-13.7,28.1-13.4,66.2,1.9,113.2c14.6,44.6,42.4,97.5,83.3,154.8
			c20.7,29.1,49.5,63.5,91.4,96c7.4,5.8,15.3,11.4,23.6,17c71.8,48.7,126.2,56.2,154.3,48.6c85.3-23.1,81.8-112.9,82.5-197.3
			c0-2.4,0-4.8,0.1-7.2c1.7-143.2,22.3-275,66.7-388.1c16.1-41,33.7-80.7,66.3-109.6c18.2-16.1,43.9-28.6,103.9-7.7
			c82.2,28.5,207.5,113.4,296.2,192c38.8,34.5,71.5,67.7,99.6,99.5c35.1,39.8,62.8,77.3,85.8,112.1c4.2,6.3,8.2,12.5,12.1,18.7
			c36.9,58.1,62.9,110,75.7,155.9c10.3,37,13.2,71.3,15.2,104.2c1,17,1.2,33.8,4.7,52.3c4.9,25.6,14.5,53.7,31.6,85.6
			c25.2,47.2,64.9,101.4,122.9,160c15.5,15.7,33,31.8,54.2,47.2"/>
		<path class="st6" d="M-426.3,227.5c0.7,41.8,10.2,89.5,28.5,142.3c2.3,6.6,4.7,13.3,7.4,20.1c3.8,9.8,9.5,21.4,21.4,34.8
			c5.4,6,12.1,12.4,20.3,19.1c3.8,3.1,7.6,6,11.3,8.6c41.4,29.6,76.9,33.6,92.1,27.2c29.9-12.5,55-29.8,82.3-45
			c51.9-28.8,111.7-52.3,219.1-30.8c21.2,4.3,46.9,11.6,80,32.4c29.4,18.5,57,43.5,75.5,65c6.2,7.2,11.4,14,15.3,20.1
			c15.2,23.6,14.4,38.3,10.5,50.5C220.5,626,154.1,645,129.2,694c-14.4,28.4-14.3,67.2,1,115c14.5,45.3,42.5,98.9,83.4,157.6
			c20.6,29.4,49.5,64.8,92.1,98.3c7.5,5.9,15.5,11.7,23.9,17.5c72.8,50.1,128.2,58.1,156.4,50.5c86.9-23,82.8-114.6,83.4-200.3
			c0-2.4,0-4.9,0.1-7.3c1.6-145.4,22.6-278.8,66.3-394.9c16-42.5,33.9-83.4,67-113.5c18.5-16.7,44.6-29.8,106.2-8.3
			c83.9,29.1,212.2,116.4,302.6,196.9c39.6,35.4,73,69.5,101.7,102.1c35.8,40.9,64,79.3,87.5,114.9c4.2,6.5,8.4,12.9,12.3,19.2
			c37.4,59.3,63.9,112.6,77.4,159.4c10.1,35,13.8,67.5,17.2,99.2c1.8,16.4,3,32.5,6.7,50.1c5.4,24.9,14.6,51.6,30.1,81.7
			c23.4,45.2,59.8,96.9,114.8,154.4c14.4,15,30.7,30.7,51,45.8"/>
		<path class="st6" d="M-439.9,237.7c0.3,42,9.8,90,28.4,143.3c2.3,6.6,4.8,13.4,7.4,20.2c3.8,9.9,9.5,21.6,21.4,35.1
			c5.4,6.1,12.1,12.5,20.4,19.3c3.8,3.1,7.6,6,11.4,8.7c42,30.1,77.7,33.7,92.7,26.9c30-13.5,55.3-31.4,82.7-47.4
			c52.1-30.4,111.7-55.2,221.2-35.2c21.3,3.9,47.2,10.8,81.1,31.7c29.7,18.3,58,43.2,77,64.7c6.4,7.2,11.7,14,15.7,20.1
			c15.7,24,14.5,38.6,10.5,50.8c-18.2,54.6-87.4,72.8-113.5,122c-15.2,28.7-15.2,68.2,0,116.8c14.5,46.1,42.5,100.4,83.6,160.4
			c20.4,29.8,49.6,66,92.9,100.6c7.6,6,15.6,12,24.1,17.9c73.9,51.5,130.1,59.8,158.5,52.4c88.4-23.1,83.8-116.3,84.3-203.2
			c0-2.5,0-5,0.1-7.4c1.5-147.6,23-282.4,65.9-401.7c15.8-43.9,34.1-86.2,67.6-117.3c18.7-17.3,45.3-30.9,108.5-8.9
			c85.6,29.8,217,119.5,309,201.8c40.5,36.3,74.6,71.2,103.7,104.6c36.6,41.9,65.3,81.3,89.1,117.8c4.3,6.6,8.5,13.2,12.6,19.7
			c37.9,60.5,64.8,115.1,79.1,163c9.9,33,14.4,63.7,19.2,94.3c2.4,15.7,4.7,31.3,8.7,47.8c5.8,24.1,14.6,49.6,28.6,77.8
			c21.4,43.3,54.7,92.3,106.8,148.8c13.2,14.4,28.3,29.6,47.8,44.4"/>
		<path class="st6" d="M-453.5,248c-0.1,47.4,11.9,102.6,35.7,164.6c5.5,14.4,14.8,32.7,41.9,54.8c47.3,38.7,88.8,43.3,104.9,35.5
			c87.1-42.2,136-117.6,306.2-89.4c21.3,3.5,47.5,10.1,82.3,31c40.1,24.2,78.3,60.3,94.4,84.6c16.1,24.3,14.7,39,10.4,51.1
			c-19.5,54.9-91.3,72.2-118.6,121.7c-31.1,56.5-2,155.5,82.9,281.8c23.8,35.4,60,80.4,118,121.3c75,52.9,132,61.6,160.6,54.2
			c90-23.3,84.7-118,85.1-206.2c0.7-152.7,22.6-291.6,65.6-416c15.7-45.4,34.2-88.9,68.3-121.2c18.9-17.9,45.9-32.1,110.8-9.5
			c87.3,30.4,221.7,122.5,315.3,206.7s153,160.8,196.4,227.7c45.3,69.7,76.8,132.5,93.7,186.6c33.5,107.5,15.4,190.8,157.9,352.1
			c12.1,13.7,26,28.5,44.6,43.1"/>
	</g>
</g>
</svg>
