<?xml version="1.0" encoding="utf-8"?>
<!-- Generator: Adobe Illustrator 21.1.0, SVG Export Plug-In . SVG Version: 6.00 Build 0)  -->
<svg version="1.1" id="Layer_1" xmlns="http://www.w3.org/2000/svg" xmlns:xlink="http://www.w3.org/1999/xlink" x="0px" y="0px"
	 viewBox="0 0 1600 990.8" style="enable-background:new 0 0 1600 990.8;" xml:space="preserve">
<style type="text/css">
	.st0{fill:#1A1A1A;}
	.st1{clip-path:url(#SVGID_2_);}
	.st2{fill:none;stroke:#000000;stroke-width:1.25;stroke-miterlimit:10;}
	.st3{fill:none;stroke:#000000;stroke-miterlimit:10;}
	.st4{clip-path:url(#SVGID_4_);}
	.st5{clip-path:url(#SVGID_6_);}
	.st6{fill:none;stroke:#000000;stroke-width:3;stroke-miterlimit:10;}
	.st7{clip-path:url(#SVGID_8_);}
	.st8{clip-path:url(#SVGID_10_);}
	.st9{clip-path:url(#SVGID_12_);}
	.st10{clip-path:url(#SVGID_14_);}
	.st11{clip-path:url(#SVGID_16_);}
	.st12{fill:none;stroke:#000000;stroke-width:1.2511;stroke-miterlimit:10;}
	.st13{fill:none;stroke:#000000;stroke-width:1.2523;stroke-miterlimit:10;}
	.st14{fill:none;stroke:#000000;stroke-width:1.2534;stroke-miterlimit:10;}
	.st15{fill:none;stroke:#000000;stroke-width:1.2546;stroke-miterlimit:10;}
	.st16{fill:none;stroke:#000000;stroke-width:1.2557;stroke-miterlimit:10;}
	.st17{fill:none;stroke:#000000;stroke-width:1.2569;stroke-miterlimit:10;}
	.st18{fill:none;stroke:#000000;stroke-width:1.258;stroke-miterlimit:10;}
	.st19{fill:none;stroke:#000000;stroke-width:1.2591;stroke-miterlimit:10;}
	.st20{fill:none;stroke:#000000;stroke-width:1.2603;stroke-miterlimit:10;}
	.st21{fill:none;stroke:#000000;stroke-width:1.2614;stroke-miterlimit:10;}
	.st22{fill:none;stroke:#000000;stroke-width:1.2626;stroke-miterlimit:10;}
	.st23{fill:none;stroke:#000000;stroke-width:1.2637;stroke-miterlimit:10;}
	.st24{fill:none;stroke:#000000;stroke-width:1.2649;stroke-miterlimit:10;}
	.st25{fill:none;stroke:#000000;stroke-width:1.266;stroke-miterlimit:10;}
	.st26{fill:none;stroke:#000000;stroke-width:1.2671;stroke-miterlimit:10;}
	.st27{fill:none;stroke:#000000;stroke-width:1.2683;stroke-miterlimit:10;}
	.st28{fill:none;stroke:#000000;stroke-width:1.2694;stroke-miterlimit:10;}
	.st29{fill:none;stroke:#000000;stroke-width:1.2706;stroke-miterlimit:10;}
	.st30{fill:none;stroke:#000000;stroke-width:1.2717;stroke-miterlimit:10;}
	.st31{fill:none;stroke:#000000;stroke-width:1.2729;stroke-miterlimit:10;}
	.st32{fill:none;stroke:#000000;stroke-width:1.274;stroke-miterlimit:10;}
	.st33{fill:none;stroke:#000000;stroke-width:1.2751;stroke-miterlimit:10;}
	.st34{fill:none;stroke:#000000;stroke-width:1.2763;stroke-miterlimit:10;}
	.st35{fill:none;stroke:#000000;stroke-width:1.2774;stroke-miterlimit:10;}
	.st36{fill:none;stroke:#000000;stroke-width:1.2786;stroke-miterlimit:10;}
	.st37{fill:none;stroke:#000000;stroke-width:1.2797;stroke-miterlimit:10;}
	.st38{fill:none;stroke:#000000;stroke-width:1.2809;stroke-miterlimit:10;}
	.st39{fill:none;stroke:#000000;stroke-width:1.282;stroke-miterlimit:10;}
	.st40{fill:none;stroke:#000000;stroke-width:1.2831;stroke-miterlimit:10;}
	.st41{fill:none;stroke:#000000;stroke-width:1.2843;stroke-miterlimit:10;}
	.st42{fill:none;stroke:#000000;stroke-width:1.2854;stroke-miterlimit:10;}
	.st43{fill:none;stroke:#000000;stroke-width:1.2866;stroke-miterlimit:10;}
	.st44{fill:none;stroke:#000000;stroke-width:1.2877;stroke-miterlimit:10;}
	.st45{fill:none;stroke:#000000;stroke-width:1.2889;stroke-miterlimit:10;}
	.st46{fill:none;stroke:#000000;stroke-width:1.29;stroke-miterlimit:10;}
	.st47{fill:none;stroke:#000000;stroke-width:1.2911;stroke-miterlimit:10;}
	.st48{fill:none;stroke:#000000;stroke-width:1.2923;stroke-miterlimit:10;}
	.st49{fill:none;stroke:#000000;stroke-width:1.2934;stroke-miterlimit:10;}
	.st50{fill:none;stroke:#000000;stroke-width:1.2946;stroke-miterlimit:10;}
	.st51{fill:none;stroke:#000000;stroke-width:1.2957;stroke-miterlimit:10;}
	.st52{fill:none;stroke:#000000;stroke-width:1.2968;stroke-miterlimit:10;}
	.st53{fill:none;stroke:#000000;stroke-width:1.298;stroke-miterlimit:10;}
	.st54{clip-path:url(#SVGID_16_);fill:none;stroke:#000000;stroke-width:1.298;stroke-miterlimit:10;}
	.st55{clip-path:url(#SVGID_18_);}
	.st56{clip-path:url(#SVGID_18_);fill:none;stroke:#000000;stroke-width:2.6222;stroke-miterlimit:10;}
	.st57{clip-path:url(#SVGID_20_);}
	.st58{clip-path:url(#SVGID_22_);}
	.st59{clip-path:url(#SVGID_24_);}
</style>
<g>
	<defs>
		<rect id="SVGID_5_" x="-2.3" width="1600" height="990.8"/>
	</defs>
	<clipPath id="SVGID_2_">
		<use xlink:href="#SVGID_5_"  style="overflow:visible;"/>
	</clipPath>
	<g class="st1">
		<path class="st6" d="M-39.4,998.4c38.8-29.4,78.8-59.5,128.1-84.9c49.2-25.4,110.4-45.4,152.7-43.7c16.1,0.7,28.9,4.4,46.3,3.8
			c17.4-0.6,42.8-7.5,56.1-18.9c9-7.7,9.7-15,8.5-21c-5.2-25.5-33.1-48.8,8.9-81.2c31.7-24.4,87.3-37.6,120.6-34.5
			s50.2,17.7,67.6,31.1c34.3,26.4,74.8,49.6,121.2,69.3c10.6,4.5,23.4,8.8,42.9,4.6c54-11.8,79.6-66.6,134.4-80.6
			c17.4-4.5,32.8-2.9,50.3-9.3c29.8-10.9,40.4-34.7,69.8-46.7c21.2-8.6,41-5.6,44.9,3c4,8.6-3.3,20.9-10.3,32.6
			c-18.8,31.4-36.7,63.6-32.4,89.1c4.3,25.5,36.1,43.1,90.4,35.3c48.4-6.9,108.2-34.7,137-63.9c31.6-31.9,33.7-67.2,87.2-93
			c51.5-24.8,117.3-22.1,159.1-51.7c19.6-13.9,23.1-28.3,23.4-40.3c2.5-103-120.3-156.8-181.5-235.7c-7.3-9.4-13.7-19.8-6.4-33.8
			c2.1-4.1,5.7-8.6,12.2-12.5c24.6-14.7,43.2,0.2,70.3-4c24.7-3.9,49.4-19.7,58.3-43.4c4.5-12,7.2-24.9,14.4-35.6
			c10-14.8,27.4-22.9,44.6-27.5c36-9.7,72.9-13.4,96.5-46.5c10.9-15.2,11.7-28.7,18-43.1c19.3-44.2,95.5-98.7,179.5-128.3"/>
		<path class="st6" d="M-40.2,996.4c38.8-28.7,78.7-58.8,127.4-84.3c10.7-5.6,21.9-11,33.3-15.9c40.7-17.7,84.2-30.1,116.5-29.3
			c11.1,0.3,20.5,2.1,31.1,2.8c4.4,0.3,9.1,0.4,14.1,0.2c17-0.9,42-8,55.4-19.3c9-7.6,9.8-14.7,8.7-20.6
			c-2.7-14.4-12.9-28-12.9-43.1c0.1-11,5.5-22.8,23-36.3c18-13.8,43.6-24.3,68.3-30.2c18.6-4.5,36.7-6.4,50.8-5.3
			c25.8,2,41.7,11.2,55.7,21.2c3.8,2.7,7.4,5.5,11.1,8.2c34.1,25.4,74.6,47.9,120.7,66.9c10.6,4.3,23.4,8.5,42.7,4.2
			c4.1-0.9,8-2.1,11.8-3.4c39.3-14.1,63.8-50.8,101.2-69.5c6.4-3.2,13.1-5.9,20.3-7.8c17.2-4.6,32.3-3.4,49.5-9.9
			c29.3-11,40-34.7,69.2-46.5c21-8.5,40.5-5.5,44.6,2.9c2.3,4.7,1.1,10.6-1.6,16.9c-2.1,4.9-5,10-7.9,15
			c-17.9,30.7-34.9,61.8-30.3,86.4c3.2,17.2,19.5,30.6,47.2,34.3c11.9,1.6,25.9,1.3,42-1.2c17.5-2.7,36.7-8.1,55.3-15.2
			c32.2-12.3,62.7-29.9,81.1-47.9c15.1-14.9,23.5-30.4,34-45.3c11.6-16.3,25.5-31.9,53.2-44.9c17.4-8.1,36.5-13.1,55.6-17.2
			c37.1-8.1,74.9-13,102.4-32c19.5-13.4,23.1-27.5,23.6-39.2c1-23.7-5-44.6-15.3-63.9c-8.8-16.4-20.7-31.6-34.4-46.3
			c-9-9.7-18.7-19.1-28.9-28.4c-25.8-23.9-54-47-77.2-72.2c-6.6-7.1-12.8-14.4-18.4-21.9c-7-9.3-13.2-19.7-5.9-33.5
			c2.1-4,5.7-8.6,12.2-12.4c11.8-7,22.1-7.3,32.8-6.2c11.5,1.2,23.2,4.1,37.1,1.9c24.6-3.7,49.1-18.9,58.2-42
			c4.6-11.7,7.4-24.3,14.7-34.6c10.2-14.4,27.8-22.4,45.2-27c1.5-0.4,3.1-0.8,4.6-1.2c34.2-8.8,69.4-14.2,92.6-46.1
			c11-15.2,12.1-28.7,18.7-43.1c11.9-25.9,42.3-54.9,81.3-79.8c29.6-18.9,64.5-35.9,100.3-49.1"/>
		<path class="st6" d="M-41.1,994.5c38.7-28,78.7-58,126.7-83.7c10.6-5.7,21.6-11.1,32.9-16.2c40.1-18,82.5-30.9,114-30.7
			c10.8,0.1,20,1.7,30.3,2.2c4.3,0.2,8.8,0.3,13.8-0.1c16.7-1.2,41.2-8.5,54.6-19.7c8.9-7.4,9.8-14.4,8.8-20.1
			c-2.4-14-12.2-27.1-11.9-41.8c0.3-10.7,5.8-22.3,23.2-35.6c18-13.8,43.3-24.3,67.6-30.4c18.3-4.6,36.1-6.9,50-6
			c25.3,1.5,41,10.3,55,19.9c3.7,2.6,7.3,5.2,11,7.9c33.9,24.3,74.2,46.3,120.1,64.4c10.6,4.2,23.3,8.1,42.4,3.8
			c4-0.9,7.9-2.1,11.7-3.4c39.1-14.1,63.6-50.5,100.4-69.4c6.3-3.2,12.9-5.9,20-8c16.9-4.8,31.8-3.9,48.7-10.5
			c28.8-11.2,39.7-34.7,68.7-46.4c20.7-8.4,40-5.5,44.2,2.7c2.4,4.6,1.2,10.4-1.2,16.5c-1.9,4.8-4.7,9.7-7.4,14.6
			c-16.9,29.9-33.2,60.1-28.3,83.7c3.4,16.5,19.5,29.5,46.7,32.6c11.7,1.4,25.4,0.8,41.3-1.9c17.3-2.9,36.4-8.3,54.8-15.4
			c32-12.3,62.5-29.4,80.8-47c15.1-14.5,23.6-29.7,34.2-44.1c11.6-15.9,25.6-30.9,53.1-43.3c17.3-7.8,36.2-12.4,55.2-16.3
			c36.8-7.6,74.3-12,101.7-30.4c19.3-13,23.1-26.6,23.8-38c1.4-23-4.2-43.4-13.9-62.1c-8.3-15.9-19.7-30.7-32.7-45.3
			c-8.6-9.6-18-19-27.7-28.3c-24.9-23.8-52.3-47.1-74.8-72.2c-6.4-7.1-12.3-14.3-17.7-21.8c-6.7-9.3-12.7-19.6-5.4-33.3
			c2.1-4,5.7-8.5,12.1-12.3c11.6-7,22-7.4,32.5-6.3c11.4,1.1,23.1,3.9,36.9,1.8c24.5-3.6,48.8-18.2,58-40.5
			c4.7-11.3,7.5-23.6,15-33.6c10.4-14,28.3-21.9,45.9-26.6c1.6-0.4,3.1-0.8,4.7-1.2c33.9-8.7,69.5-14.7,93.3-46.9
			c11.2-15.1,12.5-28.7,19.5-43c12.7-26.4,43.7-55.7,82.4-80.1c29.9-18.8,65.4-35.7,101.2-49.4"/>
		<path class="st6" d="M-41.9,992.6c38.6-27.3,78.6-57.2,126-83.1c10.5-5.7,21.4-11.3,32.4-16.4C156,874.8,197.3,861.4,228,861
			c10.5-0.2,19.5,1.3,29.5,1.6c4.2,0.1,8.6,0.1,13.4-0.3c16.3-1.4,40.5-9,53.9-20.1c8.9-7.3,9.8-14.2,9-19.7
			c-2.1-13.7-11.5-26.2-10.8-40.6c0.5-10.4,6.2-21.9,23.4-35c17.9-13.7,43-24.4,66.9-30.7c18-4.8,35.5-7.3,49.2-6.7
			c24.9,1.1,40.4,9.4,54.3,18.5c3.7,2.4,7.3,5,10.9,7.5c33.8,23.2,73.9,44.6,119.6,62c10.6,4,23.3,7.8,42.2,3.5
			c4-0.9,7.9-2.1,11.6-3.4c38.8-14.2,63.4-50.2,99.6-69.2c6.2-3.3,12.7-6,19.7-8.1c16.6-4.9,31.2-4.4,48-11.1
			c28.4-11.4,39.3-34.7,68.1-46.3c20.5-8.3,39.6-5.5,43.8,2.6c2.4,4.5,1.4,10.2-0.9,16.2c-1.8,4.6-4.4,9.5-7,14.2
			c-16,29.1-31.4,58.3-26.2,81c3.6,15.9,19.6,28.3,46.2,31c11.5,1.1,24.9,0.3,40.6-2.5c17.1-3.1,36-8.6,54.4-15.6
			c31.8-12.2,62.2-29,80.6-46.1c15.1-14.1,23.7-28.9,34.4-42.8c11.7-15.4,25.8-29.9,53-41.7c17.2-7.5,35.9-11.7,54.8-15.3
			c36.5-7.1,73.7-11,101-28.8c19.2-12.5,23.1-25.8,24-36.8c1.8-22.3-3.3-42.1-12.5-60.3c-7.8-15.5-18.6-29.8-31-44.3
			c-8.2-9.4-17.2-18.8-26.6-28.1c-24-23.8-50.6-47.2-72.3-72.2c-6.1-7.1-11.9-14.3-17.1-21.7c-6.5-9.3-12.1-19.5-4.9-33
			c2.2-4,5.8-8.4,12.1-12.2c11.5-6.9,21.8-7.4,32.3-6.4c11.4,1,23,3.7,36.7,1.7c24.3-3.4,48.4-17.5,57.9-39.1
			c4.8-10.9,7.7-22.9,15.2-32.6c10.6-13.6,28.8-21.4,46.6-26.1c1.6-0.4,3.1-0.8,4.7-1.2c33.6-8.6,69.5-15.3,93.9-47.8
			c11.3-15.1,13-28.7,20.2-43c13.6-26.9,45.1-56.6,83.5-80.3c30.3-18.8,66.3-35.5,102-49.8"/>
		<path class="st6" d="M-42.8,990.6c38.5-26.5,78.5-56.4,125.3-82.5c10.4-5.8,21.1-11.4,32-16.6c38.8-18.6,79.1-32.5,108.9-33.5
			c10.3-0.4,19,0.9,28.8,1c4.1,0.1,8.4-0.1,13.1-0.6c16-1.7,39.7-9.4,53.2-20.5c8.8-7.2,9.9-13.9,9.1-19.3
			c-1.7-13.3-10.8-25.4-9.8-39.4c0.7-10.2,6.6-21.4,23.6-34.4c17.9-13.6,42.7-24.4,66.2-31c17.7-5,34.9-7.8,48.4-7.4
			c24.5,0.6,39.8,8.5,53.6,17.2c3.7,2.3,7.2,4.8,10.8,7.2c33.6,22.2,73.6,42.9,119,59.6c10.5,3.9,23.2,7.4,41.9,3.1
			c4-0.9,7.8-2.1,11.5-3.5c38.6-14.2,63.2-49.9,98.9-69.1c6.1-3.3,12.5-6.1,19.4-8.3c16.3-5.1,30.7-4.8,47.2-11.6
			c27.9-11.5,39-34.7,67.5-46.2c20.2-8.1,39.1-5.4,43.5,2.5c2.5,4.4,1.6,9.9-0.6,15.8c-1.7,4.5-4.1,9.3-6.5,13.8
			c-15.1,28.4-29.6,56.5-24.1,78.3c3.8,15.2,19.6,27.2,45.7,29.3c11.3,0.9,24.4-0.2,39.9-3.1c16.9-3.3,35.7-8.8,54-15.8
			c31.7-12.1,61.9-28.5,80.4-45.2c15.1-13.7,23.8-28.1,34.5-41.6c11.8-14.9,25.9-28.9,52.8-40.2c17-7.1,35.6-11.1,54.4-14.4
			c36.2-6.6,73.2-10,100.3-27.2c19-12,23.2-25,24.2-35.6c2.2-21.6-2.5-40.9-11-58.5c-7.3-15.1-17.4-29-29.2-43.2
			c-7.7-9.4-16.4-18.7-25.5-28c-23.1-23.8-48.9-47.2-69.9-72.3c-5.9-7.1-11.5-14.3-16.5-21.7c-6.2-9.2-11.6-19.4-4.3-32.7
			c2.2-4,5.8-8.4,12-12.2c11.4-6.9,21.6-7.4,32.1-6.6c11.4,0.9,22.9,3.5,36.5,1.6c24.2-3.3,48.1-16.7,57.7-37.6
			c4.9-10.6,7.9-22.2,15.5-31.6c10.8-13.3,29.2-20.9,47.2-25.7c1.6-0.4,3.2-0.8,4.7-1.2c33.3-8.5,69.6-15.9,94.6-48.6
			c11.5-15,13.4-28.7,20.9-43c14.5-27.4,46.6-57.4,84.7-80.6c30.7-18.7,67.2-35.3,102.9-50.2"/>
		<path class="st6" d="M-43.6,988.7c38.4-25.8,78.5-55.6,124.7-81.9c10.2-5.8,20.9-11.5,31.5-16.8c38.2-18.9,77.4-33.3,106.4-35
			c10-0.6,18.5,0.5,28,0.4c4,0,8.2-0.2,12.8-0.8c15.6-2,38.9-9.9,52.5-20.8c8.7-7.1,9.9-13.6,9.3-18.9c-1.4-12.9-10-24.5-8.8-38.2
			c0.9-9.9,6.9-21,23.8-33.8c17.9-13.5,42.4-24.5,65.5-31.3c17.5-5.1,34.3-8.2,47.6-8.1c24,0.2,39.1,7.6,52.9,15.8
			c3.7,2.2,7.2,4.6,10.8,6.8c33.4,21.2,73.3,41.3,118.5,57.1c10.5,3.7,23.2,7.1,41.6,2.8c4-0.9,7.8-2.1,11.5-3.5
			c38.3-14.2,62.9-49.6,98.1-69c6-3.3,12.3-6.2,19.1-8.5c16.1-5.3,30.1-5.3,46.4-12.2c27.4-11.7,38.6-34.7,67-46.1
			c20-8,38.6-5.4,43.1,2.3c2.5,4.3,1.7,9.7-0.2,15.4c-1.5,4.4-3.8,9-6,13.5c-14.1,27.6-27.8,54.7-22.1,75.6
			c4,14.6,19.7,26,45.2,27.7c11.1,0.7,23.9-0.7,39.2-3.8c16.7-3.5,35.4-9,53.5-15.9c31.5-12,61.6-28.1,80.1-44.4
			c15.1-13.3,23.9-27.3,34.7-40.4c11.9-14.4,26-27.9,52.7-38.6c16.9-6.8,35.4-10.4,54-13.5c35.8-6,72.6-9,99.6-25.6
			c18.9-11.6,23.2-24.1,24.5-34.4c2.6-20.9-1.6-39.6-9.6-56.7c-6.8-14.6-16.3-28.1-27.5-42.2c-7.3-9.3-15.6-18.5-24.3-27.8
			c-22.2-23.8-47.2-47.3-67.5-72.3c-5.7-7.1-11.1-14.2-15.8-21.6c-5.9-9.2-11.1-19.3-3.8-32.4c2.2-4,5.8-8.3,12-12.1
			c11.3-6.9,21.5-7.5,31.9-6.7c11.3,0.8,22.8,3.3,36.3,1.5c24.1-3.2,47.8-16,57.6-36.2c4.9-10.2,8.1-21.5,15.8-30.6
			c11-12.9,29.7-20.4,47.9-25.2c1.6-0.4,3.2-0.8,4.8-1.2c33-8.4,69.6-16.5,95.3-49.4c11.6-15,13.8-28.7,21.7-42.9
			c15.4-27.9,48-58.2,85.8-80.9c31.1-18.7,68.1-35.1,103.8-50.6"/>
		<path class="st6" d="M-44.5,986.8c38.3-25.1,78.4-54.8,124-81.3c10.1-5.9,20.6-11.6,31.1-17c37.5-19.2,75.7-34.1,103.9-36.4
			c9.7-0.8,18,0,27.2-0.2c3.9-0.1,8-0.4,12.5-1.1c15.2-2.3,38.2-10.4,51.8-21.2c8.7-6.9,9.9-13.3,9.5-18.4
			c-1.1-12.5-9.3-23.7-7.8-36.9c1.1-9.6,7.3-20.5,24-33.2c17.8-13.4,42.1-24.6,64.9-31.5c17.2-5.3,33.7-8.7,46.8-8.8
			c23.6-0.2,38.5,6.7,52.2,14.5c3.6,2.1,7.1,4.3,10.7,6.5c33.2,20.1,73,39.6,118,54.7c10.5,3.5,23.1,6.8,41.4,2.4
			c3.9-0.9,7.7-2.1,11.4-3.5c38.1-14.2,62.7-49.3,97.3-68.9c6-3.4,12.2-6.3,18.8-8.6c15.8-5.4,29.6-5.8,45.7-12.8
			c27-11.8,38.3-34.7,66.4-45.9c19.7-7.9,38.1-5.3,42.8,2.2c2.6,4.2,1.9,9.4,0.1,15c-1.4,4.3-3.5,8.8-5.6,13.1
			c-13.2,26.8-26,53-20,72.9c4.2,13.9,19.7,24.9,44.8,26c10.9,0.5,23.4-1.1,38.5-4.4c16.5-3.6,35.1-9.3,53.1-16.1
			c31.3-11.9,61.3-27.6,79.9-43.5c15.2-12.9,24-26.6,34.9-39.1c12-13.9,26.2-26.9,52.6-37.1c16.8-6.5,35.1-9.7,53.5-12.5
			c35.5-5.5,72-8,98.9-24c18.7-11.1,23.2-23.3,24.7-33.2c3.1-20.3-0.8-38.4-8.2-54.9c-6.3-14.2-15.2-27.3-25.8-41.2
			c-6.9-9.1-14.9-18.4-23.2-27.6c-21.3-23.7-45.5-47.4-65.1-72.3c-5.5-7-10.6-14.2-15.2-21.5c-5.7-9.1-10.6-19.2-3.3-32.2
			c2.2-3.9,5.8-8.3,11.9-12c11.2-6.8,21.3-7.5,31.6-6.8c11.3,0.7,22.7,3.2,36.1,1.4c23.9-3.1,47.5-15.3,57.4-34.7
			c5-9.9,8.2-20.8,16-29.6c11.2-12.6,30.2-19.9,48.5-24.8c1.6-0.4,3.2-0.8,4.8-1.2c32.8-8.3,69.7-17,95.9-50.2
			c11.8-14.9,14.3-28.7,22.4-42.9c16.3-28.4,49.5-58.9,87-81.1c31.5-18.6,69-35,104.6-51"/>
		<path class="st6" d="M-45.3,984.8c38.2-24.4,78.3-54,123.3-80.7c10-5.9,20.3-11.7,30.6-17.2c36.9-19.5,74-34.9,101.4-37.8
			c9.4-1,17.5-0.4,26.5-0.8c3.8-0.2,7.8-0.5,12.2-1.3c14.9-2.6,37.4-10.9,51-21.6c8.6-6.8,9.9-13.1,9.6-18
			c-0.8-12.2-8.6-22.8-6.8-35.7c1.3-9.3,7.7-20.1,24.2-32.6c17.8-13.4,41.8-24.6,64.2-31.8c16.9-5.5,33.1-9.1,46-9.5
			c23.1-0.7,37.9,5.8,51.5,13.1c3.6,1.9,7.1,4.1,10.6,6.1c33,19.1,72.7,37.9,117.4,52.3c10.5,3.4,23.1,6.4,41.1,2
			c3.9-0.9,7.7-2.1,11.3-3.5c37.9-14.2,62.5-49,96.6-68.8c5.9-3.4,12-6.4,18.5-8.8c15.5-5.6,29.1-6.2,44.9-13.4
			c26.5-12,37.9-34.7,65.8-45.8c19.5-7.8,37.7-5.3,42.4,2.1c2.6,4.1,2.1,9.2,0.4,14.6c-1.3,4.2-3.1,8.5-5.1,12.7
			c-12.3,26-24.2,51.2-18,70.2c4.4,13.3,19.8,23.7,44.3,24.4c10.7,0.3,23-1.6,37.8-5.1c16.3-3.8,34.8-9.5,52.7-16.3
			c31.1-11.8,61-27.1,79.7-42.6c15.2-12.5,24.1-25.8,35.1-37.9c12.1-13.4,26.3-25.9,52.4-35.5c16.7-6.2,34.8-9,53.1-11.6
			c35.2-4.9,71.4-7,98.2-22.4c18.5-10.6,23.2-22.4,24.9-32c3.5-19.6,0-37.1-6.8-53.1c-5.8-13.7-14.1-26.4-24-40.2
			c-6.5-9-14.1-18.2-22.1-27.5c-20.4-23.7-43.9-47.4-62.6-72.4c-5.3-7-10.2-14.2-14.5-21.5c-5.4-9.1-10.1-19.1-2.8-31.9
			c2.2-3.9,5.8-8.2,11.9-11.9c11.1-6.8,21.1-7.5,31.4-7c11.3,0.6,22.6,3,35.9,1.3c23.8-3,47.1-14.5,57.3-33.3
			c5.1-9.5,8.4-20.1,16.3-28.6c11.4-12.2,30.6-19.5,49.2-24.3c1.6-0.4,3.2-0.8,4.9-1.3c32.5-8.3,69.7-17.6,96.6-51.1
			c11.9-14.8,14.8-28.7,23.2-42.8c17.2-28.9,50.9-59.7,88.1-81.4c31.9-18.5,70-34.8,105.5-51.4"/>
		<path class="st6" d="M-46.2,982.9c38.1-23.7,78.2-53.2,122.6-80.1c9.9-6,20.1-11.9,30.2-17.4c36.3-19.9,72.3-35.7,98.9-39.2
			c9.2-1.2,16.9-0.8,25.7-1.4c3.7-0.3,7.6-0.7,11.8-1.6c14.5-2.9,36.6-11.4,50.3-22c8.6-6.7,10-12.8,9.8-17.6
			c-0.5-11.8-7.9-22-5.7-34.5c1.6-9.1,8-19.6,24.4-32c17.7-13.3,41.5-24.7,63.5-32.1c16.6-5.6,32.5-9.5,45.2-10.2
			c22.6-1.1,37.2,4.9,50.8,11.7c3.6,1.8,7,3.9,10.5,5.8c32.8,18,72.4,36.2,116.9,49.9c10.5,3.2,23,6.1,40.9,1.7
			c3.9-1,7.6-2.2,11.2-3.5c37.6-14.3,62.3-48.7,95.8-68.7c5.8-3.4,11.8-6.5,18.2-8.9c15.2-5.8,28.5-6.7,44.1-14
			c26-12.1,37.6-34.7,65.3-45.7c19.2-7.7,37.2-5.2,42,1.9c2.7,4,2.2,9,0.8,14.3c-1.1,4.1-2.8,8.3-4.7,12.3
			c-11.3,25.3-22.5,49.4-15.9,67.5c4.6,12.6,19.8,22.6,43.8,22.7c10.5,0.1,22.5-2.1,37.1-5.7c16.1-4,34.4-9.7,52.2-16.5
			c31-11.7,60.7-26.7,79.4-41.7c15.2-12.1,24.2-25,35.2-36.7c12.2-12.9,26.5-24.8,52.3-33.9c16.6-5.8,34.6-8.4,52.7-10.7
			c34.9-4.4,70.8-6,97.5-20.8c18.4-10.1,23.2-21.6,25.1-30.8c3.9-18.9,0.8-35.9-5.4-51.3c-5.4-13.3-13-25.5-22.3-39.2
			c-6.1-8.9-13.3-18.1-20.9-27.3c-19.5-23.7-42.2-47.5-60.2-72.4c-5.1-7-9.8-14.1-13.9-21.4c-5.1-9.1-9.6-19-2.3-31.6
			c2.3-3.9,5.8-8.2,11.8-11.8c11-6.7,20.9-7.6,31.2-7.1c11.3,0.6,22.6,2.8,35.7,1.2c23.7-2.8,46.9-13.8,57.2-31.8
			c5.2-9.1,8.6-19.5,16.6-27.6c11.7-11.8,31.1-19,49.8-23.9c1.6-0.4,3.3-0.8,4.9-1.3c32.2-8.2,69.7-18.2,97.3-51.9
			c12.1-14.8,15.2-28.7,23.9-42.8c18.1-29.3,52.4-60.5,89.3-81.6c32.3-18.5,70.9-34.6,106.4-51.8"/>
		<path class="st6" d="M-47,981c38-22.9,78.1-52.5,122-79.5c9.8-6,19.8-12,29.7-17.6c35.6-20.2,70.5-36.5,96.4-40.6
			c8.9-1.4,16.4-1.2,24.9-2c3.6-0.3,7.3-0.9,11.5-1.8c14.2-3.2,35.9-11.9,49.6-22.4c8.5-6.5,10-12.5,9.9-17.1
			c-0.2-11.4-7.2-21.1-4.7-33.2c1.8-8.8,8.3-19.2,24.6-31.4c17.6-13.2,41.2-24.7,62.8-32.4c16.3-5.8,31.9-10,44.4-10.9
			c22.2-1.6,36.6,4,50.1,10.4c3.6,1.7,7,3.6,10.5,5.4c32.6,17,72.1,34.5,116.3,47.4c10.5,3.1,23,5.7,40.6,1.3
			c3.9-1,7.6-2.2,11.2-3.5c37.4-14.3,62.1-48.5,95-68.6c5.7-3.5,11.6-6.6,17.9-9.1c15-5.9,28-7.2,43.3-14.5
			c25.5-12.3,37.2-34.7,64.7-45.6c19-7.5,36.7-5.2,41.7,1.8c2.7,3.9,2.4,8.7,1.1,13.9c-1,3.9-2.5,8.1-4.2,12
			c-10.4,24.5-20.7,47.6-13.8,64.8c4.8,12,19.9,21.4,43.3,21.1c10.3-0.1,22-2.5,36.4-6.3c15.8-4.2,34.1-10,51.8-16.7
			c30.8-11.6,60.4-26.2,79.2-40.8c15.2-11.7,24.3-24.2,35.4-35.4c12.3-12.4,26.6-23.8,52.2-32.4c16.4-5.5,34.3-7.7,52.3-9.7
			c34.5-3.9,70.2-5,96.8-19.2c18.2-9.7,23.2-20.7,25.3-29.6c4.3-18.2,1.7-34.6-4-49.5c-4.9-12.8-11.9-24.7-20.6-38.2
			c-5.7-8.8-12.6-18-19.8-27.2c-18.7-23.7-40.5-47.5-57.8-72.4c-4.9-7-9.4-14.1-13.3-21.4c-4.9-9-9-18.9-1.8-31.4
			c2.3-3.9,5.9-8.1,11.8-11.7c10.9-6.7,20.8-7.6,31-7.2c11.2,0.5,22.5,2.6,35.5,1.1c23.6-2.7,46.5-13.1,57-30.4
			c5.3-8.8,8.8-18.8,16.8-26.6c11.9-11.5,31.6-18.5,50.5-23.4c1.7-0.4,3.3-0.9,5-1.3c31.9-8.1,69.8-18.8,97.9-52.7
			c12.2-14.8,15.7-28.7,24.7-42.8c19-29.8,53.9-61.3,90.4-81.9c32.7-18.4,71.8-34.4,107.2-52.1"/>
		<path class="st6" d="M-47.9,979c37.9-22.2,78.1-51.7,121.3-78.8c9.7-6.1,19.6-12.1,29.3-17.8c35-20.5,68.8-37.3,93.9-42
			c8.6-1.6,15.9-1.6,24.2-2.6c3.5-0.4,7.1-1,11.2-2c13.8-3.5,35.1-12.3,48.9-22.8c8.4-6.4,10-12.2,10.1-16.7
			c0.2-11.1-6.4-20.3-3.7-32c2-8.6,8.7-18.8,24.8-30.8c17.6-13.1,40.9-24.8,62.1-32.6c16-6,31.3-10.4,43.6-11.6
			c21.7-2,35.9,3.1,49.4,9c3.5,1.6,6.9,3.4,10.4,5.1c32.5,15.9,71.8,32.8,115.8,45c10.5,2.9,22.9,5.4,40.3,1c3.8-1,7.5-2.2,11.1-3.6
			c37.1-14.3,61.8-48.2,94.3-68.4c5.6-3.5,11.4-6.7,17.6-9.3c14.7-6.1,27.5-7.6,42.6-15.1c25.1-12.4,36.9-34.7,64.2-45.5
			c18.7-7.4,36.3-5.1,41.3,1.7c2.8,3.8,2.6,8.5,1.4,13.5c-0.9,3.8-2.2,7.8-3.7,11.6c-9.5,23.7-18.9,45.9-11.8,62.1
			c5,11.4,19.9,20.2,42.8,19.4c10.1-0.4,21.5-3,35.7-7c15.6-4.3,33.8-10.2,51.4-16.8c30.6-11.6,60.1-25.8,79-39.9
			c15.2-11.4,24.4-23.5,35.6-34.2c12.5-12,26.8-22.8,52-30.8c16.3-5.2,34-7,51.8-8.8c34.2-3.4,69.5-4,96.2-17.6
			c18-9.2,23.3-19.9,25.6-28.4c4.7-17.5,2.5-33.3-2.5-47.7c-4.4-12.4-10.8-23.8-18.8-37.1c-5.2-8.7-11.8-17.8-18.7-27
			c-17.8-23.7-38.8-47.6-55.4-72.5c-4.6-7-8.9-14.1-12.6-21.3c-4.6-9-8.5-18.8-1.2-31.1c2.3-3.9,5.9-8,11.7-11.6
			c10.8-6.7,20.6-7.7,30.7-7.3c11.2,0.4,22.4,2.4,35.3,1c23.4-2.6,46.2-12.3,56.9-29c5.4-8.4,9-18.1,17.1-25.6
			c12.1-11.1,32-18,51.1-23c1.7-0.4,3.3-0.9,5-1.3c31.6-8,69.8-19.3,98.6-53.5c12.4-14.7,16.2-28.7,25.4-42.7
			c19.9-30.3,55.4-62,91.6-82.1c33.1-18.3,72.7-34.2,108.1-52.5"/>
		<path class="st6" d="M-48.7,977.1c37.8-21.5,78-50.9,120.6-78.2c9.6-6.1,19.3-12.2,28.8-18c34.4-20.8,67.1-38.1,91.4-43.4
			c8.3-1.8,15.4-2,23.4-3.2c3.3-0.5,6.9-1.2,10.9-2.3c13.5-3.7,34.3-12.8,48.1-23.2c8.4-6.3,10.1-12,10.3-16.3
			c0.5-10.7-5.7-19.4-2.7-30.8c2.2-8.3,9.1-18.3,25-30.2c17.5-13.1,40.6-24.9,61.4-32.9c15.7-6.1,30.7-10.9,42.8-12.3
			c21.2-2.4,35.3,2.2,48.7,7.7c3.5,1.4,6.9,3.2,10.3,4.8c32.3,14.9,71.5,31.1,115.3,42.6c10.5,2.8,22.9,5,40.1,0.6
			c3.8-1,7.5-2.2,11-3.6c36.9-14.3,61.6-47.9,93.5-68.3c5.6-3.6,11.2-6.8,17.3-9.4c14.4-6.3,26.9-8.1,41.8-15.7
			c24.6-12.6,36.5-34.7,63.6-45.3c18.5-7.3,35.8-5.1,40.9,1.5c2.8,3.7,2.7,8.3,1.8,13.1c-0.7,3.7-1.9,7.6-3.3,11.2
			c-8.5,22.9-17.2,44.1-9.7,59.4c5.2,10.7,20,19.1,42.4,17.8c10-0.6,21-3.5,35-7.6c15.4-4.5,33.5-10.4,50.9-17
			c30.4-11.5,59.7-25.3,78.7-39c15.2-11,24.5-22.7,35.8-32.9c12.6-11.5,26.9-21.8,51.9-29.2c16.2-4.8,33.8-6.4,51.4-7.9
			c33.9-2.9,68.9-3,95.5-16c17.9-8.7,23.3-19,25.8-27.2c5.1-16.7,3.4-32.1-1.1-45.9c-3.9-11.9-9.7-23-17.1-36.1
			c-4.8-8.6-11-17.7-17.5-26.9c-16.9-23.6-37.1-47.6-52.9-72.5c-4.4-7-8.5-14-12-21.2c-4.3-9-8-18.7-0.7-30.8
			c2.3-3.9,5.9-8,11.7-11.6c10.7-6.6,20.4-7.7,30.5-7.5c11.2,0.3,22.3,2.2,35,0.9c23.3-2.4,45.9-11.6,56.7-27.5
			c5.5-8.1,9.2-17.4,17.4-24.6c12.4-10.8,32.5-17.5,51.8-22.5c1.7-0.4,3.4-0.9,5-1.3c31.3-7.9,69.8-19.9,99.3-54.3
			c12.5-14.7,16.7-28.7,26.1-42.7c20.9-30.8,56.8-62.8,92.7-82.4c33.5-18.3,73.6-34,109-52.9"/>
		<path class="st6" d="M-49.6,975.1c37.7-20.8,77.9-50.1,119.9-77.6c9.5-6.2,19.1-12.3,28.4-18.2c33.7-21.1,65.4-38.9,88.9-44.8
			c8-2,14.9-2.4,22.6-3.8c3.2-0.6,6.7-1.4,10.5-2.5c13.1-4,33.6-13.3,47.4-23.6c8.3-6.1,10.1-11.7,10.4-15.9
			c0.8-10.3-5-18.6-1.7-29.5c2.4-8,9.4-17.9,25.2-29.6c17.5-13,40.3-24.9,60.8-33.2c15.5-6.3,30.1-11.3,42-12.9
			c20.8-2.8,34.7,1.3,48,6.3c3.5,1.3,6.8,2.9,10.2,4.4c32.1,13.8,71.2,29.4,114.7,40.1c10.5,2.6,22.8,4.7,39.8,0.2
			c3.8-1,7.4-2.2,10.9-3.6c36.7-14.3,61.4-47.6,92.7-68.2c5.5-3.6,11.1-6.9,17-9.6c14.1-6.4,26.4-8.6,41-16.3
			c24.1-12.7,36.2-34.7,63-45.2c18.2-7.2,35.3-5,40.6,1.4c2.9,3.5,2.9,8,2.1,12.7c-0.6,3.6-1.6,7.3-2.8,10.9
			c-7.6,22.1-15.4,42.3-7.6,56.8c5.4,10.1,20.1,17.9,41.9,16.1c9.8-0.8,20.5-4,34.3-8.3c15.2-4.7,33.2-10.7,50.5-17.2
			c30.3-11.4,59.4-24.8,78.5-38.1c15.2-10.6,24.7-21.9,35.9-31.7c12.7-11,27.1-20.8,51.8-27.7c16.1-4.5,33.5-5.7,51-6.9
			c33.5-2.3,68.3-2,94.8-14.4c17.7-8.3,23.3-18.1,26-26c5.5-16,4.2-30.8,0.3-44.1c-3.4-11.4-8.6-22.1-15.4-35.1
			c-4.4-8.5-10.2-17.6-16.4-26.7c-16-23.6-35.4-47.7-50.5-72.5c-4.2-7-8.1-14-11.4-21.2c-4.1-8.9-7.5-18.6-0.2-30.6
			c2.3-3.8,5.9-7.9,11.6-11.5c10.6-6.6,20.3-7.7,30.3-7.6c11.1,0.2,22.2,2.1,34.8,0.8c23.2-2.3,45.6-10.9,56.6-26.1
			c5.6-7.7,9.4-16.7,17.7-23.6c12.6-10.4,33-17,52.5-22.1c1.7-0.4,3.4-0.9,5.1-1.3c31-7.9,69.9-20.5,99.9-55.2
			c12.7-14.6,17.2-28.7,26.9-42.6c21.8-31.3,58.3-63.5,93.9-82.6c33.9-18.2,74.5-33.8,109.9-53.3"/>
		<path class="st6" d="M-50.4,973.2c37.7-20.1,77.8-49.4,119.2-77c9.4-6.3,18.8-12.5,27.9-18.4c33.1-21.5,63.6-39.6,86.3-46.2
			c7.7-2.2,14.4-2.8,21.9-4.4c3.1-0.7,6.5-1.5,10.2-2.8c12.8-4.3,32.8-13.8,46.7-23.9c8.2-6,10.1-11.4,10.6-15.4
			c1.1-9.9-4.3-17.7-0.7-28.3c2.6-7.8,9.8-17.4,25.4-29c17.4-12.9,40-25,60.1-33.5c15.2-6.5,29.4-11.8,41.2-13.6
			c20.3-3.2,34,0.4,47.3,5c3.5,1.2,6.8,2.7,10.2,4.1c31.9,12.8,71,27.7,114.2,37.7c10.5,2.4,22.8,4.3,39.6-0.1
			c3.7-1,7.3-2.2,10.9-3.6c36.4-14.3,61.2-47.3,92-68.1c5.4-3.6,10.9-7,16.7-9.8c13.9-6.6,25.9-9.1,40.2-16.8
			c23.7-12.8,35.8-34.7,62.5-45.1c18-7.1,34.8-5,40.2,1.3c2.9,3.4,3,7.8,2.4,12.4c-0.5,3.5-1.3,7.1-2.3,10.5
			c-6.6,21.4-13.6,40.6-5.6,54.1c5.6,9.4,20.1,16.7,41.4,14.5c9.6-1,20-4.5,33.6-8.9c15-4.9,32.8-10.9,50.1-17.4
			c30.1-11.3,59.1-24.4,78.3-37.2c15.2-10.2,24.8-21.2,36.1-30.5c12.8-10.5,27.2-19.8,51.6-26.1c16-4.2,33.2-5,50.6-6
			c33.2-1.8,67.7-1,94.1-12.8c17.5-7.8,23.3-17.3,26.2-24.8c5.9-15.3,5-29.6,1.7-42.3c-2.9-11-7.5-21.2-13.6-34.1
			c-4-8.4-9.5-17.4-15.3-26.5c-15.1-23.6-33.7-47.7-48.1-72.6c-4-6.9-7.7-14-10.7-21.1c-3.8-8.9-7-18.5,0.3-30.3
			c2.4-3.8,5.9-7.9,11.6-11.4c10.5-6.5,20.1-7.8,30.1-7.7c11.1,0.1,22.1,1.9,34.6,0.7c23.1-2.2,45.3-10.1,56.4-24.6
			c5.6-7.3,9.6-16,17.9-22.6c12.9-10.1,33.4-16.6,53.1-21.6c1.7-0.4,3.4-0.9,5.1-1.3c30.7-7.8,69.9-21.1,100.6-56
			c12.8-14.6,17.7-28.7,27.6-42.6c22.8-31.8,59.8-64.3,95-82.9c34.3-18.1,75.4-33.7,110.7-53.7"/>
		<path class="st6" d="M-51.3,971.3c37.6-19.3,77.7-48.6,118.6-76.4c9.3-6.3,18.5-12.6,27.5-18.6c32.5-21.8,61.9-40.4,83.8-47.6
			c7.4-2.4,13.9-3.2,21.1-5c3-0.8,6.3-1.7,9.9-3c12.4-4.6,32-14.3,46-24.3c8.2-5.9,10.2-11.1,10.7-15c1.4-9.5-3.5-16.9,0.4-27.1
			c2.9-7.5,10.1-17,25.6-28.4c17.4-12.8,39.7-25.1,59.4-33.7c14.9-6.6,28.8-12.2,40.4-14.3c19.8-3.7,33.3-0.5,46.6,3.6
			c3.4,1.1,6.7,2.5,10.1,3.7c31.8,11.7,70.7,26,113.6,35.3c10.5,2.3,22.7,4,39.3-0.5c3.7-1,7.3-2.2,10.8-3.6
			c36.2-14.4,60.9-47.1,91.2-68c5.3-3.7,10.7-7.1,16.4-9.9c13.6-6.7,25.3-9.5,39.5-17.4c23.2-13,35.5-34.7,61.9-45
			c17.7-6.9,34.4-5,39.8,1.1c3,3.3,3.2,7.6,2.8,12c-0.3,3.4-1,6.9-1.9,10.1c-5.7,20.6-11.8,38.8-3.5,51.4
			c5.8,8.8,20.2,15.6,40.9,12.8c9.4-1.2,19.5-4.9,32.9-9.6c14.8-5.1,32.5-11.1,49.6-17.5c29.9-11.2,58.8-23.9,78-36.3
			c15.2-9.8,24.9-20.4,36.3-29.2c12.9-10,27.4-18.7,51.5-24.6c15.9-3.8,32.9-4.4,50.1-5.1c32.9-1.3,67,0,93.4-11.2
			c17.3-7.4,23.3-16.4,26.4-23.6c6.3-14.6,5.9-28.3,3.1-40.5c-2.4-10.5-6.4-20.4-11.9-33.1c-3.6-8.3-8.7-17.3-14.1-26.4
			c-14.2-23.6-32.1-47.8-45.7-72.6c-3.8-6.9-7.2-13.9-10.1-21.1c-3.5-8.8-6.4-18.4,0.8-30c2.4-3.8,6-7.8,11.6-11.3
			c10.3-6.5,19.9-7.8,29.8-7.8c11.1,0,22,1.7,34.4,0.6c22.9-2,45-9.4,56.3-23.2c5.7-7,9.8-15.3,18.2-21.6
			c13.1-9.7,33.9-16.1,53.8-21.2c1.7-0.4,3.4-0.9,5.2-1.3c30.4-7.7,69.9-21.7,101.3-56.8c13-14.5,18.2-28.7,28.4-42.5
			c23.7-32.2,61.3-65,96.1-83.1c34.7-18,76.3-33.5,111.6-54.1"/>
		<path class="st6" d="M-52.2,969.3c37.5-18.6,77.7-47.8,117.9-75.8c9.2-6.4,18.3-12.7,27-18.8c31.8-22.1,60.1-41.2,81.3-49
			c7.1-2.6,13.4-3.6,20.3-5.6c2.9-0.8,6.1-1.9,9.6-3.3c12.1-4.9,31.2-14.8,45.3-24.7c8.1-5.8,10.2-10.9,10.9-14.6
			c1.7-9.2-2.8-16.1,1.4-25.9c3.1-7.2,10.5-16.5,25.8-27.8c17.3-12.8,39.4-25.1,58.7-34c14.6-6.8,28.2-12.6,39.6-15
			c19.3-4.1,32.7-1.4,45.9,2.3c3.4,0.9,6.7,2.2,10,3.4c31.6,10.7,70.4,24.3,113.1,32.8c10.5,2.1,22.7,3.6,39.1-0.8
			c3.7-1,7.2-2.2,10.7-3.6c36-14.4,60.7-46.8,90.4-67.9c5.2-3.7,10.5-7.2,16.1-10.1c13.3-6.9,24.8-10,38.7-18
			c22.7-13.1,35.2-34.7,61.4-44.9c17.5-6.8,33.9-4.9,39.5,1c3,3.2,3.4,7.3,3.1,11.6c-0.2,3.3-0.7,6.6-1.4,9.7
			c-4.7,19.8-10,37-1.5,48.7c6,8.1,20.3,14.4,40.4,11.2c9.2-1.5,19-5.4,32.2-10.2c14.6-5.3,32.2-11.4,49.2-17.7
			c29.7-11.1,58.5-23.5,77.8-35.4c15.2-9.4,25-19.6,36.4-28c13-9.5,27.5-17.7,51.4-23c15.8-3.5,32.7-3.7,49.7-4.1
			c32.6-0.8,66.4,1,92.7-9.6c17.1-6.9,23.3-15.5,26.6-22.4c6.7-13.8,6.7-27,4.5-38.7c-1.9-10.1-5.3-19.5-10.2-32
			c-3.2-8.2-7.9-17.1-13-26.2c-13.3-23.6-30.4-47.8-43.2-72.6c-3.6-6.9-6.8-13.9-9.4-21c-3.3-8.8-5.9-18.3,1.3-29.7
			c2.4-3.8,6-7.8,11.5-11.2c10.2-6.4,19.7-7.9,29.6-8c11.1-0.1,22,1.5,34.2,0.5c22.8-1.9,44.6-8.7,56.2-21.7
			c5.8-6.6,10-14.7,18.5-20.6c13.4-9.3,34.4-15.6,54.4-20.7c1.7-0.4,3.5-0.9,5.2-1.3c30.1-7.6,69.9-22.3,101.9-57.6
			c13.1-14.5,18.7-28.7,29.1-42.5c24.7-32.7,62.8-65.7,97.3-83.4c35.1-18,77.2-33.3,112.5-54.5"/>
		<path class="st6" d="M-53,967.4c37.4-17.9,77.6-47.1,117.2-75.2c9-6.4,18-12.9,26.6-19c31.2-22.4,58.4-42,78.8-50.4
			c6.9-2.8,12.9-4,19.5-6.2c2.8-0.9,5.9-2,9.3-3.5c11.7-5.2,30.5-15.2,44.5-25.1c8.1-5.6,10.2-10.6,11.1-14.1
			c2.1-8.8-2.1-15.2,2.4-24.6c3.3-7,10.9-16.1,26.1-27.2c17.3-12.7,39.1-25.2,58-34.3c14.3-7,27.6-13,38.8-15.7
			c18.8-4.5,32-2.2,45.2,0.9c3.4,0.8,6.6,2,9.9,3c31.4,9.6,70.1,22.6,112.6,30.4c10.5,1.9,22.6,3.3,38.8-1.2c3.7-1,7.2-2.3,10.6-3.6
			c35.7-14.4,60.5-46.5,89.7-67.8c5.2-3.8,10.3-7.3,15.8-10.3c13-7.1,24.3-10.4,37.9-18.6c22.3-13.3,34.8-34.7,60.8-44.7
			c17.2-6.7,33.4-4.9,39.1,0.9c3.1,3.1,3.5,7.1,3.4,11.2c-0.1,3.2-0.4,6.4-0.9,9.4c-3.8,19-8.3,35.3,0.6,46
			c6.2,7.5,20.4,13.2,40,9.5c9.1-1.7,18.5-5.9,31.5-10.8c14.4-5.5,31.9-11.6,48.8-17.9c29.6-11,58.2-23,77.6-34.5
			c15.2-9,25.1-18.8,36.6-26.7c13.2-9,27.7-16.7,51.2-21.4c15.6-3.2,32.4-3,49.3-3.2c32.2-0.3,65.8,2,92-8
			c16.9-6.4,23.3-14.6,26.9-21.3c7.1-13.1,7.5-25.8,6-36.9c-1.4-9.6-4.2-18.6-8.4-31c-2.7-8.1-7.1-17-11.9-26.1
			c-12.4-23.6-28.7-47.9-40.8-72.7c-3.4-6.9-6.4-13.9-8.8-20.9c-3-8.8-5.4-18.2,1.9-29.5c2.4-3.8,6-7.7,11.5-11.1
			c10.1-6.4,19.6-7.9,29.4-8.1c11-0.2,21.9,1.3,34,0.4c22.7-1.8,44.3-7.9,56-20.3c5.9-6.3,10.2-14,18.7-19.6
			c13.6-9,34.8-15.1,55.1-20.3c1.8-0.4,3.5-0.9,5.2-1.3c29.9-7.5,69.9-22.9,102.6-58.5c13.2-14.4,19.2-28.7,29.8-42.5
			c25.7-33.2,64.3-66.5,98.4-83.6c35.5-17.9,78.1-33.1,113.3-54.8"/>
		<path class="st6" d="M-53.9,965.5c37.3-17.2,77.5-46.3,116.5-74.6c8.9-6.5,17.8-13,26.1-19.2c30.6-22.7,56.6-42.7,76.3-51.9
			c6.6-3,12.3-4.4,18.8-6.8c2.7-1,5.7-2.2,8.9-3.8c11.4-5.5,29.7-15.7,43.8-25.5c8-5.5,10.3-10.3,11.2-13.7
			c2.4-8.4-1.3-14.4,3.4-23.4c3.5-6.7,11.2-15.6,26.3-26.6c17.2-12.6,38.8-25.2,57.3-34.6c14-7.1,27-13.5,38-16.4
			c18.4-4.9,31.4-3.1,44.5-0.5c3.3,0.7,6.6,1.8,9.9,2.7c31.2,8.6,69.9,20.9,112,28c10.5,1.8,22.6,2.9,38.5-1.6
			c3.6-1,7.1-2.3,10.6-3.7c35.5-14.4,60.3-46.2,88.9-67.6c5.1-3.8,10.2-7.4,15.5-10.4c12.8-7.2,23.7-10.9,37.1-19.2
			c21.8-13.4,34.5-34.7,60.2-44.6c17-6.6,32.9-4.8,38.7,0.7c3.1,3,3.7,6.9,3.8,10.8c0.1,3,0,6.1-0.5,9c-2.8,18.2-6.5,33.5,2.7,43.3
			c6.4,6.8,20.5,12,39.5,7.9c8.9-1.9,18-6.4,30.8-11.5c14.2-5.6,31.6-11.8,48.3-18.1c29.4-10.9,57.9-22.5,77.3-33.6
			c15.2-8.7,25.3-18.1,36.8-25.5c13.3-8.6,27.9-15.7,51.1-19.9c15.5-2.8,32.1-2.4,48.9-2.3c31.9,0.2,65.1,2.9,91.3-6.4
			c16.8-6,23.3-13.8,27.1-20.1c7.4-12.3,8.4-24.5,7.4-35.1c-0.9-9.2-3.1-17.8-6.7-30c-2.3-8-6.4-16.9-10.7-25.9
			c-11.5-23.6-27-47.9-38.4-72.7c-3.2-6.9-6-13.8-8.2-20.9c-2.7-8.7-4.9-18.1,2.4-29.2c2.4-3.7,6-7.6,11.4-11.1
			c10-6.4,19.4-7.9,29.2-8.2c11-0.3,21.8,1.2,33.8,0.3c22.6-1.6,44-7.2,55.9-18.9c6-5.9,10.5-13.3,19-18.5
			c13.9-8.6,35.3-14.6,55.7-19.8c1.8-0.4,3.5-0.9,5.3-1.3c29.6-7.4,70-23.5,103.3-59.3c13.4-14.4,19.7-28.7,30.6-42.4
			c26.7-33.6,65.8-67.2,99.6-83.9c36-17.8,79.1-32.9,114.2-55.2"/>
		<path class="st6" d="M-54.7,963.5c37.2-16.5,77.4-45.5,115.9-74c8.8-6.5,17.5-13.1,25.7-19.4c29.9-23.1,54.8-43.5,73.8-53.3
			c6.3-3.2,11.8-4.8,18-7.4c2.6-1.1,5.4-2.4,8.6-4c11-5.8,28.9-16.2,43.1-25.9c7.9-5.4,10.3-10,11.4-13.3c2.7-8-0.6-13.6,4.4-22.2
			c3.8-6.5,11.6-15.2,26.5-26c17.2-12.5,38.5-25.3,56.7-34.8c13.7-7.3,26.3-13.9,37.2-17.1c17.9-5.2,30.7-4,43.8-1.8
			c3.3,0.6,6.5,1.5,9.8,2.3c31.1,7.5,69.6,19.1,111.5,25.5c10.5,1.6,22.5,2.6,38.3-1.9c3.6-1,7.1-2.3,10.5-3.7
			c35.2-14.4,60-46,88.1-67.5c5-3.8,10-7.5,15.2-10.6c12.5-7.4,23.2-11.4,36.4-19.7c21.3-13.5,34.1-34.6,59.7-44.5
			c16.7-6.4,32.5-4.8,38.4,0.6c3.2,2.9,3.9,6.7,4.1,10.4c0.2,2.9,0.3,5.9,0,8.6c-1.8,17.4-4.7,31.7,4.7,40.6
			c6.6,6.2,20.6,10.8,39,6.2c8.7-2.1,17.5-6.9,30.1-12.1c13.9-5.8,31.2-12.1,47.9-18.3c29.2-10.9,57.5-22.1,77.1-32.7
			c15.2-8.3,25.4-17.3,37-24.3c13.4-8.1,28-14.6,50.9-18.3c15.4-2.5,31.9-1.7,48.5-1.3c31.6,0.7,64.5,3.9,90.6-4.8
			c16.6-5.5,23.3-12.9,27.3-18.9c7.8-11.6,9.2-23.2,8.8-33.2c-0.4-8.7-2-16.9-5-29c-1.9-7.9-5.6-16.8-9.6-25.7
			c-10.6-23.6-25.3-48-36-72.7c-2.9-6.8-5.5-13.8-7.5-20.8c-2.5-8.7-4.3-18,2.9-28.9c2.5-3.7,6-7.6,11.4-11c9.9-6.3,19.2-8,28.9-8.3
			c11-0.4,21.7,1,33.6,0.2c22.4-1.5,43.7-6.4,55.7-17.4c6.1-5.5,10.7-12.6,19.3-17.5c14.2-8.2,35.8-14.1,56.4-19.4
			c1.8-0.4,3.6-0.9,5.3-1.3c29.3-7.4,70-24.1,103.9-60.1c13.5-14.4,20.2-28.6,31.3-42.4c27.7-34.1,67.3-67.9,100.7-84.1
			c36.4-17.7,80-32.7,115.1-55.6"/>
		<path class="st6" d="M-55.6,961.6c37.1-15.7,77.3-44.7,115.2-73.4c8.7-6.6,17.2-13.2,25.2-19.6c29.3-23.4,53.1-44.2,71.3-54.7
			c6-3.4,11.3-5.2,17.2-8c2.5-1.2,5.2-2.5,8.3-4.3c10.7-6.1,28.1-16.7,42.4-26.3c7.8-5.3,10.3-9.7,11.5-12.9
			c3-7.6,0.2-12.7,5.5-20.9c4-6.2,12-14.7,26.7-25.4c17.1-12.4,38.2-25.3,56-35.1c13.5-7.4,25.7-14.3,36.4-17.8
			c17.4-5.6,30-4.9,43.1-3.2c3.3,0.4,6.4,1.3,9.7,2c30.9,6.5,69.3,17.4,110.9,23.1c10.5,1.4,22.5,2.2,38-2.3c3.6-1,7-2.3,10.4-3.7
			c35-14.4,59.8-45.7,87.4-67.4c4.9-3.9,9.8-7.6,14.9-10.8c12.2-7.6,22.7-11.8,35.6-20.3c20.9-13.7,33.8-34.6,59.1-44.4
			c16.5-6.3,32-4.7,38,0.5c3.2,2.8,4,6.4,4.4,10.1c0.3,2.8,0.6,5.6,0.4,8.2c-0.9,16.5-2.9,30,6.8,37.9c6.8,5.6,20.7,9.5,38.5,4.6
			c8.6-2.4,17.1-7.3,29.4-12.8c13.7-6,30.9-12.3,47.5-18.4c29.1-10.8,57.2-21.6,76.9-31.9c15.2-7.9,25.5-16.5,37.1-23
			c13.6-7.6,28.2-13.6,50.8-16.7c15.3-2.1,31.6-1,48-0.4c31.2,1.3,63.8,4.9,89.9-3.2c16.4-5.1,23.3-12,27.5-17.7
			c8.1-10.8,10.1-21.9,10.2-31.4c0.1-8.2-0.9-16-3.2-28c-1.5-7.8-4.8-16.6-8.5-25.6c-9.7-23.6-23.6-48-33.5-72.8
			c-2.7-6.8-5.1-13.8-6.9-20.8c-2.2-8.6-3.8-17.9,3.4-28.7c2.5-3.7,6-7.5,11.3-10.9c9.8-6.3,19.1-8,28.7-8.5
			c11-0.5,21.6,0.8,33.4,0.1c22.3-1.4,43.4-5.7,55.6-16c6.2-5.2,10.9-11.9,19.5-16.5c14.5-7.9,36.2-13.7,57.1-18.9
			c1.8-0.5,3.6-0.9,5.4-1.3c29-7.3,70-24.7,104.6-60.9c13.7-14.3,20.7-28.6,32.1-42.3c28.7-34.5,68.8-68.6,101.9-84.4
			c36.8-17.6,80.9-32.6,115.9-56"/>
		<path class="st6" d="M-56.4,959.7c37-15,77.2-44,114.5-72.8c8.6-6.7,17-13.4,24.8-19.8c28.7-23.7,51.3-45,68.8-56.1
			c5.7-3.6,10.8-5.6,16.5-8.6c2.4-1.3,5-2.7,8-4.5c10.3-6.4,27.3-17.2,41.6-26.7c7.8-5.1,10.3-9.5,11.7-12.4
			c3.3-7.3,0.9-11.9,6.5-19.7c4.2-6,12.3-14.3,26.9-24.8c17.1-12.4,37.9-25.4,55.3-35.4c13.2-7.6,25.1-14.7,35.6-18.5
			c16.9-6,29.4-5.8,42.4-4.5c3.2,0.3,6.4,1.1,9.6,1.6c30.7,5.4,69.1,15.7,110.4,20.7c10.5,1.3,22.4,1.9,37.8-2.6
			c3.6-1,7-2.3,10.3-3.7c34.8-14.5,59.6-45.4,86.6-67.3c4.8-3.9,9.6-7.6,14.6-10.9c11.9-7.7,22.2-12.3,34.8-20.9
			c20.4-13.8,33.4-34.6,58.5-44.2c16.2-6.2,31.5-4.7,37.6,0.3c3.3,2.7,4.2,6.2,4.8,9.7c0.4,2.7,0.9,5.4,0.9,7.9
			c0.1,15.7-1.1,28.2,8.8,35.2c7,4.9,20.8,8.3,38,3c8.4-2.6,16.6-7.8,28.7-13.4c13.5-6.2,30.6-12.5,47-18.6
			c28.9-10.7,56.9-21.2,76.6-31c15.2-7.5,25.6-15.7,37.3-21.8c13.7-7.1,28.4-12.5,50.7-15.2c15.2-1.8,31.3-0.4,47.6,0.5
			c30.9,1.8,63.2,5.9,89.3-1.6c16.2-4.7,23.2-11.1,27.7-16.5c8.4-10.1,10.9-20.7,11.6-29.6c0.6-7.8,0.2-15.1-1.5-26.9
			c-1.1-7.6-4-16.5-7.3-25.4c-8.8-23.6-22-48-31.1-72.8c-2.5-6.8-4.7-13.7-6.2-20.7c-1.9-8.6-3.3-17.8,3.9-28.4
			c2.5-3.7,6.1-7.5,11.3-10.8c9.7-6.2,18.9-8.1,28.5-8.6c10.9-0.6,21.5,0.6,33.2,0c22.2-1.2,43-5,55.4-14.5
			c6.2-4.8,11.1-11.1,19.8-15.5c14.7-7.5,36.7-13.2,57.7-18.5c1.8-0.5,3.6-0.9,5.4-1.4c28.7-7.2,70-25.3,105.3-61.8
			c13.8-14.3,21.2-28.6,32.8-42.3c29.7-35,70.3-69.3,103-84.7c37.2-17.5,81.8-32.4,116.8-56.4"/>
		<path class="st6" d="M-57.3,957.7c36.9-14.3,77.2-43.2,113.8-72.2c8.5-6.7,16.7-13.5,24.3-20c28-24.1,49.5-45.7,66.3-57.5
			c5.4-3.8,10.3-6,15.7-9.2c2.3-1.3,4.8-2.9,7.7-4.8c10-6.7,26.6-17.7,40.9-27c7.7-5,10.4-9.2,11.9-12c3.6-6.9,1.7-11,7.5-18.5
			c4.5-5.7,12.7-13.8,27.1-24.2c17-12.3,37.6-25.4,54.6-35.7c12.9-7.8,24.5-15.1,34.8-19.2c16.4-6.4,28.7-6.7,41.7-5.9
			c3.2,0.2,6.3,0.8,9.6,1.3c30.6,4.4,68.8,14,109.9,18.3c10.5,1.1,22.4,1.5,37.5-3c3.5-1.1,6.9-2.3,10.3-3.7
			c34.5-14.5,59.4-45.1,85.8-67.2c4.7-4,9.4-7.7,14.3-11.1c11.7-7.9,21.6-12.8,34.1-21.5c19.9-14,33.1-34.6,58-44.1
			c16-6.1,31-4.6,37.3,0.2c3.3,2.6,4.4,6,5.1,9.3c0.6,2.6,1.2,5.1,1.4,7.5c1,14.8,0.7,26.4,10.9,32.5c7.2,4.3,20.9,7.1,37.6,1.3
			c8.2-2.9,16.1-8.3,28-14c13.3-6.4,30.3-12.8,46.6-18.8c28.7-10.6,56.6-20.7,76.4-30.1c15.2-7.1,25.8-14.9,37.5-20.5
			c13.8-6.6,28.5-11.5,50.5-13.6c15.1-1.4,31,0.3,47.2,1.5c30.6,2.3,62.5,6.9,88.6,0c15.9-4.2,23.2-10.2,28-15.3
			c8.7-9.3,11.7-19.4,13-27.8c1.1-7.3,1.3-14.3,0.2-25.9c-0.7-7.5-3.3-16.4-6.2-25.3c-7.9-23.7-20.3-48.1-28.7-72.9
			c-2.3-6.8-4.3-13.7-5.6-20.6c-1.7-8.6-2.7-17.7,4.4-28.1c2.5-3.7,6.1-7.4,11.2-10.7c9.6-6.2,18.7-8.1,28.3-8.7
			c10.9-0.7,21.4,0.5,33-0.1c22.1-1.1,42.7-4.2,55.3-13.1c6.3-4.4,11.4-10.4,20.1-14.5c15-7.1,37.2-12.7,58.4-18
			c1.8-0.5,3.6-0.9,5.5-1.4c28.4-7.1,70-25.9,105.9-62.6c13.9-14.2,21.7-28.6,33.6-42.2c30.7-35.4,71.9-70,104.2-84.9
			c37.7-17.4,82.7-32.2,117.7-56.8"/>
		<path class="st6" d="M-58.1,955.8c36.8-13.6,77.1-42.5,113.1-71.6c8.4-6.8,16.5-13.6,23.9-20.2c27.4-24.4,47.7-46.4,63.8-58.9
			c5.1-4,9.8-6.4,14.9-9.8c2.2-1.4,4.6-3,7.3-5c9.6-7,25.8-18.2,40.2-27.4c7.6-4.9,10.4-8.9,12-11.6c3.9-6.5,2.4-10.2,8.5-17.2
			c4.7-5.5,13-13.4,27.3-23.6c17-12.2,37.3-25.5,53.9-35.9c12.6-7.9,23.8-15.6,34-19.9c15.9-6.7,28-7.5,41-7.2
			c3.2,0.1,6.3,0.6,9.5,0.9c30.4,3.3,68.5,12.2,109.3,15.8c10.5,0.9,22.3,1.2,37.3-3.4c3.5-1.1,6.9-2.3,10.2-3.7
			c34.3-14.5,59.1-44.9,85.1-67.1c4.7-4,9.2-7.8,14-11.2c11.4-8.1,21.1-13.2,33.3-22c19.5-14.1,32.7-34.6,57.4-44
			c15.7-6,30.5-4.6,36.9,0.1c3.4,2.5,4.5,5.8,5.4,8.9c0.7,2.5,1.5,4.9,1.8,7.1c2,14,2.5,24.7,13,29.8c7.4,3.6,21,5.8,37.1-0.3
			c8.1-3.1,15.6-8.8,27.3-14.7c13.1-6.6,30-13,46.2-19c28.5-10.5,56.3-20.3,76.2-29.2c15.2-6.8,25.9-14.2,37.7-19.3
			c14-6.1,28.7-10.5,50.4-12.1c15-1.1,30.8,0.9,46.8,2.4c30.2,2.8,61.8,7.8,87.9,1.6c15.7-3.8,23.2-9.3,28.2-14.1
			c9-8.6,12.6-18.1,14.5-26c1.6-6.8,2.4-13.4,1.9-24.9c-0.3-7.4-2.5-16.2-5.1-25.1c-7-23.7-18.6-48.1-26.3-72.9
			c-2.1-6.8-3.8-13.6-5-20.6c-1.4-8.5-2.2-17.6,5-27.9c2.5-3.6,6.1-7.4,11.2-10.6c9.5-6.1,18.6-8.1,28-8.9
			c10.9-0.8,21.4,0.3,32.8-0.2c21.9-1,42.4-3.5,55.2-11.6c6.4-4.1,11.6-9.7,20.3-13.5c15.3-6.7,37.6-12.2,59-17.6
			c1.8-0.5,3.7-0.9,5.5-1.4c28.1-7,70-26.5,106.6-63.4c14.1-14.2,22.2-28.5,34.3-42.2c31.7-35.9,73.4-70.7,105.3-85.2
			c38.1-17.3,83.6-32,118.6-57.1"/>
		<path class="st6" d="M-59,953.9c36.7-12.9,77-41.7,112.5-71c8.3-6.8,16.2-13.7,23.4-20.4c26.8-24.7,46-47.1,61.2-60.3
			c4.8-4.1,9.3-6.8,14.2-10.4c2-1.5,4.4-3.2,7-5.3c9.3-7.3,25-18.7,39.5-27.8c7.6-4.8,10.4-8.6,12.2-11.2c4.2-6.1,3.2-9.4,9.5-16
			c5-5.2,13.4-12.9,27.5-23c16.9-12.1,37-25.6,53.2-36.2c12.3-8.1,23.2-16,33.2-20.5c15.4-7.1,27.4-8.4,40.2-8.6
			c3.1,0,6.2,0.4,9.4,0.6c30.2,2.3,68.3,10.5,108.8,13.4c10.6,0.8,22.3,0.8,37-3.7c3.5-1.1,6.8-2.4,10.1-3.8
			c34-14.5,58.9-44.6,84.3-66.9c4.6-4,9.1-7.9,13.7-11.4c11.1-8.2,20.6-13.7,32.5-22.6c19-14.2,32.4-34.6,56.9-43.9
			c15.5-5.8,30-4.5,36.6,0c3.4,2.4,4.7,5.5,5.8,8.5c0.9,2.4,1.8,4.6,2.3,6.7c2.9,13.1,4.2,22.9,15,27.1c7.6,3,21.1,4.6,36.6-2
			c7.9-3.4,15.1-9.3,26.6-15.3c12.9-6.8,29.6-13.2,45.7-19.2c28.4-10.4,55.9-19.8,75.9-28.3c15.2-6.4,26-13.4,37.8-18.1
			c14.1-5.6,28.9-9.4,50.3-10.5c14.9-0.8,30.5,1.6,46.3,3.4c29.9,3.3,61.2,8.8,87.2,3.2c15.5-3.4,23.1-8.4,28.4-12.9
			c9.3-7.8,13.4-16.8,15.9-24.2c2.1-6.3,3.5-12.5,3.7-23.9c0.1-7.3-1.7-16.1-3.9-25c-6-23.7-16.9-48.2-23.8-72.9
			c-1.9-6.7-3.4-13.6-4.3-20.5c-1.1-8.5-1.7-17.5,5.5-27.6c2.6-3.6,6.1-7.3,11.1-10.6c9.4-6.1,18.4-8.2,27.8-9
			c10.8-0.9,21.3,0.1,32.5-0.3c21.8-0.8,42.1-2.8,55-10.2c6.5-3.7,11.9-9,20.6-12.5c15.6-6.3,38.1-11.7,59.7-17.1
			c1.8-0.5,3.7-0.9,5.5-1.4c27.8-7,70-27.1,107.3-64.2c14.2-14.2,22.7-28.5,35-42.2c32.7-36.3,74.9-71.4,106.5-85.4
			c38.6-17.1,84.5-31.8,119.4-57.5"/>
		<path class="st6" d="M-59.8,951.9C-23.2,939.8,17.1,911,52,881.5c8.2-6.9,15.9-13.9,23-20.6c26.1-25.1,44.2-47.8,58.7-61.7
			c4.5-4.3,8.8-7.2,13.4-11c1.9-1.6,4.2-3.4,6.7-5.5c8.9-7.6,24.2-19.2,38.8-28.2c7.5-4.7,10.4-8.3,12.3-10.7
			c4.5-5.7,3.9-8.5,10.6-14.8c5.2-4.9,13.8-12.4,27.7-22.4c16.9-12,36.7-25.6,52.6-36.5c12.1-8.3,22.6-16.4,32.4-21.2
			c15-7.4,26.7-9.3,39.5-9.9c3.1-0.2,6.2,0.1,9.3,0.3c30.1,1.2,68,8.7,108.2,11c10.6,0.6,22.2,0.5,36.7-4.1c3.4-1.1,6.8-2.4,10-3.8
			c33.8-14.5,58.7-44.3,83.5-66.8c4.5-4.1,8.9-8,13.4-11.6c10.8-8.4,20-14.1,31.7-23.2c18.5-14.3,32-34.6,56.3-43.8
			c15.2-5.7,29.6-4.5,36.2-0.2c3.5,2.2,4.9,5.3,6.1,8.2c1,2.3,2.1,4.4,2.8,6.4c3.8,12.2,6,21.1,17.1,24.4c7.8,2.3,21.2,3.3,36.1-3.6
			c7.8-3.6,14.6-9.8,25.9-16c12.7-6.9,29.3-13.5,45.3-19.3c28.2-10.3,55.6-19.4,75.7-27.4c15.2-6,26.2-12.6,38-16.8
			c14.3-5.1,29-8.4,50.1-8.9c14.8-0.4,30.2,2.3,45.9,4.3c29.6,3.8,60.5,9.7,86.5,4.8c15.3-2.9,23-7.5,28.6-11.7
			c9.5-7.1,14.2-15.5,17.3-22.4c2.6-5.8,4.5-11.6,5.4-22.9c0.6-7.2-0.9-16-2.8-24.8c-5.1-23.7-15.3-48.2-21.4-73
			c-1.7-6.7-3-13.6-3.7-20.4c-0.9-8.4-1.1-17.4,6-27.3c2.6-3.6,6.1-7.2,11.1-10.5c9.3-6.1,18.2-8.2,27.6-9.1
			c10.8-1,21.2-0.1,32.3-0.4c21.7-0.7,41.7-2,54.9-8.8c6.6-3.4,12.1-8.3,20.9-11.5c15.9-5.9,38.6-11.2,60.3-16.6
			c1.9-0.5,3.7-0.9,5.6-1.4c27.5-6.9,70-27.7,107.9-65.1c14.3-14.1,23.3-28.5,35.8-42.1c33.7-36.7,76.4-72.1,107.6-85.7
			c39-17,85.4-31.6,120.3-57.9"/>
		<path class="st6" d="M-60.7,950c36.6-11.4,76.8-40.2,111.1-69.8c8.1-6.9,15.7-14,22.5-20.8c25.5-25.4,42.5-48.5,56.2-63.1
			c4.2-4.5,8.3-7.6,12.6-11.6c1.8-1.7,4-3.5,6.4-5.8c8.6-7.9,23.4-19.7,38-28.6c7.4-4.5,10.5-8.1,12.5-10.3
			c4.8-5.4,4.7-7.7,11.6-13.6c5.5-4.7,14.1-12,27.9-21.8c16.9-12,36.4-25.7,51.9-36.8c11.8-8.4,21.9-16.7,31.6-21.9
			c14.5-7.7,26-10.1,38.8-11.3c3.1-0.3,6.1-0.1,9.3-0.1c29.9,0.1,67.7,7,107.7,8.5c10.6,0.4,22.2,0.1,36.5-4.5
			c3.4-1.1,6.7-2.4,10-3.8c33.6-14.6,58.4-44.1,82.8-66.7c4.4-4.1,8.7-8.1,13.1-11.7c10.6-8.5,19.5-14.6,31-23.8
			c18.1-14.5,31.7-34.6,55.7-43.6c15-5.6,29.1-4.4,35.8-0.3c3.5,2.1,5.1,5.1,6.4,7.8c1.1,2.2,2.4,4.1,3.2,6
			c4.7,11.3,7.8,19.3,19.1,21.7c8,1.7,21.3,2,35.6-5.3c7.6-3.9,14.1-10.2,25.2-16.6c12.5-7.1,29-13.7,44.9-19.5
			c28-10.3,55.3-19,75.5-26.5c15.2-5.7,26.3-11.8,38.2-15.6c14.4-4.6,29.2-7.3,50-7.4c14.7,0,30,2.9,45.5,5.2
			c29.2,4.3,59.8,10.7,85.8,6.4c15.1-2.5,23-6.7,28.8-10.5c9.8-6.4,15-14.2,18.7-20.6c3-5.3,5.6-10.8,7.1-21.8
			c1-7.1-0.1-15.9-1.7-24.6c-4.2-23.7-13.6-48.2-19-73c-1.5-6.7-2.6-13.5-3.1-20.4c-0.6-8.4-0.6-17.3,6.5-27.1
			c2.6-3.6,6.2-7.2,11-10.4c9.2-6,18-8.3,27.3-9.2c10.8-1.1,21.1-0.3,32.1-0.5c21.6-0.5,41.4-1.3,54.7-7.3c6.7-3,12.3-7.6,21.1-10.5
			c16.2-5.5,39-10.8,61-16.2c1.9-0.5,3.8-0.9,5.6-1.4c27.3-6.8,70-28.3,108.6-65.9c14.5-14.1,23.8-28.5,36.5-42.1
			c34.7-37.1,78-72.7,108.7-85.9c39.4-16.9,86.3-31.4,121.2-58.3"/>
		<path class="st6" d="M-61.5,948.1c36.5-10.7,76.7-39.4,110.4-69.2c7.9-7,15.4-14.1,22.1-21.1c24.8-25.7,40.7-49.2,53.7-64.5
			c3.9-4.7,7.7-8,11.9-12.2c1.7-1.7,3.7-3.7,6-6c8.2-8.2,22.7-20.2,37.3-29c7.4-4.4,10.5-7.8,12.7-9.9c5.1-5,5.5-6.8,12.6-12.3
			c5.7-4.4,14.5-11.5,28.1-21.2c16.8-11.9,36.1-25.8,51.2-37c11.5-8.6,21.3-17.1,30.8-22.6c14-8.1,25.3-11,38.1-12.7
			c3-0.4,6.1-0.3,9.2-0.4c29.7-0.9,67.5,5.2,107.2,6.1c10.6,0.2,22.1-0.2,36.2-4.8c3.4-1.1,6.7-2.4,9.9-3.8
			c33.3-14.6,58.2-43.8,82-66.6c4.3-4.2,8.5-8.2,12.8-11.9c10.3-8.7,19-15.1,30.2-24.4c17.6-14.6,31.3-34.6,55.2-43.5
			c14.7-5.5,28.6-4.4,35.5-0.4c3.5,2,5.2,4.9,6.8,7.4c1.3,2.1,2.7,3.8,3.7,5.6c5.6,10.4,9.6,17.6,21.2,19c8.2,1,21.4,0.7,35.2-6.9
			c7.4-4.1,13.6-10.7,24.5-17.3c12.3-7.3,28.7-13.9,44.4-19.7c27.8-10.2,54.9-18.5,75.2-25.6c15.1-5.3,26.5-11,38.4-14.3
			c14.5-4.1,29.4-6.2,49.9-5.8c14.6,0.3,29.7,3.6,45.1,6.2c28.9,4.8,59.1,11.6,85.1,8c14.9-2.1,22.9-5.8,29-9.3
			c10-5.7,15.8-12.9,20.1-18.8c3.5-4.9,6.7-9.9,8.9-20.8c1.4-7,0.7-15.7-0.5-24.5c-3.3-23.8-11.9-48.3-16.6-73
			c-1.3-6.7-2.1-13.5-2.4-20.3c-0.3-8.4-0.1-17.2,7-26.8c2.6-3.6,6.2-7.1,11-10.3c9-6,17.9-8.3,27.1-9.4c10.8-1.2,21-0.4,31.9-0.6
			c21.4-0.4,41.1-0.6,54.6-5.9c6.7-2.6,12.6-6.8,21.4-9.5c16.5-5.1,39.5-10.3,61.6-15.7c1.9-0.5,3.8-0.9,5.7-1.4
			c27-6.7,70-28.9,109.3-66.7c14.6-14.1,24.3-28.4,37.3-42c35.7-37.5,79.5-73.4,109.9-86.2c39.9-16.7,87.2-31.3,122-58.7"/>
		<path class="st6" d="M-62.4,946.1c36.4-10,76.6-38.7,109.8-68.6c7.8-7.1,15.2-14.3,21.7-21.3c24.2-26.1,39-49.8,51.2-65.9
			c3.7-4.8,7.2-8.4,11.1-12.8c1.6-1.8,3.5-3.9,5.7-6.2c7.9-8.5,21.9-20.7,36.6-29.4c7.3-4.3,10.5-7.5,12.8-9.4
			c5.4-4.6,6.2-6,13.6-11.1c6-4.1,14.8-11.1,28.3-20.5c16.8-11.8,35.8-25.8,50.5-37.3c11.2-8.8,20.7-17.5,30-23.3
			c13.5-8.4,24.7-11.8,37.4-14c3-0.5,6-0.6,9.1-0.8c29.6-2,67.2,3.4,106.6,3.7c10.6,0.1,22.1-0.6,36-5.2c3.4-1.1,6.6-2.4,9.8-3.8
			c33.1-14.6,58-43.6,81.2-66.5c4.3-4.2,8.3-8.3,12.6-12.1c10-8.9,18.4-15.5,29.4-24.9c17.2-14.7,31-34.6,54.6-43.4
			c14.5-5.4,28.1-4.3,35.1-0.6c3.6,1.9,5.4,4.7,7.1,7c1.4,2,3,3.6,4.1,5.3c6.4,9.6,11.4,15.8,23.3,16.3c8.4,0.4,21.5-0.6,34.7-8.6
			c7.3-4.4,13.1-11.2,23.8-17.9c12.1-7.5,28.4-14.2,44-19.9c27.7-10.1,54.6-18.1,75-24.7c15.1-4.9,26.6-10.2,38.5-13.1
			c14.7-3.6,29.6-5.2,49.7-4.2c14.5,0.7,29.4,4.3,44.6,7.1c28.6,5.3,58.4,12.6,84.4,9.6c14.7-1.7,22.8-5,29.3-8.1
			c10.2-5,16.6-11.6,21.5-17c4-4.4,7.8-9,10.6-19.8c1.8-6.9,1.4-15.6,0.6-24.3c-2.4-23.8-10.3-48.3-14.2-73.1
			c-1-6.7-1.7-13.5-1.8-20.3c-0.1-8.3,0.5-17.1,7.6-26.5c2.7-3.5,6.2-7.1,10.9-10.2c8.9-5.9,17.7-8.4,26.9-9.5
			c10.7-1.3,20.9-0.6,31.7-0.7c21.3-0.3,40.8,0.2,54.4-4.4c6.8-2.3,12.8-6.1,21.7-8.5c16.8-4.7,40-9.8,62.3-15.3
			c1.9-0.5,3.8-0.9,5.7-1.4c26.7-6.6,70-29.5,109.9-67.5c14.7-14,24.8-28.4,38-42c36.8-37.9,81-74.1,111-86.4
			c40.3-16.6,88.2-31.1,122.9-59.1"/>
		<path class="st6" d="M-63.2,944.2c36.3-9.3,76.5-37.9,109.1-68c7.7-7.1,14.9-14.4,21.2-21.5c23.5-26.4,37.3-50.5,48.7-67.3
			c3.4-5,6.7-8.8,10.3-13.4c1.5-1.9,3.3-4,5.4-6.5c7.5-8.9,21.1-21.2,35.9-29.7c7.2-4.2,10.5-7.2,13-9c5.7-4.2,7-5.1,14.6-9.9
			c6.2-3.9,15.2-10.6,28.5-19.9c16.7-11.7,35.5-25.9,49.8-37.6c10.9-8.9,20.1-17.9,29.2-24c13-8.7,24-12.7,36.7-15.4
			c3-0.6,6-0.8,9.1-1.1c29.4-3.1,66.9,1.7,106.1,1.2c10.6-0.1,22-0.9,35.7-5.5c3.3-1.1,6.6-2.4,9.7-3.8
			c32.9-14.6,57.7-43.3,80.5-66.4c4.2-4.2,8.1-8.4,12.3-12.2c9.7-9,17.9-16,28.6-25.5c16.7-14.8,30.6-34.6,54.1-43.3
			c14.2-5.2,27.6-4.3,34.7-0.7c3.6,1.8,5.6,4.4,7.4,6.6c1.6,1.9,3.3,3.3,4.6,4.9c7.2,8.7,13.2,14,25.3,13.6
			c8.6-0.3,21.5-1.9,34.2-10.2c7.1-4.7,12.6-11.7,23.1-18.5c11.8-7.7,28-14.4,43.6-20.1c27.5-10,54.3-17.6,74.8-23.8
			c15.1-4.6,26.7-9.4,38.7-11.9c14.8-3.1,29.7-4.1,49.6-2.7c14.4,1,29.1,4.9,44.2,8c28.2,5.8,57.8,13.5,83.7,11.2
			c14.4-1.3,22.8-4.1,29.5-6.9c10.5-4.4,17.4-10.3,23-15.2c4.4-3.9,8.9-8.1,12.3-18.8c2.2-6.7,2.2-15.5,1.7-24.2
			c-1.4-23.8-8.6-48.3-11.7-73.1c-0.8-6.6-1.3-13.4-1.1-20.2c0.2-8.3,1-17,8.1-26.2c2.7-3.5,6.2-7,10.9-10.1
			c8.8-5.9,17.5-8.4,26.7-9.6c10.7-1.4,20.8-0.8,31.5-0.8c21.2-0.1,40.4,0.9,54.3-3c6.9-1.9,13.1-5.4,22-7.5
			c17.1-4.2,40.4-9.3,63-14.8c1.9-0.5,3.8-0.9,5.8-1.4c26.4-6.5,70-30.1,110.6-68.4c14.9-14,25.3-28.4,38.7-42
			c37.8-38.4,82.5-74.7,112.2-86.7c40.8-16.4,89.1-30.9,123.8-59.5"/>
		<path class="st6" d="M-64.1,942.2c36.2-8.6,76.4-37.2,108.4-67.4c7.6-7.2,14.6-14.5,20.8-21.7c22.9-26.7,35.6-51.1,46.2-68.8
			c3.1-5.1,6.2-9.2,9.6-14c1.4-2,3.1-4.2,5.1-6.7c7.1-9.2,20.3-21.7,35.1-30.1c7.1-4.1,10.6-6.9,13.1-8.6c6-3.8,7.8-4.3,15.6-8.6
			c6.5-3.6,15.6-10.2,28.7-19.3c16.7-11.6,35.2-25.9,49.1-37.9c10.6-9.1,19.5-18.3,28.4-24.7c12.6-9,23.3-13.5,36-16.7
			c2.9-0.7,5.9-1,9-1.5c29.3-4.1,66.7-0.1,105.5-1.2c10.6-0.3,21.9-1.3,35.4-5.9c3.3-1.1,6.5-2.4,9.7-3.8
			c32.6-14.6,57.5-43,79.7-66.3c4.1-4.3,8-8.5,12-12.4c9.5-9.2,17.4-16.4,27.9-26.1c16.2-15,30.3-34.6,53.5-43.2
			c14-5.1,27.1-4.2,34.4-0.8c3.7,1.7,5.8,4.2,7.8,6.3c1.7,1.8,3.6,3.1,5.1,4.5c8,7.8,15,12.2,27.4,10.9c8.8-0.9,21.6-3.2,33.7-11.9
			c6.9-5,12.1-12.2,22.4-19.2c11.6-7.9,27.7-14.6,43.1-20.2c27.3-9.9,53.9-17.2,74.5-22.9c15.1-4.2,26.9-8.6,38.9-10.6
			c15-2.5,29.9-3,49.5-1.1c14.3,1.4,28.9,5.6,43.8,9c27.9,6.3,57.1,14.4,83,12.8c14.2-0.9,22.7-3.3,29.7-5.7
			c10.7-3.7,18.2-9,24.4-13.4c4.9-3.4,10-7.2,14.1-17.8c2.6-6.6,3-15.4,2.8-24c-0.5-23.8-6.9-48.4-9.3-73.1
			c-0.6-6.6-0.9-13.4-0.5-20.1c0.5-8.2,1.5-16.9,8.6-26c2.7-3.5,6.2-7,10.9-10c8.7-5.8,17.4-8.4,26.4-9.7c10.7-1.5,20.8-1,31.3-0.9
			c21.1,0,40.1,1.6,54.2-1.5c7-1.6,13.3-4.6,22.2-6.5c17.4-3.8,40.9-8.8,63.6-14.4c1.9-0.5,3.9-0.9,5.8-1.4
			c26.1-6.5,70-30.7,111.3-69.2c15-14,25.9-28.3,39.5-41.9c38.8-38.8,84.1-75.4,113.3-86.9c41.2-16.3,90-30.7,124.6-59.8"/>
		<path class="st6" d="M-64.9,940.3c36.1-7.8,76.3-36.4,107.7-66.8c7.5-7.2,14.4-14.7,20.3-21.9c22.3-27.1,33.9-51.8,43.7-70.2
			c2.8-5.3,5.7-9.6,8.8-14.6c1.3-2.1,2.9-4.4,4.8-7c6.8-9.5,19.5-22.2,34.4-30.5c7.1-4,10.6-6.7,13.3-8.2c6.3-3.5,8.5-3.4,16.7-7.4
			c6.7-3.3,15.9-9.7,28.9-18.7c16.6-11.5,34.9-26,48.5-38.2c10.3-9.3,18.9-18.6,27.6-25.4c12.1-9.3,22.7-14.3,35.3-18.1
			c2.9-0.9,5.9-1.3,8.9-1.8c29.1-5.2,66.4-1.9,105-3.6c10.6-0.5,21.9-1.6,35.2-6.3c3.3-1.1,6.5-2.5,9.6-3.9
			c32.4-14.6,57.3-42.8,78.9-66.1c4-4.3,7.8-8.6,11.7-12.6c9.2-9.4,16.9-16.9,27.1-26.7c15.8-15.1,29.9-34.6,52.9-43
			c13.7-5,26.6-4.2,34-1c3.7,1.6,6,4,8.1,5.9c1.9,1.7,3.9,2.8,5.5,4.1c8.8,7,16.8,10.4,29.4,8.2c9-1.6,21.7-4.5,33.2-13.5
			c6.7-5.3,11.6-12.7,21.7-19.8c11.4-8.1,27.4-14.9,42.7-20.4c27.1-9.8,53.6-16.8,74.3-22c15.1-3.8,27-7.8,39-9.4
			c15.1-2,30.1-2,49.3,0.4c14.2,1.8,28.6,6.2,43.4,9.9c27.6,6.8,56.4,15.3,82.3,14.4c14-0.5,22.6-2.5,29.9-4.5
			c10.9-3.1,19-7.8,25.8-11.6c5.3-3,11.1-6.4,15.8-16.7c3-6.5,3.8-15.2,4-23.8c0.5-23.9-5.3-48.4-6.9-73.2
			c-0.4-6.6-0.5-13.4,0.1-20.1c0.7-8.2,2.1-16.8,9.1-25.7c2.7-3.5,6.2-6.9,10.8-10c8.6-5.8,17.2-8.5,26.2-9.9
			c10.6-1.6,20.7-1.1,31.1-1c20.9,0.2,39.8,2.3,54-0.1c7.1-1.2,13.5-3.9,22.5-5.5c17.8-3.3,41.3-8.3,64.3-13.9
			c1.9-0.5,3.9-1,5.8-1.4c25.8-6.4,70-31.4,111.9-70c15.1-13.9,26.4-28.3,40.2-41.9c39.9-39.1,85.6-76,114.5-87.2
			c41.7-16.1,90.9-30.5,125.5-60.2"/>
		<path class="st6" d="M-65.8,938.4c36-7.1,76.2-35.7,107-66.2c7.4-7.3,14.1-14.8,19.9-22.1c21.6-27.4,32.2-52.4,41.2-71.6
			c2.6-5.5,5.2-10.1,8-15.2c1.2-2.2,2.7-4.6,4.4-7.2c6.4-9.8,18.7-22.7,33.7-30.9c7-3.8,10.6-6.4,13.4-7.7c6.6-3.1,9.3-2.5,17.7-6.2
			c7-3,16.3-9.3,29.1-18.1c16.6-11.5,34.6-26.1,47.8-38.4c10.1-9.4,18.2-19,26.8-26.1c11.7-9.6,22-15.2,34.6-19.4
			c2.9-1,5.8-1.5,8.8-2.2c28.9-6.3,66.1-3.7,104.5-6c10.6-0.7,21.8-2,34.9-6.6c3.2-1.1,6.4-2.5,9.5-3.9c32.1-14.7,57-42.5,78.2-66
			c3.9-4.4,7.6-8.7,11.4-12.7c8.9-9.5,16.3-17.3,26.3-27.2c15.3-15.2,29.6-34.6,52.4-42.9c13.4-4.9,26.2-4.1,33.6-1.1
			c3.8,1.5,6.2,3.7,8.4,5.5c2.1,1.6,4.2,2.6,6,3.8c9.5,6.2,18.6,8.7,31.5,5.5c9.2-2.2,21.8-5.9,32.8-15.2c6.6-5.5,11.1-13.1,21-20.5
			c11.2-8.3,27.1-15.1,42.3-20.6c27-9.7,53.3-16.3,74.1-21.1c15.1-3.5,27.2-7,39.2-8.1c15.3-1.5,30.3-0.9,49.2,2
			c14.1,2.1,28.3,6.9,43,10.8c27.3,7.3,55.7,16.2,81.7,16c13.8-0.1,22.5-1.7,30.1-3.4c11.1-2.5,19.7-6.5,27.2-9.8
			c5.8-2.5,12.1-5.5,17.5-15.7c3.4-6.4,4.6-15.1,5.1-23.7c1.4-23.9-3.6-48.4-4.5-73.2c-0.2-6.6,0-13.3,0.8-20
			c1-8.2,2.6-16.7,9.6-25.4c2.8-3.5,6.3-6.8,10.8-9.9c8.5-5.8,17-8.5,26-10c10.6-1.7,20.6-1.3,30.9-1.1c20.8,0.3,39.5,3.1,53.9,1.3
			c7.1-0.9,13.8-3.1,22.8-4.5c18.1-2.9,41.8-7.9,64.9-13.5c2-0.5,3.9-1,5.9-1.4c25.5-6.3,70-32,112.6-70.8
			c15.3-13.9,26.9-28.2,41-41.8c40.9-39.5,87.2-76.7,115.6-87.4c42.2-15.9,91.8-30.3,126.4-60.6"/>
		<path class="st6" d="M-66.7,936.4c35.9-6.4,76.1-34.9,106.4-65.6c7.3-7.4,13.9-14.9,19.4-22.3c21-27.8,30.5-53.1,38.7-73
			c2.3-5.6,4.7-10.5,7.2-15.8c1.1-2.2,2.5-4.7,4.1-7.5c6.1-10.1,17.9-23.2,33-31.3c6.9-3.7,10.6-6.1,13.6-7.3
			c6.9-2.7,10.1-1.7,18.7-5c7.2-2.8,16.7-8.8,29.3-17.5c16.5-11.4,34.3-26.1,47.1-38.7c9.8-9.6,17.6-19.4,26-26.8
			c11.2-9.9,21.3-16,33.9-20.8c2.8-1.1,5.8-1.7,8.8-2.5c28.8-7.4,65.9-5.5,103.9-8.5c10.6-0.8,21.8-2.4,34.7-7
			c3.2-1.2,6.4-2.5,9.4-3.9c31.9-14.7,56.8-42.3,77.4-65.9c3.8-4.4,7.4-8.8,11.1-12.9c8.6-9.7,15.8-17.8,25.6-27.8
			c14.9-15.3,29.2-34.6,51.8-42.8c13.2-4.8,25.7-4.1,33.3-1.2c3.8,1.4,6.4,3.5,8.8,5.1c2.2,1.5,4.4,2.3,6.5,3.4
			c10.3,5.4,20.4,6.9,33.6,2.8c9.4-2.9,21.8-7.2,32.3-16.8c6.4-5.8,10.6-13.6,20.3-21.1c11-8.5,26.8-15.3,41.8-20.8
			c26.8-9.6,52.9-15.9,73.8-20.2c15.1-3.1,27.3-6.2,39.4-6.9c15.4-1,30.4,0.2,49.1,3.6c14,2.5,28.1,7.5,42.5,11.8
			c26.9,7.8,55,17.1,81,17.6c13.6,0.3,22.4-0.9,30.4-2.2c11.4-1.9,20.5-5.3,28.6-8c6.2-2.1,13.2-4.6,19.3-14.7
			c3.8-6.3,5.4-15,6.2-23.5c2.3-23.9-2-48.5-2-73.2c0-6.6,0.4-13.3,1.4-20c1.3-8.1,3.1-16.5,10.1-25.2c2.8-3.4,6.3-6.8,10.7-9.8
			c8.4-5.7,16.8-8.6,25.8-10.1c10.6-1.8,20.5-1.5,30.7-1.2c20.7,0.5,39.1,3.8,53.7,2.8c7.2-0.5,14-2.4,23-3.5
			c18.4-2.4,42.3-7.4,65.6-13c2-0.5,4-1,5.9-1.4c25.2-6.2,70-32.6,113.3-71.6c15.4-13.9,27.4-28.2,41.7-41.8
			c42-39.9,88.7-77.3,116.8-87.7c42.6-15.7,92.7-30.1,127.3-61"/>
		<path class="st6" d="M-67.5,934.5c35.8-5.7,76-34.2,105.7-65c7.2-7.4,13.6-15.1,19-22.5C77.4,819,86,793.3,93.3,772.7
			c2-5.8,4.2-10.9,6.5-16.4c1-2.3,2.2-4.9,3.8-7.7c5.7-10.4,17.1-23.7,32.3-31.7c6.8-3.6,10.7-5.9,13.8-6.9
			c7.2-2.4,10.9-0.8,19.7-3.7c7.5-2.5,17-8.4,29.5-16.9c16.5-11.3,34-26.2,46.4-39c9.5-9.8,17.1-19.7,25.2-27.5
			c10.8-10.2,20.7-16.8,33.2-22.1c2.8-1.2,5.7-2,8.7-2.9c28.6-8.4,65.6-7.3,103.4-10.9c10.6-1,21.7-2.7,34.4-7.3
			c3.2-1.2,6.3-2.5,9.3-3.9c31.7-14.7,56.5-42,76.6-65.8c3.8-4.5,7.2-8.9,10.8-13c8.4-9.9,15.3-18.2,24.8-28.4
			c14.4-15.4,28.9-34.6,51.2-42.7c12.9-4.7,25.2-4,32.9-1.4c3.9,1.3,6.6,3.3,9.1,4.7c2.4,1.4,4.7,2.1,6.9,3
			c11.1,4.7,22.1,5.1,35.6,0.2c9.6-3.5,21.9-8.6,31.8-18.5c6.2-6.1,10.2-14.1,19.6-21.7c10.8-8.7,26.4-15.6,41.4-20.9
			c26.6-9.6,52.6-15.5,73.6-19.3c15-2.8,27.4-5.3,39.6-5.7c15.6-0.4,30.6,1.3,48.9,5.1c13.9,2.9,27.8,8.2,42.1,12.7
			c26.6,8.3,54.3,17.9,80.3,19.2c13.4,0.6,22.4-0.1,30.6-1c11.6-1.3,21.3-4,30-6.2c6.7-1.7,14.3-3.8,21-13.7
			c4.2-6.2,6.2-14.9,7.4-23.4c3.3-23.9-0.3-48.5,0.4-73.3c0.2-6.5,0.8-13.2,2.1-19.9c1.5-8.1,3.7-16.4,10.7-24.9
			c2.8-3.4,6.3-6.7,10.7-9.7c8.3-5.7,16.7-8.6,25.5-10.2c10.6-1.9,20.4-1.7,30.5-1.4c20.6,0.6,38.8,4.5,53.6,4.2
			c7.3-0.1,14.3-1.6,23.3-2.5c18.7-1.9,42.7-6.9,66.2-12.6c2-0.5,4-1,6-1.4c24.9-6.1,69.9-33.2,113.9-72.5
			c15.5-13.8,28-28.2,42.5-41.7c43-40.3,90.2-78,117.9-87.9c43.1-15.5,93.6-30,128.1-61.4"/>
		<path class="st6" d="M-68.4,932.6c35.7-5,75.9-33.4,105-64.3c7-7.5,13.3-15.2,18.5-22.7c19.7-28.5,27.2-54.4,33.6-75.8
			c1.8-5.9,3.7-11.3,5.7-17c0.9-2.4,2-5.1,3.5-8c5.3-10.8,16.3-24.2,31.5-32.1c6.8-3.5,10.7-5.6,13.9-6.4c7.5-2,11.6,0.1,20.7-2.5
			c7.7-2.2,17.4-7.9,29.7-16.3c16.4-11.2,33.7-26.3,45.7-39.3c9.2-9.9,16.5-20.1,24.5-28.1c10.3-10.4,20-17.7,32.5-23.5
			c2.8-1.3,5.7-2.2,8.6-3.2c28.4-9.5,65.3-9.1,102.8-13.3c10.6-1.2,21.7-3.1,34.2-7.7c3.2-1.2,6.2-2.5,9.3-3.9
			c31.4-14.7,56.3-41.8,75.9-65.7c3.7-4.5,7-9,10.5-13.2c8.1-10,14.8-18.7,24-29c14-15.6,28.5-34.6,50.7-42.6
			c12.7-4.5,24.7-3.9,32.5-1.5c3.9,1.2,6.8,3,9.4,4.3c2.5,1.2,5,1.9,7.4,2.6c11.9,3.9,23.9,3.3,37.7-2.5c9.8-4.2,21.9-9.9,31.3-20.1
			c6-6.5,9.7-14.6,18.9-22.4c10.6-8.9,26.1-15.8,41-21.1c26.4-9.5,52.3-15.1,73.4-18.5c15-2.4,27.6-4.5,39.7-4.4
			c15.7,0.1,30.8,2.4,48.8,6.7c13.8,3.3,27.5,8.9,41.7,13.6c26.3,8.8,53.7,18.8,79.6,20.8c13.1,1,22.3,0.7,30.8,0.2
			c11.9-0.7,22.1-2.8,31.5-4.4c7.1-1.2,15.4-2.9,22.7-12.7c4.6-6.1,7-14.7,8.5-23.2c4.3-23.9,1.3-48.5,2.8-73.3
			c0.4-6.5,1.2-13.2,2.7-19.8c1.8-8,4.2-16.3,11.2-24.6c2.8-3.4,6.3-6.7,10.6-9.6c8.2-5.6,16.5-8.7,25.3-10.4
			c10.5-2,20.3-1.8,30.3-1.5c20.4,0.8,38.5,5.2,53.4,5.7c7.4,0.2,14.5-0.8,23.6-1.5c19-1.5,43.2-6.4,66.9-12.1c2-0.5,4-1,6-1.5
			c24.6-6,69.9-33.9,114.6-73.3c15.6-13.8,28.5-28.1,43.2-41.7c44.1-40.7,91.8-78.6,119.1-88.2c43.6-15.3,94.5-29.8,129-61.8"/>
		<path class="st6" d="M-69.2,930.6c35.6-4.2,75.8-32.7,104.3-63.7c6.9-7.6,13.1-15.3,18.1-22.9c19-28.8,25.6-55.1,31.1-77.2
			c1.5-6.1,3.1-11.7,4.9-17.6c0.8-2.5,1.8-5.2,3.1-8.2c4.9-11.1,15.6-24.7,30.8-32.5c6.7-3.4,10.7-5.3,14.1-6
			c7.8-1.6,12.4,1,21.8-1.3c8-1.9,17.8-7.5,29.9-15.7c16.4-11.1,33.3-26.3,45-39.5c8.9-10.1,15.9-20.4,23.7-28.8
			c9.9-10.7,19.4-18.5,31.8-24.9c2.7-1.4,5.6-2.5,8.5-3.5c28.2-10.6,65.1-10.9,102.3-15.8c10.6-1.4,21.6-3.4,33.9-8.1
			c3.1-1.2,6.2-2.5,9.2-3.9c31.2-14.7,56.1-41.5,75.1-65.6c3.6-4.5,6.9-9.1,10.2-13.4c7.8-10.2,14.2-19.1,23.2-29.6
			c13.5-15.7,28.2-34.6,50.1-42.4c12.4-4.4,24.2-3.9,32.2-1.6c3.9,1.1,6.9,2.8,9.8,4c2.7,1.1,5.3,1.6,7.9,2.3
			c12.7,3.2,25.7,1.5,39.7-5.2c10-4.8,21.9-11.3,30.8-21.8c5.8-6.8,9.2-15.1,18.2-23c10.3-9,25.8-16,40.5-21.3
			c26.3-9.4,52-14.7,73.1-17.6c15-2.1,27.7-3.7,39.9-3.2c15.9,0.7,30.9,3.5,48.7,8.3c13.7,3.7,27.2,9.5,41.3,14.6
			c25.9,9.3,53,19.6,78.9,22.4c12.9,1.4,22.3,1.5,31,1.4c12.1-0.1,22.9-1.6,32.9-2.6c7.6-0.8,16.4-2,24.5-11.6
			c5-6,7.8-14.6,9.6-23.1c5.2-23.9,3-48.6,5.2-73.3c0.6-6.5,1.7-13.2,3.3-19.8c2-8,4.8-16.2,11.7-24.4c2.9-3.4,6.3-6.6,10.6-9.5
			c8.1-5.6,16.3-8.7,25.1-10.5c10.5-2.1,20.2-2,30-1.6c20.3,0.9,38.2,6,53.3,7.1c7.5,0.6,14.7-0.1,23.8-0.5
			c19.2-1,43.7-5.9,67.6-11.7c2-0.5,4-1,6-1.5c24.4-6,69.9-34.5,115.3-74.1c15.8-13.8,29-28.1,43.9-41.7
			c45.1-41,93.3-79.2,120.2-88.5c44-15.1,95.4-29.6,129.9-62.2"/>
		<path class="st6" d="M-70.1,928.7c35.5-3.5,75.7-31.9,103.6-63.1c6.8-7.6,12.8-15.5,17.6-23.1c18.3-29.2,24-55.8,28.6-78.6
			c1.3-6.3,2.6-12.1,4.2-18.2c0.6-2.6,1.6-5.4,2.8-8.5c4.6-11.4,14.8-25.3,30.1-32.8c6.6-3.3,10.7-5,14.2-5.6
			c8.1-1.3,13.1,1.9,22.8,0c8.2-1.6,18.1-7,30.1-15.1c16.3-11,33-26.4,44.3-39.8c8.6-10.3,15.3-20.8,22.9-29.5
			c9.5-11,18.7-19.3,31.1-26.2c2.7-1.5,5.6-2.7,8.5-3.9c28.1-11.7,64.8-12.7,101.8-18.2c10.6-1.6,21.6-3.8,33.6-8.4
			c3.1-1.2,6.1-2.5,9.1-4c30.9-14.8,55.8-41.3,74.3-65.5c3.5-4.6,6.7-9.2,9.9-13.5c7.5-10.3,13.7-19.6,22.5-30.1
			c13.1-15.8,27.8-34.6,49.6-42.3c12.2-4.3,23.7-3.8,31.8-1.8c4,1,7.1,2.5,10.1,3.6c2.8,1,5.6,1.4,8.3,1.9
			c13.6,2.5,27.5-0.2,41.8-7.9c10.2-5.5,21.9-12.6,30.4-23.4c5.5-7.1,8.7-15.6,17.5-23.7c10.1-9.2,25.5-16.3,40.1-21.5
			c26.1-9.3,51.6-14.3,72.9-16.7c15-1.7,27.9-2.9,40.1-2c16,1.2,31.1,4.6,48.5,9.8c13.6,4.1,27,10.2,40.8,15.5
			c25.6,9.8,52.3,20.4,78.2,23.9c12.7,1.7,22.2,2.3,31.2,2.6c12.4,0.5,23.7-0.3,34.3-0.8c8-0.4,17.5-1.2,26.2-10.6
			c5.4-5.9,8.6-14.5,10.8-22.9c6.2-23.9,4.6-48.6,7.7-73.4c0.8-6.5,2.1-13.1,4-19.7c2.3-8,5.3-16.1,12.2-24.1
			c2.9-3.3,6.3-6.6,10.5-9.5c8-5.5,16.2-8.8,24.9-10.6c10.5-2.2,20.2-2.2,29.8-1.7c20.2,1.1,37.8,6.7,53.1,8.6
			c7.6,0.9,15,0.7,24.1,0.5c19.5-0.5,44.1-5.4,68.2-11.2c2-0.5,4.1-1,6.1-1.5c24.1-5.9,69.9-35.1,115.9-74.9
			c15.9-13.7,29.5-28,44.7-41.6c46.2-41.4,94.9-79.8,121.4-88.7c44.5-14.9,96.3-29.4,130.7-62.5"/>
		<path class="st6" d="M-70.9,926.8c35.4-2.8,75.6-31.2,103-62.5c6.7-7.7,12.5-15.6,17.2-23.3c17.7-29.5,22.4-56.4,26.1-80
			c1-6.4,2.1-12.5,3.4-18.8c0.5-2.6,1.4-5.6,2.5-8.7c4.2-11.7,14-25.8,29.4-33.2c6.5-3.2,10.8-4.8,14.4-5.2
			c8.4-0.9,13.9,2.7,23.8,1.2c8.5-1.3,18.5-6.5,30.3-14.5c16.3-11,32.7-26.5,43.7-40.1c8.3-10.5,14.7-21.1,22.1-30.2
			c9.1-11.3,18.1-20.1,30.4-27.6c2.7-1.6,5.5-2.9,8.4-4.2c27.9-12.8,64.5-14.5,101.2-20.6c10.6-1.8,21.5-4.1,33.4-8.8
			c3.1-1.2,6.1-2.5,9-4c30.7-14.8,55.6-41,73.6-65.3c3.4-4.6,6.5-9.2,9.6-13.7c7.3-10.5,13.2-20,21.7-30.7
			c12.6-15.9,27.5-34.6,49-42.2c11.9-4.2,23.2-3.8,31.4-1.9c4,0.9,7.3,2.3,10.4,3.2c3,0.9,5.9,1.2,8.8,1.5
			c14.4,1.7,29.3-2,43.9-10.6c10.4-6.2,21.9-14,29.9-25.1c5.3-7.4,8.2-16.1,16.8-24.3c9.9-9.4,25.2-16.5,39.7-21.7
			c25.9-9.2,51.3-13.8,72.7-15.8c15-1.4,28-2.1,40.3-0.7c16.1,1.8,31.3,5.7,48.4,11.4c13.5,4.5,26.7,10.8,40.4,16.4
			c25.3,10.3,51.7,21.2,77.5,25.5c12.5,2.1,22.2,3,31.4,3.8c12.7,1.1,24.5,0.9,35.7,1c8.5,0.1,18.6-0.3,27.9-9.6
			c5.8-5.8,9.4-14.4,11.9-22.7c7.2-23.9,6.3-48.6,10.1-73.4c1-6.5,2.5-13.1,4.6-19.7c2.6-7.9,5.8-16,12.7-23.8
			c2.9-3.3,6.4-6.5,10.5-9.4c7.9-5.5,16-8.8,24.6-10.7c10.4-2.3,20.1-2.3,29.6-1.8c20.1,1.2,37.5,7.4,53,10
			c7.6,1.3,15.2,1.4,24.4,1.5c19.8,0,44.6-5,68.9-10.8c2-0.5,4.1-1,6.1-1.5c23.8-5.8,69.9-35.8,116.6-75.8
			c16-13.7,30.1-28,45.4-41.6c47.2-41.8,96.4-80.5,122.5-89c45-14.7,97.3-29.2,131.6-62.9"/>
		<path class="st6" d="M-71.8,924.8c35.4-2.1,75.5-30.4,102.3-61.9c6.6-7.7,12.3-15.7,16.7-23.5c17-29.8,20.8-57.1,23.6-81.4
			c0.8-6.6,1.6-12.9,2.6-19.4c0.4-2.7,1.2-5.8,2.2-9c3.8-12,13.2-26.3,28.6-33.6c6.5-3.1,10.8-4.5,14.6-4.7
			c8.7-0.5,14.7,3.6,24.8,2.4c8.7-1,18.8-6.1,30.5-13.9c16.3-10.9,32.4-26.5,43-40.4c8-10.6,14.2-21.5,21.3-30.9
			c8.7-11.6,17.5-21,29.7-28.9c2.7-1.7,5.5-3.2,8.3-4.6c27.7-13.9,64.2-16.3,100.7-23.1c10.6-2,21.5-4.5,33.1-9.1c3.1-1.2,6-2.6,9-4
			c30.5-14.8,55.3-40.7,72.8-65.2c3.3-4.7,6.3-9.3,9.3-13.9c7-10.7,12.7-20.5,20.9-31.3c12.2-16,27.1-34.6,48.4-42.1
			c11.7-4.1,22.8-3.7,31.1-2c4.1,0.8,7.5,2.1,10.8,2.8c3.1,0.7,6.2,0.9,9.2,1.1c15.3,1,31.1-3.8,45.9-13.3
			c10.6-6.8,21.9-15.3,29.4-26.7c5.1-7.7,7.7-16.6,16.1-25c9.7-9.6,24.8-16.7,39.2-21.8c25.7-9.1,51-13.4,72.4-14.9
			c15-1,28.1-1.2,40.4,0.5c16.3,2.3,31.4,6.8,48.3,12.9c13.4,4.9,26.4,11.5,40,17.4c25,10.8,51,22,76.8,27.1
			c12.3,2.4,22.1,3.8,31.7,5c13,1.6,25.3,2.1,37.1,2.8c9,0.5,19.7,0.5,29.7-8.6c6.2-5.7,10.2-14.2,13-22.6
			c8.1-23.9,7.9-48.7,12.5-73.4c1.2-6.4,2.9-13.1,5.3-19.6c2.8-7.9,6.4-15.9,13.2-23.5c2.9-3.3,6.4-6.4,10.4-9.3
			c7.7-5.5,15.8-8.9,24.4-10.9c10.4-2.4,20-2.5,29.4-1.9c19.9,1.4,37.2,8.1,52.9,11.4c7.7,1.6,15.4,2.2,24.6,2.5
			c20.1,0.5,45.1-4.5,69.5-10.3c2.1-0.5,4.1-1,6.2-1.5c23.5-5.7,69.9-36.4,117.3-76.6c16.1-13.7,30.6-27.9,46.2-41.5
			c48.3-42.1,98-81.1,123.6-89.2c45.5-14.4,98.2-29,132.5-63.3"/>
		<path class="st6" d="M-72.6,922.9c35.3-1.4,75.4-29.7,101.6-61.3c6.5-7.8,12-15.8,16.3-23.7C61.6,807.7,64.4,780,66.3,755
			c0.5-6.8,1.1-13.3,1.9-20c0.3-2.8,0.9-5.9,1.9-9.2c3.4-12.3,12.4-26.8,27.9-34c6.4-3,10.8-4.2,14.7-4.3c9-0.2,15.4,4.5,25.8,3.7
			c8.9-0.7,19.2-5.6,30.7-13.3c16.2-10.8,32.1-26.6,42.3-40.6c7.8-10.8,13.6-21.8,20.5-31.6c8.3-11.8,16.8-21.8,29-30.3
			c2.6-1.8,5.4-3.4,8.2-4.9c27.5-14.9,63.9-18.1,100.1-25.5c10.6-2.2,21.4-4.9,32.9-9.5c3-1.2,6-2.6,8.9-4
			c30.2-14.8,55.1-40.5,72-65.1c3.3-4.7,6.1-9.4,9-14c6.7-10.8,12.2-20.9,20.1-31.9c11.7-16.1,26.8-34.6,47.9-42
			c11.4-4,22.3-3.6,30.7-2.2c4.1,0.7,7.7,1.8,11.1,2.4c3.3,0.6,6.5,0.7,9.7,0.8c16.2,0.3,32.8-5.6,48-16
			c10.8-7.5,21.9-16.7,28.9-28.4c4.8-8,7.2-17,15.4-25.6c9.5-9.8,24.5-17,38.8-22c25.6-9,50.6-13,72.2-14c15-0.7,28.2-0.4,40.6,1.8
			c16.4,2.9,31.6,7.9,48.1,14.5c13.3,5.3,26.2,12.1,39.6,18.3c24.6,11.3,50.4,22.8,76.1,28.7c12.1,2.8,22.1,4.6,31.9,6.2
			c13.3,2.2,26.1,3.4,38.5,4.6c9.5,0.9,20.8,1.4,31.4-7.6c6.6-5.6,11-14.1,14.2-22.4c9.1-23.9,9.5-48.7,14.9-73.5
			c1.4-6.4,3.3-13,5.9-19.5c3.1-7.9,6.9-15.8,13.8-23.3c3-3.3,6.4-6.4,10.4-9.2c7.6-5.4,15.6-8.9,24.2-11c10.4-2.5,19.9-2.7,29.2-2
			c19.8,1.5,36.9,8.9,52.7,12.9c7.8,2,15.7,3,24.9,3.5c20.4,1.1,45.5-4,70.2-9.9c2.1-0.5,4.1-1,6.2-1.5c23.2-5.6,69.8-37,117.9-77.4
			c16.3-13.7,31.1-27.9,46.9-41.5c49.4-42.5,99.5-81.7,124.8-89.5c46-14.1,99.1-28.8,133.3-63.7"/>
		<path class="st6" d="M-73.5,921c35.2-0.6,75.3-29,100.9-60.7c6.3-7.9,11.7-16,15.8-23.9c15.7-30.5,17.6-58.5,18.6-84.3
			c0.3-7,0.6-13.7,1.1-20.6c0.2-2.9,0.7-6.1,1.5-9.5c3.1-12.6,11.6-27.4,27.2-34.4c6.3-2.8,10.8-3.9,14.9-3.9
			c9.4,0.2,16.2,5.4,26.8,4.9c9.2-0.4,19.6-5.2,30.9-12.7c16.2-10.7,31.8-26.7,41.6-40.9c7.5-11,13.1-22.2,19.7-32.3
			c7.9-12.1,16.2-22.6,28.3-31.6c2.6-1.9,5.4-3.6,8.2-5.3c27.4-16,63.7-19.9,99.6-27.9c10.6-2.4,21.4-5.2,32.6-9.9
			c3-1.2,5.9-2.6,8.8-4c30-14.8,54.8-40.2,71.2-65c3.2-4.8,5.9-9.5,8.7-14.2c6.4-11,11.6-21.4,19.4-32.4
			c11.3-16.2,26.4-34.6,47.3-41.8c11.2-3.8,21.8-3.6,30.3-2.3c4.2,0.6,7.9,1.6,11.4,2.1c3.4,0.5,6.8,0.5,10.2,0.4
			c17-0.4,34.6-7.4,50.1-18.7c11-8.1,21.8-18,28.4-30c4.6-8.3,6.7-17.5,14.8-26.2c9.3-10,24.2-17.2,38.3-22.2
			c25.4-8.9,50.3-12.6,72-13.1c15-0.3,28.4,0.4,40.8,3c16.5,3.4,31.7,9.1,48,16.1c13.2,5.7,25.9,12.8,39.2,19.2
			c24.3,11.8,49.7,23.6,75.4,30.3c11.9,3.1,22.1,5.3,32.1,7.4c13.7,2.8,27,4.6,40,6.4c10,1.4,21.8,2.3,33.1-6.5
			c7-5.5,11.8-14,15.3-22.3c10.1-23.9,11.2-48.8,17.4-73.5c1.6-6.4,3.8-13,6.5-19.5c3.4-7.8,7.5-15.6,14.3-23
			c3-3.2,6.4-6.3,10.3-9.1c7.5-5.4,15.5-9,24-11.1c10.4-2.6,19.8-2.9,29-2.1c19.7,1.7,36.5,9.6,52.6,14.3c7.9,2.3,15.9,3.7,25.2,4.5
			c20.6,1.6,46-3.5,70.8-9.4c2.1-0.5,4.2-1,6.3-1.5c22.9-5.6,69.8-37.7,118.6-78.2c16.4-13.6,31.6-27.8,47.6-41.4
			c50.4-42.8,101-82.3,125.9-89.7c46.4-13.8,100-28.7,134.2-64.1"/>
		<path class="st6" d="M-74.3,919c35.1,0.1,75.2-28.2,100.3-60.1c6.2-7.9,11.5-16.1,15.4-24.1c15-30.9,16-59.2,16.1-85.7
			c0-7.1,0.1-14.1,0.3-21.2c0.1-3,0.5-6.3,1.2-9.7c2.7-12.9,10.8-27.9,26.5-34.8c6.2-2.7,10.9-3.7,15-3.4c9.7,0.5,16.9,6.3,27.9,6.1
			c9.4-0.1,19.9-4.7,31.1-12.1c16.1-10.6,31.5-26.7,40.9-41.2c7.2-11.1,12.5-22.5,18.9-33c7.5-12.4,15.6-23.4,27.6-33
			c2.6-2.1,5.3-3.9,8.1-5.6c27.2-17.1,63.4-21.8,99.1-30.4c10.6-2.5,21.3-5.6,32.4-10.2c3-1.2,5.9-2.6,8.7-4
			c29.7-14.8,54.5-40,70.5-64.9c3.1-4.8,5.8-9.6,8.4-14.4c6.2-11.2,11.1-21.8,18.6-33c10.9-16.3,26-34.7,46.8-41.7
			c10.9-3.7,21.3-3.5,30-2.4c4.2,0.5,8,1.3,11.8,1.7c3.6,0.4,7.1,0.3,10.6,0c17.9-1.2,36.4-9.2,52.1-21.4
			c11.2-8.8,21.8-19.3,28-31.7c4.3-8.6,6.2-18,14.1-26.9c9.1-10.2,23.9-17.4,37.9-22.4c25.2-8.9,50-12.2,71.7-12.2
			c15,0,28.5,1.3,41,4.2c16.6,4,31.9,10.2,47.9,17.6c13,6.1,25.6,13.4,38.7,20.2c24,12.3,49.1,24.4,74.8,31.9
			c11.7,3.5,22.1,6.1,32.3,8.6c14,3.4,27.8,5.9,41.4,8.2c10.4,1.8,22.9,3.1,34.9-5.5c7.4-5.4,12.6-13.8,16.4-22.1
			c11.1-23.9,12.8-48.8,19.8-73.6c1.8-6.4,4.2-13,7.2-19.4c3.6-7.8,8-15.5,14.8-22.7c3-3.2,6.4-6.3,10.3-9c7.4-5.3,15.3-9,23.7-11.3
			c10.3-2.8,19.7-3,28.8-2.2c19.6,1.8,36.2,10.3,52.4,15.8c8,2.7,16.1,4.5,25.4,5.5c20.9,2.1,46.5-3,71.5-9c2.1-0.5,4.2-1,6.3-1.5
			c22.6-5.5,69.8-38.3,119.3-79.1c16.5-13.6,32.2-27.8,48.4-41.4c51.5-43.2,102.6-82.9,127.1-90c46.9-13.6,100.9-28.5,135.1-64.5"/>
		<path class="st6" d="M-75.2,917.1c35,0.8,75.1-27.5,99.6-59.5c6.1-8,11.2-16.2,14.9-24.3c14.4-31.2,14.4-60,13.6-87.1
			c-0.2-7.3-0.4-14.5-0.4-21.8c0-3.1,0.3-6.4,0.9-10c2.3-13.3,10-28.4,25.8-35.2c6.2-2.6,10.9-3.4,15.2-3c10,0.9,17.7,7.2,28.9,7.3
			c9.7,0.2,20.3-4.2,31.4-11.5c16.1-10.5,31.2-26.8,40.2-41.5c6.9-11.3,12-22.9,18.1-33.7c7.1-12.7,15-24.2,26.9-34.3
			c2.6-2.2,5.3-4.1,8-6c27-18.2,63.1-23.6,98.5-32.8c10.6-2.7,21.2-5.9,32.1-10.6c2.9-1.3,5.8-2.6,8.7-4
			c29.5-14.9,54.3-39.7,69.7-64.8c3-4.9,5.6-9.7,8.1-14.5c5.9-11.3,10.6-22.3,17.8-33.6c10.4-16.5,25.7-34.7,46.2-41.6
			c10.7-3.6,20.8-3.4,29.6-2.6c4.3,0.4,8.2,1.1,12.1,1.3c3.7,0.2,7.4,0,11.1-0.3c18.8-1.9,38.2-10.9,54.2-24.1
			c11.4-9.4,21.7-20.7,27.5-33.3c4-8.9,5.7-18.5,13.4-27.5c8.8-10.4,23.6-17.7,37.5-22.6c25-8.8,49.7-11.8,71.5-11.3
			c15,0.4,28.6,2.1,41.1,5.5c16.8,4.5,32,11.3,47.7,19.2c12.9,6.5,25.4,14.1,38.3,21.1c23.7,12.8,48.5,25.1,74.1,33.5
			c11.6,3.8,22.1,6.9,32.5,9.8c14.3,4,28.6,7.1,42.8,10c10.9,2.3,24,4,36.6-4.5c7.8-5.3,13.4-13.7,17.6-21.9
			c12-23.9,14.4-48.9,22.2-73.6c2-6.4,4.6-12.9,7.8-19.3c3.9-7.7,8.6-15.4,15.3-22.5c3.1-3.2,6.5-6.2,10.3-9
			c7.3-5.3,15.1-9,23.5-11.4c10.3-2.9,19.6-3.2,28.6-2.3c19.4,2,35.9,11,52.3,17.2c8.1,3,16.3,5.3,25.7,6.5
			c21.2,2.6,46.9-2.5,72.1-8.5c2.1-0.5,4.2-1,6.3-1.5c22.3-5.4,69.8-39,119.9-79.9c16.7-13.6,32.7-27.7,49.1-41.4
			c52.5-43.5,104.1-83.5,128.2-90.2c47.4-13.2,101.8-28.3,136-64.8"/>
		<path class="st6" d="M-76,915.2c34.9,1.5,75-26.7,98.9-58.9c6-8.1,10.9-16.4,14.5-24.5c13.7-31.6,12.8-60.7,11-88.5
			c-0.5-7.5-0.9-14.9-1.2-22.4c-0.1-3.1,0.1-6.6,0.6-10.2c1.9-13.6,9.2-29,25-35.6c6.1-2.5,10.9-3.1,15.4-2.6
			c10.3,1.3,18.4,8,29.9,8.6c9.9,0.5,20.7-3.8,31.6-10.9c16-10.4,30.9-26.8,39.6-41.7c6.6-11.5,11.5-23.2,17.3-34.4
			c6.8-13,14.3-25.1,26.2-35.7c2.5-2.3,5.2-4.3,7.9-6.3c26.8-19.3,62.8-25.4,98-35.2c10.6-2.9,21.2-6.3,31.8-10.9
			c2.9-1.3,5.8-2.6,8.6-4.1c29.3-14.9,54-39.5,68.9-64.7c2.9-4.9,5.4-9.8,7.8-14.7c5.6-11.5,10.1-22.7,17-34.2
			c10-16.6,25.3-34.7,45.6-41.5c10.4-3.5,20.3-3.4,29.3-2.7c4.3,0.3,8.4,0.8,12.4,0.9c3.8,0.1,7.7-0.2,11.6-0.7
			c19.7-2.6,40-12.7,56.2-26.8c11.6-10.1,21.7-22,27-35c3.8-9.2,5.2-19,12.7-28.2c8.6-10.6,23.2-17.9,37-22.7
			c24.9-8.7,49.3-11.4,71.3-10.4c15,0.7,28.7,2.9,41.3,6.7c16.9,5.1,32.1,12.4,47.6,20.8c12.8,6.9,25.1,14.7,37.9,22
			c23.4,13.2,47.9,25.9,73.4,35.1c11.4,4.1,22.1,7.7,32.8,11c14.7,4.5,29.4,8.3,44.2,11.8c11.4,2.7,25.1,4.8,38.3-3.5
			c8.2-5.2,14.2-13.5,18.7-21.8c13-23.9,16.1-48.9,24.6-73.6c2.2-6.4,5-12.9,8.4-19.3c4.1-7.7,9.1-15.3,15.8-22.2
			c3.1-3.2,6.5-6.2,10.2-8.9c7.2-5.2,15-9.1,23.3-11.5c10.3-3,19.5-3.4,28.4-2.4c19.3,2.1,35.6,11.7,52.1,18.7
			c8.2,3.4,16.5,6.1,26,7.5c21.4,3.2,47.4-2,72.8-8.1c2.1-0.5,4.3-1,6.4-1.5c22-5.3,69.7-39.6,120.6-80.7
			c16.8-13.6,33.2-27.7,49.9-41.3c53.6-43.9,105.7-84.1,129.4-90.5c47.9-12.9,102.7-28.1,136.8-65.2"/>
		<path class="st6" d="M-76.9,913.2c34.8,2.2,74.8-26,98.2-58.3c5.9-8.1,10.7-16.5,14-24.7c13-31.9,11.2-61.4,8.5-89.9
			c-0.7-7.7-1.5-15.3-2-23c-0.2-3.2-0.2-6.8,0.3-10.5c1.5-13.9,8.4-29.5,24.3-35.9c6-2.4,11-2.9,15.5-2.2
			c10.6,1.6,19.2,8.9,30.9,9.8c10.1,0.7,21-3.3,31.8-10.3c16-10.3,30.6-26.9,38.9-42c6.3-11.6,10.9-23.6,16.5-35.1
			c6.4-13.3,13.7-25.9,25.5-37.1c2.5-2.4,5.1-4.6,7.9-6.7c26.6-20.4,62.5-27.3,97.4-37.6c10.6-3.1,21.1-6.7,31.6-11.3
			c2.9-1.3,5.7-2.6,8.5-4.1c29-14.9,53.8-39.2,68.2-64.5c2.8-4.9,5.2-9.9,7.5-14.8c5.3-11.7,9.6-23.1,16.3-34.8
			c9.6-16.7,25-34.7,45.1-41.4c10.2-3.4,19.9-3.3,28.9-2.8c4.4,0.2,8.6,0.6,12.8,0.5c4,0,8-0.4,12-1.1c20.6-3.4,41.7-14.5,58.3-29.5
			c11.8-10.7,21.6-23.3,26.5-36.6c3.5-9.5,4.7-19.5,12-28.8c8.4-10.8,22.9-18.1,36.6-22.9c24.7-8.6,49-11.1,71-9.5
			c15,1,28.8,3.8,41.5,8c17,5.7,32.3,13.5,47.5,22.3c12.6,7.3,24.8,15.4,37.5,23c23,13.8,47.3,26.6,72.7,36.7
			c11.2,4.5,22,8.4,33,12.2c15,5.1,30.2,9.6,45.6,13.6c11.9,3.1,26.2,5.7,40-2.5c8.6-5.1,15-13.4,19.8-21.6
			c14-23.9,17.7-49,27.1-73.7c2.4-6.3,5.4-12.9,9.1-19.2c4.4-7.7,9.6-15.2,16.3-21.9c3.1-3.1,6.5-6.1,10.2-8.8
			c7.1-5.2,14.8-9.2,23.1-11.6c10.2-3.1,19.5-3.5,28.2-2.5c19.2,2.3,35.3,12.5,52,20.1c8.2,3.7,16.7,6.8,26.3,8.5
			c21.7,3.7,47.9-1.6,73.5-7.6c2.1-0.5,4.3-1,6.4-1.5c21.8-5.2,69.6-40.4,121.3-81.5c16.9-13.6,33.7-27.6,50.6-41.3
			c54.7-44.2,107.2-84.7,130.5-90.7c48.4-12.6,103.6-27.9,137.7-65.6"/>
		<path class="st6" d="M-77.7,911.3c34.7,3,74.7-25.3,97.5-57.7c5.7-8.2,10.4-16.6,13.6-24.9c12.3-32.3,9.6-62.1,6-91.3
			c-1-7.9-2-15.7-2.7-23.5c-0.3-3.3-0.4-6.9-0.1-10.7c1.1-14.2,7.6-30.1,23.6-36.3c5.9-2.3,11-2.6,15.7-1.7c10.9,2,19.9,9.8,31.9,11
			c10.4,1,21.4-2.9,32-9.7c16-10.2,30.3-27,38.2-42.3c6.1-11.8,10.4-24,15.7-35.7c6.1-13.6,13.1-26.7,24.8-38.4
			c2.5-2.5,5.1-4.8,7.8-7c26.4-21.5,62.2-29.1,96.9-40.1c10.6-3.3,21.1-7,31.3-11.7c2.9-1.3,5.7-2.7,8.4-4.1
			c28.8-14.9,53.5-39,67.4-64.4c2.7-5,5-10,7.2-15c5.1-11.8,9.1-23.6,15.5-35.3c9.2-16.8,24.6-34.7,44.5-41.2
			c9.9-3.3,19.4-3.2,28.5-3c4.4,0.1,8.7,0.3,13.1,0.2c4.1-0.1,8.3-0.7,12.5-1.5c21.5-4.1,43.5-16.3,60.4-32.2
			c12-11.4,21.6-24.6,26-38.3c3.2-9.8,4.2-20,11.3-29.4c8.2-11,22.6-18.4,36.2-23.1c24.5-8.5,48.7-10.7,70.8-8.6
			c15,1.4,28.9,4.6,41.6,9.2c17.1,6.2,32.4,14.7,47.3,23.9c12.5,7.7,24.6,16,37,23.9c22.7,14.3,46.8,27.4,72,38.3
			c11.1,4.8,22,9.2,33.2,13.4c15.4,5.7,31.1,10.8,47,15.4c12.4,3.6,27.2,6.5,41.8-1.4c9-5,15.8-13.3,21-21.5
			c15-23.8,19.3-49.1,29.5-73.7c2.6-6.3,5.9-12.8,9.7-19.2c4.7-7.6,10.2-15,16.9-21.7c3.1-3.1,6.5-6,10.1-8.7
			c7-5.2,14.6-9.2,22.8-11.8c10.2-3.2,19.4-3.7,28-2.6c19.1,2.5,35,13.2,51.9,21.5c8.3,4.1,16.9,7.6,26.5,9.5
			c21.9,4.2,48.3-1.1,74.1-7.2c2.2-0.5,4.3-1,6.5-1.5c21.5-5.1,69.6-41,121.9-82.4c17-13.5,34.3-27.5,51.4-41.2
			c55.8-44.4,108.7-85.3,131.7-91c48.9-12.2,104.5-27.7,138.6-66"/>
		<path class="st6" d="M-78.6,909.4c43.4,4.6,95.2-40.8,110-82.2s4.9-79.1,0-116.9c-2.1-16.2,2.1-39.9,22.5-47.7
			c19.4-7.4,31.2,8.7,48.8,11c26.8,3.4,57.3-25.9,69.7-51.6s17.3-53.4,38.9-76.2c36.2-38.2,95.7-41,143.5-66
			c28.6-14.9,53.2-38.7,66.6-64.3c8.9-16.9,12.9-34.2,21.6-51.1s24.3-34.7,43.9-41.1c14.3-4.7,27.7-2.4,41.6-3.3
			c42-2.7,90-39.2,100.9-76.6c2.9-10.1,3.7-20.4,10.6-30.1c8-11.2,22.3-18.6,35.7-23.3c40.7-14.1,80.7-9.8,112.4,2.7
			s56.8,32.5,83.8,50.3c45.6,30.1,97.1,54.2,153.2,71.7c12.9,4,28.3,7.4,43.5-0.4c9.4-4.9,16.6-13.1,22.1-21.3
			c15.9-23.8,21-49.1,31.9-73.7c10.9-24.6,31.9-51.8,60.4-61c44.1-14.3,68.3,22.6,106.3,30.8c24,5.2,53.3-1.6,81.3-8.3
			c50.6-12.1,256.9-203.5,307.5-215.6c49.4-11.8,105.4-27.5,139.4-66.4"/>
	</g>
</g>
</svg>
