<?xml version="1.0" encoding="utf-8"?>
<!-- Generator: Adobe Illustrator 21.1.0, SVG Export Plug-In . SVG Version: 6.00 Build 0)  -->
<svg version="1.1" id="Layer_1" xmlns="http://www.w3.org/2000/svg" xmlns:xlink="http://www.w3.org/1999/xlink" x="0px" y="0px"
	 viewBox="0 0 1600 1236.4" style="enable-background:new 0 0 1600 1236.4;" xml:space="preserve">
<style type="text/css">
	.st0{fill:#1A1A1A;}
	.st1{clip-path:url(#SVGID_2_);}
	.st2{fill:none;stroke:#000000;stroke-width:1.25;stroke-miterlimit:10;}
	.st3{fill:none;stroke:#000000;stroke-miterlimit:10;}
	.st4{clip-path:url(#SVGID_4_);}
	.st5{clip-path:url(#SVGID_6_);}
	.st6{fill:none;stroke:#000000;stroke-width:3;stroke-miterlimit:10;}
	.st7{clip-path:url(#SVGID_8_);}
	.st8{clip-path:url(#SVGID_10_);}
	.st9{clip-path:url(#SVGID_12_);}
	.st10{clip-path:url(#SVGID_14_);}
	.st11{clip-path:url(#SVGID_16_);}
	.st12{fill:none;stroke:#000000;stroke-width:1.2511;stroke-miterlimit:10;}
	.st13{fill:none;stroke:#000000;stroke-width:1.2523;stroke-miterlimit:10;}
	.st14{fill:none;stroke:#000000;stroke-width:1.2534;stroke-miterlimit:10;}
	.st15{fill:none;stroke:#000000;stroke-width:1.2546;stroke-miterlimit:10;}
	.st16{fill:none;stroke:#000000;stroke-width:1.2557;stroke-miterlimit:10;}
	.st17{fill:none;stroke:#000000;stroke-width:1.2569;stroke-miterlimit:10;}
	.st18{fill:none;stroke:#000000;stroke-width:1.258;stroke-miterlimit:10;}
	.st19{fill:none;stroke:#000000;stroke-width:1.2591;stroke-miterlimit:10;}
	.st20{fill:none;stroke:#000000;stroke-width:1.2603;stroke-miterlimit:10;}
	.st21{fill:none;stroke:#000000;stroke-width:1.2614;stroke-miterlimit:10;}
	.st22{fill:none;stroke:#000000;stroke-width:1.2626;stroke-miterlimit:10;}
	.st23{fill:none;stroke:#000000;stroke-width:1.2637;stroke-miterlimit:10;}
	.st24{fill:none;stroke:#000000;stroke-width:1.2649;stroke-miterlimit:10;}
	.st25{fill:none;stroke:#000000;stroke-width:1.266;stroke-miterlimit:10;}
	.st26{fill:none;stroke:#000000;stroke-width:1.2671;stroke-miterlimit:10;}
	.st27{fill:none;stroke:#000000;stroke-width:1.2683;stroke-miterlimit:10;}
	.st28{fill:none;stroke:#000000;stroke-width:1.2694;stroke-miterlimit:10;}
	.st29{fill:none;stroke:#000000;stroke-width:1.2706;stroke-miterlimit:10;}
	.st30{fill:none;stroke:#000000;stroke-width:1.2717;stroke-miterlimit:10;}
	.st31{fill:none;stroke:#000000;stroke-width:1.2729;stroke-miterlimit:10;}
	.st32{fill:none;stroke:#000000;stroke-width:1.274;stroke-miterlimit:10;}
	.st33{fill:none;stroke:#000000;stroke-width:1.2751;stroke-miterlimit:10;}
	.st34{fill:none;stroke:#000000;stroke-width:1.2763;stroke-miterlimit:10;}
	.st35{fill:none;stroke:#000000;stroke-width:1.2774;stroke-miterlimit:10;}
	.st36{fill:none;stroke:#000000;stroke-width:1.2786;stroke-miterlimit:10;}
	.st37{fill:none;stroke:#000000;stroke-width:1.2797;stroke-miterlimit:10;}
	.st38{fill:none;stroke:#000000;stroke-width:1.2809;stroke-miterlimit:10;}
	.st39{fill:none;stroke:#000000;stroke-width:1.282;stroke-miterlimit:10;}
	.st40{fill:none;stroke:#000000;stroke-width:1.2831;stroke-miterlimit:10;}
	.st41{fill:none;stroke:#000000;stroke-width:1.2843;stroke-miterlimit:10;}
	.st42{fill:none;stroke:#000000;stroke-width:1.2854;stroke-miterlimit:10;}
	.st43{fill:none;stroke:#000000;stroke-width:1.2866;stroke-miterlimit:10;}
	.st44{fill:none;stroke:#000000;stroke-width:1.2877;stroke-miterlimit:10;}
	.st45{fill:none;stroke:#000000;stroke-width:1.2889;stroke-miterlimit:10;}
	.st46{fill:none;stroke:#000000;stroke-width:1.29;stroke-miterlimit:10;}
	.st47{fill:none;stroke:#000000;stroke-width:1.2911;stroke-miterlimit:10;}
	.st48{fill:none;stroke:#000000;stroke-width:1.2923;stroke-miterlimit:10;}
	.st49{fill:none;stroke:#000000;stroke-width:1.2934;stroke-miterlimit:10;}
	.st50{fill:none;stroke:#000000;stroke-width:1.2946;stroke-miterlimit:10;}
	.st51{fill:none;stroke:#000000;stroke-width:1.2957;stroke-miterlimit:10;}
	.st52{fill:none;stroke:#000000;stroke-width:1.2968;stroke-miterlimit:10;}
	.st53{fill:none;stroke:#000000;stroke-width:1.298;stroke-miterlimit:10;}
	.st54{clip-path:url(#SVGID_16_);fill:none;stroke:#000000;stroke-width:1.298;stroke-miterlimit:10;}
	.st55{clip-path:url(#SVGID_18_);}
	.st56{clip-path:url(#SVGID_18_);fill:none;stroke:#000000;stroke-width:2.6222;stroke-miterlimit:10;}
	.st57{clip-path:url(#SVGID_20_);}
	.st58{clip-path:url(#SVGID_22_);}
	.st59{clip-path:url(#SVGID_24_);}
</style>
<g>
	<defs>
		<rect id="SVGID_11_" x="0" y="-13.8" width="1600" height="1260.8"/>
	</defs>
	<clipPath id="SVGID_2_">
		<use xlink:href="#SVGID_11_"  style="overflow:visible;"/>
	</clipPath>
	<g class="st1">
		<path class="st6" d="M1758.2,1119.8c-39.3-6.6-125-19.3-146.1-59.2c-6.8-12.9-5.9-28.3-4.8-42.8c2.4-32.1,4.7-64.2,7.1-96.3
			c1.7-22.4,3-46.2-7.5-66.1c-15.1-28.4-51.2-40.1-83.1-36.2c-96.6,11.9-161,104.8-254.4,127.3c-10.7,2.6-23.3,4.2-36.8-2.3
			c-66.9-32.2-45.7-148-66-206c-25.4-72.6-102.6-121.2-179.6-120.5c-54,0.6-104.7,21.9-158,28c-46.9,5.3-96.4-3.1-141.8-14.9
			C586.3,604.8,491.2,554,408.6,491C270.2,385.4,23.5,131.6-39.6-2.4c-31-65.9-53.7-134.5-39.6-187.6c10.7-40.2,41.9-68.3,79.5-88.3
			"/>
		<path class="st6" d="M1756.5,1123.4c-40.3-6.5-125.5-19.9-147.7-60c-7.1-12.9-6.7-28.2-6.1-42.8c1.3-32.1,2.7-64.3,4.3-96.5
			c1.1-22.6,2-46.5-8.5-66.6c-15-28.8-50.2-41.5-81.2-39.1c-11,0.9-21.6,2.8-31.8,5.6c-55.1,15.1-101.3,54.5-153.7,82.1
			c-20.7,10.9-42.3,20-65.8,24.8c-10.8,2.2-23.5,3.4-37-3.1c-48.1-23.3-53.4-86.9-60.5-141.7c-2.9-22.4-6.2-43.3-12.7-59.4
			c-17.9-44.5-55.9-79.1-101.3-98c-25.8-10.7-53.9-16.3-82-15.7c-54.4,1.2-105.8,22.5-159.6,28.8c-12.8,1.5-25.7,2-38.7,1.8
			c-35.2-0.7-70.9-7.1-104.6-15.5c-45.3-11.3-89.6-27.7-132.2-48.4c-52.9-25.7-102.9-57.8-148.6-93.6
			c-63.6-49.5-149.3-130-229.2-215.4C67.7,172.4-16.4,67.5-49.3-4.1c-30.2-65.2-52.1-132.9-38-185.5c10.6-39.7,41.1-67.7,78-87.7"/>
		<path class="st6" d="M1754.8,1127c-41.4-6.4-126.1-20.3-149.4-60.7c-7.4-12.8-7.4-28.2-7.3-42.7c0.2-32.1,0.7-64.5,1.6-96.8
			c0.6-22.7,1.1-46.7-9.4-67.1c-15-29.1-49.3-42.9-79.4-42c-10.7,0.4-20.9,1.7-30.8,3.9c-53.4,11.9-99,47.3-151.3,71.9
			c-20.7,9.7-42.4,17.9-66,21.8c-10.9,1.8-23.6,2.7-37.2-3.9c-48.8-23.8-56.3-86-65.4-138.9c-3.7-21.7-7.9-41.8-15.1-57.3
			c-19.7-42.6-58.3-75.3-104.1-92.8c-26.1-9.9-54.4-14.9-82.8-14c-54.9,1.8-106.8,23-161.2,29.6c-12.9,1.6-26,2.2-39.1,2.1
			c-35.5-0.4-71.6-6.4-105.8-14.5c-45.7-11-90.6-27.3-133.8-48.4C464.8,551.2,414.6,518,369,481.5
			c-62.6-50.1-146.5-129.8-224.4-214.4C55,169.6-26.9,65.5-59.1-5.9c-29.1-64.6-50.4-131.3-36.5-183.4
			c10.5-39.3,40.3-67.1,76.5-87.1"/>
		<path class="st6" d="M1753.1,1130.6c-42.4-6.2-126.6-20.8-151-61.5c-7.7-12.8-8.2-28.1-8.5-42.6c-0.8-32.1-1.3-64.6-1.2-97
			c0.1-22.8,0.1-47-10.4-67.6c-15-29.5-48.4-44.3-77.6-44.9c-10.4-0.2-20.3,0.6-29.9,2.2c-51.6,8.7-96.6,40.1-148.9,61.6
			c-20.7,8.6-42.5,15.7-66.2,18.9c-11,1.5-23.8,2-37.4-4.7c-49.4-24.2-59.2-85-70.3-136.2c-4.6-21-9.6-40.3-17.4-55.1
			c-21.4-40.7-60.7-71.5-107-87.7c-26.4-9.1-55-13.6-83.6-12.3c-55.3,2.5-107.9,23.5-162.9,30.4c-13,1.6-26.2,2.3-39.5,2.3
			c-35.7-0.1-72.2-5.7-106.9-13.6c-46.1-10.7-91.5-26.8-135.3-48.4c-54-26.5-104.4-60.7-149.9-97.9
			c-61.8-50.5-143.7-129.5-219.6-213.3C42.2,166.7-37.4,63.6-68.8-7.6c-28.1-63.9-48.7-129.8-35-181.4c10.3-38.8,39.6-66.5,75-86.6"
			/>
		<path class="st6" d="M1751.4,1134.2c-43.4-6.1-127.1-21.3-152.6-62.3c-8-12.8-8.9-28-9.7-42.5c-1.9-32.2-3.2-64.8-3.9-97.3
			c-0.5-23-0.9-47.2-11.3-68.2c-14.9-29.9-47.4-45.7-75.7-47.7c-10.1-0.7-19.7-0.4-28.9,0.6c-49.9,5.5-94.2,32.8-146.6,51.4
			c-20.7,7.4-42.5,13.6-66.3,15.9c-11.1,1.1-24,1.3-37.6-5.4c-50.1-24.7-62-84.1-75.2-133.4c-5.4-20.3-11.4-38.8-19.8-52.9
			c-23.1-38.8-63-67.7-109.9-82.5c-26.7-8.4-55.5-12.2-84.4-10.6c-55.7,3.1-108.9,24-164.5,31.2c-13.2,1.7-26.5,2.5-39.9,2.6
			c-36,0.2-72.9-4.9-108.1-12.6c-46.6-10.3-92.4-26.4-136.9-48.3C425.4,545.2,374.8,510,329.5,472c-60.9-51-140.9-129.3-214.8-212.2
			C29.4,163.9-48,61.7-78.6-9.4c-27.2-63.2-47.1-128.2-33.4-179.3c10.2-38.3,38.8-65.8,73.5-86"/>
		<path class="st6" d="M1749.7,1137.8c-44.4-5.9-127.6-21.8-154.2-63.1c-8.2-12.8-9.6-27.9-11-42.4c-2.9-32.2-5.2-64.9-6.7-97.6
			c-1-23.1-1.9-47.5-12.3-68.7c-14.9-30.3-46.5-47.1-73.9-50.6c-9.7-1.3-19-1.5-28-1.1c-48.2,2.3-91.8,25.6-144.2,41.2
			c-20.7,6.2-42.6,11.5-66.5,13c-11.2,0.7-24.1,0.5-37.8-6.2c-50.7-25.1-64.9-83.1-80.1-130.7c-6.2-19.6-13.1-37.3-22.2-50.8
			c-24.8-36.9-65.4-63.9-112.7-77.4c-27-7.6-56.1-10.9-85.2-8.9c-56.2,3.8-109.9,24.5-166.1,32c-13.3,1.8-26.8,2.7-40.3,2.9
			c-36.3,0.5-73.5-4.1-109.3-11.7c-47-9.9-93.4-25.9-138.5-48.3c-55.1-27.3-105.9-63.5-151.2-102.2c-60.1-51.4-138-129-210-211.2
			C16.6,161-58.5,59.9-88.3-11.2c-26.2-62.6-45.4-126.6-31.9-177.2c10.1-37.8,38-65.2,72-85.4"/>
		<path class="st6" d="M1748,1141.4c-45.5-5.8-128.1-22.3-155.8-63.8c-8.5-12.7-10.4-27.8-12.2-42.3c-4-32.2-7.2-65-9.4-97.8
			c-1.5-23.3-2.9-47.8-13.2-69.2c-14.8-30.7-45.5-48.5-72.1-53.5c-9.4-1.8-18.4-2.6-27-2.8c-46.4-0.9-89.5,18.3-141.8,31
			c-20.7,5.1-42.7,9.3-66.7,10c-11.3,0.3-24.3-0.2-38-7c-51.3-25.6-67.8-82.2-84.9-127.9c-7.1-18.9-14.8-35.8-24.5-48.6
			c-26.5-35-67.8-60.1-115.6-72.2c-27.3-6.8-56.6-9.5-86.1-7.2c-56.6,4.4-111,25-167.8,32.8c-13.4,1.8-27,2.8-40.7,3.1
			c-36.6,0.8-74.2-3.4-110.4-10.8c-47.4-9.6-94.3-25.5-140-48.3C386.1,539.2,335,502,289.9,462.5
			c-59.3-51.9-135.2-128.8-205.2-210.1C3.9,158.2-69.1,58-98-12.9c-25.3-61.9-43.7-125.1-30.4-175.2c10-37.4,37.2-64.6,70.5-84.8"/>
		<path class="st6" d="M1746.3,1145c-46.5-5.6-128.5-22.8-157.5-64.6c-8.8-12.7-11.1-27.8-13.4-42.2c-5.1-32.2-9.2-65.2-12.1-98.1
			c-2.1-23.4-3.8-48-14.2-69.7c-14.8-31.1-44.6-49.8-70.3-56.4c-9.1-2.3-17.8-3.7-26-4.5c-44.7-4.1-87.1,11-139.5,20.8
			c-20.7,3.9-42.8,7.2-66.8,7.1c-11.4,0-24.4-0.9-38.2-7.8c-52-26-70.7-81.3-89.8-125.2c-7.9-18.2-16.5-34.3-26.9-46.5
			c-28.2-33.2-70.2-56.3-118.5-67.1c-27.6-6-57.2-8.2-86.9-5.5c-57,5-112,25.6-169.4,33.6c-13.6,1.9-27.3,3-41.1,3.4
			c-36.8,1.1-74.8-2.7-111.6-9.8c-47.8-9.3-95.3-25-141.6-48.2c-56.2-28.1-107.5-66.2-152.5-106.5c-58.4-52.3-132.4-128.6-200.4-209
			C-8.9,155.3-79.6,56.1-107.8-14.7c-24.3-61.2-42.1-123.5-28.8-173.1c9.8-36.9,36.4-64,69-84.2"/>
		<path class="st6" d="M1744.5,1148.6c-47.5-5.5-129-23.3-159.1-65.4c-9.1-12.7-11.9-27.7-14.6-42.1c-6.1-32.2-11.3-65.3-14.9-98.3
			c-2.6-23.5-4.8-48.3-15.1-70.2c-14.7-31.5-43.6-51.2-68.4-59.3c-8.8-2.8-17.1-4.8-25.1-6.2c-42.9-7.3-84.7,3.7-137.1,10.6
			c-20.7,2.7-42.9,5-67,4.1c-11.5-0.4-24.6-1.7-38.4-8.6c-52.6-26.5-73.6-80.4-94.7-122.4c-8.8-17.5-18.2-32.8-29.2-44.3
			c-29.9-31.3-72.6-52.5-121.3-61.9c-27.9-5.3-57.7-6.8-87.7-3.8c-57.5,5.7-113.1,26.1-171,34.4c-13.7,2-27.5,3.1-41.5,3.7
			c-37.1,1.3-75.5-2-112.8-8.9c-48.2-8.9-96.2-24.6-143.1-48.2c-56.7-28.5-108.3-67.6-153.2-108.7c-57.6-52.7-129.6-128.3-195.7-208
			C-21.7,152.5-90.2,54.2-117.5-16.5c-23.4-60.5-40.4-122-27.3-171c9.7-36.4,35.6-63.4,67.4-83.6"/>
		<path class="st6" d="M1742.8,1152.2c-48.6-5.4-129.5-23.8-160.7-66.2c-9.3-12.7-12.7-27.6-15.9-42c-7.2-32.3-13.3-65.5-17.6-98.6
			c-3.1-23.7-5.8-48.5-16.1-70.8c-14.7-31.9-42.7-52.6-66.6-62.2c-8.4-3.4-16.5-5.9-24.1-7.9c-41.2-10.5-82.4-3.5-134.7,0.4
			c-20.6,1.5-43,2.8-67.2,1.1c-11.6-0.8-24.7-2.4-38.5-9.4c-53.3-26.9-76.5-79.4-99.6-119.7c-9.7-16.9-19.9-31.3-31.6-42.2
			c-31.6-29.4-74.9-48.7-124.2-56.8c-28.2-4.5-58.2-5.5-88.5-2.1c-57.9,6.3-114.1,26.6-172.7,35.2c-13.8,2-27.8,3.3-41.9,3.9
			c-37.4,1.6-76.1-1.2-113.9-7.9c-48.6-8.6-97.2-24.1-144.7-48.2c-57.3-28.9-109.1-68.9-153.8-110.8
			c-56.8-53.1-126.8-128.1-190.9-206.9C-34.4,149.6-100.7,52.4-127.3-18.2c-22.5-59.8-38.7-120.4-25.8-169c9.6-36,34.8-62.8,65.9-83
			"/>
		<path class="st6" d="M1741.1,1155.7c-49.6-5.2-130-24.3-162.3-66.9c-9.6-12.6-13.4-27.5-17.1-41.9c-8.3-32.3-15.3-65.6-20.4-98.8
			c-3.7-23.8-6.8-48.8-17-71.3c-14.7-32.3-41.7-54-64.8-65c-8.1-3.9-15.8-7-23.2-9.5c-39.4-13.7-80-10.7-132.4-9.8
			c-20.6,0.4-43.1,0.7-67.4-1.8c-11.7-1.2-24.9-3.1-38.7-10.1c-53.9-27.4-79.5-78.5-104.5-116.9c-10.5-16.2-21.6-29.8-34-40
			c-33.2-27.5-77.3-44.9-127.1-51.7c-28.5-3.7-58.8-4.1-89.3-0.4c-58.3,6.9-115.1,27.1-174.3,36c-13.9,2.1-28.1,3.4-42.2,4.2
			c-37.6,1.9-76.8-0.5-115.1-7c-49-8.3-98.1-23.7-146.2-48.2c-57.8-29.3-109.9-70.3-154.5-113c-56-53.5-124-127.8-186.1-205.9
			C-47.2,146.8-111.3,50.5-137-20c-21.6-59.1-37.1-118.8-24.2-166.9c9.5-35.5,34-62.1,64.4-82.5"/>
		<path class="st6" d="M1739.4,1159.3c-50.6-5.1-130.4-24.8-163.9-67.7c-9.9-12.6-14.2-27.5-18.3-41.8
			c-9.4-32.3-17.3-65.8-23.1-99.1c-4.2-24-7.8-49-18-71.8c-14.6-32.7-40.8-55.3-63-67.9c-7.8-4.4-15.2-8.1-22.2-11.2
			c-37.7-16.9-77.6-18-130-20c-20.6-0.8-43.1-1.5-67.5-4.8c-11.8-1.6-25-3.9-38.9-10.9c-54.5-27.9-82.4-77.6-109.3-114.2
			c-11.4-15.5-23.3-28.3-36.3-37.8c-34.9-25.6-79.7-41.1-130-46.5c-28.8-3-59.3-2.8-90.1,1.3c-58.7,7.6-116.2,27.6-175.9,36.8
			c-14.1,2.1-28.3,3.6-42.6,4.5c-37.9,2.2-77.4,0.2-116.3-6c-49.4-7.9-99.1-23.2-147.8-48.1c-58.4-29.7-110.7-71.6-155.2-115.1
			C135.8,384.8,69.8,311.1,9.6,233.9C-60,143.9-121.9,48.7-146.8-21.8c-20.6-58.4-35.4-117.3-22.7-164.8c9.3-35,33.3-61.5,62.9-81.9
			"/>
		<path class="st6" d="M1737.7,1162.9c-51.6-4.9-130.9-25.3-165.5-68.5c-10.1-12.6-14.9-27.4-19.5-41.7
			c-10.4-32.3-19.3-65.9-25.9-99.4c-4.8-24.1-8.8-49.3-18.9-72.3c-14.6-33.1-39.8-56.7-61.1-70.8c-7.5-4.9-14.6-9.2-21.2-12.9
			c-35.9-20.1-75.2-25.2-127.6-30.3c-20.6-2-43.2-3.7-67.7-7.7c-11.9-2-25.2-4.6-39.1-11.7c-55.2-28.3-85.4-76.7-114.2-111.4
			c-12.3-14.8-25-26.8-38.7-35.7c-36.5-23.7-82.1-37.4-132.8-41.4c-29.1-2.2-59.9-1.4-90.9,2.9c-59.2,8.2-117.2,28.1-177.5,37.5
			c-14.2,2.2-28.6,3.7-43,4.7c-38.2,2.5-78.1,0.9-117.4-5.1c-49.8-7.6-100-22.8-149.3-48.1c-58.9-30.1-111.5-73-155.8-117.3
			C116.8,379.6,52.8,306.6-5.4,230.2C-72.8,141.1-132.5,46.8-156.5-23.5c-19.7-57.8-33.7-115.7-21.2-162.8
			c9.2-34.6,32.5-60.9,61.4-81.3"/>
		<path class="st6" d="M1736,1166.5c-52.7-4.8-131.3-25.8-167.2-69.2c-10.4-12.6-15.7-27.3-20.8-41.6
			c-11.5-32.4-21.3-66.1-28.6-99.6c-5.3-24.2-9.7-49.5-19.9-72.8c-14.5-33.5-38.9-58.1-59.3-73.7c-7.1-5.5-13.9-10.2-20.3-14.6
			c-34.2-23.2-72.8-32.5-125.3-40.5c-20.6-3.1-43.3-5.8-67.9-10.7c-12-2.4-25.3-5.3-39.3-12.5c-55.8-28.8-88.4-75.8-119.1-108.7
			c-13.2-14.1-26.7-25.3-41-33.5c-38.2-21.9-84.4-33.7-135.7-36.2c-29.4-1.5-60.4-0.1-91.7,4.6c-59.6,8.9-118.3,28.7-179.2,38.3
			c-14.3,2.3-28.8,3.9-43.4,5c-38.5,2.8-78.7,1.6-118.6-4.2c-50.2-7.3-101-22.4-150.9-48.1c-59.5-30.5-112.3-74.3-156.5-119.4
			c-53.6-54.7-115.7-127-171.7-202.7C-85.7,138.3-143.1,44.9-166.3-25.3c-18.8-57.1-32.1-114.1-19.6-160.7
			c9.1-34.1,31.7-60.3,59.9-80.7"/>
		<path class="st6" d="M1734.3,1170.1c-53.7-4.6-131.8-26.3-168.8-70c-10.7-12.6-16.4-27.2-22-41.5c-12.6-32.4-23.3-66.2-31.4-99.9
			c-5.8-24.4-10.7-49.8-20.8-73.4c-14.5-33.9-37.9-59.4-57.5-76.6c-6.8-6-13.3-11.3-19.3-16.3c-32.4-26.4-70.5-39.7-122.9-50.7
			c-20.6-4.3-43.4-8-68-13.6c-12.1-2.8-25.5-6.1-39.5-13.3c-56.5-29.2-91.4-74.8-124-105.9c-14.1-13.4-28.3-23.8-43.4-31.4
			c-39.8-20-86.8-29.9-138.6-31.1c-29.7-0.7-61,1.2-92.5,6.3c-60,9.5-119.3,29.2-180.8,39.1c-14.5,2.3-29.1,4.1-43.8,5.3
			c-38.7,3.1-79.4,2.3-119.8-3.2c-50.6-7-101.9-21.9-152.4-48c-60-30.9-113.1-75.6-157.1-121.6c-52.8-55.1-112.9-126.7-167-201.6
			C-98.5,135.5-153.7,43.1-176-27.1c-17.9-56.4-30.4-112.6-18.1-158.6c9-33.6,30.9-59.7,58.4-80.1"/>
		<path class="st6" d="M1732.6,1173.7c-54.7-4.5-132.2-26.9-170.4-70.8c-10.9-12.6-17.2-27.2-23.2-41.4
			c-13.7-32.4-25.3-66.4-34.1-100.1c-6.4-24.5-11.7-50-21.8-73.9c-14.5-34.3-37-60.8-55.7-79.4c-6.5-6.5-12.6-12.4-18.4-18
			c-30.7-29.6-68.1-46.9-120.5-60.9c-20.6-5.5-43.5-10.2-68.2-16.6c-12.2-3.2-25.6-6.8-39.7-14.1c-57.1-29.7-94.5-73.9-128.9-103.2
			c-15-12.8-30-22.3-45.8-29.2c-41.4-18.2-89.2-26-141.4-25.9c-30,0.1-61.5,2.6-93.4,8c-60.5,10.1-120.3,29.7-182.4,39.9
			c-14.6,2.4-29.4,4.2-44.2,5.5c-39,3.4-80,3.1-120.9-2.3c-51-6.7-102.9-21.5-154-48c-60.6-31.3-113.9-77-157.8-123.7
			C59.8,364.2,1.7,293.2-50.4,219.1c-60.9-86.5-113.9-177.9-135.4-248c-17-55.6-28.7-111-16.6-156.5c8.8-33.1,30.1-59.1,56.9-79.5"
			/>
		<path class="st6" d="M1730.9,1177.3c-55.7-4.4-132.7-27.4-172-71.6c-11.2-12.6-17.9-27.1-24.4-41.3
			c-14.8-32.4-27.4-66.5-36.9-100.4c-6.9-24.7-12.7-50.3-22.7-74.4c-14.4-34.6-36-62.1-53.8-82.3c-6.2-7-12-13.5-17.4-19.6
			c-28.9-32.7-65.7-54.2-118.2-71.1c-20.6-6.6-43.6-12.4-68.4-19.5c-12.3-3.6-25.8-7.5-39.9-14.8c-57.7-30.1-97.5-72.9-133.7-100.4
			c-15.9-12.1-31.7-20.8-48.1-27.1c-43-16.3-91.6-22.2-144.3-20.8c-30.3,0.9-62.1,3.9-94.2,9.7c-60.9,10.8-121.4,30.2-184.1,40.7
			c-14.7,2.5-29.6,4.4-44.6,5.8c-39.3,3.7-80.7,3.8-122.1-1.3c-51.5-6.4-103.8-21-155.6-48C189.4,509.1,135.8,462.5,92,414.9
			C40.8,359.1-15.2,288.7-65.4,215.4c-58.7-85.7-109.5-176-130.1-246c-16.2-54.9-27.1-109.4-15-154.5c8.7-32.7,29.3-58.5,55.4-78.9"
			/>
		<path class="st6" d="M1729.1,1180.9c-56.8-4.2-133.1-27.9-173.6-72.3c-11.4-12.5-18.7-27-25.7-41.2
			c-15.9-32.4-29.4-66.7-39.6-100.7c-7.5-24.8-13.7-50.6-23.7-74.9c-14.4-35-35.1-63.5-52-85.2c-5.9-7.5-11.4-14.6-16.5-21.3
			c-27.2-35.9-63.3-61.4-115.8-81.3c-20.6-7.8-43.7-14.6-68.6-22.5c-12.4-4-25.9-8.3-40.1-15.6c-58.4-30.6-100.6-72-138.6-97.7
			c-16.8-11.3-33.4-19.3-50.5-24.9c-44.7-14.5-94-18.4-147.2-15.7c-30.6,1.7-62.6,5.3-95,11.4c-61.3,11.4-122.4,30.7-185.7,41.5
			c-14.9,2.5-29.9,4.5-45,6.1c-39.5,3.9-81.3,4.5-123.3-0.4c-51.9-6-104.8-20.6-157.1-48c-61.6-32.1-115.5-79.6-159.1-128.1
			C21.7,354-32.2,284.1-80.4,211.8c-56.4-84.8-105.2-174.2-124.9-244.1c-15.3-54.2-25.4-107.9-13.5-152.4
			c8.6-32.2,28.5-57.8,53.9-78.4"/>
		<path class="st6" d="M1727.4,1184.5c-57.8-4.1-133.5-28.5-175.2-73.1c-11.7-12.5-19.5-26.9-26.9-41.1
			c-17-32.5-31.4-66.8-42.4-100.9c-8-24.9-14.6-50.8-24.6-75.4c-14.3-35.4-34.2-64.8-50.2-88.1c-5.5-8.1-10.7-15.7-15.5-23
			c-25.4-39.1-60.9-68.6-113.4-91.5c-20.6-9-43.7-16.8-68.7-25.5c-12.5-4.4-26.1-9-40.3-16.4c-59-31-103.6-71-143.5-94.9
			c-17.7-10.6-35.1-17.9-52.8-22.7c-46.3-12.7-96.3-14.6-150.1-10.5c-30.9,2.4-63.2,6.6-95.8,13.1c-61.8,12.1-123.4,31.2-187.3,42.3
			c-15,2.6-30.1,4.7-45.4,6.3c-39.8,4.2-82,5.2-124.4,0.5c-52.3-5.7-105.7-20.1-158.7-47.9C150,503.1,95.8,454.7,52.4,405.4
			C2.7,348.9-49.2,279.6-95.4,208.1c-54.2-84-100.8-172.3-119.6-242.2c-14.4-53.5-23.7-106.3-12-150.3c8.5-31.7,27.7-57.2,52.4-77.8
			"/>
		<path class="st6" d="M1725.7,1188.1c-58.8-3.9-134-29-176.9-73.9c-12-12.5-20.2-26.8-28.1-41.1c-18.1-32.5-33.4-67-45.1-101.2
			c-8.6-25.1-15.6-51.1-25.6-76c-14.3-35.8-33.2-66.2-48.4-91c-5.2-8.6-10.1-16.8-14.5-24.7c-23.7-42.2-58.6-75.9-111.1-101.7
			c-20.5-10.1-43.8-19-68.9-28.4c-12.6-4.8-26.3-9.7-40.5-17.2c-59.7-31.5-106.7-70-148.4-92.2c-18.6-9.9-36.8-16.4-55.2-20.6
			c-47.9-10.9-98.7-10.8-152.9-5.4c-31.2,3.2-63.7,8-96.6,14.8c-62.2,12.7-124.5,31.7-189,43.1c-15.1,2.7-30.4,4.8-45.8,6.6
			c-40.1,4.5-82.6,5.9-125.6,1.5c-52.7-5.4-106.6-19.7-160.2-47.9c-62.7-33-117.2-82.2-160.4-132.4c-49-56.8-98.8-125.5-143-196.3
			c-52-83.1-96.4-170.5-114.4-240.2c-13.6-52.8-22.1-104.8-10.4-148.3c8.3-31.3,27-56.6,50.9-77.2"/>
		<path class="st6" d="M1724,1191.7c-59.9-3.8-134.4-29.5-178.5-74.7c-12.2-12.5-21-26.8-29.3-41c-19.1-32.5-35.4-67.1-47.9-101.4
			c-9.1-25.2-16.6-51.3-26.5-76.5c-14.3-36.2-32.3-67.5-46.5-93.9c-4.9-9.1-9.4-17.8-13.6-26.4c-22-45.4-56.2-83.1-108.7-112
			c-20.5-11.3-43.9-21.1-69.1-31.4c-12.7-5.2-26.4-10.5-40.7-18c-60.3-31.9-109.7-68.9-153.2-89.4c-19.5-9.2-38.5-14.9-57.5-18.4
			c-49.6-9.1-101.1-7-155.8-0.2c-31.5,4-64.2,9.3-97.4,16.5c-62.6,13.3-125.5,32.3-190.6,43.9c-15.3,2.7-30.7,5-46.1,6.9
			c-40.4,4.8-83.3,6.6-126.8,2.4c-53.1-5.1-107.6-19.2-161.8-47.9C110.7,497,55.9,446.9,12.9,395.9c-48.2-57.2-96-125.3-138.3-195.2
			c-49.8-82.3-92.1-168.6-109.1-238.3c-12.7-52.1-20.4-103.2-8.9-146.2c8.2-30.8,26.2-56,49.3-76.6"/>
		<path class="st6" d="M1722.3,1195.2c-60.9-3.6-134.8-30.1-180.1-75.4c-12.5-12.5-21.7-26.7-30.6-40.9
			c-20.2-32.5-37.5-67.3-50.6-101.7c-9.7-25.4-17.6-51.6-27.5-77c-14.2-36.6-31.4-68.9-44.7-96.7c-4.6-9.6-8.8-18.9-12.6-28
			c-20.2-48.5-53.9-90.2-106.3-122.2c-20.6-12.4-44-23.3-69.2-34.3c-12.8-5.6-26.6-11.2-40.9-18.8c-60.9-32.4-112.8-67.9-158.1-86.7
			c-20.5-8.5-40.1-13.5-59.9-16.3c-51.2-7.3-103.5-3.2-158.7,4.9c-31.8,4.8-64.8,10.7-98.2,18.2c-63.1,14-126.6,32.8-192.2,44.7
			c-15.4,2.8-30.9,5.2-46.5,7.1c-40.6,5.1-83.9,7.3-127.9,3.4c-53.5-4.8-108.5-18.8-163.3-47.8C91,494,35.9,443-6.9,391.1
			c-47.5-57.5-93.2-125.1-133.5-194.1c-47.5-81.5-87.7-166.7-103.8-236.4c-11.9-51.4-18.7-101.6-7.4-144.1
			c8.1-30.3,25.4-55.4,47.8-76"/>
		<path class="st6" d="M1720.6,1198.8c-61.9-3.5-135.3-30.6-181.7-76.2c-12.7-12.5-22.5-26.6-31.8-40.8
			c-21.3-32.5-39.5-67.4-53.4-101.9c-10.2-25.5-18.6-51.8-28.4-77.5c-14.2-37-30.4-70.2-42.9-99.6c-4.3-10.1-8.2-20-11.7-29.7
			c-18.5-51.7-51.5-97.5-104-132.4c-20.5-13.6-44-25.5-69.4-37.3c-12.9-6-26.7-11.9-41.1-19.5c-61.6-32.8-115.8-66.9-163-83.9
			c-21.4-7.7-41.8-12-62.3-14.1c-52.8-5.5-105.8,0.6-161.5,10.1c-32.1,5.5-65.3,12-99,19.9c-63.5,14.6-127.6,33.3-193.9,45.5
			c-15.5,2.9-31.2,5.3-46.9,7.4c-40.9,5.4-84.6,8-129.1,4.3c-53.9-4.5-109.5-18.4-164.9-47.8C71.4,491,15.9,439.1-26.7,386.4
			c-46.8-57.8-90.4-124.8-128.7-193.1c-45.3-80.6-83.4-164.9-98.6-234.5c-11-50.6-17.1-100.1-5.8-142.1c8-29.9,24.6-54.8,46.3-75.4"
			/>
		<path class="st6" d="M1718.9,1202.4c-62.9-3.4-135.7-31.2-183.3-77c-13-12.5-23.3-26.5-33-40.7c-22.4-32.5-41.5-67.5-56.1-102.2
			c-10.8-25.6-19.5-52.1-29.4-78c-14.1-37.4-29.5-71.6-41.1-102.5c-4-10.7-7.6-21.1-10.7-31.4c-16.9-54.8-49.1-104.7-101.6-142.6
			c-20.5-14.7-44.1-27.7-69.6-40.2c-13-6.4-26.9-12.7-41.3-20.3c-62.2-33.3-118.8-65.8-167.9-81.1c-22.3-7-43.5-10.5-64.6-11.9
			c-54.5-3.7-108.2,4.4-164.4,15.2c-32.4,6.3-65.9,13.4-99.8,21.6c-63.9,15.3-128.6,33.8-195.5,46.3c-15.7,2.9-31.4,5.5-47.3,7.7
			c-41.2,5.7-85.2,8.7-130.3,5.2c-54.3-4.2-110.4-17.9-166.4-47.8C51.7,488-4.1,435.2-46.5,381.6c-46-58.2-87.5-124.6-123.9-192
			c-43-79.8-79.1-163-93.3-232.5c-10.2-49.9-15.4-98.5-4.3-140c7.8-29.4,23.8-54.1,44.8-74.8"/>
		<path class="st6" d="M1717.2,1206c-64-3.2-136.1-31.7-185-77.7c-13.3-12.5-24-26.4-34.2-40.6c-23.5-32.5-43.5-67.7-58.9-102.5
			c-11.3-25.8-20.5-52.3-30.3-78.6c-14.1-37.8-28.6-72.9-39.2-105.4c-3.7-11.2-6.9-22.2-9.7-33.1c-15.2-58-46.8-111.9-99.2-152.8
			c-20.5-15.9-44.2-30-69.7-43.2c-13.1-6.8-27-13.4-41.5-21.1c-62.9-33.7-121.9-64.7-172.8-78.4c-23.2-6.2-45.2-9.1-67-9.8
			c-56.1-1.9-110.6,8.2-167.3,20.4c-32.7,7.1-66.4,14.7-100.7,23.3c-64.4,15.9-129.7,34.3-197.1,47.1c-15.8,3-31.7,5.6-47.7,8
			c-41.4,6-85.9,9.4-131.4,6.2c-54.7-3.9-111.4-17.5-168-47.8C32,485-24.1,431.3-66.3,376.9c-45.3-58.5-84.7-124.4-119.1-191
			c-40.8-79-74.8-161.1-88.1-230.6c-9.4-49.2-13.7-96.9-2.8-137.9c7.7-28.9,23-53.5,43.3-74.3"/>
		<path class="st6" d="M1715.5,1209.6c-65-3.1-136.5-32.3-186.6-78.5c-13.5-12.5-24.8-26.4-35.5-40.5
			c-24.6-32.6-45.6-67.8-61.6-102.7c-11.9-25.9-21.5-52.6-31.3-79.1c-14-38.2-27.7-74.3-37.4-108.3c-3.3-11.7-6.3-23.3-8.8-34.8
			c-13.4-61.2-44.4-119.2-96.9-163c-20.5-17.1-44.3-32.2-69.9-46.1c-13.2-7.2-27.2-14.1-41.7-21.9c-63.5-34.2-124.9-63.7-177.6-75.6
			c-24.1-5.5-46.9-7.6-69.3-7.6c-57.8-0.1-113,12-170.2,25.5c-33,7.9-67,16.1-101.5,24.9c-64.8,16.5-130.7,34.8-198.7,47.9
			c-15.9,3-32,5.8-48.1,8.2c-41.7,6.3-86.5,10.1-132.6,7.1c-55.1-3.6-112.3-17-169.5-47.7C12.3,482-44.1,427.4-86.1,372.1
			c-44.6-58.8-81.9-124.1-114.3-189.9c-38.6-78.2-70.5-159.3-82.8-228.7c-8.6-48.5-12.1-95.4-1.2-135.9
			c7.6-28.4,22.2-52.9,41.8-73.7"/>
		<path class="st6" d="M1713.8,1213.2c-66-2.9-136.9-32.9-188.2-79.3c-13.8-12.5-25.5-26.3-36.7-40.4c-25.7-32.6-47.6-68-64.4-103
			c-12.5-26-22.5-52.8-32.2-79.6c-14-38.6-26.8-75.7-35.6-111.2c-3-12.2-5.6-24.3-7.8-36.5c-11.7-64.4-42-126.4-94.5-173.2
			c-20.5-18.2-44.3-34.4-70.1-49.1c-13.3-7.6-27.3-14.9-41.9-22.7c-64.1-34.6-127.9-62.6-182.5-72.9c-25-4.7-48.6-6.1-71.7-5.5
			c-59.4,1.7-115.4,15.8-173,30.6c-33.3,8.6-67.5,17.4-102.3,26.6c-65.2,17.2-131.8,35.4-200.4,48.7c-16.1,3.1-32.2,5.9-48.5,8.5
			c-42,6.5-87.2,10.7-133.8,8.1c-55.5-3.4-113.3-16.6-171.1-47.7C-7.3,479-64.1,423.5-105.9,367.3
			c-43.9-59.1-78.9-123.9-109.5-188.8c-36.2-77.4-66.3-157.4-77.6-226.7c-7.8-47.8-10.4-93.8,0.3-133.8c7.5-28,21.4-52.3,40.3-73.1"
			/>
		<path class="st6" d="M1712,1216.8c-67-2.8-137.3-33.4-189.8-80.1c-14-12.5-26.3-26.2-37.9-40.3c-26.9-32.5-49.7-68.1-67.1-103.2
			c-13.1-26.1-23.5-53.1-33.2-80.1c-14-39-25.9-77-33.7-114c-2.7-12.7-5-25.4-6.9-38.1c-9.9-67.6-39.7-133.6-92.1-183.4
			c-20.5-19.4-44.4-36.6-70.3-52.1c-13.4-8-27.5-15.6-42.1-23.5c-64.8-35.1-130.9-61.5-187.4-70.1c-25.9-4-50.3-4.7-74.1-3.3
			c-61.1,3.5-117.7,19.6-175.9,35.8c-33.6,9.4-68.1,18.8-103.1,28.3c-65.7,17.8-132.8,35.9-202,49.5c-16.2,3.2-32.5,6.1-48.9,8.8
			c-42.3,6.8-87.8,11.5-134.9,9c-55.9-3.1-114.2-16.1-172.7-47.7C-27,476-84.1,419.7-125.6,362.6c-43.2-59.4-76.1-123.7-104.8-187.8
			c-33.9-76.6-62-155.5-72.3-224.8c-7-47-8.7-92.2,1.8-131.7c7.3-27.5,20.7-51.7,38.8-72.5"/>
		<path class="st6" d="M1710.3,1220.4c-68.1-2.7-137.8-34-191.4-80.8c-14.3-12.5-27.1-26.1-39.1-40.2
			c-27.9-32.5-51.7-68.2-69.9-103.5c-13.6-26.3-24.5-53.4-34.1-80.6c-13.9-39.4-25-78.4-31.9-116.9c-2.4-13.3-4.4-26.5-5.9-39.8
			c-8.2-70.7-37.3-140.9-89.8-193.6c-20.5-20.6-44.4-38.8-70.4-55c-13.5-8.4-27.6-16.3-42.2-24.2c-65.4-35.5-133.9-60.4-192.3-67.4
			c-26.8-3.2-52-3.2-76.4-1.2c-62.7,5.3-120.1,23.4-178.8,40.9c-33.9,10.2-68.6,20.1-103.9,30c-66.1,18.4-133.8,36.4-203.6,50.3
			c-16.3,3.2-32.7,6.2-49.3,9c-42.5,7.1-88.5,12.2-136.1,9.9C138.8,554.4,80,541.5,21,509.5c-67.6-36.6-125.1-93.7-166.4-151.7
			c-42.5-59.7-73.3-123.5-100-186.7c-31.7-75.7-57.8-153.6-67.1-222.9c-6.2-46.3-7.1-90.7,3.4-129.7c7.2-27,19.9-51.1,37.3-71.9"/>
		<path class="st6" d="M1708.6,1224c-69.1-2.5-138.1-34.7-193-81.6c-14.5-12.5-27.8-26-40.4-40.1c-29-32.6-53.7-68.4-72.6-103.8
			c-14.1-26.4-25.4-53.6-35.1-81.2c-13.9-39.8-24-79.7-30.1-119.8c-2.1-13.8-3.7-27.6-4.9-41.5c-6.5-73.9-34.9-148.1-87.4-203.9
			c-20.5-21.7-44.5-41-70.6-58c-13.6-8.8-27.8-17-42.4-25c-66.1-36-136.9-59.3-197.2-64.6c-27.7-2.4-53.7-1.8-78.8,1
			c-64.4,7-122.5,27.2-181.6,46.1c-34.2,10.9-69.2,21.5-104.7,31.7c-66.5,19.1-134.9,36.9-205.3,51.1c-16.4,3.3-33,6.4-49.7,9.3
			c-42.8,7.4-89.1,12.9-137.3,10.9c-56.7-2.4-116.1-15.2-175.8-47.6c-68.2-37-126-95-167-153.9c-41.8-60-70.5-123.2-95.2-185.6
			c-29.5-74.9-53.6-151.8-61.8-221c-5.4-45.6-5.4-89.1,4.9-127.6c7.1-26.6,19.1-50.4,35.8-71.3"/>
		<path class="st6" d="M1706.9,1227.6c-70.1-2.4-138.5-35.2-194.7-82.4c-14.8-12.5-28.6-25.9-41.6-40c-30.1-32.6-55.7-68.5-75.3-104
			c-14.7-26.6-26.4-53.9-36-81.7c-13.8-40.1-23.1-81.1-28.3-122.7c-1.8-14.3-3.1-28.7-4-43.2c-4.7-77.1-32.5-155.4-85-214.1
			c-20.5-22.9-44.5-43.2-70.8-60.9c-13.6-9.3-27.9-17.8-42.6-25.8c-66.7-36.4-139.9-58.1-202-61.9c-28.5-1.6-55.4-0.3-81.1,3.2
			c-66.1,8.8-124.9,31-184.5,51.2c-34.5,11.7-69.7,22.8-105.5,33.4c-67,19.7-135.9,37.4-206.9,51.9c-16.6,3.4-33.3,6.6-50.1,9.6
			c-43.1,7.7-89.8,13.6-138.4,11.8c-57.1-2.1-117.1-14.8-177.3-47.6c-68.7-37.4-127-96.2-167.7-156c-41.3-60.3-67.7-123-90.4-184.6
			c-27.2-74-49.4-149.9-56.5-219c-4.7-44.9-3.7-87.6,6.4-125.5c7-26.1,18.3-49.8,34.3-70.7"/>
		<path class="st6" d="M1705.2,1231.1c-133.1-4.2-254.7-117.8-317.2-227.3c-44.8-78.4-63.1-163.2-66.4-252.7
			c-3-80.3-30.2-162.6-82.7-224.3c-80-94-215.8-146.3-320.7-149.6C813.3,374,730.9,409,647.3,438.9c-115,41.3-237.1,73.9-365.3,97.6
			C188,553.9,76.5,563.3-36.4,501.7c-69.3-37.8-127.9-97.5-168.4-158.2s-64.9-122.7-85.6-183.5c-52-152-83-311.2-10.6-410.7"/>
	</g>
</g>
</svg>
