<?xml version="1.0" encoding="utf-8"?>
<!-- Generator: Adobe Illustrator 21.1.0, SVG Export Plug-In . SVG Version: 6.00 Build 0)  -->
<svg version="1.1" id="Layer_1" xmlns="http://www.w3.org/2000/svg" xmlns:xlink="http://www.w3.org/1999/xlink" x="0px" y="0px"
	 viewBox="0 0 1600 572.8" style="enable-background:new 0 0 1600 572.8;" xml:space="preserve">
<style type="text/css">
	.st0{fill:#1A1A1A;}
	.st1{clip-path:url(#SVGID_2_);}
	.st2{fill:none;stroke:#000000;stroke-width:1.25;stroke-miterlimit:10;}
	.st3{fill:none;stroke:#000000;stroke-miterlimit:10;}
	.st4{clip-path:url(#SVGID_4_);}
	.st5{clip-path:url(#SVGID_6_);}
	.st6{fill:none;stroke:#000000;stroke-width:3;stroke-miterlimit:10;}
	.st7{clip-path:url(#SVGID_8_);}
	.st8{clip-path:url(#SVGID_10_);}
	.st9{clip-path:url(#SVGID_12_);}
	.st10{clip-path:url(#SVGID_14_);}
	.st11{clip-path:url(#SVGID_16_);}
	.st12{fill:none;stroke:#000000;stroke-width:1.2511;stroke-miterlimit:10;}
	.st13{fill:none;stroke:#000000;stroke-width:1.2523;stroke-miterlimit:10;}
	.st14{fill:none;stroke:#000000;stroke-width:1.2534;stroke-miterlimit:10;}
	.st15{fill:none;stroke:#000000;stroke-width:1.2546;stroke-miterlimit:10;}
	.st16{fill:none;stroke:#000000;stroke-width:1.2557;stroke-miterlimit:10;}
	.st17{fill:none;stroke:#000000;stroke-width:1.2569;stroke-miterlimit:10;}
	.st18{fill:none;stroke:#000000;stroke-width:1.258;stroke-miterlimit:10;}
	.st19{fill:none;stroke:#000000;stroke-width:1.2591;stroke-miterlimit:10;}
	.st20{fill:none;stroke:#000000;stroke-width:1.2603;stroke-miterlimit:10;}
	.st21{fill:none;stroke:#000000;stroke-width:1.2614;stroke-miterlimit:10;}
	.st22{fill:none;stroke:#000000;stroke-width:1.2626;stroke-miterlimit:10;}
	.st23{fill:none;stroke:#000000;stroke-width:1.2637;stroke-miterlimit:10;}
	.st24{fill:none;stroke:#000000;stroke-width:1.2649;stroke-miterlimit:10;}
	.st25{fill:none;stroke:#000000;stroke-width:1.266;stroke-miterlimit:10;}
	.st26{fill:none;stroke:#000000;stroke-width:1.2671;stroke-miterlimit:10;}
	.st27{fill:none;stroke:#000000;stroke-width:1.2683;stroke-miterlimit:10;}
	.st28{fill:none;stroke:#000000;stroke-width:1.2694;stroke-miterlimit:10;}
	.st29{fill:none;stroke:#000000;stroke-width:1.2706;stroke-miterlimit:10;}
	.st30{fill:none;stroke:#000000;stroke-width:1.2717;stroke-miterlimit:10;}
	.st31{fill:none;stroke:#000000;stroke-width:1.2729;stroke-miterlimit:10;}
	.st32{fill:none;stroke:#000000;stroke-width:1.274;stroke-miterlimit:10;}
	.st33{fill:none;stroke:#000000;stroke-width:1.2751;stroke-miterlimit:10;}
	.st34{fill:none;stroke:#000000;stroke-width:1.2763;stroke-miterlimit:10;}
	.st35{fill:none;stroke:#000000;stroke-width:1.2774;stroke-miterlimit:10;}
	.st36{fill:none;stroke:#000000;stroke-width:1.2786;stroke-miterlimit:10;}
	.st37{fill:none;stroke:#000000;stroke-width:1.2797;stroke-miterlimit:10;}
	.st38{fill:none;stroke:#000000;stroke-width:1.2809;stroke-miterlimit:10;}
	.st39{fill:none;stroke:#000000;stroke-width:1.282;stroke-miterlimit:10;}
	.st40{fill:none;stroke:#000000;stroke-width:1.2831;stroke-miterlimit:10;}
	.st41{fill:none;stroke:#000000;stroke-width:1.2843;stroke-miterlimit:10;}
	.st42{fill:none;stroke:#000000;stroke-width:1.2854;stroke-miterlimit:10;}
	.st43{fill:none;stroke:#000000;stroke-width:1.2866;stroke-miterlimit:10;}
	.st44{fill:none;stroke:#000000;stroke-width:1.2877;stroke-miterlimit:10;}
	.st45{fill:none;stroke:#000000;stroke-width:1.2889;stroke-miterlimit:10;}
	.st46{fill:none;stroke:#000000;stroke-width:1.29;stroke-miterlimit:10;}
	.st47{fill:none;stroke:#000000;stroke-width:1.2911;stroke-miterlimit:10;}
	.st48{fill:none;stroke:#000000;stroke-width:1.2923;stroke-miterlimit:10;}
	.st49{fill:none;stroke:#000000;stroke-width:1.2934;stroke-miterlimit:10;}
	.st50{fill:none;stroke:#000000;stroke-width:1.2946;stroke-miterlimit:10;}
	.st51{fill:none;stroke:#000000;stroke-width:1.2957;stroke-miterlimit:10;}
	.st52{fill:none;stroke:#000000;stroke-width:1.2968;stroke-miterlimit:10;}
	.st53{fill:none;stroke:#000000;stroke-width:1.298;stroke-miterlimit:10;}
	.st54{clip-path:url(#SVGID_16_);fill:none;stroke:#000000;stroke-width:1.298;stroke-miterlimit:10;}
	.st55{clip-path:url(#SVGID_18_);}
	.st56{clip-path:url(#SVGID_18_);fill:none;stroke:#000000;stroke-width:2.6222;stroke-miterlimit:10;}
	.st57{clip-path:url(#SVGID_20_);}
	.st58{clip-path:url(#SVGID_22_);}
	.st59{clip-path:url(#SVGID_24_);}
</style>
<g>
	<defs>
		<rect id="SVGID_17_" x="0" y="0" width="1600" height="572.8"/>
	</defs>
	<clipPath id="SVGID_2_">
		<use xlink:href="#SVGID_17_"  style="overflow:visible;"/>
	</clipPath>
	<g class="st1">
		<path class="st6" d="M298.6,577.9c60.8,8.1,125.4-9.1,184.7-22.8c49.8-11.5,98.2-29.3,143.4-53.3C683.1,472,728.4,418.9,788,395.7
			c37.2-14.5,76.9-12,113.8,2.4c84,32.9,148.2,106,216.4,162.3c46.8,38.7,101.2,79.6,163.8,85.3c134.2,12.4,229.6-96.7,266.9-234.1
			c57.3-211.2,65-554.1,216-645.5c146.9-88.9,250.4-113.8,485.8,126.5"/>
		<path class="st6" d="M298.3,578.7c59.3,7.9,123.9-8.3,183.7-21.4c49.5-10.9,97.7-28.3,142.8-51.6c56.4-29.1,101.9-80.8,161-103.8
			c37-14.4,76.3-12.4,112.7,1.1c42.3,15.6,79.5,41.3,114.7,70c34,27.6,66.1,57.8,99.3,84.1c46.4,36.8,100.2,75.8,162.2,80.6
			c9.5,0.8,18.9,0.9,28,0.5c74.9-3.4,136.5-45.5,180.7-107.4c25.7-35.7,45.4-77.7,58.4-122.7c19.4-66.3,33.4-145.7,48.9-226.3
			c32.2-166.3,70.9-337.9,173.1-398c25.7-15.3,50.2-28.6,74.2-39c62-26.7,121.5-33.3,194.5-1.2c60.1,26.3,128.9,78.7,214.8,166.9"/>
		<path class="st6" d="M298,579.5c57.8,7.7,122.4-7.4,182.6-20.1c49.3-10.3,97.2-27.3,142.2-49.9c56.4-28.2,102.1-78.8,160.8-101.4
			c36.8-14.2,75.7-12.8,111.7-0.3c41.8,14.5,78.5,38.8,113.3,66c33.5,26.2,65.4,54.9,98.3,79.8c46,34.9,99.2,71.9,160.6,75.9
			c9.4,0.6,18.7,0.6,27.8,0.1c74.2-4.2,135.4-46.1,180-106.4c26-35.1,46-75.6,59.5-118.9c20-63.8,34.6-139.6,50.8-217.2
			c33.7-160,74.8-327,177.2-386.1c25.7-14.8,50-27.9,74-38c61.8-26.1,121.2-32.5,193.6-0.8c60.4,26.1,128.9,78.3,213.7,165.8"/>
		<path class="st6" d="M297.7,580.3c56.3,7.5,120.9-6.6,181.6-18.7c49-9.8,96.7-26.2,141.6-48.2c56.4-27.4,102.3-76.7,160.5-99.1
			c36.6-14.1,75.1-13.2,110.7-1.7c41.4,13.4,77.6,36.2,112,62c33.1,24.8,64.7,52,97.2,75.5c45.5,33,98.2,68.1,159,71.2
			c9.3,0.5,18.5,0.4,27.5-0.2c73.4-4.9,134.4-46.5,179.4-105.4c26.3-34.4,46.6-73.5,60.6-115.1c20.6-61.2,35.8-133.5,52.7-208.1
			c35.2-153.7,78.5-316.3,181.2-374.1c25.6-14.4,49.9-27.3,73.8-37.1c61.6-25.4,120.7-31.4,192.6-0.4
			c60.6,26.1,128.9,77.8,212.6,164.7"/>
		<path class="st6" d="M297.4,581.2c54.8,7.3,119.4-5.8,180.6-17.4c48.7-9.2,96.2-25.3,141-46.5c56.3-26.7,102.5-74.6,160.2-96.7
			c36.4-14,74.5-13.7,109.7-3c40.9,12.3,76.6,33.7,110.6,58c32.7,23.5,64,49.1,96.2,71.3c45.1,31.1,97.3,64.3,157.5,66.5
			c9.3,0.3,18.3,0.1,27.3-0.6c72.7-5.6,133.4-47,178.8-104.4c26.6-33.6,47.3-71.4,61.7-111.3c21.2-58.7,37.1-127.3,54.6-198.9
			c36.7-147.3,82.2-305.6,185.3-362.2c25.6-14,49.7-26.6,73.6-36.2c61.3-24.8,120.3-30.5,191.7,0c60.9,25.9,129,77.4,211.5,163.6"/>
		<path class="st6" d="M297,582c53.3,7.2,117.9-5,179.6-16c48.4-8.7,95.7-24.3,140.4-44.8c56.3-25.9,102.7-72.5,159.9-94.4
			c36.2-13.8,73.9-14.1,108.7-4.4c40.4,11.2,75.7,31.1,109.2,54c32.3,22.1,63.3,46.2,95.2,67c44.7,29.2,96.3,60.5,155.9,61.8
			c9.2,0.2,18.2-0.1,27-0.9c71.9-6.5,132.4-47.4,178.2-103.4c27-32.9,47.9-69.3,62.8-107.5c21.8-56.1,38.1-121.2,56.5-189.8
			c37.9-141.1,86-294.9,189.4-350.2c25.5-13.6,49.6-25.9,73.4-35.3c61.1-24.1,119.9-29.6,190.8,0.4c61.1,25.8,129,77,210.4,162.5"/>
		<path class="st6" d="M296.7,582.8c51.9,7,116.4-4.2,178.5-14.7c48.1-8.1,95.2-23.3,139.8-43.2c56.2-25.1,102.9-70.4,159.7-92
			c36-13.7,73.3-14.5,107.7-5.8c40,10.1,74.7,28.5,107.8,50c31.9,20.7,62.6,43.2,94.2,62.7c44.2,27.3,95.3,56.7,154.3,57.1
			c9.1,0.1,18-0.4,26.7-1.3c71.1-7.3,131.4-47.9,177.6-102.4c27.3-32.2,48.6-67.2,63.9-103.7c22.5-53.6,39.3-115.1,58.4-180.6
			c39.4-134.7,89.7-284.2,193.5-338.3c25.4-13.3,49.4-25.3,73.2-34.3c60.9-23.5,119.4-28.7,189.8,0.8
			c61.4,25.7,129,76.6,209.3,161.4"/>
		<path class="st6" d="M296.4,583.6c50.4,6.8,114.8-3.4,177.5-13.4c47.8-7.6,94.8-22.3,139.2-41.5c56.2-24.3,103.1-68.3,159.4-89.7
			c35.8-13.5,72.7-14.9,106.6-7.2c39.5,9,73.8,26,106.5,46c31.5,19.3,61.9,40.3,93.2,58.5c43.8,25.4,94.3,52.9,152.7,52.4
			c9-0.1,17.8-0.6,26.5-1.6c70.4-8.1,130.4-48.3,176.9-101.4c27.6-31.5,49.2-65.1,65-99.9c23.1-51.1,40.5-109,60.3-171.5
			C1601,86,1653.6-59,1757.8-111.9c25.3-12.9,49.3-24.6,73-33.4c60.6-22.8,119-27.7,188.9,1.2c61.6,25.5,129,76.2,208.2,160.3"/>
		<path class="st6" d="M296.1,584.4c48.9,6.6,113.3-2.6,176.5-12c47.5-7.1,94.3-21.3,138.6-39.8c56.2-23.5,103.3-66.2,159.1-87.3
			c35.5-13.4,72.1-15.4,105.6-8.5c39,7.9,72.8,23.4,105.1,42c31.1,17.9,61.2,37.4,92.1,54.2c43.4,23.5,93.3,49.1,151.2,47.7
			c8.9-0.2,17.6-0.9,26.2-2c69.6-8.8,129.4-48.7,176.3-100.4c28-30.8,49.9-63,66-96.1c23.7-48.6,41.7-102.9,62.3-162.3
			c42.3-122.1,97.1-262.8,201.6-314.4c25.3-12.5,49.2-23.9,72.8-32.5c60.4-22.2,118.6-26.8,187.9,1.6
			c61.9,25.4,129.1,75.8,207.1,159.2"/>
		<path class="st6" d="M295.8,585.2c47.4,6.4,111.8-1.9,175.5-10.7c47.2-6.5,93.8-20.3,138-38.1c56.1-22.6,103.5-64.1,158.8-85
			c35.3-13.3,71.4-15.8,104.6-9.9c38.5,6.8,71.9,20.9,103.7,38c30.7,16.6,60.5,34.5,91.1,49.9c42.9,21.6,92.4,45.3,149.6,43
			c8.8-0.3,17.4-1.1,25.9-2.3c68.9-9.6,128.5-49.2,175.7-99.4c28.3-30.1,50.6-60.9,67.1-92.3c24.3-46,42.9-96.8,64.2-153.2
			c43.7-115.8,100.8-252.1,205.7-302.4c25.2-12.1,49-23.2,72.6-31.6c60.2-21.6,118.2-25.9,187,2c62.1,25.2,129.1,75.3,206,158.1"/>
		<path class="st6" d="M295.4,586.1c45.9,6.2,110.2-1.1,174.4-9.3c46.9-6,93.3-19.3,137.4-36.4c56.1-21.8,103.7-62,158.6-82.6
			c35.1-13.1,70.8-16.2,103.6-11.3c38.1,5.7,71,18.3,102.4,34c30.4,15.2,59.8,31.6,90.1,45.7c42.5,19.7,91.4,41.5,148,38.3
			c8.7-0.5,17.2-1.4,25.7-2.7c68.1-10.3,127.5-49.6,175.1-98.4c28.7-29.4,51.2-58.8,68.2-88.5c25-43.5,44.1-90.7,66.1-144
			c45.2-109.5,104.5-241.4,209.8-290.5c25.1-11.7,48.9-22.5,72.4-30.7c60-20.8,117.8-25,186.1,2.4c62.4,25.1,129.1,74.9,204.9,157"
			/>
		<path class="st6" d="M295.1,586.9c44.5,6,108.7-0.3,173.4-8c46.6-5.5,92.8-18.3,136.8-34.7c56.1-21,103.8-59.9,158.3-80.2
			c34.9-13,70.2-16.6,102.6-12.6c37.6,4.6,70,15.8,101,30c30,13.8,59.1,28.7,89.1,41.4c42.1,17.7,90.4,37.7,146.4,33.6
			c8.6-0.6,17-1.7,25.4-3c67.4-11.1,126.6-50.1,174.5-97.4c29-28.7,51.9-56.8,69.3-84.7c25.6-41,45.3-84.6,68-134.9
			C1586.5,133,1648.1,5.5,1753.8-42.2c25-11.3,48.7-21.8,72.2-29.7c59.7-20.1,117.4-24.1,185.1,2.8
			c62.7,24.9,129.1,74.5,203.8,155.9"/>
		<path class="st6" d="M294.8,587.7c43,5.8,107.2,0.4,172.4-6.7c46.3-5,92.3-17.2,136.2-33.1c56.1-20.2,104-57.8,158-77.9
			c34.7-12.8,69.6-17,101.5-14c37.1,3.5,69.1,13.2,99.6,26c29.6,12.4,58.4,25.8,88.1,37.1c41.6,15.8,89.4,33.8,144.9,28.9
			c8.5-0.7,16.9-1.9,25.2-3.4c66.6-11.8,125.6-50.5,173.9-96.4c29.4-28,52.6-54.7,70.4-80.9c26.3-38.5,46.5-78.5,69.9-125.7
			c48.1-97,111.8-220.1,218-266.5c25-10.9,48.6-21.2,72-28.8c59.5-19.5,117-23.2,184.2,3.2c62.9,24.7,129.2,74.1,202.7,154.8"/>
		<path class="st6" d="M294.5,588.5c41.5,5.6,105.6,1.2,171.4-5.3c46-4.5,91.9-16.2,135.6-31.4c56-19.4,104.2-55.7,157.7-75.5
			c34.5-12.7,69-17.5,100.5-15.4c36.7,2.4,68.2,10.6,98.2,22c29.2,11,57.7,22.9,87.1,32.9c41.2,13.9,88.4,30,143.3,24.2
			c8.4-0.9,16.7-2.2,24.9-3.7c65.8-12.6,124.7-50.9,173.2-95.4c29.8-27.3,53.2-52.6,71.5-77.1c26.9-36.1,47.7-72.4,71.8-116.6
			c49.5-90.7,115.5-209.4,222-254.6c24.9-10.5,48.4-20.5,71.8-27.9c59.3-18.8,116.6-22.3,183.2,3.6C2070-7.1,2136,41.9,2208.4,121.9
			"/>
		<path class="st6" d="M294.2,589.3c40,5.4,104.1,1.9,170.4-4c45.7-4,91.4-15.2,135-29.7c56-18.6,104.4-53.6,157.5-73.2
			c34.3-12.6,68.4-17.9,99.5-16.8c36.2,1.3,67.2,8.1,96.9,18c28.8,9.7,57,20,86,28.6c40.8,12,87.5,26.1,141.7,19.5
			c8.3-1,16.5-2.4,24.6-4.1c65.1-13.3,123.8-51.4,172.6-94.4c30.2-26.6,53.9-50.6,72.6-73.3c27.6-33.6,48.9-66.3,73.7-107.4
			c51-84.5,119.2-198.8,226.1-242.6c24.8-10.2,48.3-19.8,71.6-27c59-18.2,116.2-21.5,182.3,4c63.5,24.4,129.2,73.2,200.5,152.6"/>
		<path class="st6" d="M293.8,590.2c38.5,5.2,102.6,2.6,169.3-2.6c45.4-3.6,90.9-14.2,134.4-28c56-17.8,104.6-51.5,157.2-70.8
			c34.1-12.4,67.8-18.3,98.5-18.1c35.7,0.1,66.3,5.5,95.5,14c28.5,8.3,56.3,17.1,85,24.3c40.3,10.1,86.5,22.3,140.1,14.7
			c8.2-1.2,16.3-2.7,24.4-4.4c64.3-14.1,122.9-51.8,172-93.4c30.5-25.9,54.6-48.5,73.7-69.5c28.3-31.1,50.1-60.2,75.6-98.3
			c52.5-78.2,122.8-188.1,230.2-230.7c24.7-9.8,48.2-19.1,71.4-26.1c58.8-17.5,115.8-20.6,181.4,4.4
			c63.7,24.3,129.2,72.8,199.4,151.5"/>
		<path class="st6" d="M293.5,591c37,5,101,3.3,168.3-1.3c45.1-3.1,90.4-13.2,133.8-26.3c56-16.9,104.8-49.4,156.9-68.5
			c33.9-12.3,67.2-18.7,97.5-19.5c35.2-1,65.4,3,94.1,10c28.1,6.9,55.5,14.2,84,20.1c39.9,8.2,85.5,18.5,138.6,10
			c8.1-1.3,16.1-2.9,24.1-4.8c63.6-14.8,122-52.2,171.4-92.4c30.9-25.1,55.3-46.4,74.7-65.6c29-28.7,51.3-54.2,77.6-89.1
			c54-72,126.5-177.5,234.3-218.7c24.6-9.4,48-18.5,71.2-25.1c58.6-16.9,115.4-19.7,180.4,4.8c64,24.1,129.3,72.4,198.3,150.4"/>
		<path class="st6" d="M293.2,591.8c35.6,4.8,99.5,4.1,167.3,0.1c44.8-2.6,90-12.2,133.2-24.6c56-16.1,105-47.3,156.6-66.1
			c33.6-12.2,66.6-19.2,96.5-20.9c34.8-2.1,64.5,0.4,92.8,6c27.8,5.5,54.8,11.2,83,15.8c39.5,6.3,84.5,14.7,137,5.3
			c8-1.4,15.9-3.2,23.8-5.1c62.8-15.6,121.1-52.6,170.8-91.4c31.3-24.4,56-44.4,75.8-61.8c29.7-26.2,52.5-48.1,79.5-80
			c55.5-65.7,130.2-166.8,238.4-206.8c24.5-9,47.9-17.8,71-24.2c58.3-16.2,115-18.8,179.5,5.2c64.3,23.9,129.3,72,197.2,149.3"/>
		<path class="st6" d="M292.9,592.6c34.1,4.6,97.9,4.8,166.3,1.4c44.4-2.2,89.5-11.2,132.6-23c55.9-15.3,105.2-45.2,156.4-63.7
			c33.4-12,66-19.6,95.4-22.2c34.3-3.2,63.6-2.2,91.4,2c27.4,4.1,54.1,8.3,82,11.5c39,4.4,83.5,10.9,135.4,0.6
			c7.9-1.6,15.8-3.4,23.6-5.5c62-16.3,120.2-53,170.2-90.4c31.7-23.7,56.8-42.3,76.9-58c30.5-23.7,53.8-42,81.4-70.8
			c57-59.5,133.8-156.2,242.4-194.8c24.4-8.7,47.7-17.1,70.7-23.3c58.1-15.6,114.6-17.9,178.5,5.6c64.5,23.8,129.3,71.6,196.1,148.2
			"/>
		<path class="st6" d="M292.5,593.4c32.6,4.4,96.4,5.5,165.2,2.7c44.1-1.7,89-10.1,132-21.3c55.9-14.5,105.4-43.1,156.1-61.4
			c33.2-11.9,65.4-20,94.4-23.6c33.8-4.3,62.7-4.8,90-2c27.1,2.7,53.4,5.4,80.9,7.3c38.6,2.5,82.5,7.1,133.8-4.1
			c7.8-1.7,15.6-3.7,23.3-5.8c61.3-17.1,119.3-53.4,169.5-89.4c32.1-23,57.5-40.3,78-54.2c31.2-21.3,55-36,83.3-61.7
			c58.6-53.3,137.4-145.6,246.5-182.9c24.3-8.3,47.6-16.5,70.5-22.4c57.8-14.9,114.2-17.1,177.6,6c64.8,23.6,129.3,71.1,195,147.1"
			/>
		<path class="st6" d="M292.2,594.2c31.1,4.2,95.1,10.3,164.2,4.1c43.7-3.9,88.5-9.1,131.4-19.6c55.9-13.6,105.6-41.1,155.8-59
			c33-11.7,64.7-20.4,93.4-25c33.4-5.4,61.8-7.3,88.7-6c26.7,1.3,52.7,2.5,79.9,3c38.2,0.6,81.6,3.3,132.3-8.8
			c7.7-1.8,15.4-3.9,23-6.2c60.5-17.8,118.4-53.8,168.9-88.4c32.5-22.2,58.3-38.2,79.1-50.4c32-18.8,56.3-29.9,85.2-52.6
			c60.1-47.1,141.1-135,250.6-170.9c24.3-7.9,47.4-15.8,70.3-21.5c57.6-14.3,113.8-16.2,176.7,6.4c65.1,23.4,129.4,70.7,194,146"/>
		<path class="st6" d="M291.9,595.1c29.6,4,93.5,11,163.2,5.4c43.4-3.5,88.1-8.1,130.8-17.9c55.9-12.8,105.8-39,155.5-56.7
			c32.8-11.6,64.1-20.8,92.4-26.3c32.9-6.5,61-8.4,87.3-10c26.3-1.6,52-0.4,78.9-1.3c37.7-1.3,80.6-0.5,130.7-13.5
			c7.6-2,15.2-4.2,22.8-6.5c59.8-18.5,117.5-54.2,168.3-87.4c32.9-21.5,59-36.1,80.2-46.6c32.8-16.3,57.5-23.8,87.1-43.4
			c61.8-40.9,144.7-124.4,254.7-159c24.2-7.6,47.3-15.1,70.1-20.5c57.4-13.6,113.4-15.3,175.7,6.8c65.4,23.2,129.4,70.3,192.9,144.9
			"/>
		<path class="st6" d="M291.6,595.9c28.2,3.8,91.9,11.7,162.2,6.8c43.1-3,87.6-7.1,130.2-16.2c55.9-12,105.9-36.9,155.3-54.3
			c32.6-11.5,63.5-21.3,91.4-27.7c32.4-7.6,60.1-12.5,85.9-14c26-1.5,51.3-3.3,77.9-5.6c37.3-3.2,79.6-4.3,129.1-18.2
			c7.5-2.1,15-4.4,22.5-6.9c59-19.3,116.7-54.6,167.7-86.4c33.3-20.8,59.8-34,81.3-42.8c33.6-13.8,58.8-17.7,89-34.3
			c63.4-34.7,148.3-113.9,258.8-147c24.1-7.2,47.1-14.4,69.9-19.6c57.1-13,113-14.5,174.8,7.2c65.6,23,129.4,69.9,191.8,143.8"/>
		<path class="st6" d="M291.3,596.7c26.7,3.6,90.3,12.3,161.1,8.1c42.8-2.5,87.1-6,129.6-14.5c55.9-11.1,106.1-34.8,155-52
			c32.4-11.3,62.9-21.7,90.3-29.1c31.9-8.7,59.2-15.1,84.5-18c25.7-2.9,50.6-6.2,76.9-9.8c36.9-5.1,78.6-8.1,127.5-22.9
			c7.4-2.2,14.8-4.7,22.3-7.2c58.3-20,115.8-55,167.1-85.4c33.7-20,60.6-31.9,82.4-39c34.5-11.3,60.1-11.7,90.9-25.1
			c65.1-28.4,152-103.3,262.8-135c24-6.9,47-13.8,69.7-18.7c56.9-12.3,112.7-13.6,173.8,7.6c65.9,22.8,129.4,69.5,190.7,142.6"/>
		<path class="st6" d="M290.9,597.5c25.2,3.4,88.7,12.9,160.1,9.4c42.5-2.1,86.6-5,129-12.8c55.8-10.3,106.3-32.7,154.7-49.6
			c32.2-11.2,62.3-22.1,89.3-30.5c31.5-9.8,58.3-17.7,83.2-22c25.4-4.3,49.9-9.1,75.8-14.1c36.4-7.1,77.6-11.9,126-27.6
			c7.3-2.4,14.6-4.9,22-7.6c57.5-20.7,115-55.3,166.5-84.4c34.1-19.3,61.4-29.8,83.4-35.2c35.3-8.7,61.4-5.5,92.8-16
			c66.7-22.1,155.6-92.7,266.9-123.1c23.9-6.5,46.9-13.1,69.5-17.8c56.7-11.7,112.3-12.8,172.9,8c66.2,22.7,129.5,69.1,189.6,141.5"
			/>
		<path class="st6" d="M290.6,598.3c23.7,3.2,87.1,13.5,159.1,10.8c42.2-1.6,86.2-4,128.4-11.2c55.8-9.5,106.5-30.6,154.4-47.3
			c32-11,61.7-22.5,88.3-31.8c31-10.9,57.4-20.4,81.8-26c25-5.8,49.2-12,74.8-18.4c36-9,76.7-15.7,124.4-32.3
			c7.2-2.5,14.5-5.2,21.7-7.9c56.7-21.4,114.1-55.7,165.8-83.4c34.5-18.5,62.2-27.6,84.5-31.4c36.2-6.1,62.7,0.6,94.8-6.8
			c68.4-15.8,159.2-82.2,271-111.1c23.8-6.2,46.7-12.4,69.3-16.9c56.4-11.1,111.9-11.9,172,8.4c66.5,22.5,129.5,68.6,188.5,140.4"/>
		<path class="st6" d="M290.3,599.2c22.2,3,85.5,10,158.1,12.1c41.9,1.2,85.7-3,127.9-9.5c55.8-8.6,106.7-28.5,154.2-44.9
			c31.7-10.9,61.1-23,87.3-33.2c30.5-12,56.5-23,80.4-30c24.7-7.2,48.5-14.9,73.8-22.6c35.6-10.9,75.7-19.5,122.8-37
			c7.1-2.6,14.3-5.4,21.5-8.3c56-22.2,113.2-56,165.2-82.4c34.9-17.7,63-25.5,85.6-27.6c37-3.5,64.1,6.7,96.7,2.3
			c70.1-9.4,162.8-71.7,275.1-99.2c23.7-5.8,46.6-11.8,69.1-15.9c56.2-10.4,111.5-11.1,171,8.8c66.8,22.3,129.5,68.2,187.4,139.3"/>
		<path class="st6" d="M290,600c20.7,2.8,84,10.6,157,13.5c41.6,1.6,85.2-1.9,127.3-7.8c55.8-7.8,106.9-26.4,153.9-42.5
			c31.5-10.8,60.5-23.4,86.3-34.6c30.1-13.1,55.6-25.6,79.1-34c24.3-8.7,47.8-17.8,72.8-26.9c35.1-12.8,74.7-23.3,121.2-41.7
			c7-2.8,14.1-5.7,21.2-8.6c55.2-22.9,112.4-56.4,164.6-81.4c35.4-17,63.9-25.4,86.7-23.8c37.8,2.6,65.4,12.9,98.6,11.5
			c71.8-3,166.5-61.1,279.2-87.2c23.6-5.5,46.4-11.1,68.9-15c55.9-9.8,111.1-10.2,170.1,9.2c67,22.1,129.5,67.8,186.3,138.2"/>
		<path class="st6" d="M289.7,600.8c19.3,2.6,82.4,11.2,156,14.8c41.3,2,84.7-0.9,126.7-6.1c55.8-7,107.1-24.3,153.6-40.2
			c31.3-10.6,59.9-23.8,85.3-35.9c29.6-14.2,54.7-28.3,77.7-38c24-10.1,47.1-20.8,71.8-31.2c34.7-14.7,73.7-27.2,119.6-46.4
			c6.9-2.9,13.9-5.9,20.9-9c54.5-23.6,111.6-56.7,164-80.4c35.8-16.2,64.6-21.1,87.8-20c38.7,1.8,66.7,19.1,100.5,20.6
			c73.5,3.4,170.1-50.6,283.2-75.3c23.5-5.1,46.3-10.4,68.7-14.1c55.7-9.1,110.7-9.4,169.1,9.6c67.3,21.9,129.6,67.4,185.2,137.1"/>
		<path class="st6" d="M289.3,601.6c17.8,2.4,80.9,11.8,155,16.2c41,2.4,84.3,0.1,126.1-4.4c55.8-6.1,107.3-22.2,153.3-37.8
			c31.1-10.5,59.3-24.2,84.2-37.3c29.1-15.3,53.8-30.9,76.3-42c23.6-11.6,46.4-23.7,70.7-35.4c34.2-16.6,72.7-31,118.1-51.1
			c6.8-3,13.7-6.2,20.7-9.3c53.7-24.3,110.7-57,163.4-79.4c36.2-15.4,65.4-18.9,88.9-16.2c39.5,4.5,68,25.2,102.4,29.8
			c75.1,9.9,173.7-40.1,287.3-63.3c23.4-4.8,46.1-9.7,68.5-13.2c55.5-8.5,110.3-8.5,168.2,10c67.6,21.6,129.6,67,184.1,136"/>
		<path class="st6" d="M289,602.4c16.3,2.2,79.3,12.4,154,17.5c40.7,2.8,83.8,1.2,125.5-2.7c55.8-5.3,107.5-20.1,153-35.5
			c30.9-10.3,58.6-24.6,83.2-38.7c28.7-16.5,52.9-33.6,75-46c23.2-13.1,45.7-26.6,69.7-39.7c33.8-18.5,71.8-34.8,116.5-55.8
			c6.8-3.2,13.5-6.4,20.4-9.7c53-25,109.9-57.3,162.8-78.4c36.6-14.6,66.1-16.7,90-12.4c40.2,7.2,69.2,31.4,104.3,38.9
			c76.8,16.4,177.3-29.7,291.4-51.4c23.3-4.4,46-9.1,68.3-12.3c55.2-7.9,110-7.7,167.3,10.4c67.9,21.4,129.6,66.5,183,134.9"/>
		<path class="st6" d="M288.7,603.2c14.8,2,77.8,12.9,153,18.8c40.4,3.2,83.3,2.2,124.9-1.1c55.7-4.4,107.7-18,152.8-33.1
			c30.7-10.2,58-25.1,82.2-40.1c28.2-17.6,52-36.2,73.6-50c22.9-14.6,44.9-29.5,68.7-44c33.4-20.4,70.8-38.6,114.9-60.6
			c6.7-3.3,13.4-6.7,20.2-10c52.2-25.8,109-57.6,162.1-77.4c37.1-13.8,66.9-14.5,91-8.6c41,10,70.5,37.6,106.2,48.1
			c78.3,22.9,180.9-19.2,295.5-39.4c23.2-4.1,45.8-8.4,68.1-11.3c55-7.2,109.6-6.9,166.3,10.8c68.2,21.2,129.6,66.1,181.9,133.8"/>
		<path class="st6" d="M288.4,604.1c13.3,1.8,76.3,13.5,151.9,20.2c40,3.5,82.8,3.3,124.3,0.6c55.7-3.6,107.9-15.9,152.5-30.8
			c30.5-10.1,57.4-25.5,81.2-41.4c27.7-18.7,51.1-38.9,72.2-54c22.5-16,44.2-32.4,67.7-48.2c32.9-22.3,69.8-42.4,113.3-65.3
			c6.6-3.5,13.2-6.9,19.9-10.4c51.5-26.5,108.2-57.9,161.5-76.4c37.5-13,67.6-12.2,92.1-4.8c41.7,12.7,71.7,43.8,108.1,57.2
			c79.9,29.4,184.5-8.8,299.6-27.5c23.1-3.8,45.7-7.7,67.9-10.4c54.8-6.6,109.2-6,165.4,11.2c68.5,21,129.7,65.7,180.8,132.7"/>
		<path class="st6" d="M288.1,604.9c11.9,1.6,74.7,14,150.9,21.5c39.7,3.9,82.4,4.3,123.7,2.3c55.7-2.7,108-13.8,152.2-28.4
			c30.3-9.9,56.8-25.9,80.2-42.8c27.2-19.8,50.1-41.5,70.8-58c22.1-17.5,43.5-35.3,66.7-52.5c32.5-24.2,68.9-46.1,111.8-70
			c6.5-3.6,13-7.2,19.6-10.7c50.8-27.2,107.3-58.2,160.9-75.4c37.9-12.2,68.3-10,93.2-1c42.5,15.4,73,50,110.1,66.4
			c81.4,35.9,188.2,1.7,303.6-15.5c23-3.4,45.5-7.1,67.7-9.5c54.5-6,108.8-5.2,164.4,11.6c68.7,20.8,129.7,65.3,179.7,131.6"/>
		<path class="st6" d="M287.7,605.7c10.4,1.4,73.2,14.5,149.9,22.9c39.4,4.3,81.9,5.4,123.1,4c55.7-1.8,108.2-11.7,151.9-26
			c30-9.8,56.2-26.3,79.1-44.2c26.8-20.9,49.2-44.2,69.5-62c21.7-19,42.8-38.2,65.7-56.8c32.1-26.1,67.9-49.9,110.2-74.7
			c6.4-3.7,12.8-7.4,19.4-11.1c50-27.9,106.5-58.4,160.3-74.4c38.3-11.4,69-7.8,94.3,2.8c43.2,18.2,74.2,56.2,112,75.5
			c83,42.4,191.8,12.1,307.7-3.5c22.9-3.1,45.4-6.4,67.5-8.6c54.3-5.3,108.4-4.4,163.5,12c69,20.5,129.7,64.9,178.6,130.5"/>
		<path class="st6" d="M287.4,606.5c8.9,1.2,71.7,15.1,148.9,24.2c39.1,4.6,81.4,6.4,122.5,5.7c55.7-1,108.4-9.6,151.7-23.7
			c29.8-9.6,55.6-26.8,78.1-45.5c26.3-22,48.2-46.9,68.1-66c21.3-20.5,42.1-41.1,64.6-61c31.6-28,66.9-53.7,108.6-79.4
			c6.3-3.8,12.6-7.7,19.1-11.4c49.3-28.6,105.7-58.7,159.7-73.4c38.8-10.5,69.7-5.6,95.4,6.6c43.9,20.9,75.4,62.4,113.9,84.7
			c84.5,48.8,195.4,22.5,311.8,8.4c22.8-2.8,45.2-5.8,67.3-7.6c54-4.8,108.1-3.5,162.6,12.4c69.3,20.3,129.7,64.5,177.5,129.4"/>
		<path class="st6" d="M287.1,607.3c7.4,1,70.2,15.5,147.8,25.5c38.8,5,80.9,7.2,121.9,7.4c55.7,0.2,108.6-7.5,151.4-21.3
			c29.6-9.5,55-27.2,77.1-46.9c25.8-23.1,47.3-49.5,66.7-70c20.9-22,41.4-44,63.6-65.3c31.2-29.9,65.9-57.5,107-84.1
			c6.2-4,12.4-7.9,18.8-11.8c48.5-29.3,104.8-58.9,159.1-72.4c39.2-9.7,70.4-3.4,96.5,10.4c44.5,23.6,76.6,68.6,115.8,93.8
			c85.9,55.3,199,32.9,315.9,20.4c22.7-2.4,45.1-5.1,67.1-6.7c53.8-4.1,107.7-2.7,161.6,12.8c69.6,20,129.8,64,176.4,128.3"/>
		<path class="st6" d="M286.8,608.2c5.9,0.8,68.7,16,146.8,26.9c38.5,5.4,80.5,8.5,121.3,9c55.6,0.7,108.8-5.5,151.1-19
			c29.4-9.4,54.4-27.6,76.1-48.3c25.4-24.2,46.3-52.2,65.4-74c20.5-23.4,40.7-46.9,62.6-69.6c30.8-31.8,65-61.3,105.5-88.8
			c6.1-4.1,12.3-8.2,18.6-12.1c47.8-30,103.9-59.2,158.4-71.4c39.6-8.9,71.1-1.2,97.6,14.2c45.2,26.3,77.8,74.8,117.7,102.9
			c87.4,61.8,202.6,43.3,320,32.3c22.6-2.1,45-4.4,66.9-5.8c53.6-3.5,107.3-1.9,160.7,13.2c69.9,19.8,129.8,63.6,175.3,127.2"/>
		<path class="st6" d="M286.5,609c4.4,0.6,67.2,16.5,145.8,28.2c38.2,5.7,80,9.5,120.7,10.7c55.6,1.6,109-3.4,150.8-16.6
			c29.2-9.2,53.8-28,75.1-49.7c24.9-25.3,45.3-54.8,64-78c20-24.9,40-49.8,61.6-73.8c30.3-33.8,64-65.1,103.9-93.5
			c6-4.2,12.1-8.4,18.3-12.5c47.1-30.7,103.1-59.4,157.8-70.4c40-8,71.8,1.1,98.7,18.1c45.8,29,79.1,81,119.6,112.1
			c88.9,68.2,206.3,53.7,324,44.3c22.5-1.8,44.8-3.8,66.7-4.9c53.3-2.9,106.9-1.1,159.7,13.6c70.2,19.5,129.8,63.2,174.2,126.1"/>
		<path class="st6" d="M286.1,609.8c3,0.4,65.7,17,144.8,29.6c38,6,79.5,10.7,120.1,12.4c55.6,2.6,109.2-1.3,150.6-14.3
			c29-9.1,53.2-28.4,74-51c24.4-26.4,44.4-57.4,62.6-82c19.6-26.4,39.3-52.8,60.6-78.1c29.9-35.7,63-68.9,102.3-98.2
			c5.9-4.4,11.9-8.7,18.1-12.9c46.4-31.3,102.2-59.7,157.2-69.4c40.4-7.2,72.5,3.3,99.7,21.9c46.5,31.7,80.2,87.2,121.5,121.2
			c90.2,74.8,209.9,64,328.1,56.2c22.5-1.5,44.7-3.1,66.5-4c53.1-2.2,106.6-0.3,158.8,14c70.5,19.3,129.8,62.8,173.1,125"/>
		<path class="st6" d="M285.8,610.6c1.5,0.2,64.2,17.4,143.7,30.9c37.7,6.4,79,11.7,119.5,14.1c55.6,3.4,109.4,0.8,150.3-11.9
			c28.8-9,52.6-28.9,73-52.4c23.9-27.5,43.4-60.1,61.3-86c19.1-27.9,38.6-55.7,59.5-82.4c29.5-37.6,62-72.7,100.7-102.9
			c5.8-4.5,11.7-8.9,17.8-13.2c45.6-32.1,101.3-59.9,156.6-68.4c40.8-6.3,73.1,5.4,100.8,25.7c47.1,34.4,81.4,93.3,123.4,130.4
			c91.7,81.2,213.5,74.3,332.2,68.2c22.4-1.2,44.5-2.4,66.3-3c52.9-1.6,106.2,0.5,157.9,14.4c70.8,18.9,129.9,62.4,172,123.9"/>
		<path class="st6" d="M285.5,611.4c0,0,278.9,79.4,411.6,38.5c62-19.1,99.5-93.2,131.9-143.8c49-76.6,100.8-153.4,175.2-207.8
			c44.9-32.8,100.5-60.1,156-67.4c111.3-14.6,159.5,105.4,227.3,169c110.7,103.9,264.6,80.4,402.4,78c52.6-0.9,105.8,1.3,156.9,14.8
			c71.1,18.7,129.9,61.9,170.9,122.8"/>
	</g>
</g>
</svg>
