<?xml version="1.0" encoding="UTF-8"?>
<svg width="375px" height="250px" viewBox="0 0 375 250" version="1.1" xmlns="http://www.w3.org/2000/svg" xmlns:xlink="http://www.w3.org/1999/xlink">
    <!-- Generator: Sketch 43.2 (39069) - http://www.bohemiancoding.com/sketch -->
    <title>pixels-fade</title>
    <desc>Created with Sketch.</desc>
    <defs></defs>
    <g id="Page-1" stroke="none" stroke-width="1" fill="none" fill-rule="evenodd">
        <g id="pixels-fade" fill="#4D4D4D">
            <rect id="Rectangle" fill-opacity="0.5" x="75" y="75" width="25" height="25"></rect>
            <rect id="Rectangle" fill-opacity="0.3" x="100" y="100" width="25" height="25"></rect>
            <rect id="Rectangle" x="75" y="25" width="25" height="25"></rect>
            <rect id="Rectangle" x="50" y="0" width="25" height="25"></rect>
            <rect id="Rectangle" fill-opacity="0.9" x="75" y="0" width="25" height="25"></rect>
            <rect id="Rectangle" x="100" y="0" width="100" height="25"></rect>
            <rect id="Rectangle" x="125" y="25" width="25" height="25"></rect>
            <rect id="Rectangle" x="0" y="0" width="50" height="25"></rect>
            <rect id="Rectangle" fill-opacity="0.8" x="25" y="75" width="25" height="25"></rect>
            <rect id="Rectangle" fill-opacity="0.5" x="175" y="75" width="25" height="25"></rect>
            <rect id="Rectangle" fill-opacity="0.3" x="200" y="100" width="25" height="25"></rect>
            <rect id="Rectangle" fill-opacity="0.3" x="50" y="100" width="25" height="25"></rect>
            <rect id="Rectangle" fill-opacity="0.3" x="150" y="100" width="25" height="25"></rect>
            <rect id="Rectangle" x="175" y="25" width="25" height="25"></rect>
            <rect id="Rectangle" x="200" y="0" width="50" height="25"></rect>
            <rect id="Rectangle" x="250" y="0" width="25" height="25"></rect>
            <rect id="Rectangle" x="225" y="25" width="25" height="25"></rect>
            <rect id="Rectangle" fill-opacity="0.5" x="225" y="75" width="25" height="25"></rect>
            <rect id="Rectangle" fill-opacity="0.3" x="250" y="100" width="25" height="25"></rect>
            <rect id="Rectangle" fill-opacity="0.2" x="75" y="125" width="25" height="25"></rect>
            <rect id="Rectangle" fill-opacity="0.2" x="175" y="125" width="25" height="25"></rect>
            <rect id="Rectangle" fill-opacity="0.2" x="225" y="125" width="25" height="25"></rect>
            <rect id="Rectangle" fill-opacity="0.1" x="250" y="150" width="25" height="25"></rect>
            <rect id="Rectangle" fill-opacity="0.1" x="325" y="150" width="25" height="25"></rect>
            <rect id="Rectangle" fill-opacity="0.1" x="225" y="175" width="25" height="25"></rect>
            <rect id="Rectangle" fill-opacity="0.1" x="150" y="175" width="25" height="25"></rect>
            <rect id="Rectangle" fill-opacity="0.1" x="25" y="175" width="25" height="25"></rect>
            <rect id="Rectangle" fill-opacity="0.1" x="125" y="200" width="25" height="25"></rect>
            <rect id="Rectangle" fill-opacity="0.1" x="350" y="225" width="25" height="25"></rect>
            <rect id="Rectangle" fill-opacity="0.1" x="75" y="225" width="25" height="25"></rect>
            <rect id="Rectangle" fill-opacity="0.3" x="275" y="100" width="25" height="25"></rect>
            <rect id="Rectangle" fill-opacity="0.5" x="300" y="75" width="25" height="25"></rect>
            <rect id="Rectangle" fill-opacity="0.3" x="325" y="100" width="25" height="25"></rect>
            <rect id="Rectangle" fill-opacity="0.2" x="300" y="125" width="25" height="25"></rect>
            <rect id="Rectangle" x="275" y="25" width="25" height="25"></rect>
            <rect id="Rectangle" x="325" y="25" width="25" height="25"></rect>
            <rect id="Rectangle" x="25" y="25" width="25" height="25"></rect>
            <rect id="Rectangle" fill-opacity="0.7" x="0" y="25" width="25" height="25"></rect>
            <rect id="Rectangle" fill-opacity="0.1" x="0" y="50" width="25" height="25"></rect>
            <rect id="Rectangle" fill-opacity="0.2" x="25" y="50" width="25" height="25"></rect>
            <rect id="Rectangle" fill-opacity="0.2" x="0" y="75" width="25" height="25"></rect>
            <rect id="Rectangle" fill-opacity="0.2" x="50" y="75" width="25" height="25"></rect>
            <rect id="Rectangle" fill-opacity="0.05" x="50" y="125" width="25" height="25"></rect>
            <rect id="Rectangle" fill-opacity="0.05" x="0" y="125" width="25" height="25"></rect>
            <rect id="Rectangle" fill-opacity="0.05" x="125" y="125" width="25" height="25"></rect>
            <rect id="Rectangle" fill-opacity="0.05" x="200" y="125" width="25" height="25"></rect>
            <rect id="Rectangle" fill-opacity="0.05" x="275" y="125" width="25" height="25"></rect>
            <rect id="Rectangle" fill-opacity="0.05" x="275" y="175" width="25" height="25"></rect>
            <rect id="Rectangle" fill-opacity="0.05" x="175" y="175" width="25" height="25"></rect>
            <rect id="Rectangle" fill-opacity="0.3" x="125" y="75" width="25" height="25"></rect>
            <rect id="Rectangle" fill-opacity="0.1" x="150" y="75" width="25" height="25"></rect>
            <rect id="Rectangle" fill-opacity="0.2" x="100" y="75" width="25" height="25"></rect>
            <rect id="Rectangle" fill-opacity="0.2" x="200" y="75" width="25" height="25"></rect>
            <rect id="Rectangle" fill-opacity="0.2" x="275" y="75" width="25" height="25"></rect>
            <rect id="Rectangle" fill-opacity="0.2" x="325" y="75" width="25" height="25"></rect>
            <rect id="Rectangle" fill-opacity="0.3" x="350" y="75" width="25" height="25"></rect>
            <rect id="Rectangle" fill-opacity="0.5" x="75" y="50" width="25" height="25"></rect>
            <rect id="Rectangle" fill-opacity="0.2" x="125" y="50" width="25" height="25"></rect>
            <rect id="Rectangle" fill-opacity="0.5" x="175" y="50" width="25" height="25"></rect>
            <rect id="Rectangle" fill-opacity="0.5" x="225" y="50" width="25" height="25"></rect>
            <rect id="Rectangle" fill-opacity="0.5" x="275" y="50" width="25" height="25"></rect>
            <rect id="Rectangle" fill-opacity="0.3" x="325" y="50" width="25" height="25"></rect>
            <rect id="Rectangle" x="25" y="25" width="25" height="25"></rect>
            <rect id="Rectangle" fill-opacity="0.7" x="50" y="25" width="25" height="25"></rect>
            <rect id="Rectangle" fill-opacity="0.7" x="100" y="25" width="25" height="25"></rect>
            <rect id="Rectangle" fill-opacity="0.7" x="150" y="25" width="25" height="25"></rect>
            <rect id="Rectangle" fill-opacity="0.7" x="200" y="25" width="25" height="25"></rect>
            <rect id="Rectangle" fill-opacity="0.7" x="250" y="25" width="25" height="25"></rect>
            <rect id="Rectangle" fill-opacity="0.7" x="300" y="25" width="25" height="25"></rect>
            <rect id="Rectangle" fill-opacity="0.7" x="350" y="25" width="25" height="25"></rect>
            <rect id="Rectangle" fill-opacity="0.8" x="100" y="50" width="25" height="25"></rect>
            <rect id="Rectangle" fill-opacity="0.8" x="150" y="50" width="25" height="25"></rect>
            <rect id="Rectangle" fill-opacity="0.8" x="200" y="50" width="25" height="25"></rect>
            <rect id="Rectangle" fill-opacity="0.8" x="250" y="50" width="25" height="25"></rect>
            <rect id="Rectangle" fill-opacity="0.8" x="300" y="50" width="25" height="25"></rect>
            <rect id="Rectangle" fill-opacity="0.8" x="350" y="50" width="25" height="25"></rect>
            <rect id="Rectangle" fill-opacity="0.8" x="50" y="50" width="25" height="25"></rect>
            <rect id="Rectangle" x="350" y="0" width="25" height="25"></rect>
            <rect id="Rectangle" x="300" y="0" width="25" height="25"></rect>
            <rect id="Rectangle" fill-opacity="0.9" x="275" y="0" width="25" height="25"></rect>
            <rect id="Rectangle" fill-opacity="0.9" x="325" y="0" width="25" height="25"></rect>
        </g>
    </g>
</svg>