<svg xmlns="http://www.w3.org/2000/svg" viewBox="0 0 448 512"><path d="M365.2 372.3c-7.6 26.7-3.3 66.5-31.6 82.1C248 501.8 119.7 476.8 94.8 434c-6.8-26.2-11.2-56.7-15.5-83.4 2.1-5.5.5-3.8 6.5-6.8 81.2 53.7 194.9 53.7 276.5 0 12.7 3.7 3.1 19.2 2.9 28.5zM209.5 218.8c-21.3 9.8-21.3 44.4.5 54 19.4 11.7 47.2-6.3 44.2-29.2 0-21.2-26.4-36-44.7-24.8zm174.8 70.1c-9.8 57-214.5 92.6-307.8 20.7C57.1 294.7 32.1 96 32 95 42.1 19 353.5 8.3 411.5 81.6c8.2 10.6 7.5 7.8-27.2 207.3zm-99.8-51c-4.9-38.7-48.8-64.3-84.5-48.3-22.6 10.1-37.9 34.1-36.8 59.4 1.4 33.3 33 60.5 66.3 57.5 33.2-2.9 59.1-35.3 55-68.6zm65.1-147.8c-28.1-37.1-225.7-36.8-251.4 0 36.1 33.8 217.1 34.4 251.4 0z"/></svg>