<svg xmlns="http://www.w3.org/2000/svg" viewBox="0 0 448 512"><path d="M313.9 137.1c-24.6 24.6-154 24.2-179.8 0 18.3-26.4 159.7-26.6 179.8 0zm-46.6 105.7c2.9 23.8-15.6 47-39.4 49.2-23.8 2.1-46.4-17.4-47.4-41.2-.8-18.1 10.1-35.3 26.3-42.5 25.6-11.6 57 6.8 60.5 34.5zm-21.6 4.1c0-15.2-18.9-25.7-32-17.7-15.2 7-15.2 31.8.4 38.6 13.8 8.3 33.7-4.5 31.6-20.9zM448 80v352c0 26.5-21.5 48-48 48H48c-26.5 0-48-21.5-48-48V80c0-26.5 21.5-48 48-48h352c26.5 0 48 21.5 48 48zM322.9 318.5c-58.3 38.4-139.7 38.4-197.8 0-4.3 2.2-3.2.9-4.7 4.9 3.1 19.1 6.2 41 11.1 59.7 17.8 30.7 109.6 48.5 170.9 14.6 20.3-11.1 17.2-39.6 22.6-58.7.3-6.7 7.1-17.8-2.1-20.5zM358.2 131C316.7 78.6 94 86.2 86.7 140.6c.1.7 18 142.8 31.8 153.5 66.8 51.4 213.2 26 220.2-14.8C363.6 136.5 364 138.5 358.2 131z"/></svg>