<svg xmlns="http://www.w3.org/2000/svg" viewBox="0 0 576 512"><path d="M484.3 233.2s7.9 38.4 9.6 46.4h-34.5c3.4-9.2 16.6-44.9 16.6-44.9-.2.3 3.4-9.4 5.5-15.4l2.8 13.9zM576 80v352c0 26.5-21.5 48-48 48H48c-26.5 0-48-21.5-48-48V80c0-26.5 21.5-48 48-48h480c26.5 0 48 21.5 48 48zM156.4 336.3l65.2-160.2h-43.9l-40.6 109.4-4.4-22.2-14.5-73.7c-2.4-10.2-9.7-13.1-18.8-13.5H32.7l-.7 3.2c16.3 4.2 30.8 10.2 43.6 17.6l37 139.4h43.8zm97.5.2l25.9-160.4h-41.5l-25.9 160.4h41.5zm144.3-52.4c.2-18.3-10.9-32.3-34.8-43.7-14.5-7.3-23.4-12.3-23.4-19.8.2-6.8 7.5-13.8 23.9-13.8 13.5-.3 23.4 2.9 30.9 6.1l3.8 1.7 5.6-34.6c-8.2-3.2-21.2-6.8-37.2-6.8-41 0-69.8 21.8-70 53.1-.3 23 20.7 35.8 36.3 43.5 16 7.8 21.5 13 21.5 20-.2 10.7-13 15.7-24.9 15.7-16.6 0-25.4-2.6-38.9-8.5l-5.5-2.6-5.8 36c9.7 4.4 27.6 8.4 46.3 8.5 43.6 0 71.9-21.6 72.2-54.8zM544 336.5l-33.5-160.4h-32.1c-9.9 0-17.4 2.9-21.7 13.3l-61.6 147.1h43.5s7.2-19.8 8.7-24.1h53.3c1.2 5.6 4.9 24.1 4.9 24.1H544z"/></svg>