<?xml version="1.0" encoding="UTF-8"?>
<svg width="107px" height="107px" viewBox="0 0 107 107" version="1.1" xmlns="http://www.w3.org/2000/svg" xmlns:xlink="http://www.w3.org/1999/xlink">
    <!-- Generator: Sketch 43.2 (39069) - http://www.bohemiancoding.com/sketch -->
    <title>dollar-symbol</title>
    <desc>Created with Sketch.</desc>
    <defs></defs>
    <g id="Homepage---below-fold" stroke="none" stroke-width="1" fill="none" fill-rule="evenodd">
        <g id="Desktop" transform="translate(-780.000000, -2142.000000)">
            <g id="dollar-symbol" transform="translate(780.000000, 2142.000000)">
                <g id="Layer_1" transform="translate(-0.000000, 0.000000)">
                    <path d="M106.440549,45.8384238 C106.309725,44.9368652 105.518301,44.2758477 104.607338,44.2758477 L100.570178,44.2758477 C99.3248398,37.8855234 96.8182812,31.9466055 93.3088066,26.736207 L96.1576816,23.887332 C96.8023984,23.2426152 96.8935156,22.2125312 96.3472305,21.4823398 C93.2734883,17.3753789 89.6246211,13.7265117 85.5174512,10.6525605 C84.7876777,10.1062754 83.7573848,10.1976016 83.112668,10.8423184 L80.263584,13.6914023 C75.0536035,10.1817187 69.1146855,7.67516016 62.7243613,6.43003125 L62.7243613,2.39266211 C62.7243613,1.48149023 62.0635527,0.690066406 61.1617852,0.559451172 C58.6589883,0.196445312 56.1031094,0 53.5,0 C50.8968906,0 48.3410117,0.196445312 45.8384238,0.559451172 C44.9368652,0.690275391 44.2758477,1.48169922 44.2758477,2.39266211 L44.2758477,6.42982227 C37.8855234,7.67516016 31.9466055,10.1815098 26.736416,13.6911934 L23.887541,10.8421094 C23.2428242,10.1973926 22.2127402,10.1060664 21.4825488,10.6523516 C17.3755879,13.7263027 13.7267207,17.3751699 10.6527695,21.4821309 C10.1064844,22.2123223 10.1978105,23.2424062 10.8425273,23.887123 L13.6916113,26.736207 C10.1815098,31.9463965 7.67516016,37.8855234 6.42982227,44.2756387 L2.39266211,44.2756387 C1.48149023,44.2756387 0.690066406,44.9364473 0.559451172,45.8382148 C0.196654297,48.3410117 0,50.8968906 0,53.5 C0,56.1031094 0.196654297,58.6589883 0.559451172,61.1613672 C0.690275391,62.0629258 1.48169922,62.7241523 2.39266211,62.7241523 L6.42982227,62.7241523 C7.67516016,69.1144766 10.1815098,75.0533945 13.6911934,80.263584 L10.8421094,83.112668 C10.1973926,83.7573848 10.1060664,84.7874687 10.6523516,85.5176602 C13.7263027,89.6246211 17.3749609,93.2734883 21.4821309,96.3472305 C22.2123223,96.8935156 23.2421973,96.8021895 23.887123,96.1574727 L26.735998,93.3085977 C31.9461875,96.8182812 37.8853145,99.3248398 44.2754297,100.569969 L44.2754297,104.607129 C44.2754297,105.518301 44.9362383,106.309725 45.8380059,106.44034 C48.3410117,106.803346 50.8968906,107 53.5,107 C56.1031094,107 58.6589883,106.803346 61.1615762,106.440549 C62.0633437,106.309725 62.7241523,105.518301 62.7241523,104.607338 L62.7241523,100.570178 C69.1144766,99.3248398 75.0533945,96.8184902 80.263584,93.3088066 L83.112668,96.1576816 C83.7573848,96.8023984 84.7874687,96.8937246 85.5174512,96.3474395 C89.6248301,93.2734883 93.2734883,89.6248301 96.3472305,85.5178691 C96.8937246,84.7878867 96.8026074,83.7575937 96.1576816,83.112877 L93.3088066,80.264002 C96.8184902,75.0538125 99.3250488,69.1148945 100.570178,62.7245703 L104.607338,62.7245703 C105.51851,62.7245703 106.309934,62.0633438 106.440549,61.1617852 C106.803346,58.6589883 107,56.1031094 107,53.5 C107,50.8968906 106.803346,48.3410117 106.440549,45.8384238 Z M53.5,90.3966094 C33.1225605,90.3966094 16.6033906,73.8772305 16.6033906,53.5 C16.6033906,33.1225605 33.1223516,16.6033906 53.5,16.6033906 C73.8776484,16.6033906 90.3966094,33.1225605 90.3966094,53.5 C90.3966094,73.8772305 73.8774395,90.3966094 53.5,90.3966094 Z" id="Shape" fill="#D2D2D2"></path>
                    <g id="Group" transform="translate(10.867188, 10.867188)" fill="#9A9A9A">
                        <path d="M42.6328125,0.201878906 C19.1985586,0.201878906 0.201878906,19.1985586 0.201878906,42.6328125 C0.201878906,66.0666484 19.1987676,85.0637461 42.6328125,85.0637461 C66.0668574,85.0637461 85.0637461,66.0666484 85.0637461,42.6328125 C85.0637461,19.1985586 66.0670664,0.201878906 42.6328125,0.201878906 Z M42.6328125,79.5294219 C22.255373,79.5294219 5.73620313,63.010043 5.73620313,42.6328125 C5.73620313,22.255373 22.2551641,5.73620312 42.6328125,5.73620312 C63.0104609,5.73620312 79.5294219,22.255373 79.5294219,42.6328125 C79.5294219,63.010043 63.010252,79.5294219 42.6328125,79.5294219 Z" id="Shape"></path>
                        <path d="M58.9055898,51.6243652 C58.9055898,45.2505508 55.145752,41.3437969 47.6262852,39.6988809 L44.979498,39.1793457 L44.979498,28.2235488 C46.999959,28.6467422 48.5947188,29.8442227 49.3903223,31.4404453 C50.0634609,32.7911113 51.4369063,33.6477383 52.9461914,33.6477383 C56.0209785,33.6477383 58.0157344,30.2584297 56.3785508,27.6555293 C54.2414766,24.2578613 50.236291,21.9797227 44.979498,21.3958203 L44.979498,19.5034668 C44.979498,18.0129902 43.7713594,16.8052695 42.2813008,16.8052695 C40.7912422,16.8052695 39.5831035,18.0134082 39.5831035,19.5034668 L39.5831035,21.3947754 C31.2406563,22.3030215 26.3604531,26.8689121 26.3604531,33.8531699 C26.3604531,39.9628281 30.1495488,44.0455469 37.2284766,45.6904629 L39.5828945,46.2457344 L39.5828945,57.7591016 C37.1985918,57.3158457 35.3848164,56.0937051 34.4895273,54.3773164 C33.7940273,53.0433691 32.4429434,52.1819355 30.9384648,52.1819355 L30.5416035,52.1819355 C27.4647266,52.1819355 25.493168,55.5610039 27.1100801,58.1789512 C29.3125664,61.7450605 33.6590234,63.9920605 39.5826855,64.4892344 L39.5826855,65.7617402 C39.5826855,67.2517988 40.7908242,68.4599375 42.2808828,68.4599375 C43.7709414,68.4599375 44.9790801,67.2517988 44.9790801,65.7617402 L44.9790801,64.4618574 C53.8864121,63.544625 58.9055898,58.9475957 58.9055898,51.6243652 Z M34.8487715,33.1192168 C34.8487715,30.5556055 36.7852207,28.6160215 39.5826855,28.1802891 L39.5826855,38.0441426 C36.4911797,37.2017266 34.8487715,35.5143867 34.8487715,33.1192168 Z M44.979498,57.8646387 L44.979498,47.267877 C48.8043301,48.1284746 50.5930273,49.8319062 50.5930273,52.564377 C50.5930273,55.5403145 48.5224102,57.4924375 44.979498,57.8646387 Z" id="Shape"></path>
                    </g>
                </g>
            </g>
        </g>
    </g>
</svg>