<?xml version="1.0" encoding="UTF-8"?>
<svg width="105px" height="110px" viewBox="0 0 105 110" version="1.1" xmlns="http://www.w3.org/2000/svg" xmlns:xlink="http://www.w3.org/1999/xlink">
    <!-- Generator: Sketch 43.2 (39069) - http://www.bohemiancoding.com/sketch -->
    <title>database</title>
    <desc>Created with Sketch.</desc>
    <defs></defs>
    <g id="Homepage---below-fold" stroke="none" stroke-width="1" fill="none" fill-rule="evenodd">
        <g id="Desktop" transform="translate(-1013.000000, -2137.000000)">
            <g id="database" transform="translate(1013.000000, 2137.000000)">
                <g id="Capa_1">
                    <g id="Group">
                        <g>
                            <path d="M94.1567132,15.5985331 L94.1567132,15.5985331 C92.7235486,6.89845124 72.2494882,0 47.1916536,0 C22.133819,0 1.65975862,6.89845124 0.226593994,15.5985331 L0.226593994,15.5985331 L0.138369086,15.5985331 L0.138369086,16.5734414 L0.138369086,38.9963326 L0.138369086,39.9712409 L0.138369086,40.9461493 L0.138369086,62.3941322 L0.138369086,63.3690405 L0.138369086,64.3439488 L0.138369086,87.7417484 L0.226593994,87.7417484 C1.65975862,96.4398804 22.1357796,103.340281 47.1916536,103.340281 C72.2475276,103.340281 92.7235486,96.4398804 94.1567132,87.7417484 L94.2449381,87.7417484 L94.2449381,64.3439488 L94.2449381,63.3690405 L94.2449381,62.3941322 L94.2449381,40.9461493 L94.2449381,39.9712409 L94.2449381,38.9963326 L94.2449381,16.5734414 L94.2449381,15.5985331 L94.1567132,15.5985331 Z" id="Shape" fill="#545E73"></path>
                            <g transform="translate(0.000000, 62.394132)" id="Shape">
                                <path d="M47.1916536,17.5483497 C21.2045167,17.5483497 0.138369086,10.1273476 0.138369086,0.974908316 L0.138369086,25.3476162 L0.226593994,25.3476162 C1.65975862,34.0457482 22.1357796,40.9461493 47.1916536,40.9461493 C72.2475276,40.9461493 92.7235486,34.0457482 94.1567132,25.3476162 L94.2449381,25.3476162 L94.2449381,0.974908316 C94.2449381,10.1273476 73.1787905,17.5483497 47.1916536,17.5483497 Z" fill="#2E2E2E"></path>
                                <path d="M0.138369086,0 L0.138369086,0.974908316 C0.138369086,0.647339122 0.188958166,0.323669561 0.264841787,0 L0.138369086,0 Z" fill="#38454F"></path>
                                <path d="M94.1567132,0 C94.2325968,0.323669561 94.2831859,0.647339122 94.2831859,0.974908316 L94.2831859,0 L94.1567132,0 Z" fill="#38454F"></path>
                            </g>
                            <g transform="translate(0.000000, 38.996333)" id="Shape">
                                <path d="M47.1916536,17.5483497 C21.2045167,17.5483497 0.138369086,10.1273476 0.138369086,0.974908316 L0.138369086,25.3476162 L0.226593994,25.3476162 C1.65975862,34.0457482 22.1357796,40.9461493 47.1916536,40.9461493 C72.2475276,40.9461493 92.7235486,34.0457482 94.1567132,25.3476162 L94.2449381,25.3476162 L94.2449381,0.974908316 C94.2449381,10.1273476 73.1787905,17.5483497 47.1916536,17.5483497 Z" fill="#454545"></path>
                                <path d="M0.138369086,0 L0.138369086,0.974908316 C0.138369086,0.647339122 0.188958166,0.323669561 0.264841787,0 L0.138369086,0 Z" fill="#556080"></path>
                                <path d="M94.1567132,0 C94.2325968,0.323669561 94.2831859,0.647339122 94.2831859,0.974908316 L94.2831859,0 L94.1567132,0 Z" fill="#556080"></path>
                            </g>
                            <ellipse id="Oval" fill="#989898" cx="47.1916536" cy="16.5734414" rx="47.0532845" ry="16.5734414"></ellipse>
                            <g transform="translate(0.000000, 15.598533)" id="Shape">
                                <path d="M47.1916536,17.5483497 C21.2045167,17.5483497 0.138369086,10.1273476 0.138369086,0.974908316 L0.138369086,25.3476162 L0.226593994,25.3476162 C1.65975862,34.0457482 22.1357796,40.9461493 47.1916536,40.9461493 C72.2475276,40.9461493 92.7235486,34.0457482 94.1567132,25.3476162 L94.2449381,25.3476162 L94.2449381,0.974908316 C94.2449381,10.1273476 73.1787905,17.5483497 47.1916536,17.5483497 Z" fill="#717171"></path>
                                <path d="M0.138369086,0 L0.138369086,0.974908316 C0.138369086,0.647339122 0.188958166,0.323669561 0.264841787,0 L0.138369086,0 Z" fill="#8697CB"></path>
                                <path d="M94.1567132,0 C94.2325968,0.323669561 94.2831859,0.647339122 94.2831859,0.974908316 L94.2831859,0 L94.1567132,0 Z" fill="#8697CB"></path>
                            </g>
                        </g>
                        <g transform="translate(50.132484, 72.143215)" id="Shape">
                            <path d="M44.2006791,15.8149627 C44.1006909,8.14048444 37.9994484,1.94981663 30.478765,1.94981663 C25.4440636,1.94981663 21.0563448,4.73025515 18.6664301,8.86386641 C17.841037,8.58894226 16.9607485,8.43490675 16.04517,8.43490675 C12.0005481,8.43490675 8.62447494,11.3440332 7.7951608,15.2280679 C4.35438937,16.9146593 1.96055352,20.5042717 1.96055352,24.647632 C1.96055352,30.3956915 6.55413042,35.0966994 12.1711163,35.0966994 L33.2960805,35.0966994 C33.4156742,35.0966994 33.5293863,35.0830507 33.6489801,35.079151 C33.7666133,35.0830507 33.882286,35.0966994 34.0018797,35.0966994 L42.4518654,35.0966994 C47.6806616,35.0966994 51.9585894,30.719361 51.9585894,25.3690642 C51.9546683,20.6310098 48.5982007,16.6631329 44.2006791,15.8149627 Z" fill="#4085D4"></path>
                            <path d="M42.4479443,37.046516 L33.9979586,37.046516 C33.8744437,37.046516 33.7509289,37.0387167 33.6293746,37.0309175 C33.5372285,37.0387167 33.4176348,37.046516 33.2941199,37.046516 L12.1711163,37.046516 C5.46014156,37.046516 0,31.4836892 0,24.6495819 C0,20.2390966 2.37030921,16.1249835 6.10908477,13.9197409 C7.45402449,9.56190076 11.4927647,6.48509012 16.0412489,6.48509012 C16.6215728,6.48509012 17.2018966,6.53383553 17.7743782,6.63327618 C20.7073663,2.50746419 25.4479847,0 30.478765,0 C38.5209556,0 45.2299697,6.28815864 46.0730078,14.2960555 C50.695993,15.8676077 53.9152218,20.299541 53.9152218,25.3690642 C53.9152218,31.8073587 48.7707294,37.046516 42.4479443,37.046516 Z M33.552913,33.1293344 L33.9175759,33.1410333 L42.4479443,33.1468827 C46.6082389,33.1468827 49.9941148,29.656711 49.9941148,25.3690642 C49.9941148,21.6312657 47.4003025,18.4199177 43.8262134,17.7277328 L42.2597312,17.4255112 L42.2381651,15.8403103 C42.1538613,9.25577955 36.8799723,3.89963326 30.478765,3.89963326 C26.2929833,3.89963326 22.5130361,6.12047441 20.36623,9.83682491 L19.5643636,11.2231445 L18.0410135,10.7142424 C17.3901097,10.4958629 16.7176399,10.3847234 16.0432095,10.3847234 C13.023957,10.3847234 10.3615254,12.5938656 9.71258215,15.6336298 L9.51260569,16.5597927 L8.6597649,16.9770534 C5.77971178,18.3906705 3.92110704,21.4011873 3.92110704,24.6495819 C3.92110704,29.3349912 7.62263209,33.1468827 12.1711163,33.1468827 L33.552913,33.1293344 Z" fill="#B1D3EF"></path>
                        </g>
                    </g>
                </g>
            </g>
        </g>
    </g>
</svg>