<?xml version="1.0" encoding="UTF-8"?>
<svg width="115px" height="92px" viewBox="0 0 115 92" version="1.1" xmlns="http://www.w3.org/2000/svg" xmlns:xlink="http://www.w3.org/1999/xlink">
    <!-- Generator: Sketch 43.2 (39069) - http://www.bohemiancoding.com/sketch -->
    <title>noun_65758_cc</title>
    <desc>Created with Sketch.</desc>
    <defs></defs>
    <g id="Homepage---below-fold" stroke="none" stroke-width="1" fill="none" fill-rule="evenodd">
        <g id="Desktop" transform="translate(-543.000000, -2139.000000)">
            <g id="noun_65758_cc" transform="translate(543.000000, 2139.000000)">
                <g id="Group">
                    <ellipse id="Oval" cx="57.4861301" cy="73.3257047" rx="2.23274962" ry="2.22724437"></ellipse>
                    <g id="code"><path d="M4.8810493,4.75408699 L4.8810493,63.9039543 L71.4728671,63.9039543 L71.4728671,4.75408699 L4.8810493,4.75408699 Z M47.5621265,34.4357981 L47.5621265,36.199737 L18.8847194,36.199737 L18.8847194,34.4357981 L47.5621265,34.4357981 Z M37.1918149,33.2932193 L18.8847194,33.2932193 L18.8847194,31.5292804 L37.1918149,31.5292804 L37.1918149,33.2932193 L37.1918149,33.2932193 Z M12.6001219,10.6684705 L17.6425559,10.6684705 L17.6425559,12.4324094 L12.6001219,12.4324094 L12.6001219,10.6684705 L12.6001219,10.6684705 Z M12.6001219,13.6401405 L25.1681074,13.6401405 L25.1681074,15.4040794 L12.6001219,15.4040794 L12.6001219,13.6401405 Z M12.6001219,16.610604 L29.3578391,16.610604 L29.3578391,18.3745429 L12.6001219,18.3745429 L12.6001219,16.610604 Z M12.6001219,19.5810675 L25.1681074,19.5810675 L25.1681074,21.3450064 L12.6001219,21.3450064 L12.6001219,19.5810675 Z M12.6001219,22.5527375 L25.1681074,22.5527375 L25.1681074,24.3166765 L12.6001219,24.3166765 L12.6001219,22.5527375 Z M12.6001219,25.523201 L17.6425559,25.523201 L17.6425559,27.28714 L12.6001219,27.28714 L12.6001219,25.523201 L12.6001219,25.523201 Z M12.6001219,28.4948711 L21.0303846,28.4948711 L21.0303846,30.25881 L12.6001219,30.25881 L12.6001219,28.4948711 L12.6001219,28.4948711 Z M12.6001219,31.5292804 L17.6425559,31.5292804 L17.6425559,33.2932193 L12.6001219,33.2932193 L12.6001219,31.5292804 L12.6001219,31.5292804 Z M12.6001219,34.4357981 L17.6425559,34.4357981 L17.6425559,36.199737 L12.6001219,36.199737 L12.6001219,34.4357981 L12.6001219,34.4357981 Z M12.6001219,37.4074681 L17.6425559,37.4074681 L17.6425559,39.171407 L12.6001219,39.171407 L12.6001219,37.4074681 L12.6001219,37.4074681 Z M12.6001219,40.3779316 L52.7726819,40.3779316 L52.7726819,42.1418706 L12.6001219,42.1418706 L12.6001219,40.3779316 Z M12.6001219,43.3496017 L17.6425559,43.3496017 L17.6425559,45.1135406 L12.6001219,45.1135406 L12.6001219,43.3496017 L12.6001219,43.3496017 Z M11.3918246,56.9978077 L9.86300795,56.9978077 L9.86300795,55.2326622 L11.3918246,55.2326622 L11.3918246,56.9978077 Z M11.3918246,54.0261376 L9.86300795,54.0261376 L9.86300795,52.2621987 L11.3918246,52.2621987 L11.3918246,54.0261376 Z M11.3918246,51.0556741 L9.86300795,51.0556741 L9.86300795,49.2917352 L11.3918246,49.2917352 L11.3918246,51.0556741 Z M11.3918246,48.0852106 L9.86300795,48.0852106 L9.86300795,46.3200652 L11.3918246,46.3200652 L11.3918246,48.0852106 Z M11.3918246,45.1135406 L9.86300795,45.1135406 L9.86300795,43.3496017 L11.3918246,43.3496017 L11.3918246,45.1135406 Z M11.3918246,42.1418706 L9.86300795,42.1418706 L9.86300795,40.3779316 L11.3918246,40.3779316 L11.3918246,42.1418706 Z M11.3918246,39.171407 L9.86300795,39.171407 L9.86300795,37.4074681 L11.3918246,37.4074681 L11.3918246,39.171407 Z M11.3918246,36.199737 L9.86300795,36.199737 L9.86300795,34.4357981 L11.3918246,34.4357981 L11.3918246,36.199737 Z M11.3918246,33.2292735 L9.86300795,33.2292735 L9.86300795,31.4653346 L11.3918246,31.4653346 L11.3918246,33.2292735 Z M11.3918246,30.25881 L9.86300795,30.25881 L9.86300795,28.4948711 L11.3918246,28.4948711 L11.3918246,30.25881 Z M11.3918246,27.28714 L9.86300795,27.28714 L9.86300795,25.523201 L11.3918246,25.523201 L11.3918246,27.28714 Z M11.3918246,24.3166765 L9.86300795,24.3166765 L9.86300795,22.5527375 L11.3918246,22.5527375 L11.3918246,24.3166765 Z M11.3918246,21.3450064 L9.86300795,21.3450064 L9.86300795,19.5810675 L11.3918246,19.5810675 L11.3918246,21.3450064 Z M11.3918246,18.3745429 L9.86300795,18.3745429 L9.86300795,16.610604 L11.3918246,16.610604 L11.3918246,18.3745429 Z M11.3918246,15.4040794 L9.86300795,15.4040794 L9.86300795,13.6401405 L11.3918246,13.6401405 L11.3918246,15.4040794 Z M11.3918246,12.4324094 L9.86300795,12.4324094 L9.86300795,10.6684705 L11.3918246,10.6684705 L11.3918246,12.4324094 Z M21.0303846,56.9978077 L12.6001219,56.9978077 L12.6001219,55.2326622 L21.0303846,55.2326622 L21.0303846,56.9978077 Z M22.9111677,54.0261376 L12.6001219,54.0261376 L12.6001219,52.2621987 L22.9111677,52.2621987 L22.9111677,54.0261376 Z M33.223423,51.0556741 L12.6001219,51.0556741 L12.6001219,49.2917352 L33.223423,49.2917352 L33.223423,51.0556741 L33.223423,51.0556741 Z M37.1906054,48.0852106 L12.6001219,48.0852106 L12.6001219,46.3200652 L37.1906054,46.3200652 L37.1906054,48.0852106 Z M52.7738915,45.1135406 L18.8847194,45.1135406 L18.8847194,43.3496017 L52.7738915,43.3496017 L52.7738915,45.1135406 Z M59.0137372,39.171407 L18.8847194,39.171407 L18.8847194,37.4074681 L59.0137372,37.4074681 L59.0137372,39.171407 Z M65.2644685,39.171407 L60.220825,39.171407 L60.220825,37.4074681 L65.2644685,37.4074681 L65.2644685,39.171407 Z" id="Shape" fill="#E3E3E3"></path></g>
                    <polygon id="Shape" fill="#E3E3E3" points="89.5537848 57.5021349 89.5537848 39.8241368 75.6166375 39.8241368 75.6166375 57.5021349 75.6166375 57.504548 89.5537848 57.504548"></polygon>
                    <path d="M111.512381,0.149989213 L58.438012,0.149989213 L56.6297992,0.149989213 L3.55542981,0.149989213 C1.66497062,0.149989213 0.0357649144,1.58454693 0.0357649144,3.47034485 L0.0357649144,68.7360853 L0.0357649144,68.9629119 L0.0357649144,75.010013 L0.0357649144,75.3876552 C0.0357649144,77.2734532 1.66497062,78.8588264 3.55542981,78.8588264 L46.064757,78.8588264 C46.0151673,79.9398725 45.6765053,84.5970573 43.4582698,86.8496387 C41.7105324,88.6292625 39.2818427,90.2930599 40.2300961,91.1484858 C40.4599024,91.675737 41.549668,91.9785747 44.0279475,91.9785747 L57.5841001,91.9785747 L58.440431,91.9785747 L71.9953741,91.9785747 C74.818363,91.9785747 75.8041111,91.5164758 75.8137872,90.8299633 L75.7170266,90.8299633 L75.7170266,90.6019301 L75.6178471,90.6019301 C75.4920583,89.6729062 73.6088562,88.3022943 72.1828476,86.8556713 C69.9646121,84.60309 69.6283692,79.9483181 69.5787794,78.8672721 L111.517219,78.8672721 C113.407679,78.8672721 114.940124,77.2818988 114.940124,75.3936879 L114.940124,75.0160457 L114.940124,68.9689445 L114.940124,68.7421179 L114.940124,3.47155137 C114.937705,1.58334041 113.402841,0.149989213 111.512381,0.149989213 Z M57.4861301,75.5529491 C56.2512236,75.5529491 55.252171,74.5587729 55.252171,73.3257047 C55.252171,72.0950497 56.2512236,71.0984604 57.4861301,71.0984604 C58.7198271,71.0984604 59.7200892,72.0950497 59.7200892,73.3257047 C59.7200892,74.5575663 58.7186176,75.5529491 57.4861301,75.5529491 Z M110.09242,63.9039543 L71.4728671,63.9039543 L4.8810493,63.9039543 L4.8810493,4.75408699 L71.4728671,4.75408699 L110.09242,4.75408699 L110.09242,63.9039543 L110.09242,63.9039543 Z" id="Shape" fill="#9B9B9B"></path>
                    <rect id="Rectangle-path" fill="#E3E3E3" x="75.6166375" y="11.3706678" width="30.2945177" height="5.94213354"></rect>
                    <rect id="Rectangle-path" fill="#E3E3E3" x="75.6166375" y="19.7330896" width="13.9371473" height="17.6779981"></rect>
                    <rect id="Rectangle-path" fill="#E3E3E3" x="91.9727985" y="19.7330896" width="13.9371473" height="17.6779981"></rect>
                    <polygon id="Shape" fill="#E3E3E3" points="91.9727985 57.5021349 91.9727985 57.504548 105.911155 57.504548 105.911155 57.5021349 105.911155 39.8241368 91.9727985 39.8241368"></polygon>
                </g>
            </g>
        </g>
    </g>
</svg>
