<?xml version="1.0" encoding="UTF-8"?>
<svg width="131px" height="111px" viewBox="0 0 131 111" version="1.1" xmlns="http://www.w3.org/2000/svg" xmlns:xlink="http://www.w3.org/1999/xlink">
    <!-- Generator: Sketch 43.2 (39069) - http://www.bohemiancoding.com/sketch -->
    <title>editor</title>
    <desc>Created with Sketch.</desc>
    <defs></defs>
    <g id="Homepage---below-fold" stroke="none" stroke-width="1" fill="none" fill-rule="evenodd">
        <g id="Desktop" transform="translate(-1000.000000, -1592.000000)">
            <g id="Group-27" transform="translate(267.000000, 1484.000000)">
                <g id="editor" transform="translate(733.000000, 108.000000)">
                    <g id="Layer_1">
                        <path stroke="#8D8D8D" stroke-width="2px" stroke-miterlimit="10" d="M126.482803,0.184321101 L4.51719727,0.184321101 C2.0223125,0.184321101 0,2.19657798 0,4.67905734 L0,76.5956009 L131,76.5956009 L131,4.67905734 C131,2.19657798 128.977688,0.184321101 126.482803,0.184321101 Z M124.224076,69.8533693 L6.77592383,69.8533693 L6.77592383,6.92655275 L124.224076,6.92655275 L124.224076,69.8533693 Z" id="Shape" fill="#464655"></path>
                        <g id="Group" transform="translate(6.652344, 6.873853)" fill="#FFFFFF">
                            <path stroke="#8D8D8D" stroke-width="2px" stroke-miterlimit="10" d="M45.2955527,28.1451193 C45.9198496,28.1451193 46.424916,28.6476743 46.424916,29.268867 L49.81275,29.268867 L49.81275,25.8978784 L45.2955527,25.8978784 C44.6712559,25.8978784 44.1661895,25.3953234 44.1661895,24.7741307 C44.1661895,24.1529381 44.6712559,23.650383 45.2955527,23.650383 L49.81275,23.650383 L49.81275,9.04242661 L29.4852344,9.04242661 L29.4852344,29.268867 L44.1661895,29.268867 C44.1664453,28.6476743 44.6715117,28.1451193 45.2955527,28.1451193 Z" id="Shape"></path>
                            <path stroke="#8D8D8D" stroke-width="2px" stroke-miterlimit="10" d="M0.123580078,62.9795161 L117.571732,62.9795161 L117.571732,0.0526995413 L0.123580078,0.0526995413 L0.123580078,62.9795161 Z M49.8130059,57.3610321 L45.2958086,57.3610321 C44.6715117,57.3610321 44.1664453,56.8584771 44.1664453,56.2372844 C44.1664453,55.6160917 44.6715117,55.1135367 45.2958086,55.1135367 L49.8130059,55.1135367 C50.4373027,55.1135367 50.9423691,55.6160917 50.9423691,56.2372844 C50.9423691,56.8584771 50.4370469,57.3610321 49.8130059,57.3610321 Z M45.2955527,46.1240642 C45.9198496,46.1240642 46.424916,46.6266193 46.424916,47.2478119 L46.424916,51.7425482 C46.424916,52.3637408 45.9198496,52.8662959 45.2955527,52.8662959 C44.6712559,52.8662959 44.1661895,52.3637408 44.1661895,51.7425482 L44.1661895,47.2478119 C44.1664453,46.6266193 44.6715117,46.1240642 45.2955527,46.1240642 Z M44.1664453,42.7530757 L44.1664453,38.2583394 C44.1664453,37.6371468 44.6715117,37.1345917 45.2958086,37.1345917 C45.9201055,37.1345917 46.4251719,37.6371468 46.4251719,38.2583394 L46.4251719,42.7530757 C46.4251719,43.3742683 45.9201055,43.8768234 45.2958086,43.8768234 C44.6715117,43.8768234 44.1664453,43.3742683 44.1664453,42.7530757 Z M58.8474004,57.3610321 L54.3302031,57.3610321 C53.7059063,57.3610321 53.2008398,56.8584771 53.2008398,56.2372844 C53.2008398,55.6160917 53.7059063,55.1135367 54.3302031,55.1135367 L58.8474004,55.1135367 C59.4716973,55.1135367 59.9767637,55.6160917 59.9767637,56.2372844 C59.9767637,56.8584771 59.4716973,57.3610321 58.8474004,57.3610321 Z M78.0455527,51.7425482 C78.0455527,52.3637408 77.5404863,52.8662959 76.9161895,52.8662959 C76.2918926,52.8662959 75.7868262,52.3637408 75.7868262,51.7425482 L75.7868262,47.2478119 C75.7868262,46.6266193 76.2918926,46.1240642 76.9161895,46.1240642 C77.5404863,46.1240642 78.0455527,46.6266193 78.0455527,47.2478119 L78.0455527,51.7425482 Z M78.0455527,42.7530757 C78.0455527,43.3742683 77.5404863,43.8768234 76.9161895,43.8768234 C76.2918926,43.8768234 75.7868262,43.3742683 75.7868262,42.7530757 L75.7868262,38.2583394 C75.7868262,37.6371468 76.2918926,37.1345917 76.9161895,37.1345917 C77.5404863,37.1345917 78.0455527,37.6371468 78.0455527,38.2583394 L78.0455527,42.7530757 Z M78.0455527,33.7636032 C78.0455527,34.3847959 77.5404863,34.8873509 76.9161895,34.8873509 C76.2918926,34.8873509 75.7868262,34.3847959 75.7868262,33.7636032 L75.7868262,29.268867 C75.7868262,28.6476743 76.2918926,28.1451193 76.9161895,28.1451193 C77.5404863,28.1451193 78.0455527,28.6476743 78.0455527,29.268867 L78.0455527,33.7636032 Z M88.2098223,36.010844 L88.2098223,20.2791399 L88.2098223,6.79493119 C88.2098223,5.55381881 89.2212344,4.54743578 90.4685488,4.54743578 L110.796064,4.54743578 C112.043379,4.54743578 113.054791,5.55381881 113.054791,6.79493119 L113.054791,20.2793945 L113.054791,36.0110986 L113.054791,56.237539 C113.054791,57.4786514 112.043379,58.4850344 110.796064,58.4850344 L90.4685488,58.4850344 C89.2212344,58.4850344 88.2098223,57.4786514 88.2098223,56.237539 L88.2098223,36.010844 Z M72.3989922,23.650383 L76.9161895,23.650383 C77.5404863,23.650383 78.0455527,24.1529381 78.0455527,24.7741307 C78.0455527,25.3953234 77.5404863,25.8978784 76.9161895,25.8978784 L72.3989922,25.8978784 C71.7746953,25.8978784 71.2696289,25.3953234 71.2696289,24.7741307 C71.2698848,24.1529381 71.7749512,23.650383 72.3989922,23.650383 Z M72.3989922,55.1137913 L76.9161895,55.1137913 C77.5404863,55.1137913 78.0455527,55.6163463 78.0455527,56.237539 C78.0455527,56.8587317 77.5404863,57.3612867 76.9161895,57.3612867 L72.3989922,57.3612867 C71.7746953,57.3612867 71.2696289,56.8587317 71.2696289,56.237539 C71.2696289,55.6163463 71.7749512,55.1137913 72.3989922,55.1137913 Z M63.3645977,23.650383 L67.8817949,23.650383 C68.5060918,23.650383 69.0111582,24.1529381 69.0111582,24.7741307 C69.0111582,25.3953234 68.5060918,25.8978784 67.8817949,25.8978784 L63.3645977,25.8978784 C62.7403008,25.8978784 62.2352344,25.3953234 62.2352344,24.7741307 C62.2352344,24.1529381 62.7403008,23.650383 63.3645977,23.650383 Z M63.3645977,55.1137913 L67.8817949,55.1137913 C68.5060918,55.1137913 69.0111582,55.6163463 69.0111582,56.237539 C69.0111582,56.8587317 68.5060918,57.3612867 67.8817949,57.3612867 L63.3645977,57.3612867 C62.7403008,57.3612867 62.2352344,56.8587317 62.2352344,56.237539 C62.2352344,55.6163463 62.7403008,55.1137913 63.3645977,55.1137913 Z M24.9680371,6.79493119 C24.9680371,5.55280046 25.9794492,4.54743578 27.2267637,4.54743578 L52.0714766,4.54743578 C53.318791,4.54743578 54.3302031,5.55254587 54.3302031,6.79493119 L54.3302031,23.650383 L58.8474004,23.650383 C59.4716973,23.650383 59.9767637,24.1529381 59.9767637,24.7741307 C59.9767637,25.3953234 59.4716973,25.8978784 58.8474004,25.8978784 L54.3302031,25.8978784 L54.3302031,31.5163624 C54.3302031,31.7600023 54.2900332,31.9942225 54.2181367,32.2136766 L60.1451191,37.4973784 C60.6361133,37.9350138 60.5081836,38.7313624 59.9046113,38.9953693 L57.6586777,39.9762936 L59.6646152,44.5224564 C59.9151016,45.090695 59.6546367,45.7536399 59.0843262,46.0036445 C58.9366953,46.0672913 58.7821563,46.0980963 58.6311992,46.0980963 C58.1954707,46.0980963 57.782002,45.8478372 57.5957363,45.4264954 L55.589543,40.8798234 L53.3428418,41.8610023 C52.7392695,42.1247546 52.0632891,41.6792271 52.0719883,41.0234106 L52.1669121,33.7590206 C52.1349297,33.7605482 52.1037148,33.7638578 52.0714766,33.7638578 L46.424916,33.7638578 C46.424916,34.3850505 45.9198496,34.8876055 45.2955527,34.8876055 C44.6712559,34.8876055 44.1661895,34.3850505 44.1661895,33.7638578 L27.2265078,33.7638578 C25.9791934,33.7638578 24.9677813,32.7587477 24.9677813,31.5163624 L24.9677813,6.79493119 L24.9680371,6.79493119 Z M4.64077734,6.79493119 C4.64077734,5.55381881 5.65218945,4.54743578 6.89950391,4.54743578 L13.6754277,4.54743578 C14.9227422,4.54743578 15.9341543,5.55381881 15.9341543,6.79493119 L15.9341543,56.237539 C15.9341543,57.4786514 14.9227422,58.4850344 13.6754277,58.4850344 L6.89950391,58.4850344 C5.65218945,58.4850344 4.64077734,57.4786514 4.64077734,56.237539 L4.64077734,6.79493119 L4.64077734,6.79493119 Z" id="Shape"></path>
                        </g>
                        <path stroke="#8D8D8D" stroke-width="2px" stroke-miterlimit="10" d="M0,85.5850734 C0,88.0675528 2.0223125,90.0798096 4.51719727,90.0798096 L47.4309551,90.0798096 L83.5687891,90.0798096 L126.482547,90.0798096 C128.977432,90.0798096 130.999744,88.0675528 130.999744,85.5850734 L130.999744,76.5956009 L0,76.5956009 L0,85.5850734 Z M65.5,79.9665894 C67.3710996,79.9665894 68.887834,81.4760367 68.887834,83.337578 C68.887834,85.1991193 67.3708438,86.7085665 65.5,86.7085665 C63.6289004,86.7085665 62.112166,85.1991193 62.112166,83.337578 C62.112166,81.4760367 63.6289004,79.9665894 65.5,79.9665894 Z" id="Shape" fill="#BEC8DC"></path>
                        <polygon id="Shape" fill="#AFBBD0" points="45.4546973 105.811768 85.5453027 105.811768 84.1337266 94.5748005 46.8662734 94.5748005"></polygon>
                        <path stroke="#8D8D8D" stroke-width="2px" stroke-miterlimit="10" d="M45.1724844,105.811768 C43.9251699,105.811768 42.9137578,106.818151 42.9137578,108.059264 C42.9137578,109.300376 43.9251699,110.306759 45.1724844,110.306759 L85.8277715,110.306759 C87.0750859,110.306759 88.086498,109.300376 88.086498,108.059264 C88.086498,106.818151 87.0750859,105.811768 85.8277715,105.811768 L85.5455586,105.811768 L45.4549531,105.811768 L45.1724844,105.811768 Z" id="Shape" fill="#BEC8DC"></path>
                        <g id="Group" transform="translate(46.822266, 79.940367)" fill="#96A5B9">
                            <polygon id="Shape" points="0.0440078125 14.6344335 37.3114609 14.6344335 36.7467793 10.1396972 0.608689453 10.1396972"></polygon>
                            <ellipse id="Oval" cx="18.6777344" cy="3.3974656" rx="3.38783398" ry="3.37098853"></ellipse>
                        </g>
                        <path stroke="#8D8D8D" stroke-width="2px" stroke-miterlimit="10" d="M13.5518477,65.358633 L20.3277715,65.358633 C21.5750859,65.358633 22.586498,64.35225 22.586498,63.1111376 L22.586498,13.6687844 C22.586498,12.427672 21.5750859,11.421289 20.3277715,11.421289 L13.5518477,11.421289 C12.3045332,11.421289 11.2931211,12.427672 11.2931211,13.6687844 L11.2931211,63.1113922 C11.2931211,64.3525046 12.3042773,65.358633 13.5518477,65.358633 Z M15.8103184,15.9160252 L18.0690449,15.9160252 C19.3163594,15.9160252 20.3277715,16.9224083 20.3277715,18.1635206 C20.3277715,19.404633 19.3163594,20.4110161 18.0690449,20.4110161 L15.8103184,20.4110161 C14.5630039,20.4110161 13.5515918,19.404633 13.5515918,18.1635206 C13.5518477,16.9224083 14.5630039,15.9160252 15.8103184,15.9160252 Z M15.8103184,22.6582569 L18.0690449,22.6582569 C19.3163594,22.6582569 20.3277715,23.6646399 20.3277715,24.9057523 C20.3277715,26.1468647 19.3163594,27.1532477 18.0690449,27.1532477 L15.8103184,27.1532477 C14.5630039,27.1532477 13.5515918,26.1468647 13.5515918,24.9057523 C13.5518477,23.6646399 14.5630039,22.6582569 15.8103184,22.6582569 Z M15.8103184,29.4004885 L18.0690449,29.4004885 C19.3163594,29.4004885 20.3277715,30.4068716 20.3277715,31.6479839 C20.3277715,32.8890963 19.3163594,33.8954794 18.0690449,33.8954794 L15.8103184,33.8954794 C14.5630039,33.8954794 13.5515918,32.8890963 13.5515918,31.6479839 C13.5515918,30.4068716 14.5630039,29.4004885 15.8103184,29.4004885 Z M15.8103184,36.1427202 L18.0690449,36.1427202 C19.3163594,36.1427202 20.3277715,37.1491032 20.3277715,38.3902156 C20.3277715,39.631328 19.3163594,40.637711 18.0690449,40.637711 L15.8103184,40.637711 C14.5630039,40.637711 13.5515918,39.631328 13.5515918,38.3902156 C13.5515918,37.1491032 14.5630039,36.1427202 15.8103184,36.1427202 Z M15.8103184,42.8846972 L18.0690449,42.8846972 C19.3163594,42.8846972 20.3277715,43.8910803 20.3277715,45.1321927 C20.3277715,46.373305 19.3163594,47.3796881 18.0690449,47.3796881 L15.8103184,47.3796881 C14.5630039,47.3796881 13.5515918,46.373305 13.5515918,45.1321927 C13.5515918,43.8910803 14.5630039,42.8846972 15.8103184,42.8846972 Z M13.5518477,54.1216651 C13.5518477,52.8805528 14.5632598,51.8741697 15.8105742,51.8741697 L18.0693008,51.8741697 C19.3166152,51.8741697 20.3280273,52.8805528 20.3280273,54.1216651 L20.3280273,58.6164014 C20.3280273,59.8575138 19.3166152,60.8638968 18.0693008,60.8638968 L15.8105742,60.8638968 C14.5632598,60.8638968 13.5518477,59.8575138 13.5518477,58.6164014 L13.5518477,54.1216651 L13.5518477,54.1216651 Z" id="Shape" fill="#BEC8DC"></path>
                        <path stroke="#8D8D8D" stroke-width="2px" stroke-miterlimit="10" d="M15.8103184,20.4107615 L18.0690449,20.4107615 C19.3163594,20.4107615 20.3277715,19.4043784 20.3277715,18.1632661 C20.3277715,16.9221537 19.3163594,15.9157706 18.0690449,15.9157706 L15.8103184,15.9157706 C14.5630039,15.9157706 13.5515918,16.9221537 13.5515918,18.1632661 C13.5518477,19.404633 14.5630039,20.4107615 15.8103184,20.4107615 Z" id="Shape" fill="#E4EAF6"></path>
                        <path stroke="#8D8D8D" stroke-width="2px" stroke-miterlimit="10" d="M15.8103184,27.1529931 L18.0690449,27.1529931 C19.3163594,27.1529931 20.3277715,26.1466101 20.3277715,24.9054977 C20.3277715,23.6643853 19.3163594,22.6580023 18.0690449,22.6580023 L15.8103184,22.6580023 C14.5630039,22.6580023 13.5515918,23.6643853 13.5515918,24.9054977 C13.5518477,26.1468647 14.5630039,27.1529931 15.8103184,27.1529931 Z" id="Shape" fill="#96A5B9"></path>
                        <g id="Group" transform="translate(13.304688, 29.277523)" fill="#E4EAF6">
                            <path stroke="#8D8D8D" stroke-width="2px" stroke-miterlimit="10" d="M2.50563086,4.61770183 L4.76435742,4.61770183 C6.01167187,4.61770183 7.02308398,3.61131881 7.02308398,2.37020642 C7.02308398,1.12909404 6.01167187,0.122711009 4.76435742,0.122711009 L2.50563086,0.122711009 C1.25831641,0.122711009 0.246904297,1.12909404 0.246904297,2.37020642 C0.246904297,3.61131881 1.25831641,4.61770183 2.50563086,4.61770183 Z" id="Shape"></path>
                            <path stroke="#8D8D8D" stroke-width="2px" stroke-miterlimit="10" d="M2.50563086,11.3599335 L4.76435742,11.3599335 C6.01167187,11.3599335 7.02308398,10.3535505 7.02308398,9.11243807 C7.02308398,7.87132569 6.01167187,6.86494266 4.76435742,6.86494266 L2.50563086,6.86494266 C1.25831641,6.86494266 0.246904297,7.87132569 0.246904297,9.11243807 C0.246904297,10.3535505 1.25831641,11.3599335 2.50563086,11.3599335 Z" id="Shape"></path>
                            <path stroke="#8D8D8D" stroke-width="2px" stroke-miterlimit="10" d="M2.50563086,18.1019106 L4.76435742,18.1019106 C6.01167187,18.1019106 7.02308398,17.0955275 7.02308398,15.8544151 C7.02308398,14.6133028 6.01167187,13.6069197 4.76435742,13.6069197 L2.50563086,13.6069197 C1.25831641,13.6069197 0.246904297,14.6133028 0.246904297,15.8544151 C0.246904297,17.0955275 1.25831641,18.1019106 2.50563086,18.1019106 Z" id="Shape"></path>
                        </g>
                        <path stroke="#8D8D8D" stroke-width="2px" stroke-miterlimit="10" d="M15.8103184,60.8638968 L18.0690449,60.8638968 C19.3163594,60.8638968 20.3277715,59.8575138 20.3277715,58.6164014 L20.3277715,54.1216651 C20.3277715,52.8805528 19.3163594,51.8741697 18.0690449,51.8741697 L15.8103184,51.8741697 C14.5630039,51.8741697 13.5515918,52.8805528 13.5515918,54.1216651 L13.5515918,58.6164014 C13.5518477,59.8575138 14.562748,60.8638968 15.8103184,60.8638968 Z" id="Shape" fill="#96A5B9"></path>
                        <g id="Group" transform="translate(94.667969, 11.201835)" fill="#BEC8DC">
                            <path stroke="#8D8D8D" stroke-width="2px" stroke-miterlimit="10" d="M25.0389102,2.46694954 C25.0389102,1.22583716 24.027498,0.219454128 22.7801836,0.219454128 L2.45266797,0.219454128 C1.20535352,0.219454128 0.193941406,1.22583716 0.193941406,2.46694954 L0.193941406,15.9514128 L25.0386543,15.9514128 L25.0386543,2.46694954 L25.0389102,2.46694954 Z M21.6510762,13.7039174 L12.6166816,13.7039174 L10.3579551,13.7039174 L3.58203125,13.7039174 C2.95824609,13.7039174 2.45266797,13.2008532 2.45266797,12.5801697 C2.45266797,11.9594862 2.95824609,11.456422 3.58203125,11.456422 L10.3579551,11.456422 L12.6166816,11.456422 L21.6510762,11.456422 C22.2748613,11.456422 22.7804395,11.9594862 22.7804395,12.5801697 C22.7804395,13.2008532 22.2746055,13.7039174 21.6510762,13.7039174 Z M21.6510762,9.20892661 L19.3923496,9.20892661 L17.133623,9.20892661 L3.58203125,9.20892661 C2.95824609,9.20892661 2.45266797,8.70586239 2.45266797,8.0851789 C2.45266797,7.46449541 2.95824609,6.96143119 3.58203125,6.96143119 L17.1338789,6.96143119 L19.3926055,6.96143119 L21.651332,6.96143119 C22.2751172,6.96143119 22.7806953,7.46449541 22.7806953,8.0851789 C22.7806953,8.70586239 22.2746055,9.20892661 21.6510762,9.20892661 Z M21.6510762,4.71419037 L8.09922852,4.71419037 L5.84050195,4.71419037 L3.58203125,4.71419037 C2.95824609,4.71419037 2.45266797,4.21112615 2.45266797,3.59044266 C2.45266797,2.96975917 2.95824609,2.46669495 3.58203125,2.46669495 L5.84075781,2.46669495 L8.09948438,2.46669495 L21.651332,2.46669495 C22.2751172,2.46669495 22.7806953,2.96975917 22.7806953,3.59044266 C22.7806953,4.21112615 22.2746055,4.71419037 21.6510762,4.71419037 Z" id="Shape"></path>
                            <path stroke="#8D8D8D" stroke-width="2px" stroke-miterlimit="10" d="M2.45266797,54.1567982 L22.7801836,54.1567982 C24.027498,54.1567982 25.0389102,53.1504151 25.0389102,51.9093028 L25.0389102,31.6828624 L0.194197266,31.6828624 L0.194197266,51.9093028 C0.194197266,53.1506697 1.20535352,54.1567982 2.45266797,54.1567982 Z M12.6164258,33.9303578 L21.6508203,33.9303578 C22.2746055,33.9303578 22.7801836,34.433422 22.7801836,35.0541055 C22.7801836,35.674789 22.2746055,36.1778532 21.6508203,36.1778532 L12.6164258,36.1778532 C11.9926406,36.1778532 11.4870625,35.674789 11.4870625,35.0541055 C11.4870625,34.433422 11.9928965,33.9303578 12.6164258,33.9303578 Z M12.6164258,38.425094 L21.6508203,38.425094 C22.2746055,38.425094 22.7801836,38.9281583 22.7801836,39.5488417 C22.7801836,40.1695252 22.2746055,40.6725894 21.6508203,40.6725894 L12.6164258,40.6725894 C11.9926406,40.6725894 11.4870625,40.1695252 11.4870625,39.5488417 C11.4873184,38.9281583 11.9928965,38.425094 12.6164258,38.425094 Z M12.6164258,42.9198303 L21.6508203,42.9198303 C22.2746055,42.9198303 22.7801836,43.4228945 22.7801836,44.043578 C22.7801836,44.6642615 22.2746055,45.1673257 21.6508203,45.1673257 L12.6164258,45.1673257 C11.9926406,45.1673257 11.4870625,44.6642615 11.4870625,44.043578 C11.4873184,43.4228945 11.9928965,42.9198303 12.6164258,42.9198303 Z M12.6164258,47.4145665 L21.6508203,47.4145665 C22.2746055,47.4145665 22.7801836,47.9176307 22.7801836,48.5383142 C22.7801836,49.1589977 22.2746055,49.6620619 21.6508203,49.6620619 L12.6164258,49.6620619 C11.9926406,49.6620619 11.4870625,49.1589977 11.4870625,48.5383142 C11.4873184,47.9178853 11.9928965,47.4145665 12.6164258,47.4145665 Z M8.09922852,33.9303578 L8.09922852,33.9303578 C8.72301367,33.9303578 9.2285918,34.433422 9.2285918,35.0541055 C9.2285918,35.674789 8.72301367,36.1778532 8.09922852,36.1778532 L8.09922852,36.1778532 C7.47544336,36.1778532 6.96986523,35.674789 6.96986523,35.0541055 C6.96986523,34.433422 7.47569922,33.9303578 8.09922852,33.9303578 Z M8.09922852,38.425094 L8.09922852,38.425094 C8.72301367,38.425094 9.2285918,38.9281583 9.2285918,39.5488417 C9.2285918,40.1695252 8.72301367,40.6725894 8.09922852,40.6725894 L8.09922852,40.6725894 C7.47544336,40.6725894 6.96986523,40.1695252 6.96986523,39.5488417 C6.96986523,38.9281583 7.47569922,38.425094 8.09922852,38.425094 Z M8.09922852,42.9198303 L8.09922852,42.9198303 C8.72301367,42.9198303 9.2285918,43.4228945 9.2285918,44.043578 C9.2285918,44.6642615 8.72301367,45.1673257 8.09922852,45.1673257 L8.09922852,45.1673257 C7.47544336,45.1673257 6.96986523,44.6642615 6.96986523,44.043578 C6.96986523,43.4228945 7.47569922,42.9198303 8.09922852,42.9198303 Z M8.09922852,47.4145665 L8.09922852,47.4145665 C8.72301367,47.4145665 9.2285918,47.9176307 9.2285918,48.5383142 C9.2285918,49.1589977 8.72301367,49.6620619 8.09922852,49.6620619 L8.09922852,49.6620619 C7.47544336,49.6620619 6.96986523,49.1589977 6.96986523,48.5383142 C6.96986523,47.9178853 7.47569922,47.4145665 8.09922852,47.4145665 Z M3.58203125,33.9303578 L3.58203125,33.9303578 C4.20581641,33.9303578 4.71139453,34.433422 4.71139453,35.0541055 C4.71139453,35.674789 4.20581641,36.1778532 3.58203125,36.1778532 L3.58203125,36.1778532 C2.95824609,36.1778532 2.45266797,35.674789 2.45266797,35.0541055 C2.45266797,34.433422 2.95824609,33.9303578 3.58203125,33.9303578 Z M3.58203125,38.425094 L3.58203125,38.425094 C4.20581641,38.425094 4.71139453,38.9281583 4.71139453,39.5488417 C4.71139453,40.1695252 4.20581641,40.6725894 3.58203125,40.6725894 L3.58203125,40.6725894 C2.95824609,40.6725894 2.45266797,40.1695252 2.45266797,39.5488417 C2.45266797,38.9281583 2.95824609,38.425094 3.58203125,38.425094 Z M3.58203125,42.9198303 L3.58203125,42.9198303 C4.20581641,42.9198303 4.71139453,43.4228945 4.71139453,44.043578 C4.71139453,44.6642615 4.20581641,45.1673257 3.58203125,45.1673257 L3.58203125,45.1673257 C2.95824609,45.1673257 2.45266797,44.6642615 2.45266797,44.043578 C2.45266797,43.4228945 2.95824609,42.9198303 3.58203125,42.9198303 Z M3.58203125,47.4145665 L3.58203125,47.4145665 C4.20581641,47.4145665 4.71139453,47.9176307 4.71139453,48.5383142 C4.71139453,49.1589977 4.20581641,49.6620619 3.58203125,49.6620619 L3.58203125,49.6620619 C2.95824609,49.6620619 2.45266797,49.1589977 2.45266797,48.5383142 C2.45266797,47.9178853 2.95824609,47.4145665 3.58203125,47.4145665 Z" id="Shape"></path>
                        </g>
                        <g id="Group" transform="translate(94.667969, 13.493119)" fill="#96A5B9">
                            <path stroke="#8D8D8D" stroke-width="2px" stroke-miterlimit="10" d="M25.0389102,13.6598739 L0.194197266,13.6598739 L0.194197266,29.391578 L25.0389102,29.391578 L25.0389102,13.6598739 Z M5.84075781,27.1443372 L3.58203125,27.1443372 C2.95824609,27.1443372 2.45266797,26.6412729 2.45266797,26.0205894 C2.45266797,25.399906 2.95824609,24.8968417 3.58203125,24.8968417 L5.84075781,24.8968417 C6.46454297,24.8968417 6.97012109,25.399906 6.97012109,26.0205894 C6.97012109,26.6412729 6.46428711,27.1443372 5.84075781,27.1443372 Z M5.84075781,22.6496009 L3.58203125,22.6496009 C2.95824609,22.6496009 2.45266797,22.1465367 2.45266797,21.5258532 C2.45266797,20.9051697 2.95824609,20.4021055 3.58203125,20.4021055 L5.84075781,20.4021055 C6.46454297,20.4021055 6.97012109,20.9051697 6.97012109,21.5258532 C6.97012109,22.1465367 6.46428711,22.6496009 5.84075781,22.6496009 Z M5.84075781,18.1546101 L3.58203125,18.1546101 C2.95824609,18.1546101 2.45266797,17.6515459 2.45266797,17.0308624 C2.45266797,16.4101789 2.95824609,15.9071147 3.58203125,15.9071147 L5.84075781,15.9071147 C6.46454297,15.9071147 6.97012109,16.4101789 6.97012109,17.0308624 C6.97012109,17.6515459 6.46428711,18.1546101 5.84075781,18.1546101 Z M21.6510762,27.1443372 L10.3579551,27.1443372 C9.73416992,27.1443372 9.2285918,26.6412729 9.2285918,26.0205894 C9.2285918,25.399906 9.73416992,24.8968417 10.3579551,24.8968417 L21.6510762,24.8968417 C22.2748613,24.8968417 22.7804395,25.399906 22.7804395,26.0205894 C22.7804395,26.6412729 22.2746055,27.1443372 21.6510762,27.1443372 Z M21.6510762,22.6496009 L10.3579551,22.6496009 C9.73416992,22.6496009 9.2285918,22.1465367 9.2285918,21.5258532 C9.2285918,20.9051697 9.73416992,20.4021055 10.3579551,20.4021055 L21.6510762,20.4021055 C22.2748613,20.4021055 22.7804395,20.9051697 22.7804395,21.5258532 C22.7804395,22.1465367 22.2746055,22.6496009 21.6510762,22.6496009 Z M21.6510762,18.1546101 L10.3579551,18.1546101 C9.73416992,18.1546101 9.2285918,17.6515459 9.2285918,17.0308624 C9.2285918,16.4101789 9.73416992,15.9071147 10.3579551,15.9071147 L21.6510762,15.9071147 C22.2748613,15.9071147 22.7804395,16.4101789 22.7804395,17.0308624 C22.7804395,17.6515459 22.2746055,18.1546101 21.6510762,18.1546101 Z" id="Shape"></path>
                            <path stroke="#8D8D8D" stroke-width="2px" stroke-miterlimit="10" d="M21.6510762,0.175665138 L8.09922852,0.175665138 C8.72301367,0.175665138 9.2285918,0.678729358 9.2285918,1.29941284 C9.2285918,1.92009633 8.72301367,2.42316055 8.09922852,2.42316055 L21.6510762,2.42316055 C22.2748613,2.42316055 22.7804395,1.92009633 22.7804395,1.29941284 C22.7804395,0.678729358 22.2746055,0.175665138 21.6510762,0.175665138 Z" id="Shape"></path>
                            <path stroke="#8D8D8D" stroke-width="2px" stroke-miterlimit="10" d="M4.71139453,1.29915826 C4.71139453,0.678474771 5.21697266,0.17541055 5.84075781,0.17541055 L3.58203125,0.17541055 C2.95824609,0.17541055 2.45266797,0.678474771 2.45266797,1.29915826 C2.45266797,1.91984174 2.95824609,2.42290596 3.58203125,2.42290596 L5.84075781,2.42290596 C5.21697266,2.42290596 4.71139453,1.91984174 4.71139453,1.29915826 Z" id="Shape"></path>
                            <path stroke="#8D8D8D" stroke-width="2px" stroke-miterlimit="10" d="M21.6510762,9.16513761 L12.6166816,9.16513761 C13.2404668,9.16513761 13.7460449,9.66820183 13.7460449,10.2888853 C13.7460449,10.9095688 13.2404668,11.412633 12.6166816,11.412633 L21.6510762,11.412633 C22.2748613,11.412633 22.7804395,10.9095688 22.7804395,10.2888853 C22.7804395,9.66820183 22.2746055,9.16513761 21.6510762,9.16513761 Z" id="Shape"></path>
                            <path stroke="#8D8D8D" stroke-width="2px" stroke-miterlimit="10" d="M9.2285918,10.2888853 C9.2285918,9.66820183 9.73416992,9.16513761 10.3579551,9.16513761 L3.58203125,9.16513761 C2.95824609,9.16513761 2.45266797,9.66820183 2.45266797,10.2888853 C2.45266797,10.9095688 2.95824609,11.412633 3.58203125,11.412633 L10.3579551,11.412633 C9.73416992,11.412633 9.2285918,10.9093142 9.2285918,10.2888853 Z" id="Shape"></path>
                        </g>
                        <path stroke="#8D8D8D" stroke-width="2px" stroke-miterlimit="10" d="M116.319045,29.4004885 L105.025924,29.4004885 C104.402139,29.4004885 103.896561,29.9035528 103.896561,30.5242362 C103.896561,31.1449197 104.402139,31.6479839 105.025924,31.6479839 L116.319045,31.6479839 C116.94283,31.6479839 117.448408,31.1449197 117.448408,30.5242362 C117.448408,29.9035528 116.942574,29.4004885 116.319045,29.4004885 Z" id="Shape" fill="#BEC8DC"></path>
                        <g id="Group" transform="translate(96.970703, 18.075688)" fill="#96A5B9">
                            <path stroke="#8D8D8D" stroke-width="2px" stroke-miterlimit="10" d="M13.7017812,1.21158028 C13.7017812,0.590896789 14.2073594,0.0878325688 14.8311445,0.0878325688 L1.27929687,0.0878325688 C0.655511719,0.0878325688 0.149933594,0.590896789 0.149933594,1.21158028 C0.149933594,1.83226376 0.655511719,2.33532798 1.27929687,2.33532798 L14.8311445,2.33532798 C14.2073594,2.33507339 13.7017812,1.83200917 13.7017812,1.21158028 Z" id="Shape"></path>
                            <path stroke="#8D8D8D" stroke-width="2px" stroke-miterlimit="10" d="M19.3483418,0.0878325688 L17.0896152,0.0878325688 C17.7134004,0.0878325688 18.2189785,0.590896789 18.2189785,1.21158028 C18.2189785,1.83226376 17.7134004,2.33532798 17.0896152,2.33532798 L19.3483418,2.33532798 C19.972127,2.33532798 20.4777051,1.83226376 20.4777051,1.21158028 C20.4777051,0.590896789 19.9718711,0.0878325688 19.3483418,0.0878325688 Z" id="Shape"></path>
                        </g>
                        <g id="Group" transform="translate(96.970703, 13.493119)" fill="#E4EAF6">
                            <path stroke="#8D8D8D" stroke-width="2px" stroke-miterlimit="10" d="M6.92585742,1.29915826 C6.92585742,0.678474771 6.4202793,0.17541055 5.79649414,0.17541055 L3.53776758,0.17541055 C2.91398242,0.17541055 2.4084043,0.678474771 2.4084043,1.29915826 C2.4084043,1.91984174 2.91398242,2.42290596 3.53776758,2.42290596 L5.79649414,2.42290596 C6.4202793,2.42290596 6.92585742,1.91984174 6.92585742,1.29915826 Z" id="Shape"></path>
                            <path stroke="#8D8D8D" stroke-width="2px" stroke-miterlimit="10" d="M11.4430547,10.2888853 C11.4430547,9.66820183 10.9374766,9.16513761 10.3136914,9.16513761 L8.05496484,9.16513761 C7.43117969,9.16513761 6.92560156,9.66820183 6.92560156,10.2888853 C6.92560156,10.9095688 7.43117969,11.412633 8.05496484,11.412633 L10.3136914,11.412633 C10.9374766,11.412633 11.4430547,10.9093142 11.4430547,10.2888853 Z" id="Shape"></path>
                            <path stroke="#8D8D8D" stroke-width="2px" stroke-miterlimit="10" d="M3.53802344,15.9073693 L1.27929687,15.9073693 C0.655511719,15.9073693 0.149933594,16.4104335 0.149933594,17.031117 C0.149933594,17.6518005 0.655511719,18.1548647 1.27929687,18.1548647 L3.53802344,18.1548647 C4.16180859,18.1548647 4.66738672,17.6518005 4.66738672,17.031117 C4.66738672,16.4104335 4.16155273,15.9073693 3.53802344,15.9073693 Z" id="Shape"></path>
                        </g>
                        <path stroke="#8D8D8D" stroke-width="2px" stroke-miterlimit="10" d="M116.319045,33.8952248 L105.025924,33.8952248 C104.402139,33.8952248 103.896561,34.398289 103.896561,35.0189725 C103.896561,35.639656 104.402139,36.1427202 105.025924,36.1427202 L116.319045,36.1427202 C116.94283,36.1427202 117.448408,35.639656 117.448408,35.0189725 C117.448408,34.398289 116.942574,33.8952248 116.319045,33.8952248 Z" id="Shape" fill="#BEC8DC"></path>
                        <path stroke="#8D8D8D" stroke-width="2px" stroke-miterlimit="10" d="M100.508727,33.8952248 L98.25,33.8952248 C97.6262148,33.8952248 97.1206367,34.398289 97.1206367,35.0189725 C97.1206367,35.639656 97.6262148,36.1427202 98.25,36.1427202 L100.508727,36.1427202 C101.132512,36.1427202 101.63809,35.639656 101.63809,35.0189725 C101.63809,34.398289 101.132256,33.8952248 100.508727,33.8952248 Z" id="Shape" fill="#E4EAF6"></path>
                        <path stroke="#8D8D8D" stroke-width="2px" stroke-miterlimit="10" d="M116.319045,38.389961 L105.025924,38.389961 C104.402139,38.389961 103.896561,38.8930252 103.896561,39.5137087 C103.896561,40.1343922 104.402139,40.6374564 105.025924,40.6374564 L116.319045,40.6374564 C116.94283,40.6374564 117.448408,40.1343922 117.448408,39.5137087 C117.448408,38.8930252 116.942574,38.389961 116.319045,38.389961 Z" id="Shape" fill="#BEC8DC"></path>
                        <g id="Group" transform="translate(96.970703, 38.188073)" fill="#E4EAF6">
                            <path stroke="#8D8D8D" stroke-width="2px" stroke-miterlimit="10" d="M3.53802344,0.201887615 L1.27929687,0.201887615 C0.655511719,0.201887615 0.149933594,0.704951835 0.149933594,1.32563532 C0.149933594,1.94631881 0.655511719,2.44938303 1.27929687,2.44938303 L3.53802344,2.44938303 C4.16180859,2.44938303 4.66738672,1.94631881 4.66738672,1.32563532 C4.66738672,0.704951835 4.16155273,0.201887615 3.53802344,0.201887615 Z" id="Shape"></path>
                            <path stroke="#8D8D8D" stroke-width="2px" stroke-miterlimit="10" d="M1.27929687,13.6863509 L1.27929687,13.6863509 C1.90308203,13.6863509 2.40866016,13.1832867 2.40866016,12.5626032 C2.40866016,11.9419197 1.90308203,11.4388555 1.27929687,11.4388555 L1.27929687,11.4388555 C0.655511719,11.4388555 0.149933594,11.9419197 0.149933594,12.5626032 C0.149933594,13.1830321 0.655511719,13.6863509 1.27929687,13.6863509 Z" id="Shape"></path>
                            <path stroke="#8D8D8D" stroke-width="2px" stroke-miterlimit="10" d="M1.27929687,9.19136009 L1.27929687,9.19136009 C1.90308203,9.19136009 2.40866016,8.68829587 2.40866016,8.06761239 C2.40866016,7.4469289 1.90308203,6.94386468 1.27929687,6.94386468 L1.27929687,6.94386468 C0.655511719,6.94386468 0.149933594,7.4469289 0.149933594,8.06761239 C0.149933594,8.68829587 0.655511719,9.19136009 1.27929687,9.19136009 Z" id="Shape"></path>
                            <path stroke="#8D8D8D" stroke-width="2px" stroke-miterlimit="10" d="M1.27929687,22.6758234 L1.27929687,22.6758234 C1.90308203,22.6758234 2.40866016,22.1727592 2.40866016,21.5520757 C2.40866016,20.9313922 1.90308203,20.428328 1.27929687,20.428328 L1.27929687,20.428328 C0.655511719,20.428328 0.149933594,20.9313922 0.149933594,21.5520757 C0.149933594,22.1727592 0.655511719,22.6758234 1.27929687,22.6758234 Z" id="Shape"></path>
                            <path stroke="#8D8D8D" stroke-width="2px" stroke-miterlimit="10" d="M1.27929687,18.1810872 L1.27929687,18.1810872 C1.90308203,18.1810872 2.40866016,17.6780229 2.40866016,17.0573394 C2.40866016,16.436656 1.90308203,15.9335917 1.27929687,15.9335917 L1.27929687,15.9335917 C0.655511719,15.9335917 0.149933594,16.436656 0.149933594,17.0573394 C0.149933594,17.6780229 0.655511719,18.1810872 1.27929687,18.1810872 Z" id="Shape"></path>
                        </g>
                        <g id="Group" transform="translate(101.576172, 45.061927)" fill="#96A5B9">
                            <path stroke="#8D8D8D" stroke-width="2px" stroke-miterlimit="10" d="M1.19102539,6.81249771 L1.19102539,6.81249771 C1.81481055,6.81249771 2.32038867,6.30943349 2.32038867,5.68875 C2.32038867,5.06806651 1.81481055,4.56500229 1.19102539,4.56500229 L1.19102539,4.56500229 C0.567240234,4.56500229 0.0616621094,5.06806651 0.0616621094,5.68875 C0.0616621094,6.3091789 0.567496094,6.81249771 1.19102539,6.81249771 Z" id="Shape"></path>
                            <path stroke="#8D8D8D" stroke-width="2px" stroke-miterlimit="10" d="M1.19102539,2.31750688 L1.19102539,2.31750688 C1.81481055,2.31750688 2.32038867,1.81444266 2.32038867,1.19375917 C2.32038867,0.573075688 1.81481055,0.0700114679 1.19102539,0.0700114679 L1.19102539,0.0700114679 C0.567240234,0.0700114679 0.0616621094,0.573075688 0.0616621094,1.19375917 C0.0616621094,1.81444266 0.567496094,2.31750688 1.19102539,2.31750688 Z" id="Shape"></path>
                            <path stroke="#8D8D8D" stroke-width="2px" stroke-miterlimit="10" d="M1.19102539,15.8019702 L1.19102539,15.8019702 C1.81481055,15.8019702 2.32038867,15.298906 2.32038867,14.6782225 C2.32038867,14.057539 1.81481055,13.5544748 1.19102539,13.5544748 L1.19102539,13.5544748 C0.567240234,13.5544748 0.0616621094,14.057539 0.0616621094,14.6782225 C0.0616621094,15.298906 0.567496094,15.8019702 1.19102539,15.8019702 Z" id="Shape"></path>
                            <path stroke="#8D8D8D" stroke-width="2px" stroke-miterlimit="10" d="M1.19102539,11.3072339 L1.19102539,11.3072339 C1.81481055,11.3072339 2.32038867,10.8041697 2.32038867,10.1834862 C2.32038867,9.56280275 1.81481055,9.05973853 1.19102539,9.05973853 L1.19102539,9.05973853 C0.567240234,9.05973853 0.0616621094,9.56280275 0.0616621094,10.1834862 C0.0616621094,10.8041697 0.567496094,11.3072339 1.19102539,11.3072339 Z" id="Shape"></path>
                            <path stroke="#8D8D8D" stroke-width="2px" stroke-miterlimit="10" d="M5.70822266,6.81249771 L14.7426172,6.81249771 C15.3664023,6.81249771 15.8719805,6.30943349 15.8719805,5.68875 C15.8719805,5.06806651 15.3664023,4.56500229 14.7426172,4.56500229 L5.70822266,4.56500229 C5.0844375,4.56500229 4.57885938,5.06806651 4.57885938,5.68875 C4.57911523,6.3091789 5.08469336,6.81249771 5.70822266,6.81249771 Z" id="Shape"></path>
                            <path stroke="#8D8D8D" stroke-width="2px" stroke-miterlimit="10" d="M5.70822266,2.31750688 L14.7426172,2.31750688 C15.3664023,2.31750688 15.8719805,1.81444266 15.8719805,1.19375917 C15.8719805,0.573075688 15.3664023,0.0700114679 14.7426172,0.0700114679 L5.70822266,0.0700114679 C5.0844375,0.0700114679 4.57885938,0.573075688 4.57885938,1.19375917 C4.57885938,1.81444266 5.08469336,2.31750688 5.70822266,2.31750688 Z" id="Shape"></path>
                            <path stroke="#8D8D8D" stroke-width="2px" stroke-miterlimit="10" d="M5.70822266,15.8019702 L14.7426172,15.8019702 C15.3664023,15.8019702 15.8719805,15.298906 15.8719805,14.6782225 C15.8719805,14.057539 15.3664023,13.5544748 14.7426172,13.5544748 L5.70822266,13.5544748 C5.0844375,13.5544748 4.57885938,14.057539 4.57885938,14.6782225 C4.57911523,15.298906 5.08469336,15.8019702 5.70822266,15.8019702 Z" id="Shape"></path>
                            <path stroke="#8D8D8D" stroke-width="2px" stroke-miterlimit="10" d="M5.70822266,11.3072339 L14.7426172,11.3072339 C15.3664023,11.3072339 15.8719805,10.8041697 15.8719805,10.1834862 C15.8719805,9.56280275 15.3664023,9.05973853 14.7426172,9.05973853 L5.70822266,9.05973853 C5.0844375,9.05973853 4.57885938,9.56280275 4.57885938,10.1834862 C4.57911523,10.8041697 5.08469336,11.3072339 5.70822266,11.3072339 Z" id="Shape"></path>
                        </g>
                        <path stroke="#8D8D8D" stroke-width="2px" stroke-miterlimit="10" d="M115.189682,19.2872683 C115.189682,18.6665849 114.684104,18.1635206 114.060318,18.1635206 L111.801592,18.1635206 C111.177807,18.1635206 110.672229,18.6665849 110.672229,19.2872683 C110.672229,19.9079518 111.177807,20.4110161 111.801592,20.4110161 L114.060318,20.4110161 C114.684104,20.4107615 115.189682,19.9076972 115.189682,19.2872683 Z" id="Shape" fill="#E4EAF6"></path>
                        <path stroke="#8D8D8D" stroke-width="2px" stroke-miterlimit="10" d="M33.8791074,40.6374564 L50.8187891,40.6374564 L50.8187891,36.1427202 L36.1375781,36.1427202 L36.1375781,15.9162798 L56.4650938,15.9162798 L56.4650938,30.5242362 C57.0893906,30.5242362 57.594457,31.0267913 57.594457,31.6479839 C57.594457,32.2691766 57.0893906,32.7717317 56.4650938,32.7717317 L56.4650938,36.1427202 L53.0772598,36.1427202 L53.0772598,40.6374564 L58.7238203,40.6374564 C58.7560586,40.6374564 58.7872734,40.6341468 58.8192559,40.6326193 L58.837166,39.2820344 C58.8474004,38.5075803 59.76875,38.1053326 60.3485273,38.6218899 L60.8707363,39.0872752 C60.9426328,38.8675665 60.9828027,38.6336009 60.9828027,38.389961 L60.9828027,32.7714771 C60.3585059,32.7714771 59.8534395,32.268922 59.8534395,31.6477294 C59.8534395,31.0265367 60.3585059,30.5239817 60.9828027,30.5239817 L60.9828027,13.6687844 C60.9828027,12.4266537 59.9713906,11.421289 58.7240762,11.421289 L33.8793633,11.421289 C32.6320488,11.421289 31.6206367,12.4263991 31.6206367,13.6687844 L31.6206367,38.389961 C31.6203809,39.6323463 32.631793,40.6374564 33.8791074,40.6374564 Z" id="Shape" fill="#FF6469"></path>
                        <g id="Group" transform="translate(50.660156, 30.295872)" fill="#96A5B9">
                            <path stroke="#8D8D8D" stroke-width="2px" stroke-miterlimit="10" d="M1.28774023,20.454805 C1.91203711,20.454805 2.41710352,19.95225 2.41710352,19.3310573 L2.41710352,14.8363211 C2.41710352,14.2151284 1.91203711,13.7125734 1.28774023,13.7125734 C0.663443359,13.7125734 0.158376953,14.2151284 0.158376953,14.8363211 L0.158376953,19.3310573 C0.158632812,19.95225 0.663699219,20.454805 1.28774023,20.454805 Z" id="Shape"></path>
                            <path stroke="#8D8D8D" stroke-width="2px" stroke-miterlimit="10" d="M28.3911797,33.9390138 L32.908377,33.9390138 C33.5326738,33.9390138 34.0377402,33.4364587 34.0377402,32.8152661 C34.0377402,32.1940734 33.5326738,31.6915183 32.908377,31.6915183 L28.3911797,31.6915183 C27.7668828,31.6915183 27.2618164,32.1940734 27.2618164,32.8152661 C27.2618164,33.4364587 27.7671387,33.9390138 28.3911797,33.9390138 Z" id="Shape"></path>
                            <path stroke="#8D8D8D" stroke-width="2px" stroke-miterlimit="10" d="M32.9086328,22.7020459 C32.2843359,22.7020459 31.7792695,23.2046009 31.7792695,23.8257936 L31.7792695,28.3205298 C31.7792695,28.9417225 32.2843359,29.4442775 32.9086328,29.4442775 C33.5329297,29.4442775 34.0379961,28.9417225 34.0379961,28.3205298 L34.0379961,23.8257936 C34.0377402,23.2046009 33.5326738,22.7020459 32.9086328,22.7020459 Z" id="Shape"></path>
                            <path stroke="#8D8D8D" stroke-width="2px" stroke-miterlimit="10" d="M28.3911797,2.4756055 L32.908377,2.4756055 C33.5326738,2.4756055 34.0377402,1.97305046 34.0377402,1.3518578 C34.0377402,0.730665138 33.5326738,0.228110092 32.908377,0.228110092 L28.3911797,0.228110092 C27.7668828,0.228110092 27.2618164,0.730665138 27.2618164,1.3518578 C27.2620723,1.97305046 27.7671387,2.4756055 28.3911797,2.4756055 Z" id="Shape"></path>
                            <path stroke="#8D8D8D" stroke-width="2px" stroke-miterlimit="10" d="M32.9086328,4.72310092 C32.2843359,4.72310092 31.7792695,5.22565596 31.7792695,5.84684862 L31.7792695,10.3415849 C31.7792695,10.9627775 32.2843359,11.4653326 32.9086328,11.4653326 C33.5329297,11.4653326 34.0379961,10.9627775 34.0379961,10.3415849 L34.0379961,5.84684862 C34.0377402,5.22565596 33.5326738,4.72310092 32.9086328,4.72310092 Z" id="Shape"></path>
                            <path stroke="#8D8D8D" stroke-width="2px" stroke-miterlimit="10" d="M14.8395879,31.6917729 L10.3223906,31.6917729 C9.69809375,31.6917729 9.19302734,32.194328 9.19302734,32.8155206 C9.19302734,33.4367133 9.69809375,33.9392683 10.3223906,33.9392683 L14.8395879,33.9392683 C15.4638848,33.9392683 15.9689512,33.4367133 15.9689512,32.8155206 C15.9689512,32.194328 15.4638848,31.6917729 14.8395879,31.6917729 Z" id="Shape"></path>
                            <path stroke="#8D8D8D" stroke-width="2px" stroke-miterlimit="10" d="M1.28774023,4.72310092 C0.663443359,4.72310092 0.158376953,5.22565596 0.158376953,5.84684862 L0.158376953,10.3415849 C0.158376953,10.9627775 0.663443359,11.4653326 1.28774023,11.4653326 C1.91203711,11.4653326 2.41710352,10.9627775 2.41710352,10.3415849 L2.41710352,5.84684862 C2.41710352,5.22565596 1.91203711,4.72310092 1.28774023,4.72310092 Z" id="Shape"></path>
                            <path stroke="#8D8D8D" stroke-width="2px" stroke-miterlimit="10" d="M5.80519336,31.6917729 L1.28799609,31.6917729 C0.663699219,31.6917729 0.158632812,32.194328 0.158632812,32.8155206 C0.158632812,33.4367133 0.663699219,33.9392683 1.28799609,33.9392683 L5.80519336,33.9392683 C6.42949023,33.9392683 6.93455664,33.4367133 6.93455664,32.8155206 C6.93455664,32.194328 6.42923437,31.6917729 5.80519336,31.6917729 Z" id="Shape"></path>
                            <path stroke="#8D8D8D" stroke-width="2px" stroke-miterlimit="10" d="M0.158632812,28.3205298 C0.158632812,28.9417225 0.663699219,29.4442775 1.28799609,29.4442775 C1.91229297,29.4442775 2.41735937,28.9417225 2.41735937,28.3205298 L2.41735937,23.8257936 C2.41735937,23.2046009 1.91229297,22.7020459 1.28799609,22.7020459 C0.663699219,22.7020459 0.158632812,23.2046009 0.158632812,23.8257936 L0.158632812,28.3205298 Z" id="Shape"></path>
                            <path stroke="#8D8D8D" stroke-width="2px" stroke-miterlimit="10" d="M32.9086328,13.7125734 C32.2843359,13.7125734 31.7792695,14.2151284 31.7792695,14.8363211 L31.7792695,19.3310573 C31.7792695,19.95225 32.2843359,20.454805 32.9086328,20.454805 C33.5329297,20.454805 34.0379961,19.95225 34.0379961,19.3310573 L34.0379961,14.8363211 C34.0377402,14.2151284 33.5326738,13.7125734 32.9086328,13.7125734 Z" id="Shape"></path>
                            <path stroke="#8D8D8D" stroke-width="2px" stroke-miterlimit="10" d="M19.3567852,2.4756055 L23.8739824,2.4756055 C24.4982793,2.4756055 25.0033457,1.97305046 25.0033457,1.3518578 C25.0033457,0.730665138 24.4982793,0.228110092 23.8739824,0.228110092 L19.3567852,0.228110092 C18.7324883,0.228110092 18.2274219,0.730665138 18.2274219,1.3518578 C18.2274219,1.97305046 18.7324883,2.4756055 19.3567852,2.4756055 Z" id="Shape"></path>
                            <path stroke="#8D8D8D" stroke-width="2px" stroke-miterlimit="10" d="M0.158632812,1.3518578 C0.158632812,1.97305046 0.663699219,2.4756055 1.28799609,2.4756055 L5.80519336,2.4756055 C6.42949023,2.4756055 6.93455664,1.97305046 6.93455664,1.3518578 C6.93455664,0.730665138 6.42949023,0.228110092 5.80519336,0.228110092 L1.28799609,0.228110092 C0.663699219,0.228364679 0.158632812,0.730919725 0.158632812,1.3518578 Z" id="Shape"></path>
                            <path stroke="#8D8D8D" stroke-width="2px" stroke-miterlimit="10" d="M19.3567852,33.9390138 L23.8739824,33.9390138 C24.4982793,33.9390138 25.0033457,33.4364587 25.0033457,32.8152661 C25.0033457,32.1940734 24.4982793,31.6915183 23.8739824,31.6915183 L19.3567852,31.6915183 C18.7324883,31.6915183 18.2274219,32.1940734 18.2274219,32.8152661 C18.2274219,33.4364587 18.7324883,33.9390138 19.3567852,33.9390138 Z" id="Shape"></path>
                            <path stroke="#8D8D8D" stroke-width="2px" stroke-miterlimit="10" d="M9.19302734,1.3518578 C9.19302734,1.97305046 9.69809375,2.4756055 10.3223906,2.4756055 L14.8395879,2.4756055 C15.4638848,2.4756055 15.9689512,1.97305046 15.9689512,1.3518578 C15.9689512,0.730665138 15.4638848,0.228110092 14.8395879,0.228110092 L10.3223906,0.228110092 C9.69809375,0.228364679 9.19302734,0.730919725 9.19302734,1.3518578 Z" id="Shape"></path>
                        </g>
                        <path stroke="#8D8D8D" stroke-width="2px" stroke-miterlimit="10" d="M58.8369102,39.2820344 L58.819,40.6326193 L58.7240762,47.8970092 C58.7156328,48.5530803 59.3911016,48.9986078 59.9949297,48.7346009 L62.2416309,47.753422 L64.2478242,52.300094 C64.4340898,52.7214358 64.8478145,52.971695 65.2832871,52.971695 C65.4342441,52.971695 65.5887832,52.9411445 65.7364141,52.8772431 C66.3067246,52.6269839 66.5666777,51.9642936 66.3167031,51.396055 L64.3107656,46.8498922 L66.5566992,45.8689679 C67.1602715,45.6052156 67.2882012,44.8091216 66.797207,44.3709771 L60.8702246,39.0872752 L60.3480156,38.6218899 C59.7684941,38.105078 58.8468887,38.5075803 58.8369102,39.2820344 Z" id="Shape" fill="#464655"></path>
                    </g>
                </g>
            </g>
        </g>
    </g>
</svg>
