<?xml version="1.0" encoding="UTF-8"?>
<svg width="157px" height="126px" viewBox="0 0 157 126" version="1.1" xmlns="http://www.w3.org/2000/svg" xmlns:xlink="http://www.w3.org/1999/xlink">
    <!-- Generator: Sketch 43.2 (39069) - http://www.bohemiancoding.com/sketch -->
    <title>Group 25</title>
    <desc>Created with Sketch.</desc>
    <defs></defs>
    <g id="Homepage---below-fold" stroke="none" stroke-width="1" fill="none" fill-rule="evenodd">
        <g id="Desktop" transform="translate(-298.000000, -1587.000000)">
            <g id="Group-27" transform="translate(267.000000, 1484.000000)">
                <g id="Group-25" transform="translate(31.000000, 103.000000)">
                    <g id="browser-(2)">
                        <g id="Layer_1">
                            <path stroke="#8D8D8D" stroke-width="2px" stroke-miterlimit="10" d="M139.167479,0.22765128 L7.59102637,0.22765128 C3.39866328,0.22765128 0,3.63151159 0,7.83028538 L0,104.12936 C0,108.328134 3.39866328,111.731994 7.59102637,111.731994 L139.167479,111.731994 C143.359842,111.731994 146.758505,108.328134 146.758505,104.12936 L146.758505,7.83028538 C146.758505,3.63151159 143.359842,0.22765128 139.167479,0.22765128 Z M126.515864,5.29597832 L129.046302,5.29597832 C130.443661,5.29597832 131.576739,6.43078981 131.576739,7.83028538 C131.576739,9.22978095 130.443661,10.3645924 129.046302,10.3645924 L126.515864,10.3645924 C125.118505,10.3645924 123.985426,9.22978095 123.985426,7.83028538 C123.985713,6.43078981 125.118505,5.29597832 126.515864,5.29597832 Z M55.667049,5.29597832 L116.394687,5.29597832 C117.792045,5.29597832 118.925124,6.43078981 118.925124,7.83028538 C118.925124,9.22978095 117.792045,10.3645924 116.394687,10.3645924 L55.667049,10.3645924 C54.2696901,10.3645924 53.1366113,9.22978095 53.1366113,7.83028538 C53.1366113,6.43078981 54.2696901,5.29597832 55.667049,5.29597832 Z M43.0154339,5.29597832 L45.5458716,5.29597832 C46.9432304,5.29597832 48.0763092,6.43078981 48.0763092,7.83028538 C48.0763092,9.22978095 46.9432304,10.3645924 45.5458716,10.3645924 L43.0154339,10.3645924 C41.6180751,10.3645924 40.4849962,9.22978095 40.4849962,7.83028538 C40.4849962,6.43078981 41.6180751,5.29597832 43.0154339,5.29597832 Z M32.8942565,5.29597832 L35.4246942,5.29597832 C36.822053,5.29597832 37.9551318,6.43078981 37.9551318,7.83028538 C37.9551318,9.22978095 36.822053,10.3645924 35.4246942,10.3645924 L32.8942565,10.3645924 C31.4968977,10.3645924 30.3638188,9.22978095 30.3638188,7.83028538 C30.3638188,6.43078981 31.4968977,5.29597832 32.8942565,5.29597832 Z M22.7727925,5.29597832 C24.1701513,5.29597832 25.3032301,6.43078981 25.3032301,7.83028538 C25.3032301,9.22978095 24.1701513,10.3645924 22.7727925,10.3645924 C21.3754336,10.3645924 20.2423548,9.22978095 20.2423548,7.83028538 C20.2426414,6.43078981 21.3754336,5.29597832 22.7727925,5.29597832 Z M15.1820527,5.29597832 C16.5794116,5.29597832 17.7124904,6.43078981 17.7124904,7.83028538 C17.7124904,9.22978095 16.5794116,10.3645924 15.1820527,10.3645924 C13.7846939,10.3645924 12.6516151,9.22978095 12.6516151,7.83028538 C12.6516151,6.43078981 13.7844073,5.29597832 15.1820527,5.29597832 Z M7.59102637,5.29597832 C8.98838518,5.29597832 10.121464,6.43078981 10.121464,7.83028538 C10.121464,9.22978095 8.98838518,10.3645924 7.59102637,10.3645924 C6.19366755,10.3645924 5.0605887,9.22978095 5.0605887,7.83028538 C5.0605887,6.43078981 6.19366755,5.29597832 7.59102637,5.29597832 Z M141.697917,30.6379006 L141.697917,104.12936 C141.697917,105.528856 140.564838,106.663667 139.167479,106.663667 L7.59102637,106.663667 C6.19366755,106.663667 5.0605887,105.528856 5.0605887,104.12936 L5.0605887,30.6379006 L5.0605887,17.9669395 C5.0605887,16.5674439 6.19366755,15.4326324 7.59102637,15.4326324 L139.167479,15.4326324 C140.564838,15.4326324 141.697917,16.5674439 141.697917,17.9669395 L141.697917,30.6379006 L141.697917,30.6379006 Z M139.167479,10.3643054 L136.637041,10.3643054 C135.239683,10.3643054 134.106604,9.22949387 134.106604,7.8299983 C134.106604,6.43050273 135.239683,5.29569124 136.637041,5.29569124 L139.167479,5.29569124 C140.564838,5.29569124 141.697917,6.43050273 141.697917,7.8299983 C141.697917,9.22978095 140.564838,10.3643054 139.167479,10.3643054 Z" id="Shape" fill="#D2DCF0"></path>
                            <path stroke="#8D8D8D" stroke-width="2px" stroke-miterlimit="10" d="M5.0605887,104.12936 C5.0605887,105.528856 6.19366755,106.663667 7.59102637,106.663667 L139.167479,106.663667 C140.564838,106.663667 141.697917,105.528856 141.697917,104.12936 L141.697917,30.6379006 L5.0605887,30.6379006 L5.0605887,104.12936 Z M103.743072,40.7745547 C103.743072,40.2497797 103.902442,39.7620376 104.175035,39.3575475 C104.311474,39.1551589 104.476004,38.9740139 104.663752,38.8187058 C104.851213,38.6636847 105.061318,38.5350747 105.288335,38.4391913 C105.515352,38.3430208 105.759281,38.2790029 106.014675,38.253166 C106.099807,38.2445538 106.186085,38.2399605 106.273509,38.2399605 L131.576739,38.2399605 C131.664164,38.2399605 131.750442,38.2442667 131.835573,38.253166 C132.090681,38.2790029 132.334609,38.3430208 132.561913,38.4391913 C132.78893,38.5350747 132.999036,38.6636847 133.186497,38.8187058 C133.24927,38.8703795 133.308891,38.9249239 133.366219,38.9823391 C133.480587,39.0968824 133.584063,39.2223347 133.675214,39.3572604 C133.948093,39.7614634 134.107177,40.2492056 134.107177,40.7742676 L134.107177,96.5264392 C134.107177,96.6139974 134.102877,96.7004072 134.094278,96.7856688 C134.068481,97.0414536 134.004561,97.2854682 133.908537,97.5131194 C133.652283,98.1197111 133.167579,98.6054437 132.5622,98.8615155 C132.335183,98.957686 132.091254,99.0217039 131.83586,99.0475407 C131.750442,99.0564401 131.664164,99.0607462 131.576739,99.0607462 L106.273509,99.0607462 C106.186085,99.0607462 106.099807,99.0564401 106.014675,99.0475407 C105.759281,99.0217039 105.515639,98.957686 105.288335,98.8615155 C104.682957,98.6048695 104.197679,98.119424 103.941998,97.5131194 C103.845974,97.2857552 103.782341,97.0414536 103.756257,96.7856688 C103.747371,96.7004072 103.743072,96.6139974 103.743072,96.5264392 L103.743072,40.7745547 L103.743072,40.7745547 Z M65.7882264,40.7745547 C65.7882264,40.2497797 65.9475969,39.7620376 66.2201894,39.3575475 C66.3566289,39.1551589 66.521159,38.9740139 66.7089067,38.8187058 C66.8963677,38.6636847 67.1064732,38.5350747 67.3334902,38.4391913 C67.5605073,38.3430208 67.804436,38.2790029 68.0598302,38.253166 C68.1449616,38.2445538 68.2312395,38.2399605 68.318664,38.2399605 L93.6218942,38.2399605 C93.7093187,38.2399605 93.7955966,38.2442667 93.880728,38.253166 C94.1358356,38.2790029 94.3797643,38.3430208 94.6067813,38.4391913 C94.8337984,38.5350747 95.0439038,38.6636847 95.2313649,38.8187058 C95.2941385,38.8703795 95.3537592,38.9249239 95.4110867,38.9823391 C95.5254552,39.0968824 95.6289314,39.2223347 95.7200822,39.3572604 C95.9929613,39.7614634 96.1520452,40.2492056 96.1520452,40.7742676 L96.1520452,96.5264392 C96.1520452,96.6139974 96.1477456,96.7004072 96.1391465,96.7856688 C96.1133491,97.0414536 96.0494289,97.2854682 95.9534053,97.5131194 C95.6971512,98.1197111 95.2124468,98.6054437 94.607068,98.8615155 C94.3800509,98.957686 94.1361222,99.0217039 93.880728,99.0475407 C93.79531,99.0564401 93.709032,99.0607462 93.6216075,99.0607462 L68.3183774,99.0607462 C68.2309529,99.0607462 68.1446749,99.0564401 68.0595435,99.0475407 C67.804436,99.0217039 67.5605073,98.957686 67.3332036,98.8615155 C66.7278248,98.6048695 66.2425471,98.119424 65.9868663,97.5131194 C65.8908427,97.2857552 65.8272091,97.0414536 65.8011251,96.7856688 C65.7922393,96.7004072 65.7879397,96.6139974 65.7879397,96.5264392 L65.7879397,40.7745547 L65.7882264,40.7745547 Z M12.6516151,40.7745547 C12.6516151,40.2497797 12.8109856,39.7620376 13.0835781,39.3575475 C13.2200176,39.1551589 13.3845477,38.9740139 13.5722954,38.8187058 C13.7597564,38.6636847 13.9698619,38.5350747 14.1968789,38.4391913 C14.423896,38.3430208 14.6678247,38.2790029 14.9232189,38.253166 C15.0083503,38.2445538 15.0946282,38.2402476 15.1820527,38.2402476 L55.667049,38.2402476 C55.7544735,38.2402476 55.8407514,38.2445538 55.9258828,38.2534531 C56.1809904,38.27929 56.4249191,38.3433079 56.6522228,38.4394784 C56.8792398,38.5353618 57.0893453,38.6639718 57.2768063,38.8189929 C57.3392933,38.8706665 57.3992006,38.925211 57.4565282,38.9826262 C57.5708966,39.0971695 57.6743728,39.2226217 57.7655236,39.3575475 C58.0384027,39.7617505 58.1974866,40.2494926 58.1974866,40.7745547 L58.1974866,96.5267263 C58.1974866,96.6142844 58.1931871,96.7006943 58.1845879,96.7859559 C58.1587905,97.0414536 58.0948703,97.2857552 57.9988467,97.5134065 C57.7425926,98.1199981 57.2578882,98.6057308 56.6525094,98.8618026 C56.4254923,98.957973 56.1815636,99.021991 55.9261694,99.0478278 C55.8407514,99.0564401 55.7544735,99.0607462 55.667049,99.0607462 L15.1820527,99.0607462 C15.0946282,99.0607462 15.0083503,99.0564401 14.9232189,99.0475407 C14.6681113,99.0217039 14.4241826,98.957686 14.1968789,98.8615155 C13.5915001,98.6048695 13.1062225,98.119424 12.8505416,97.5131194 C12.754518,97.2857552 12.6908844,97.0414536 12.6648004,96.7856688 C12.6559146,96.7004072 12.6516151,96.6139974 12.6516151,96.5264392 L12.6516151,40.7745547 Z" id="Shape" fill="#FFFFFF"></path>
                            <ellipse id="Oval" fill="#FF6469" cx="7.59102637" cy="7.83028538" rx="2.53043767" ry="2.53430706"></ellipse>
                            <ellipse id="Oval" fill="#FFE169" cx="15.1820527" cy="7.83028538" rx="2.53043767" ry="2.53430706"></ellipse>
                            <ellipse id="Oval" fill="#87E1AA" cx="22.7727925" cy="7.83028538" rx="2.53043767" ry="2.53430706"></ellipse>
                            <g id="Group" transform="translate(30.096959, 5.167368)" fill="#E4EAF6">
                                <path stroke="#8D8D8D" stroke-width="2px" stroke-miterlimit="10" d="M2.79729737,5.19693709 L5.32773504,5.19693709 C6.72509386,5.19693709 7.85817271,4.06212561 7.85817271,2.66263004 C7.85817271,1.26313446 6.72509386,0.128322979 5.32773504,0.128322979 L2.79729737,0.128322979 C1.39993856,0.128322979 0.266859704,1.26313446 0.266859704,2.66263004 C0.266859704,4.06241268 1.39993856,5.19693709 2.79729737,5.19693709 Z" id="Shape"></path>
                                <path stroke="#8D8D8D" stroke-width="2px" stroke-miterlimit="10" d="M12.9184748,5.19693709 L15.4489124,5.19693709 C16.8462713,5.19693709 17.9793501,4.06212561 17.9793501,2.66263004 C17.9793501,1.26313446 16.8462713,0.128322979 15.4489124,0.128322979 L12.9184748,0.128322979 C11.521116,0.128322979 10.3880371,1.26313446 10.3880371,2.66263004 C10.3880371,4.06241268 11.521116,5.19693709 12.9184748,5.19693709 Z" id="Shape"></path>
                                <path stroke="#8D8D8D" stroke-width="2px" stroke-miterlimit="10" d="M96.4189049,5.19693709 L98.9493426,5.19693709 C100.346701,5.19693709 101.47978,4.06212561 101.47978,2.66263004 C101.47978,1.26313446 100.346701,0.128322979 98.9493426,0.128322979 L96.4189049,0.128322979 C95.0215461,0.128322979 93.8884672,1.26313446 93.8884672,2.66263004 C93.8887539,4.06241268 95.0215461,5.19693709 96.4189049,5.19693709 Z" id="Shape"></path>
                                <path stroke="#8D8D8D" stroke-width="2px" stroke-miterlimit="10" d="M109.07052,0.128610055 L106.540082,0.128610055 C105.142723,0.128610055 104.009645,1.26342154 104.009645,2.66291711 C104.009645,4.06241268 105.142723,5.19722417 106.540082,5.19722417 L109.07052,5.19722417 C110.467879,5.19722417 111.600958,4.06241268 111.600958,2.66291711 C111.600958,1.26342154 110.467879,0.128610055 109.07052,0.128610055 Z" id="Shape"></path>
                                <path stroke="#8D8D8D" stroke-width="2px" stroke-miterlimit="10" d="M25.5700898,5.19693709 L86.2977275,5.19693709 C87.6950863,5.19693709 88.8281652,4.06212561 88.8281652,2.66263004 C88.8281652,1.26313446 87.6950863,0.128322979 86.2977275,0.128322979 L25.5700898,0.128322979 C24.172731,0.128322979 23.0396522,1.26313446 23.0396522,2.66263004 C23.0396522,4.06241268 24.172731,5.19693709 25.5700898,5.19693709 Z" id="Shape"></path>
                            </g>
                            <path stroke="#8D8D8D" stroke-width="2px" stroke-miterlimit="10" d="M139.167479,15.4329195 L7.59102637,15.4329195 C6.19366755,15.4329195 5.0605887,16.567731 5.0605887,17.9672265 L5.0605887,30.6381877 L141.697917,30.6381877 L141.697917,17.9672265 C141.697917,16.5674439 140.564838,15.4329195 139.167479,15.4329195 Z M32.8942565,25.5695736 L12.6516151,25.5695736 C11.2542562,25.5695736 10.1211774,24.4347621 10.1211774,23.0352665 C10.1211774,21.6357709 11.2542562,20.5009594 12.6516151,20.5009594 L32.8942565,20.5009594 C34.2916153,20.5009594 35.4246942,21.6357709 35.4246942,23.0352665 C35.4246942,24.4347621 34.2916153,25.5695736 32.8942565,25.5695736 Z M53.1366113,25.5695736 L43.0154339,25.5695736 C41.6180751,25.5695736 40.4849962,24.4347621 40.4849962,23.0352665 C40.4849962,21.6357709 41.6180751,20.5009594 43.0154339,20.5009594 L53.1366113,20.5009594 C54.5339701,20.5009594 55.667049,21.6357709 55.667049,23.0352665 C55.667049,24.4347621 54.5339701,25.5695736 53.1366113,25.5695736 Z M73.3792527,25.5695736 L63.2580753,25.5695736 C61.8607165,25.5695736 60.7276377,24.4347621 60.7276377,23.0352665 C60.7276377,21.6357709 61.8607165,20.5009594 63.2580753,20.5009594 L73.3792527,20.5009594 C74.7766115,20.5009594 75.9096904,21.6357709 75.9096904,23.0352665 C75.9096904,24.4347621 74.7766115,25.5695736 73.3792527,25.5695736 Z M93.6218942,25.5695736 L83.5007168,25.5695736 C82.1033579,25.5695736 80.9702791,24.4347621 80.9702791,23.0352665 C80.9702791,21.6357709 82.1033579,20.5009594 83.5007168,20.5009594 L93.6218942,20.5009594 C95.019253,20.5009594 96.1523318,21.6357709 96.1523318,23.0352665 C96.1523318,24.4347621 95.019253,25.5695736 93.6218942,25.5695736 Z M113.864249,25.5695736 L103.743072,25.5695736 C102.345713,25.5695736 101.212634,24.4347621 101.212634,23.0352665 C101.212634,21.6357709 102.345713,20.5009594 103.743072,20.5009594 L113.864249,20.5009594 C115.261608,20.5009594 116.394687,21.6357709 116.394687,23.0352665 C116.394687,24.4347621 115.261608,25.5695736 113.864249,25.5695736 Z M134.10689,25.5695736 L123.985713,25.5695736 C122.588354,25.5695736 121.455275,24.4347621 121.455275,23.0352665 C121.455275,21.6357709 122.588354,20.5009594 123.985713,20.5009594 L134.10689,20.5009594 C135.504249,20.5009594 136.637328,21.6357709 136.637328,23.0352665 C136.637328,24.4347621 135.504249,25.5695736 134.10689,25.5695736 Z" id="Shape" fill="#AFBBD0"></path>
                            <path stroke="#8D8D8D" stroke-width="2px" stroke-miterlimit="10" d="M32.8942565,20.5012465 L12.6516151,20.5012465 C11.2542562,20.5012465 10.1211774,21.636058 10.1211774,23.0355536 C10.1211774,24.4350491 11.2542562,25.5698606 12.6516151,25.5698606 L32.8942565,25.5698606 C34.2916153,25.5698606 35.4246942,24.4350491 35.4246942,23.0355536 C35.4246942,21.636058 34.2916153,20.5012465 32.8942565,20.5012465 Z" id="Shape" fill="#FFFFFF"></path>
                            <g id="Group" transform="translate(40.415917, 20.382397)" fill="#D2DCF0">
                                <path stroke="#8D8D8D" stroke-width="2px" stroke-miterlimit="10" d="M12.7206948,0.11884947 L2.59951736,0.11884947 C1.20215854,0.11884947 0.0690796871,1.25366096 0.0690796871,2.65315653 C0.0690796871,4.0526521 1.20215854,5.18746359 2.59951736,5.18746359 L12.7206948,5.18746359 C14.1180536,5.18746359 15.2511324,4.0526521 15.2511324,2.65315653 C15.2511324,1.25366096 14.1180536,0.11884947 12.7206948,0.11884947 Z" id="Shape"></path>
                                <path stroke="#8D8D8D" stroke-width="2px" stroke-miterlimit="10" d="M32.9633362,0.11884947 L22.8421588,0.11884947 C21.4448,0.11884947 20.3117211,1.25366096 20.3117211,2.65315653 C20.3117211,4.0526521 21.4448,5.18746359 22.8421588,5.18746359 L32.9633362,5.18746359 C34.360695,5.18746359 35.4937739,4.0526521 35.4937739,2.65315653 C35.4937739,1.25366096 34.360695,0.11884947 32.9633362,0.11884947 Z" id="Shape"></path>
                                <path stroke="#8D8D8D" stroke-width="2px" stroke-miterlimit="10" d="M53.2059776,0.11884947 L43.0848002,0.11884947 C41.6874414,0.11884947 40.5543626,1.25366096 40.5543626,2.65315653 C40.5543626,4.0526521 41.6874414,5.18746359 43.0848002,5.18746359 L53.2059776,5.18746359 C54.6033364,5.18746359 55.7364153,4.0526521 55.7364153,2.65315653 C55.7364153,1.25366096 54.6033364,0.11884947 53.2059776,0.11884947 Z" id="Shape"></path>
                                <path stroke="#8D8D8D" stroke-width="2px" stroke-miterlimit="10" d="M73.4483324,0.11884947 L63.327155,0.11884947 C61.9297962,0.11884947 60.7967173,1.25366096 60.7967173,2.65315653 C60.7967173,4.0526521 61.9297962,5.18746359 63.327155,5.18746359 L73.4483324,5.18746359 C74.8456912,5.18746359 75.9787701,4.0526521 75.9787701,2.65315653 C75.9787701,1.25366096 74.8456912,0.11884947 73.4483324,0.11884947 Z" id="Shape"></path>
                                <path stroke="#8D8D8D" stroke-width="2px" stroke-miterlimit="10" d="M93.6909738,0.11884947 L83.5697965,0.11884947 C82.1724376,0.11884947 81.0393588,1.25366096 81.0393588,2.65315653 C81.0393588,4.0526521 82.1724376,5.18746359 83.5697965,5.18746359 L93.6909738,5.18746359 C95.0883327,5.18746359 96.2214115,4.0526521 96.2214115,2.65315653 C96.2214115,1.25366096 95.0883327,0.11884947 93.6909738,0.11884947 Z" id="Shape"></path>
                            </g>
                            <g id="Group" transform="translate(12.612059, 38.181110)" fill="#DEE3ED">
                                <polygon id="Shape" points="19.7094953 30.469674 5.1001447 9.83436304 5.1001447 51.1049851"></polygon>
                                <path stroke="#8D8D8D" stroke-width="2px" stroke-miterlimit="10" d="M44.8441825,0.801516233 C45.035434,0.959878485 45.2084711,1.13332286 45.3608971,1.31986486 C45.2084711,1.13411665 45.0359133,0.960275383 44.8441825,0.801516233 Z" id="Shape"></path>
                                <polygon id="Shape" points="22.8123485 26.0874587 37.6515825 5.12775177 7.97340107 5.12775177"></polygon>
                                <path stroke="#8D8D8D" stroke-width="2px" stroke-miterlimit="10" d="M43.3138237,0.0726302317 C43.5689313,0.119281608 43.81286,0.234873351 44.0401637,0.40852014 C43.81286,0.234873351 43.5689313,0.119281608 43.3138237,0.0726302317 Z" id="Shape"></path>
                                <path stroke="#8D8D8D" stroke-width="2px" stroke-miterlimit="10" d="M1.58481988,0.40852014 C1.81183694,0.234873351 2.05576563,0.119281608 2.31115982,0.0726302317 C2.05576563,0.119281608 1.81212358,0.234873351 1.58481988,0.40852014 Z" id="Shape"></path>
                                <path stroke="#8D8D8D" stroke-width="2px" stroke-miterlimit="10" d="M44.0398771,0.258655489 C44.2668941,0.389614975 44.4769996,0.565273208 44.6644606,0.777004113 C44.4769996,0.565273208 44.2668941,0.389614975 44.0398771,0.258655489 Z" id="Shape"></path>
                                <path stroke="#8D8D8D" stroke-width="2px" stroke-miterlimit="10" d="M44.0398771,60.6806926 C43.81286,60.8543394 43.5689313,60.9699311 43.3135371,61.0165825 C43.5689313,60.9699311 43.81286,60.8543394 44.0398771,60.6806926 Z" id="Shape"></path>
                                <polygon id="Shape" points="25.9152016 30.469674 40.5245522 51.1049851 40.5245522 9.83436304"></polygon>
                                <path stroke="#8D8D8D" stroke-width="2px" stroke-miterlimit="10" d="M44.0398771,60.6806926 C44.6452559,60.4240467 45.1305335,59.9386011 45.3862144,59.3322966 C45.1305335,59.9386011 44.6452559,60.4243337 44.0398771,60.6806926 Z" id="Shape"></path>
                                <path stroke="#8D8D8D" stroke-width="2px" stroke-miterlimit="10" d="M0.387572446,59.3322966 C0.21447303,59.1049324 0.0997623731,58.8606307 0.0527413379,58.6048459 C0.0992456584,58.8603436 0.21447303,59.1046453 0.387572446,59.3322966 Z" id="Shape"></path>
                                <path stroke="#8D8D8D" stroke-width="2px" stroke-miterlimit="10" d="M2.31115982,61.0165825 C2.05605226,60.9699311 1.81212358,60.8543394 1.58481988,60.6806926 C1.81212358,60.8543394 2.05576563,60.9699311 2.31115982,61.0165825 Z" id="Shape"></path>
                                <path stroke="#8D8D8D" stroke-width="2px" stroke-miterlimit="10" d="M45.7213321,58.6048459 C45.6748278,58.8606307 45.5596004,59.1046453 45.386501,59.3322966 C45.5596004,59.1046453 45.6748278,58.8603436 45.7213321,58.6048459 Z" id="Shape"></path>
                                <polygon id="Shape" points="37.6515825 55.8115963 22.8123485 34.8518894 7.97340107 55.8115963"></polygon>
                                <path stroke="#8D8D8D" stroke-width="2px" stroke-miterlimit="10" d="M0.988233699,0.638169981 C0.790033467,0.793191029 0.615774853,0.97462307 0.471519026,1.17701166 C0.616077911,0.97462307 0.790336525,0.792903953 0.988233699,0.638169981 Z" id="Shape"></path>
                                <path stroke="#8D8D8D" stroke-width="2px" stroke-miterlimit="10" d="M0.238482571,59.3322966 C0.494736681,59.9388882 0.979441041,60.4246208 1.58481988,60.6806926 C0.979441041,60.4243337 0.494450043,59.9386011 0.238482571,59.3322966 Z" id="Shape"></path>
                                <path stroke="#8D8D8D" stroke-width="2px" stroke-miterlimit="10" d="M0.960236315,0.777004113 C1.14769737,0.565273208 1.35780281,0.389614975 1.58481988,0.258655489 C1.35780281,0.389614975 1.14769737,0.565273208 0.960236315,0.777004113 Z" id="Shape"></path>
                            </g>
                            <path stroke="#8D8D8D" stroke-width="2px" stroke-miterlimit="10" d="M12.8505416,97.5134065 C13.1067957,98.1199981 13.5915001,98.6057308 14.1968789,98.8618026 C14.423896,98.957973 14.6678247,99.021991 14.9232189,99.0478278 C15.0083503,99.0567272 15.0946282,99.0610333 15.1820527,99.0610333 L55.667049,99.0610333 C55.7544735,99.0610333 55.8407514,99.0567272 55.9258828,99.0478278 C56.1809904,99.021991 56.4249191,98.957973 56.6522228,98.8618026 C57.2576016,98.6051566 57.7428792,98.1197111 57.9985601,97.5134065 C58.0945837,97.2860423 58.1582173,97.0417406 58.1843013,96.7859559 C58.1929004,96.7006943 58.1972,96.6142844 58.1972,96.5267263 L58.1972,40.7745547 C58.1972,40.2497797 58.0378294,39.7620376 57.765237,39.3575475 C57.6740862,39.2226217 57.57061,39.0971695 57.4562415,38.9826262 C57.398914,38.925211 57.3392933,38.8703795 57.2765197,38.8189929 C57.0890586,38.6639718 56.8789532,38.5353618 56.6519361,38.4394784 C56.4249191,38.3433079 56.1809904,38.27929 55.9255962,38.2534531 C55.8407514,38.2448408 55.7544735,38.2405347 55.667049,38.2405347 L15.1820527,38.2405347 C15.0946282,38.2405347 15.0083503,38.2448408 14.9232189,38.2537402 C14.6681113,38.279577 14.4241826,38.343595 14.1968789,38.4397654 C13.9698619,38.5356488 13.7597564,38.6642589 13.5722954,38.8192799 C13.3848343,38.974301 13.2200176,39.155733 13.0835781,39.3581216 C12.8109856,39.7623246 12.6516151,40.2497797 12.6516151,40.7748417 L12.6516151,96.5270133 C12.6516151,96.6145715 12.6559146,96.7009814 12.6645138,96.786243 C12.6905978,97.0414536 12.754518,97.2857552 12.8505416,97.5134065 Z M38.5272607,68.650784 L53.1366113,48.015473 L53.1366113,89.286095 L38.5272607,68.650784 Z M50.2636416,93.9927063 L20.5854601,93.9927063 L35.4244075,73.0329994 L50.2636416,93.9927063 Z M35.4244075,64.2685686 L20.5854601,43.3088617 L50.2639282,43.3088617 L35.4244075,64.2685686 Z M32.3215544,68.650784 L17.7122038,89.286095 L17.7122038,48.015473 L32.3215544,68.650784 Z" id="Shape" fill="#AFBBD0"></path>
                            <g id="Group" transform="translate(103.476212, 38.181110)" fill="#DEE3ED">
                                <path stroke="#8D8D8D" stroke-width="2px" stroke-miterlimit="10" d="M0.614876146,59.3322966 C0.441776731,59.1049324 0.327066074,58.8606307 0.280045039,58.6048459 C0.326549359,58.8603436 0.441776731,59.1046453 0.614876146,59.3322966 Z" id="Shape"></path>
                                <path stroke="#8D8D8D" stroke-width="2px" stroke-miterlimit="10" d="M0.465786272,59.3322966 C0.722040381,59.9388882 1.20674474,60.4246208 1.81212358,60.6806926 C1.20674474,60.4243337 0.721753744,59.9386011 0.465786272,59.3322966 Z" id="Shape"></path>
                                <polygon id="Shape" points="15.4489124 23.7759226 23.0660228 5.12775177 7.8315154 5.12775177"></polygon>
                                <polygon id="Shape" points="12.7143887 30.469674 5.3274484 12.3847464 5.3274484 48.5546017"></polygon>
                                <path stroke="#8D8D8D" stroke-width="2px" stroke-miterlimit="10" d="M1.18754002,0.777004113 C1.37500108,0.565273208 1.58510651,0.389614975 1.81212358,0.258655489 C1.58510651,0.389614975 1.37528771,0.565273208 1.18754002,0.777004113 Z" id="Shape"></path>
                                <path stroke="#8D8D8D" stroke-width="2px" stroke-miterlimit="10" d="M28.3590747,0.0726302317 C28.6141823,0.119281608 28.858111,0.234873351 29.0854147,0.40852014 C28.858111,0.234873351 28.6144689,0.119281608 28.3590747,0.0726302317 Z" id="Shape"></path>
                                <path stroke="#8D8D8D" stroke-width="2px" stroke-miterlimit="10" d="M1.81212358,0.40852014 C2.03914064,0.234873351 2.28306933,0.119281608 2.53846352,0.0726302317 C2.28335597,0.119281608 2.03942728,0.234873351 1.81212358,0.40852014 Z" id="Shape"></path>
                                <path stroke="#8D8D8D" stroke-width="2px" stroke-miterlimit="10" d="M2.53846352,61.0165825 C2.28306933,60.9699311 2.03942728,60.8543394 1.81212358,60.6806926 C2.03942728,60.8543394 2.28335597,60.9699311 2.53846352,61.0165825 Z" id="Shape"></path>
                                <path stroke="#8D8D8D" stroke-width="2px" stroke-miterlimit="10" d="M30.7668697,58.6048459 C30.7203654,58.8606307 30.605138,59.1046453 30.4320386,59.3322966 C30.6046213,59.1046453 30.7198487,58.8603436 30.7668697,58.6048459 Z" id="Shape"></path>
                                <polygon id="Shape" points="23.0660228 55.8115963 15.4489124 37.1634255 7.8315154 55.8115963"></polygon>
                                <path stroke="#8D8D8D" stroke-width="2px" stroke-miterlimit="10" d="M29.0854147,0.258655489 C29.3124317,0.389614975 29.5225372,0.565273208 29.7099982,0.777004113 C29.5225372,0.565273208 29.3124317,0.389614975 29.0854147,0.258655489 Z" id="Shape"></path>
                                <path stroke="#8D8D8D" stroke-width="2px" stroke-miterlimit="10" d="M1.2155374,0.638169981 C1.01733717,0.793191029 0.843078554,0.97462307 0.698822727,1.17701166 C0.843381612,0.97462307 1.01764023,0.792903953 1.2155374,0.638169981 Z" id="Shape"></path>
                                <path stroke="#8D8D8D" stroke-width="2px" stroke-miterlimit="10" d="M29.0854147,60.6806926 C29.6907935,60.4240467 30.1760711,59.9386011 30.431752,59.3322966 C30.1757845,59.9386011 29.6907935,60.4243337 29.0854147,60.6806926 Z" id="Shape"></path>
                                <path stroke="#8D8D8D" stroke-width="2px" stroke-miterlimit="10" d="M29.8897201,0.801516233 C30.0809716,0.959878485 30.2540087,1.13332286 30.4064347,1.31986486 C30.2540087,1.13411665 30.0809716,0.960275383 29.8897201,0.801516233 Z" id="Shape"></path>
                                <path stroke="#8D8D8D" stroke-width="2px" stroke-miterlimit="10" d="M29.0854147,60.6806926 C28.8583976,60.8543394 28.6144689,60.9699311 28.3590747,61.0165825 C28.6144689,60.9699311 28.858111,60.8543394 29.0854147,60.6806926 Z" id="Shape"></path>
                                <polygon id="Shape" points="18.1831495 30.469674 25.5700898 48.5546017 25.5700898 12.3847464"></polygon>
                            </g>
                            <path stroke="#8D8D8D" stroke-width="2px" stroke-miterlimit="10" d="M103.941998,97.5134065 C104.198252,98.1199981 104.682957,98.6057308 105.288335,98.8618026 C105.515352,98.957973 105.759281,99.021991 106.014675,99.0478278 C106.099807,99.0564401 106.186085,99.0610333 106.273509,99.0610333 L131.576739,99.0610333 C131.664164,99.0610333 131.750442,99.0567272 131.835573,99.0478278 C132.090681,99.021991 132.334609,98.957973 132.561913,98.8618026 C133.167292,98.6051566 133.65257,98.1197111 133.90825,97.5134065 C134.004274,97.2860423 134.067908,97.0417406 134.093992,96.7859559 C134.102591,96.7006943 134.10689,96.6142844 134.10689,96.5267263 L134.10689,40.7745547 C134.10689,40.2497797 133.94752,39.7620376 133.674927,39.3575475 C133.583777,39.2226217 133.4803,39.0971695 133.365932,38.9826262 C133.308604,38.925211 133.248984,38.8703795 133.18621,38.8189929 C132.998749,38.6639718 132.788644,38.5353618 132.561627,38.4394784 C132.334609,38.3433079 132.090681,38.27929 131.835287,38.2534531 C131.750442,38.2448408 131.664164,38.2405347 131.577026,38.2405347 L106.273796,38.2405347 C106.186371,38.2405347 106.100093,38.2448408 106.014962,38.2537402 C105.759568,38.279577 105.515926,38.343595 105.288622,38.4397654 C105.061605,38.5356488 104.8515,38.6642589 104.664039,38.8192799 C104.476577,38.974301 104.311761,39.155733 104.175321,39.3581216 C103.902729,39.7623246 103.743358,40.2497797 103.743358,40.7748417 L103.743358,96.5270133 C103.743358,96.6145715 103.747658,96.7009814 103.756257,96.786243 C103.782054,97.0414536 103.845974,97.2857552 103.941998,97.5134065 Z M121.659361,68.650784 L129.046302,50.5658563 L129.046302,86.7357117 L121.659361,68.650784 Z M126.542235,93.9927063 L111.308014,93.9927063 L118.924838,75.3445354 L126.542235,93.9927063 Z M118.925124,61.9570326 L111.308014,43.3088617 L126.542235,43.3088617 L118.925124,61.9570326 Z M116.190601,68.650784 L108.80366,86.7357117 L108.80366,50.5658563 L116.190601,68.650784 Z" id="Shape" fill="#AFBBD0"></path>
                            <g id="Group" transform="translate(65.640035, 38.181110)" fill="#DEE3ED">
                                <path stroke="#8D8D8D" stroke-width="2px" stroke-miterlimit="10" d="M28.2404067,0.0726302317 C28.4955143,0.119281608 28.739443,0.234873351 28.96646,0.40852014 C28.7397296,0.234873351 28.4958009,0.119281608 28.2404067,0.0726302317 Z" id="Shape"></path>
                                <path stroke="#8D8D8D" stroke-width="2px" stroke-miterlimit="10" d="M28.9667467,60.6806926 C28.7397296,60.8543394 28.4958009,60.9699311 28.2404067,61.0165825 C28.4958009,60.9699311 28.7397296,60.8543394 28.9667467,60.6806926 Z" id="Shape"></path>
                                <path stroke="#8D8D8D" stroke-width="2px" stroke-miterlimit="10" d="M2.41979551,61.0165825 C2.16468796,60.9699311 1.92075927,60.8543394 1.69345557,60.6806926 C1.92075927,60.8543394 2.16468796,60.9699311 2.41979551,61.0165825 Z" id="Shape"></path>
                                <path stroke="#8D8D8D" stroke-width="2px" stroke-miterlimit="10" d="M1.6937422,0.40852014 C1.92075927,0.234873351 2.16468796,0.119281608 2.42008215,0.0726302317 C2.16468796,0.119281608 1.92075927,0.234873351 1.6937422,0.40852014 Z" id="Shape"></path>
                                <path stroke="#8D8D8D" stroke-width="2px" stroke-miterlimit="10" d="M28.9667467,60.6806926 C29.5721255,60.4240467 30.0574031,59.9386011 30.313084,59.3322966 C30.0574031,59.9386011 29.5721255,60.4243337 28.9667467,60.6806926 Z" id="Shape"></path>
                                <path stroke="#8D8D8D" stroke-width="2px" stroke-miterlimit="10" d="M28.9667467,0.258655489 C29.1937637,0.389614975 29.4038692,0.565273208 29.5913302,0.777004113 C29.4038692,0.565273208 29.1937637,0.389614975 28.9667467,0.258655489 Z" id="Shape"></path>
                                <path stroke="#8D8D8D" stroke-width="2px" stroke-miterlimit="10" d="M0.496208136,59.3322966 C0.323108721,59.1049324 0.208398064,58.8606307 0.161377028,58.6048459 C0.207881349,58.8603436 0.323108721,59.1046453 0.496208136,59.3322966 Z" id="Shape"></path>
                                <path stroke="#8D8D8D" stroke-width="2px" stroke-miterlimit="10" d="M29.7710521,0.801516233 C29.9623036,0.959878485 30.1353407,1.13332286 30.2877667,1.31986486 C30.1353407,1.13411665 29.9623036,0.960275383 29.7710521,0.801516233 Z" id="Shape"></path>
                                <polygon id="Shape" points="22.9473548 55.8115963 15.3302444 37.1634255 7.71284739 55.8115963"></polygon>
                                <polygon id="Shape" points="18.0644815 30.469674 25.4514218 48.5546017 25.4514218 12.3847464"></polygon>
                                <path stroke="#8D8D8D" stroke-width="2px" stroke-miterlimit="10" d="M0.347118262,59.3322966 C0.603372371,59.9388882 1.08807673,60.4246208 1.69345557,60.6806926 C1.08836337,60.4243337 0.603085733,59.9386011 0.347118262,59.3322966 Z" id="Shape"></path>
                                <path stroke="#8D8D8D" stroke-width="2px" stroke-miterlimit="10" d="M1.09686939,0.638169981 C0.898669157,0.793191029 0.724410543,0.97462307 0.580154717,1.17701166 C0.724713602,0.97462307 0.898972216,0.792903953 1.09686939,0.638169981 Z" id="Shape"></path>
                                <polygon id="Shape" points="12.5957207 30.469674 5.20878039 12.3847464 5.20878039 48.5546017"></polygon>
                                <polygon id="Shape" points="15.3302444 23.7759226 22.9473548 5.12775177 7.71284739 5.12775177"></polygon>
                                <path stroke="#8D8D8D" stroke-width="2px" stroke-miterlimit="10" d="M30.6482017,58.6048459 C30.6016974,58.8606307 30.48647,59.1046453 30.3133706,59.3322966 C30.48647,59.1046453 30.6016974,58.8603436 30.6482017,58.6048459 Z" id="Shape"></path>
                                <path stroke="#8D8D8D" stroke-width="2px" stroke-miterlimit="10" d="M1.06887201,0.777004113 C1.25633307,0.565273208 1.4664385,0.389614975 1.69345557,0.258655489 C1.4664385,0.389614975 1.2566197,0.565273208 1.06887201,0.777004113 Z" id="Shape"></path>
                            </g>
                            <path stroke="#8D8D8D" stroke-width="2px" stroke-miterlimit="10" d="M65.9871529,97.5134065 C66.243407,98.1199981 66.7281114,98.6057308 67.3334902,98.8618026 C67.5605073,98.957973 67.804436,99.021991 68.0598302,99.0478278 C68.1449616,99.0564401 68.2312395,99.0610333 68.318664,99.0610333 L93.6218942,99.0610333 C93.7093187,99.0610333 93.7955966,99.0567272 93.880728,99.0478278 C94.1358356,99.021991 94.3797643,98.957973 94.6067813,98.8618026 C95.2121602,98.6051566 95.6974378,98.1197111 95.9531186,97.5134065 C96.0491423,97.2860423 96.1127758,97.0417406 96.1388599,96.7859559 C96.147459,96.7006943 96.1517586,96.6142844 96.1517586,96.5267263 L96.1517586,40.7745547 C96.1517586,40.2497797 95.992388,39.7620376 95.7197955,39.3575475 C95.6286447,39.2226217 95.5251685,39.0971695 95.4108001,38.9826262 C95.3534725,38.925211 95.2938519,38.8703795 95.2310782,38.8189929 C95.0436172,38.6639718 94.8335117,38.5353618 94.6064947,38.4394784 C94.3794776,38.3433079 94.1355489,38.27929 93.8801547,38.2534531 C93.79531,38.2448408 93.709032,38.2405347 93.6218942,38.2405347 L68.318664,38.2405347 C68.2312395,38.2405347 68.1449616,38.2448408 68.0598302,38.2537402 C67.8047226,38.279577 67.5607939,38.343595 67.3334902,38.4397654 C67.1064732,38.5356488 66.8963677,38.6642589 66.7089067,38.8192799 C66.5214456,38.974301 66.3566289,39.155733 66.2201894,39.3581216 C65.9475969,39.7623246 65.7882264,40.2497797 65.7882264,40.7748417 L65.7882264,96.5270133 C65.7882264,96.6145715 65.7925259,96.7009814 65.8011251,96.786243 C65.8272091,97.0414536 65.8911293,97.2857552 65.9871529,97.5134065 Z M83.7045162,68.650784 L91.0914565,50.5658563 L91.0914565,86.7357117 L83.7045162,68.650784 Z M88.5873895,93.9927063 L73.3534553,93.9927063 L80.9702791,75.3445354 L88.5873895,93.9927063 Z M80.9702791,61.9570326 L73.3531687,43.3088617 L88.5873895,43.3088617 L80.9702791,61.9570326 Z M78.2357554,68.650784 L70.8488151,86.7357117 L70.8488151,50.5658563 L78.2357554,68.650784 Z" id="Shape" fill="#AFBBD0"></path>
                        </g>
                    </g>
                    <g id="smartphone" transform="translate(116.000000, 56.000000)">
                        <g id="Layer_1">
                            <path stroke="#8D8D8D" stroke-width="2px" stroke-miterlimit="10" d="M38.5260967,0 L2.52650198,0 C1.20099241,0 0.12655619,1.07557798 0.12655619,2.40249612 L0.12655619,67.2705717 C0.12655619,68.5973538 1.20099241,69.6730678 2.52650198,69.6730678 L38.5260967,69.6730678 C39.8516062,69.6730678 40.9260425,68.5973538 40.9260425,67.2705717 L40.9260425,2.40249612 C40.9260425,1.07557798 39.8516062,0 38.5260967,0 Z M27.7262726,5.40565029 C27.7262726,4.41049571 28.5322357,3.60381222 29.526198,3.60381222 L33.1261846,3.60381222 C34.1202828,3.60381222 34.92611,4.41063179 34.92611,5.40565029 L34.92611,5.40565029 C34.92611,6.40080487 34.1201469,7.20748835 33.1261846,7.20748835 L29.526198,7.20748835 C28.5320998,7.20762443 27.7262726,6.40080487 27.7262726,5.40565029 L27.7262726,5.40565029 Z M18.726374,3.60381222 L22.3263606,3.60381222 C23.3204588,3.60381222 24.126286,4.41063179 24.126286,5.40565029 C24.126286,6.40066879 23.3203229,7.20748835 22.3263606,7.20748835 L18.726374,7.20748835 C17.7322758,7.20748835 16.9264486,6.40066879 16.9264486,5.40565029 C16.9264486,4.41063179 17.7322758,3.60381222 18.726374,3.60381222 Z M6.12648864,5.40565029 C6.12648864,4.41049571 6.93245174,3.60381222 7.926414,3.60381222 L11.5264007,3.60381222 C12.5204988,3.60381222 13.326326,4.41063179 13.326326,5.40565029 L13.326326,5.40565029 C13.326326,6.40080487 12.5203629,7.20748835 11.5264007,7.20748835 L7.926414,7.20748835 C6.93245174,7.20762443 6.12648864,6.40080487 6.12648864,5.40565029 L6.12648864,5.40565029 Z M37.3260558,64.8680756 C37.3260558,65.4899621 36.853815,66.0016237 36.2487649,66.0629959 C36.208392,66.0672144 36.1674753,66.0692556 36.1260149,66.0692556 L4.92644777,66.0692556 C4.88498737,66.0692556 4.8440707,66.0672144 4.80369778,66.0629959 C4.19864773,66.0014877 3.72640691,65.4899621 3.72640691,64.8680756 L3.72640691,55.257955 C3.72640691,55.2164506 3.72844595,55.1754904 3.73252402,55.1350746 C3.78988891,54.5696613 4.23888471,54.1203245 4.80369778,54.0627625 C4.8440707,54.0586801 4.88498737,54.0566389 4.92644777,54.0566389 L36.1260149,54.0566389 C36.1674753,54.0566389 36.208392,54.0586801 36.2487649,54.0627625 C36.813578,54.1200523 37.2624379,54.5695252 37.3199387,55.1350746 C37.3240168,55.1754904 37.3260558,55.2164506 37.3260558,55.257955 L37.3260558,64.8680756 L37.3260558,64.8680756 Z M37.3260558,40.8428422 L37.3260558,50.4529628 L37.3260558,50.4529628 C37.3260558,51.1163538 36.7887017,51.6542789 36.1260149,51.6542789 L4.92644777,51.6542789 C4.26376096,51.6542789 3.72640691,51.1163538 3.72640691,50.4529628 L3.72640691,50.4529628 L3.72640691,40.8428422 L3.72640691,40.8428422 C3.72640691,40.1794512 4.26376096,39.6415261 4.92644777,39.6415261 L36.1260149,39.6415261 C36.7888377,39.6415261 37.3260558,40.1794512 37.3260558,40.8428422 L37.3260558,40.8428422 Z M37.3260558,36.03785 C37.3260558,36.6597366 36.853815,37.1713982 36.2487649,37.2327703 C36.208392,37.2369888 36.1674753,37.23903 36.1260149,37.23903 L4.92644777,37.23903 C4.88498737,37.23903 4.8440707,37.2369888 4.80369778,37.2327703 C4.19864773,37.1712621 3.72640691,36.6597366 3.72640691,36.03785 L3.72640691,26.4277295 C3.72640691,26.386225 3.72844595,26.3452648 3.73252402,26.304849 C3.78988891,25.7395718 4.23888471,25.2900989 4.80369778,25.232537 C4.8440707,25.2284546 4.88498737,25.2264134 4.92644777,25.2264134 L36.1260149,25.2264134 C36.1674753,25.2264134 36.208392,25.2284546 36.2487649,25.232537 C36.813578,25.2899628 37.2624379,25.7392997 37.3199387,26.304849 C37.3240168,26.3452648 37.3260558,26.386225 37.3260558,26.4277295 L37.3260558,36.03785 L37.3260558,36.03785 Z M37.3260558,12.0126167 L37.3260558,21.6227372 L37.3260558,21.6227372 C37.3260558,22.2861282 36.7887017,22.8240533 36.1260149,22.8240533 L4.92644777,22.8240533 C4.26376096,22.8240533 3.72640691,22.2861282 3.72640691,21.6227372 L3.72640691,21.6227372 L3.72640691,12.0126167 L3.72640691,12.0126167 C3.72640691,11.3492256 4.26376096,10.8113006 4.92644777,10.8113006 L36.1260149,10.8113006 C36.7888377,10.8113006 37.3260558,11.3492256 37.3260558,12.0126167 L37.3260558,12.0126167 Z" id="Shape" fill="#DEE3ED"></path>
                            <g id="Group" transform="translate(6.117109, 3.538085)" fill="#AFBBD0">
                                <path stroke="#8D8D8D" stroke-width="2px" stroke-miterlimit="10" d="M12.6092649,3.66953896 L16.2092515,3.66953896 C17.2033497,3.66953896 18.0091769,2.86271939 18.0091769,1.86770089 C18.0091769,0.87268239 17.2032138,0.0658628219 16.2092515,0.0658628219 L12.6092649,0.0658628219 C11.6151667,0.0658628219 10.8093395,0.87268239 10.8093395,1.86770089 C10.8093395,2.86271939 11.6151667,3.66953896 12.6092649,3.66953896 Z" id="Shape"></path>
                                <path stroke="#8D8D8D" stroke-width="2px" stroke-miterlimit="10" d="M1.80930493,3.66953896 L5.40929158,3.66953896 C6.40338977,3.66953896 7.20921694,2.86271939 7.20921694,1.86770089 L7.20921694,1.86770089 C7.20921694,0.87254631 6.40325384,0.0658628219 5.40929158,0.0658628219 L1.80930493,0.0658628219 C0.815206735,0.0658628219 0.00937956724,0.87268239 0.00937956724,1.86770089 L0.00937956724,1.86770089 C0.00937956724,2.86271939 0.815342671,3.66953896 1.80930493,3.66953896 Z" id="Shape"></path>
                                <path stroke="#8D8D8D" stroke-width="2px" stroke-miterlimit="10" d="M23.4090889,3.66953896 L27.0090756,3.66953896 C28.0031738,3.66953896 28.8090009,2.86271939 28.8090009,1.86770089 L28.8090009,1.86770089 C28.8090009,0.87254631 28.0030378,0.0658628219 27.0090756,0.0658628219 L23.4090889,0.0658628219 C22.4149907,0.0658628219 21.6091636,0.87268239 21.6091636,1.86770089 L21.6091636,1.86770089 C21.6091636,2.86271939 22.4149907,3.66953896 23.4090889,3.66953896 Z" id="Shape"></path>
                            </g>
                            <g id="Group" transform="translate(3.670265, 13.199780)" fill="#FFFFFF">
                                <path stroke="#8D8D8D" stroke-width="2px" stroke-miterlimit="10" d="M32.4558854,9.62413681 L1.25618233,9.62413681 C0.593495515,9.62413681 0.0561414677,9.0864839 0.0561414677,8.42282071 L0.0561414677,8.42282071 C0.0561414677,9.08621174 0.593495515,9.62413681 1.25618233,9.62413681 L32.4558854,9.62413681 C33.1185722,9.62413681 33.6559263,9.08621174 33.6559263,8.42282071 L33.6559263,8.42282071 C33.6557904,9.0864839 33.1185722,9.62413681 32.4558854,9.62413681 Z" id="Shape"></path>
                            </g>
                            <path d="M36.1261509,10.8113006 L4.92644777,10.8113006 C4.26376096,10.8113006 3.72640691,11.3492256 3.72640691,12.0126167 L3.72640691,12.0126167 L3.72640691,21.6227372 C3.72640691,22.2862643 4.26376096,22.8240533 4.92644777,22.8240533 L36.1260149,22.8240533 C36.7887017,22.8240533 37.3260558,22.2864004 37.3260558,21.6227372 L37.3260558,12.0126167 L37.3260558,12.0126167 C37.3260558,11.3492256 36.7888377,10.8113006 36.1261509,10.8113006 Z M6.12648864,13.6387752 L16.4470032,16.8176089 L6.12648864,19.9964426 L6.12648864,13.6387752 Z M12.9057408,13.2137967 L28.146586,13.2137967 L20.5262993,15.5611803 L12.9057408,13.2137967 Z M20.5262993,18.0741736 L28.1468579,20.4214211 L12.9057408,20.4214211 L20.5262993,18.0741736 Z M24.6055955,16.8176089 L34.92611,13.6387752 L34.92611,19.9965787 L24.6055955,16.8176089 Z" id="Shape" fill="#AFBBD0"></path>
                            <g id="Group" transform="translate(3.670265, 25.174839)" fill="#FFFFFF">
                                <path stroke="#9C9C9C" stroke-width="1px" stroke-miterlimit="10" d="M32.5784995,12.0579314 C33.1835495,11.9964231 33.6557904,11.4848976 33.6557904,10.8630111 C33.6557904,11.4848976 33.1836855,11.9965592 32.5784995,12.0579314 Z" id="Shape"></path>
                                <path stroke="#9C9C9C" stroke-width="1px" stroke-miterlimit="10" d="M33.6496732,1.13001007 C33.5923084,0.564732874 33.1433126,0.115259938 32.5784995,0.0576980093 C33.1433126,0.115259938 33.5921724,0.564732874 33.6496732,1.13001007 Z" id="Shape"></path>
                                <path stroke="#9C9C9C" stroke-width="1px" stroke-miterlimit="10" d="M1.13356828,0.0578340895 C0.568891143,0.115259938 0.119895338,0.564596794 0.0623945125,1.13014615 C0.119895338,0.564732874 0.568755208,0.115259938 1.13356828,0.0578340895 Z" id="Shape"></path>
                                <path stroke="#9C9C9C" stroke-width="1px" stroke-miterlimit="10" d="M0.0562774034,10.8630111 C0.0562774034,11.4848976 0.528518224,11.9965592 1.13356828,12.0579314 C0.528382288,11.9965592 0.0562774034,11.4848976 0.0562774034,10.8630111 Z" id="Shape"></path>
                            </g>
                            <path stroke="#9C9C9C" stroke-width="1px" stroke-miterlimit="10" d="M36.2487649,25.232673 C36.208392,25.2285906 36.1674753,25.2265494 36.1260149,25.2265494 L4.92644777,25.2265494 C4.88498737,25.2265494 4.8440707,25.2285906 4.80369778,25.232673 C4.23902065,25.2900989 3.79002484,25.7395718 3.73252402,26.3049851 C3.72844595,26.3454009 3.72640691,26.3863611 3.72640691,26.4278655 L3.72640691,36.0379861 C3.72640691,36.6598727 4.19864773,37.1715342 4.80369778,37.2329064 C4.8440707,37.2369888 4.88498737,37.2391661 4.92644777,37.2391661 L36.1260149,37.2391661 C36.1674753,37.2391661 36.208392,37.2371249 36.2487649,37.2329064 C36.853815,37.1713982 37.3260558,36.6597366 37.3260558,36.0379861 L37.3260558,26.4278655 C37.3260558,26.3863611 37.3240168,26.3454009 37.3199387,26.3049851 C37.2624379,25.7395718 36.813578,25.2900989 36.2487649,25.232673 Z M16.4470032,31.2327217 L6.12648864,34.4115554 L6.12648864,28.053888 L16.4470032,31.2327217 Z M12.9057408,27.6289095 L28.146586,27.6289095 L20.5262993,29.9762931 L12.9057408,27.6289095 Z M20.5262993,32.4892864 L28.1468579,34.8365339 L12.9057408,34.8365339 L20.5262993,32.4892864 Z M24.6055955,31.2327217 L34.92611,28.053888 L34.92611,34.4116915 L24.6055955,31.2327217 Z" id="Shape" fill="#AFBBD0"></path>
                            <g id="Group" transform="translate(3.670265, 41.912705)" fill="#FFFFFF">
                                <path stroke="#9C9C9C" stroke-width="1px" stroke-miterlimit="10" d="M32.4558854,9.74143796 L1.25618233,9.74143796 C0.593495515,9.74143796 0.0561414677,9.20378504 0.0561414677,8.54012186 L0.0561414677,8.54012186 C0.0561414677,9.20351288 0.593495515,9.74143796 1.25618233,9.74143796 L32.4558854,9.74143796 C33.1185722,9.74143796 33.6559263,9.20351288 33.6559263,8.54012186 L33.6559263,8.54012186 C33.6557904,9.20378504 33.1185722,9.74143796 32.4558854,9.74143796 Z" id="Shape"></path>
                            </g>
                            <path stroke="#9C9C9C" stroke-width="1px" stroke-miterlimit="10" d="M36.1261509,39.6415261 L4.92644777,39.6415261 C4.26376096,39.6415261 3.72640691,40.1794512 3.72640691,40.8428422 L3.72640691,40.8428422 L3.72640691,50.4529628 C3.72640691,51.1164899 4.26376096,51.6542789 4.92644777,51.6542789 L36.1260149,51.6542789 C36.7887017,51.6542789 37.3260558,51.116626 37.3260558,50.4529628 L37.3260558,40.8428422 L37.3260558,40.8428422 C37.3260558,40.1794512 36.7888377,39.6415261 36.1261509,39.6415261 Z M6.12648864,42.4690008 L16.4470032,45.6478345 L6.12648864,48.8266682 L6.12648864,42.4690008 Z M12.9057408,42.0441583 L28.146586,42.0441583 L20.5262993,44.3914059 L12.9057408,42.0441583 Z M20.5262993,46.9043991 L28.1468579,49.2516467 L12.9057408,49.2516467 L20.5262993,46.9043991 Z M24.6055955,45.6478345 L34.92611,42.4690008 L34.92611,48.8268043 L24.6055955,45.6478345 Z" id="Shape" fill="#AFBBD0"></path>
                            <g id="Group" transform="translate(3.670265, 54.023844)" fill="#FFFFFF">
                                <path stroke="#9C9C9C" stroke-width="1px" stroke-miterlimit="10" d="M33.6496732,1.111231 C33.5923084,0.545817725 33.1433126,0.0964808693 32.5784995,0.0389189402 C33.1433126,0.0964808693 33.5921724,0.545953805 33.6496732,1.111231 Z" id="Shape"></path>
                                <path stroke="#9C9C9C" stroke-width="1px" stroke-miterlimit="10" d="M1.13356828,0.0390550204 C0.568891143,0.0964808693 0.119895338,0.545817725 0.0623945125,1.11136708 C0.119895338,0.545953805 0.568755208,0.0964808693 1.13356828,0.0390550204 Z" id="Shape"></path>
                                <path stroke="#9C9C9C" stroke-width="1px" stroke-miterlimit="10" d="M0.0562774034,10.844232 C0.0562774034,11.4661185 0.528518224,11.9777801 1.13356828,12.0391523 C0.528382288,11.9777801 0.0562774034,11.4661185 0.0562774034,10.844232 Z" id="Shape"></path>
                                <path stroke="#9C9C9C" stroke-width="1px" stroke-miterlimit="10" d="M32.5784995,12.0391523 C33.1835495,11.9776441 33.6557904,11.4661185 33.6557904,10.844232 C33.6557904,11.4661185 33.1836855,11.9777801 32.5784995,12.0391523 Z" id="Shape"></path>
                            </g>
                            <path stroke="#9C9C9C" stroke-width="1px" stroke-miterlimit="10" d="M36.2487649,54.0628986 C36.208392,54.0588162 36.1674753,54.056775 36.1260149,54.056775 L4.92644777,54.056775 C4.88498737,54.056775 4.8440707,54.0588162 4.80369778,54.0628986 C4.23902065,54.1203245 3.79002484,54.5697974 3.73252402,55.1352107 C3.72844595,55.1756265 3.72640691,55.2165866 3.72640691,55.2580911 L3.72640691,64.8682117 C3.72640691,65.4900982 4.19864773,66.0017598 4.80369778,66.063132 C4.8440707,66.0672144 4.88498737,66.0693917 4.92644777,66.0693917 L36.1260149,66.0693917 C36.1674753,66.0693917 36.208392,66.0673505 36.2487649,66.063132 C36.853815,66.0016237 37.3260558,65.4899621 37.3260558,64.8682117 L37.3260558,55.2580911 C37.3260558,55.2165866 37.3240168,55.1756265 37.3199387,55.1352107 C37.2624379,54.5697974 36.813578,54.1203245 36.2487649,54.0628986 Z M16.4470032,60.0629473 L6.12648864,63.241781 L6.12648864,56.8841135 L16.4470032,60.0629473 Z M12.9057408,56.4592711 L28.146586,56.4592711 L20.5262993,58.8065187 L12.9057408,56.4592711 Z M20.5262993,61.3195119 L28.1468579,63.6667595 L12.9057408,63.6667595 L20.5262993,61.3195119 Z M24.6055955,60.0629473 L34.92611,56.8841135 L34.92611,63.2419171 L24.6055955,60.0629473 Z" id="Shape" fill="#AFBBD0"></path>
                        </g>
                    </g>
                </g>
            </g>
        </g>
    </g>
</svg>
