<svg xmlns="http://www.w3.org/2000/svg" viewBox="0 0 576 512"><path d="M259.305 17.815l-65.337 132.377L47.871 171.42c-26.201 3.807-36.7 36.093-17.735 54.578l105.717 103.041-24.957 145.496c-4.477 26.101 22.997 46.049 46.43 33.731L288 439.572l130.673 68.694c23.31 12.254 50.923-7.537 46.43-33.731l-24.957-145.496 105.717-103.041c18.959-18.479 8.474-50.77-17.735-54.578l-146.097-21.228-65.335-132.377c-11.683-23.671-45.627-23.835-57.391 0zM371.38 306.694l19.683 114.753L288 367.268v-262.99l51.533 104.41 115.221 16.742-83.374 81.264z"/></svg>