<svg xmlns="http://www.w3.org/2000/svg" viewBox="0 0 576 512"><path d="M576 32.1C576 165.9 520 256 360 256c-7.9 9.3-189.4 223.2-208.7 245.9-12.4 13.2-33.2 13.5-46 .7l-32-32c-12.8-12.8-12.4-33.7.8-46.1l154.7-143.6c-26.6-30-14.4-16.3-41-46.3-35 20.7-74.2 18.1-108.5-16.2C57.7 196.7 6 123.7 3.2 119.8c-11.8-16.1 11.5-37.5 26.2-24.9l93.8 81.2c1.6 1.3 5.9-3 4.6-4.6L49.1 74.6C36.7 59.3 59.5 36.8 74.6 49.1l96.9 78.8c1.7 1.3 5.9-3.2 4.7-4.6L94.9 29.4c-12.7-14.7 8.8-37.9 24.8-26.2 3.9 2.8 76.9 54.5 98.6 76.2 33.3 33.3 37.6 72.2 16.1 108.4 30.4 26.9 19.6 17.4 48.4 42.9L522.2 8.6c20.5-19 53.8-4.4 53.8 23.5zM501.2 424L363.1 301.8l-56.6 66.8L424 501.2c12.2 13.8 33.6 14.4 46.6 1.4l32-32c13.1-13 12.4-34.3-1.4-46.6z"/></svg>