<?xml version="1.0" encoding="utf-8"?>
<!-- Generator: Adobe Illustrator 21.1.0, SVG Export Plug-In . SVG Version: 6.00 Build 0)  -->
<svg version="1.1" xmlns="http://www.w3.org/2000/svg" xmlns:xlink="http://www.w3.org/1999/xlink" x="0px" y="0px"
	 viewBox="0 0 822.2 875.6" style="enable-background:new 0 0 822.2 875.6;" xml:space="preserve">
<style type="text/css">
	.st0{fill:none;stroke:#FF00FF;stroke-width:0.5;stroke-linejoin:round;stroke-miterlimit:10;}
	.st1{fill:none;stroke:#FF00FF;stroke-width:0.4959;stroke-linejoin:round;stroke-miterlimit:10;}
	.st2{fill:none;stroke:#4D4D4D;stroke-width:0.75;stroke-linejoin:round;stroke-miterlimit:10;}
	.st3{fill:none;stroke:#A68553;stroke-width:0.75;stroke-miterlimit:10;}
	.st4{fill:#A68553;}
	.st5{fill:#4D4D4D;}
</style>
<g id="Layer_1">
</g>
<g id="Working">
	<g>
		<g>
			<g>
				<path class="st3" d="M574.7,79.6l0.2-2l-2.6-0.6l-0.2-2.5l-12.5-0.6v2.5c0,0-3.7,0.1-5.1,0.2v-2.4c0,0-7.1,0.6-12.2,2.5l0.4,2
					c0,0-2.5,1.1-3.8,2l-1.5-2.3c0,0-26.9,8.3-32.1,39.3c-5.2,31,10.5,59,33.8,76.6l1.5-2l4,3.1l-0.5,2.1l12.4,7.3l1.3-2.1l4,1.6
					l0,2.9c0,0,4.4,1.8,13.7,3.5v-2l2.5,0.4v-2.8c0,0-32.7-4-53.8-33.9c-21.1-30-14.8-54.7-10.8-63.4S532.2,73.2,574.7,79.6z"/>
				<path class="st3" d="M574.7,79.6L555.4,104c0,0-29.3-5.1-43.7,9.3"/>
				<line class="st3" x1="559.7" y1="73.8" x2="556.7" y2="76.5"/>
				<line class="st3" x1="542.4" y1="76.7" x2="538.8" y2="80.4"/>
				<path class="st3" d="M519.7,98.4c0,0,3-1.1-1.1,4.1c-4.1,5.2-3.7,3.8-2.4,1.1"/>
				<path class="st3" d="M506.3,109c-34.7,34.9-5.7,77.5-1.7,83.5s11,3.5,12.4,1.9c1.7-1.9,3.5-8.1-0.9-14.3
					c-9.2-13.8-15.6-28-15.6-47s9-29,9-29"/>
				<path class="st3" d="M501.8,121.3c0,0-7.6,9.6-7.6,28s8.2,32.2,12.8,39.3c4.6,7.2,10.9,4.4,10.9,4.4"/>
				<path class="st3" d="M578,209.2c0,0-10.2,12.1-18.9,21.5l-0.5-0.4"/>
				<path class="st3" d="M575.5,210.9l-19.8,22.3c0,0-8.1-1.8-12.9-3.8l18.9-22"/>
				<polyline class="st3" points="561.7,204.5 542.5,226.4 542.9,229.4 				"/>
				<path class="st3" d="M556.4,204.9l-19.1,22.3c0,0-6.5-2.7-12.1-6.8l18.8-22.8"/>
				<polyline class="st3" points="544.6,195.5 525.4,218.2 525.2,220.4 				"/>
				<path class="st3" d="M539.1,194.4l-18.8,22.8c0,0-13.1-6.8-25.8-29.8c-12.7-23.1-12.8-54.9,11.7-78.4"/>
				<line class="st3" x1="542.5" y1="226.4" x2="539.1" y2="225.1"/>
				<line class="st3" x1="525.4" y1="218.2" x2="521.8" y2="215.4"/>
				
					<ellipse transform="matrix(0.6664 -0.7456 0.7456 0.6664 219.7151 588.0511)" class="st3" cx="767" cy="48.5" rx="35.7" ry="46"/>
				<path class="st3" d="M807.6,86.7c-16.1,18-47.7,15.6-70.3-4.6s-27.9-51.2-11.7-69.2c16.1-18,47.5-16.3,70.1,3.9
					S823.7,68.6,807.6,86.7z"/>
				<path class="st3" d="M797.9,94.3c0,0-29.3,20.4-46.4,47.1s-14.3,44.2-20.6,55.3c-6.3,11.1-11.6,21.4-34.5,28.1
					c-20.1,5.8-51.1-2-69.1-19.7c-17.9-17.7-39-43.2-27.5-81c10.9-36,47.3-27.6,71-47.9c25.5-21.9,37-34.8,51.4-58.9"/>
				<path class="st3" d="M598.4,129.2c0,0-15.1,14-13.6,41.3s22.9,59.4,58.8,68.3c35.9,8.9,52.3-8.7,59.1-16.2"/>
				<path class="st3" d="M707.3,220.7c0,0-19.8,42.1-71.9,23.5c-52.1-18.5-61.6-65-58.5-84c3.1-19,10.8-30.4,23.5-38.3"/>
				<path class="st3" d="M559.1,230.7c3.2,5.7,7.4,11.6,12.8,17.5c40.5,44.2,86.3,22.6,89.2,20.9c2.9-1.8,33.7-32.7,33.7-32.7"/>
				<path class="st3" d="M588.9,131.9l-27.2,30.3c0,0-10.5,13.8-11.2,34.2"/>
				<path class="st3" d="M770.8,117.5c0,0,14.2,7.2,25,18.5s32.2,44.4,15.7,75.7S758.1,236,758.1,236v1.9l2.1,0.2l0.8,3.2h11.9v-2.8
					l4.5-0.5l0.9,2.4c4.7,0,10.7-2.5,10.7-2.5l-0.2-2.7l4-1.7l1.3,2.6c6.1-3.4,14.5-10.4,19.4-17.8s14.8-28.3,1.8-59
					c-7.1-16.9-19-28.7-28.3-35.8l-1.4,1.6l-4.3-3.2l0.7-1.9c-5-3.4-8.5-5-8.5-5"/>
				<path class="st3" d="M805,228c0,0-19.2,19.7-32.8,28.8l-2-1.1"/>
				<path class="st3" d="M778.3,240.3c0,0-6.9,8.2-22.3,21.4"/>
				<line class="st3" x1="794.2" y1="236" x2="771.7" y2="256.4"/>
				<path class="st3" d="M772.9,241.3l-22.1,21c0,0-5.7,0.6-12.6,0l-0.3-3.1h-2.1v-2.4l22.3-20.8"/>
				<line class="st3" x1="738.2" y1="262.2" x2="761" y2="241.3"/>
				<line class="st3" x1="758.1" y1="237.8" x2="735.8" y2="259.1"/>
				<line class="st3" x1="760.2" y1="238" x2="737.9" y2="259.1"/>
				<path class="st3" d="M792.9,233.4l-3.8,4.4c0,0-8.2,8.5-22.3,20.9c0,0-3.8,1.6-10.7,2.9l-1.6-2.9"/>
				<path class="st3" d="M798.8,226.9c0,0,5.5-7.4,4.1-27.2c-1.3-19.8-12.5-35.2-14.9-38.6c-2.5-3.4-4-8.7-3.1-13.2"/>
				<path class="st3" d="M803.1,223.1c23.4-39.2-4.7-72.9-4.7-72.9c-5.5-6.7-10.9-4.4-13-3.2s-4.9,6.4-2.2,13.1s8.5,9,13,26
					s3.9,30.1-4.1,45"/>
				<path class="st3" d="M750.9,142.3c0,0,18.9,7.5,35,34.8c16,27.3,2.9,55.4,2.9,55.4"/>
				<path class="st3" d="M692.3,225.7c0,0-8.1,3.2-9.9,6.5c-1.8,3.4,3.2,1.7,5.8,0c2.6-1.7,7.1-4.5,7.8-7.3"/>
				<path class="st3" d="M693.7,225.4c0,0,0.1,1.8-5.4,4.9c-5.6,3.1-5.8,1.9-5.8,1.9"/>
				<path class="st3" d="M666.6,230.8c0.1,2.2-3.3,4.5-7.7,5.2c-4.4,0.6-8.1-0.7-8.2-2.9c-0.1-2.2,3.3-4.5,7.7-5.2
					C662.8,227.3,666.5,228.6,666.6,230.8z"/>
				<path class="st3" d="M651.2,231.7c0.1,2.2,3.4,3.6,7.3,3c3.9-0.6,7-2.8,6.8-5c0,0-0.2-0.9-0.7-1.2"/>
				
					<ellipse transform="matrix(0.4178 -0.9086 0.9086 0.4178 165.938 697.6605)" class="st3" cx="627.3" cy="219.4" rx="5.3" ry="7.8"/>
				<path class="st3" d="M621,215c-1.2,2.7,0.7,6.2,4.3,7.8c3.6,1.7,7.5,0.9,8.8-1.8c0,0,0.4-1,0.3-1.8"/>
			</g>
		</g>
		<g>
			<path class="st2" d="M486.5,365.9c14.5,17.8,15.7,41.9,2,57.7c-15.6,18.1-45.1,18.2-65.8,0.3s-24.7-47.1-9.1-65.1
				c14.2-16.4,39.2-18.4,59.3-5.1"/>
			<path class="st2" d="M492.6,366.7c13.3,19.3,13.9,43.9-0.3,60.3c-17.3,19.9-49.8,19.9-72.7,0.1s-27.5-52.1-10.3-72
				c14.6-16.9,40.3-19.5,61.8-7.7"/>
			<path class="st2" d="M492.3,427l-99.6,99.7c0,0-33,29.1-67.1-4.9c-26.8-27.3-10.1-58.1-6.6-61.9c3.4-3.8,90.3-104.9,90.3-104.9"
				/>
			<path class="st2" d="M378.1,426.9c-11.9-0.6-23.9,3.6-31.6,12.6c-14.4,16.7-15.4,38.3,7.1,58.8c7.3,6.4,15.4,10.5,23.3,12.2
				l-0.1-5.8c-6.9-1.1-13.6-4.7-20-10.4c-19.5-17.8-19.2-37.5-6.5-52.1c6.9-8,17.4-11,27.8-10.5"/>
			<path class="st2" d="M383.2,504.5l2.4,7c10.8,0.1,20.7-4.2,27.4-13.1c10.7-14.2,11.6-44-5.8-59.4c-6.6-5.8-14.3-9.5-22.1-11.2"/>
			<path class="st2" d="M385.4,504.5c-0.9-10.2-5.6-20.6-13.5-27.6c-6.7-5.9-14.4-9.7-22.2-11.5c-2.5-0.6-5.7-0.9-8.2-1.1"/>
			<path class="st2" d="M386,432.9c6.1,1.6,11.7,3.8,16.9,8.3c16.3,14.1,15.7,40.8,5.8,52.9c-6.4,7.9-15.8,10.6-25.4,10.4l-6.3,6"/>
			<path class="st2" d="M377,510.5l-21.3,22.6c0,0-19-0.5-34.1-25c-14-22.8-2.1-38.4-2.1-38.4l28.3-31.6"/>
			<polygon class="st2" points="385.1,427.9 386,432.9 364.1,457.2 364.1,452.4 			"/>
			<path class="st2" d="M378.1,426.9v4.9c0,0-6.7,8.6-21.4,25"/>
			<path class="st2" d="M356.8,456.8c0,0-13-1.5-15.4,6.3"/>
			<path class="st2" d="M364.1,457.2c0,0,14.8,4.4,21.9,15.2s8.5,18.8,4.2,31.8"/>
			<path class="st2" d="M301.5,521.9c3,6.7,7.7,13,13.7,18.2c20.1,17.4,49.1,17,64.7-1c4.6-5.4,5-7.1,5-7.1"/>
			<path class="st2" d="M314.7,467.9c-4.2,3.6-8.1,8.1-8.1,8.1c-6.5,7.5-9.6,16.8-9.5,26.4"/>
			<path class="st2" d="M293.6,500.6c1.1-7.4,4.1-14.3,9.2-20.2l6.2-7.1"/>
			<path class="st2" d="M376.1,542.9c-15.6,18-45,19.1-65.1,1.7c-6-5.2-10.6-11.5-13.6-18.1"/>
			<polyline class="st2" points="385.6,511.5 364.1,533.7 363.8,524.4 			"/>
			<path class="st2" d="M411.2,500.6l-27.6,27.5c0,0-8.3,7.2-19.5,5.6"/>
		</g>
		<path class="st2" d="M294.5,609.7c0,0,0.3,3.1,0,7"/>
		<g>
			<path class="st2" d="M290,534.7c6.5,1.4,13,4.5,18.5,9.4c15.3,13.7,17.7,36,5.3,49.9c-12.4,13.9-34.8,14-50.1,0.3
				c-13.4-12-16.9-30.7-9.2-44.4"/>
			<path class="st2" d="M310.3,597.4c-12.4,13.9-34.8,14-50.1,0.3c-14.7-13.2-17.5-34.3-6.6-48.2"/>
			<path class="st2" d="M281,544.9c7.2-2.2,15.7-0.4,22.1,5.4c9.5,8.5,10.9,22.3,3.2,30.8c-7.7,8.6-21.6,8.7-31,0.2
				c-8.2-7.3-10.1-18.6-5.6-27"/>
			<path class="st2" d="M268.5,554.1c-7.7,8.6-6,22.2,3.6,30.7c9.5,8.5,23.4,8.4,31.1-0.1l2.9-3.3"/>
			<path class="st2" d="M253.3,654.6c12.2-0.1,23.7-4.9,32.2-14.5c6-6.8,9.5-14.9,10.6-23.3l-10.2-0.4c-0.8,6.1-3.5,12-7.7,16.7
				c-6.5,7.3-15.8,11-25.3,11L253.3,654.6z"/>
			<path class="st2" d="M296.1,606.4c0.1,0.8,0.2,1.7,0.2,2.5l-10.7-0.6"/>
			<path class="st2" d="M246.9,572.3c-9.2,0.2-18.2,4-24.7,11.3c-4.4,4.9-7,10.5-7.9,16.7l-10.5-1.1c1.2-8.3,4.7-16.2,10.5-22.8
				c8.7-9.7,20.9-14.5,33.3-14.3"/>
			<path class="st2" d="M203.4,607.8c0.6,12.4,6.2,24.9,16.5,34.1c7.3,6.5,15.9,10.5,24.8,12l0.6-10.5c-6.6-1.3-13-4.4-18.4-9.2
				c-7.9-7.1-12.3-16.5-12.9-26L203.4,607.8z"/>
			<path class="st2" d="M212.7,578.3c-17.3,18.9-14.3,48.1,5.4,65.7c19.7,17.6,49,16.8,65.6-1.8l2.3-2.8"/>
			<polyline class="st2" points="214.3,600.3 212.3,601.1 202.1,600 203.8,599.2 			"/>
			<line class="st2" x1="203.4" y1="607.8" x2="201.4" y2="608.9"/>
			<path class="st2" d="M206.2,600.4c0,0-1.1,2.8-0.7,7.4"/>
			<path class="st2" d="M244.7,651.9c0,0,3.5,0.8,6.6,0.4l0.1,4.4"/>
			<polyline class="st2" points="252.8,644.1 249.3,648.3 249.2,652.3 			"/>
			<line class="st2" x1="253.3" y1="654.6" x2="251.4" y2="656.7"/>
			<line class="st2" x1="244.6" y1="653.9" x2="242.6" y2="656"/>
			<path class="st2" d="M214.7,598.2c4.4-5.7,18.8-19,36.9-11.3"/>
			<path class="st2" d="M270.6,604.5c0,0,3.3,6.8,3.1,13.6s-0.1,25.9-28.5,25.8"/>
			<polyline class="st2" points="285.9,616.4 284.3,616.5 284.5,609 285.6,608.2 285.6,607.9 			"/>
			<polyline class="st2" points="294.6,608.8 296.3,608.9 294.5,609.7 284.5,609 			"/>
			<path class="st2" d="M283,643.1L86.8,836.8c0,0-23.5,18.9-47.3-2.9c-20.8-20.1-6.3-43.8-4.1-46.3
				c2.2-2.5,177.3-209.3,177.3-209.3"/>
			<path class="st2" d="M69.2,844.1c-0.8,6.7-3.6,13.3-8.4,18.9c-12.6,14.6-34.4,16.4-48.7,4s-15.6-34.2-3-48.8
				c5.3-6.1,12.2-10,19.5-11.5"/>
			<path class="st2" d="M68.6,844.1c-0.9,6.4-3.6,12.6-8.1,17.9c-12.3,14.2-33.6,16-47.5,3.9C-1,853.9-2.3,832.5,10,818.3
				c5.1-5.8,11.6-9.6,18.5-11.1"/>
			<path class="st2" d="M28.4,808.1c-5.7,1.7-10.9,5-15.1,9.8C1.8,831.1,3,851.1,16.1,862.3s32.9,9.6,44.4-3.6l0.8-1.1"/>
			<path class="st2" d="M68.2,844.2c-1,4.5-3,8.9-6.2,12.6c-10.6,12.2-29.6,13.1-42.5,1.9c-12.9-11.2-14.4-30.6-3.8-42.8
				c1.1-1.2,2.2-2.4,3.5-3.4"/>
			<circle class="st2" cx="38.4" cy="854.1" r="2.5"/>
			<path class="st2" d="M51.1,841.7l-30-1.5l-4.8-5.1v-5c0,0,0-1.4,2.4-1.3c2.4,0.1,16.7,0.7,16.7,0.7"/>
			<line class="st2" x1="16.6" y1="835.3" x2="42.5" y2="836.5"/>
			<line class="st2" x1="39.7" y1="852" x2="36.2" y2="855.3"/>
			<line class="st2" x1="40.4" y1="852.7" x2="37" y2="856"/>
			<path class="st2" d="M217.8,705.7c4.3-4.7,1-4.9-2.1-4.6c-3.1,0.3-6.8,0.3-13.5,0.2c-6-0.1-14.7-2.3-21.2-1.8
				c-6.5,0.5-9.6,3.8-5,9c4.7,5.3,8.9,6.9,18,7.2C201.7,716,214.1,709.8,217.8,705.7z"/>
			<path class="st2" d="M219.2,704c1.4-1.2,3.3-2.5,3.8-3.1c1.3-1.7-0.8-1.9-6.9-1.3c-6.1,0.6-12.4-0.3-12.4-0.3
				c-7.7-0.6-19.3-3.5-23.9-3.9c-4.6-0.4-12.9-1.2-10.3,7c2.3,7.1,8.3,10.7,15.1,12.2"/>
		</g>
		<g>
			<path class="st2" d="M267.8,419.7l-41.3,53.6c0,0-9.9,19.3-5.2,37.1c11.7,42.3,51,44.2,51,44.2l38.3-43v-5.3
				c-12.4,0.7-56.9-23.6-47.8-64.3c11-39.3,50-33.4,50-33.4v-5.2c0,0-42.7-7.4-54.8,36.2c-12,46.1,38.8,72.6,52.6,72"/>
			<path class="st2" d="M479.2,440.2c12.9,10.3,23.1,26.3,19,47.7c-9.6,38.6-47.2,33.8-47.2,33.8l0.1,5.1c0,0,41.3,6.2,51.8-36.7
				c5.1-22.5-5.8-42.2-20.1-53.6"/>
			<polyline class="st2" points="450.9,521.8 405.5,564 405.5,569.7 451,526.8 			"/>
			<path class="st2" d="M489.8,514.4c0,0-42.4,38.9-50,45.8c-7.6,6.9-23.5,10.8-34.4,9.4"/>
			<path class="st2" d="M451.9,521.9c0,0,0-21.5-18.1-36.2"/>
			<path class="st2" d="M312.9,408.6L275,456.2c0,0-8.3-2-13.1,0.5"/>
		</g>
		<g>
			<path class="st2" d="M539.6,345.3l-17.8,18.2c0,0-21.2,15.4-42.1-6.5c-20.5-21.5-6.4-40.1-6.4-40.1l15.9-18"/>
			<path class="st2" d="M610.2,273.1c0,0-51.2,52.5-52.7,53.9c-1.4,1.4-24.3,18.8-45.7-3.9c-22.2-23.6-4.6-44.4-4.6-44.4l41.5-47"/>
			<path class="st2" d="M530.2,354.8c0,0-20.4,11.5-40.6-7.8c-19.1-19.8-8.5-39-8.5-39"/>
			<path class="st2" d="M531,354.1c0,0-20.4,11.5-40.6-7.8c-19.1-19.8-8.2-39.4-8.2-39.4"/>
			<path class="st2" d="M564.2,320.1c0,0-0.5,4.6-5.1,9c-4.6,4.4-14,13.3-14,13.3s-4.3,3.9-12.9,4.2c-8.5,0.3-18.4,0.9-32-12.4
				c-13.6-13.3-13.2-28.5-10.4-37.7c0,0,3.5-7.4,13-17.4c2.9-2.9,7.6-6.4,10.2-7.1"/>
			
				<ellipse transform="matrix(0.9986 -5.235224e-02 5.235224e-02 0.9986 -16.5472 28.5921)" class="st2" cx="537.5" cy="330.2" rx="3.6" ry="1.7"/>
			
				<ellipse transform="matrix(0.1939 -0.981 0.981 0.1939 118.827 730.3982)" class="st2" cx="503.9" cy="292.9" rx="3.6" ry="1.2"/>
			<path class="st2" d="M471.3,345.1c0,0-2.4,6.1,6.9,15.1c9.3,9,14.8,6.4,14.8,6.4"/>
			<path class="st2" d="M508.1,274.7c0,0-25.1,21.4,0.7,49.8c22.6,24.9,47.5,8.2,51.4,3.6"/>
		</g>
	</g>
</g>
</svg>
