<svg xmlns="http://www.w3.org/2000/svg" viewBox="0 0 576 512"><path d="M545.864 225.998L440.147 329.039l24.957 145.496c4.493 26.194-23.12 45.986-46.43 33.731L288 439.572l-130.673 68.694c-23.433 12.318-50.907-7.63-46.43-33.731l24.957-145.496L30.136 225.998c-18.965-18.485-8.466-50.771 17.735-54.578l146.097-21.228 65.337-132.377c11.764-23.835 45.708-23.671 57.391 0l65.337 132.377L528.13 171.42c26.209 3.808 36.693 36.098 17.734 54.578zm-56.724-11.74l-138.981-20.194L288 68.128l-62.158 125.937-138.981 20.193 100.568 98.022-23.742 138.414L288 385.344l124.313 65.351-23.741-138.415 100.568-98.022zM288 358.23l-92.438 48.594 17.654-102.923-74.778-72.885 103.34-15.015L288 122.354V358.23z"/></svg>