<svg xmlns="http://www.w3.org/2000/svg" viewBox="0 0 576 512"><path d="M451.6 19.9L303.7 157.2c-2-30-15.3-58.4-38.3-81.4-20.7-20.7-74.7-58.4-85.9-66.1-33.9-23.8-79.1-.5-91.9 35.8C68.4 52.2 52 69 45.5 87.6c-37 13-59.3 58.3-35.8 91.9 7.7 11.2 45.4 65.2 66.1 85.9 21 21 45.7 33.3 71.3 37.2l-59.4 55.2c-30.6 28.4-31.7 76.9-2 106.6l26 26c29.9 29.9 78.1 28.4 106.3-1.7 1.4-1.5-5.5 6.6 68.5-80.7l70.1 79.1c28.1 31.7 77.4 33.6 107.7 3.3l26.9-26c30.1-30.1 28.6-79.5-3.3-107.7l-68.1-59.5C528.7 273.1 576 188.3 576 74.1c0-64.2-76.9-98.3-124.4-54.2zM109.7 231.5C90.9 212.6 49 152 49 152c-5.3-7.3 11.8-24.1 18.9-18.6l77.6 77.6c7.8 6.7 25.3-10.5 18.9-18.6l-73.3-82.6c-5.1-7.2 11.5-23.9 18.7-18.7l82.6 73.3c8.1 6.4 25.3-11 18.6-18.9l-77.6-77.6c-5.5-7.1 11.3-24.1 18.6-18.9 0 0 60.6 41.9 79.5 60.7 36.4 36.4 29.9 84.4-3.7 118-34.3 34.3-82.3 39.6-118.1 3.8zm345.5 161c11.2 9.9 11.7 27.3 1.1 37.8l-26 26c-10.6 10.6-27.9 10.1-37.8-1.1L317.9 371l48.5-57.1 88.8 78.6zM352.5 256L183 455.8c-10 10.7-27 11-37.4.6l-26-26c-10.4-10.4-10.1-27.4.7-37.4l364-338C501 39.5 528 51.4 528 74c0 108.8-45.5 182-175.5 182z"/></svg>